<svg width="603" height="347" viewBox="0 0 603 347" fill="none" xmlns="http://www.w3.org/2000/svg">
<path d="M89.2261 333.16C73.8167 320.827 61.5762 298.181 58.2312 274.784C55.4514 255.668 74.2985 223.765 92.6267 215.926C100.429 212.591 109.991 211.729 115.412 205.382C122.222 197.385 118.655 185.534 114.763 175.897C107.906 158.94 100.938 141.78 98.5106 123.729C96.0829 105.679 98.6311 86.3409 109.519 71.4226C119.823 57.2363 136.807 48.3224 154.477 45.0515C164.494 43.1982 175.585 43.1982 184.064 48.6559C192.82 54.2897 196.925 64.4082 202.198 73.1739C214.762 94.0595 240.614 110.238 264.576 103.01C279.069 98.6647 289.595 87.0358 300.464 76.8432C322.054 56.5321 349.101 39.6957 379.225 37.4255C409.349 35.1553 442.234 50.991 451.5 78.6223C458.681 100.045 451.945 126.379 467.252 143.485C475.944 153.186 489.787 157.161 499.517 165.899C519.263 183.643 524.98 220.569 506.309 238.832C483.19 261.45 482.402 305.464 504.455 334.059C490.39 334.115 448.998 326.081 434.96 326.081L89.2261 333.16Z" fill="url(#paint0_linear_124_200)"/>
<path d="M338.103 60.6739L337.371 62.5271L336.639 60.6739C336.421 60.1327 336.096 59.6412 335.684 59.2288C335.272 58.8164 334.78 58.4916 334.239 58.274L332.386 57.5327L334.239 56.8007C334.78 56.583 335.272 56.2582 335.684 55.8458C336.096 55.4334 336.421 54.9419 336.639 54.4008L337.371 52.5475L338.103 54.4008C338.321 54.9419 338.645 55.4334 339.058 55.8458C339.47 56.2582 339.962 56.583 340.503 56.8007L342.356 57.5327L340.503 58.274C339.962 58.4916 339.47 58.8164 339.058 59.2288C338.645 59.6412 338.321 60.1327 338.103 60.6739Z" fill="#F7F6EB"/>
<path d="M251.427 51.5468L250.695 53.4L249.963 51.5468C249.744 51.0065 249.419 50.5157 249.007 50.1034C248.594 49.6912 248.103 49.3659 247.563 49.1469L245.71 48.4149L247.563 47.6829C248.103 47.4638 248.594 47.1385 249.007 46.7263C249.419 46.3141 249.744 45.8232 249.963 45.283L250.695 43.4297L251.427 45.283C251.646 45.8232 251.971 46.3141 252.384 46.7263C252.796 47.1385 253.287 47.4638 253.827 47.6829L255.68 48.4149L253.827 49.1469C253.287 49.3659 252.796 49.6912 252.384 50.1034C251.971 50.5157 251.646 51.0065 251.427 51.5468Z" fill="#F7F6EB"/>
<path d="M190.021 4.87393L189.576 5.96733L189.141 4.87393C189.009 4.55132 188.814 4.25822 188.567 4.01166C188.32 3.7651 188.027 3.57 187.705 3.4377L186.611 3.00219L187.705 2.55743C188.031 2.42334 188.326 2.22443 188.573 1.97277C188.82 1.72111 189.013 1.42194 189.141 1.09339L189.576 0L190.021 1.09339C190.149 1.41847 190.343 1.71372 190.59 1.9608C190.837 2.20787 191.132 2.4015 191.457 2.52963L192.551 2.9744L191.457 3.4099C191.131 3.54257 190.834 3.74098 190.587 3.99282C190.34 4.24465 190.148 4.54456 190.021 4.87393Z" fill="#F7F6EB"/>
<path d="M374.88 64.5472L374.435 65.6406L373.999 64.5472C373.729 63.8973 373.213 63.3808 372.563 63.1109L371.47 62.6755L372.563 62.2307C372.887 62.0997 373.18 61.9051 373.427 61.6584C373.674 61.4116 373.868 61.1179 373.999 60.7944L374.435 59.701L374.88 60.7944C375.008 61.1195 375.201 61.4148 375.448 61.6619C375.696 61.9089 375.991 62.1025 376.316 62.2307L377.409 62.6755L376.316 63.1109C375.992 63.2419 375.699 63.4365 375.452 63.6832C375.205 63.93 375.011 64.2238 374.88 64.5472Z" fill="#F7F6EB"/>
<path d="M288.936 45.2924L288.501 46.3858L288.056 45.2924C287.928 44.9673 287.734 44.672 287.487 44.425C287.24 44.1779 286.945 43.9843 286.62 43.8561L285.526 43.4114L286.62 42.9759C286.943 42.8449 287.237 42.6503 287.484 42.4036C287.73 42.1568 287.925 41.863 288.056 41.5396L288.501 40.4462L288.936 41.5396C289.069 41.8622 289.264 42.1553 289.51 42.4019C289.757 42.6484 290.05 42.8435 290.372 42.9759L291.466 43.4114L290.372 43.8561C290.048 43.9857 289.754 44.1798 289.507 44.4267C289.26 44.6736 289.066 44.9681 288.936 45.2924Z" fill="#F7F6EB"/>
<path d="M277.475 99.7673L278.929 96.1536L280.384 99.7673C280.814 100.84 281.457 101.814 282.274 102.631C283.091 103.448 284.065 104.091 285.138 104.521L288.761 105.976L285.138 107.43C284.065 107.86 283.091 108.503 282.274 109.32C281.457 110.137 280.814 111.111 280.384 112.184L278.929 115.798L277.475 112.184C277.044 111.111 276.401 110.137 275.585 109.32C274.768 108.503 273.793 107.86 272.721 107.43L269.107 105.976L272.721 104.521C273.793 104.091 274.768 103.448 275.585 102.631C276.401 101.814 277.044 100.84 277.475 99.7673Z" fill="#F7F6EB"/>
<path d="M348.314 82.9402L349.768 79.3172L351.223 82.9402C351.655 84.0117 352.298 84.985 353.115 85.8019C353.932 86.6187 354.905 87.2621 355.977 87.6937L359.59 89.1485L355.995 90.6032C354.924 91.0333 353.951 91.6752 353.134 92.4904C352.318 93.3056 351.674 94.2774 351.242 95.3474L349.787 98.9705L348.332 95.3474C347.9 94.2774 347.256 93.3056 346.439 92.4904C345.623 91.6752 344.649 91.0333 343.579 90.6032L339.965 89.1485L343.579 87.6937C344.647 87.2601 345.616 86.6156 346.43 85.7989C347.243 84.9822 347.884 84.01 348.314 82.9402Z" fill="#F7F6EB"/>
<path d="M243.014 61.1557L244.117 58.4222L245.21 61.1557C245.537 61.9662 246.023 62.7025 246.641 63.3203C247.259 63.9381 247.995 64.4247 248.806 64.7509L251.539 65.8536L248.806 66.947C247.995 67.2732 247.259 67.7599 246.641 68.3777C246.023 68.9955 245.537 69.7317 245.21 70.5422L244.117 73.322L243.014 70.5422C242.688 69.7317 242.201 68.9955 241.584 68.3777C240.966 67.7599 240.23 67.2732 239.419 66.947L236.686 65.8536L239.419 64.7509C240.23 64.4247 240.966 63.9381 241.584 63.3203C242.201 62.7025 242.688 61.9662 243.014 61.1557Z" fill="#F7F6EB"/>
<path d="M385.646 4.12332L386.748 1.34351L387.851 4.12332C388.177 4.93125 388.663 5.66518 389.279 6.28128C389.895 6.89739 390.629 7.38305 391.437 7.70927L394.17 8.81193L391.437 9.91459C390.629 10.2408 389.895 10.7265 389.279 11.3426C388.663 11.9587 388.177 12.6926 387.851 13.5005L386.748 16.2804L385.646 13.5005C385.319 12.6926 384.834 11.9587 384.218 11.3426C383.602 10.7265 382.868 10.2408 382.06 9.91459L379.326 8.81193L382.06 7.70927C382.868 7.38305 383.602 6.89739 384.218 6.28128C384.834 5.66518 385.319 4.93125 385.646 4.12332Z" fill="#F7F6EB"/>
<path d="M298.915 346.114C415.763 346.114 510.486 340.995 510.486 334.68C510.486 328.365 415.763 323.245 298.915 323.245C182.067 323.245 87.3438 328.365 87.3438 334.68C87.3438 340.995 182.067 346.114 298.915 346.114Z" fill="#E78357" fill-opacity="0.3"/>
<path d="M500.544 166.242C508.244 161.748 516.602 157.643 525.563 157.559C534.523 157.476 544.011 162.554 546.393 171.153C548.496 178.751 544.539 186.979 538.581 192.196C532.623 197.413 525.099 200.294 517.788 203.26C480.252 218.521 434.709 242.177 402.778 267.103C408.811 262.395 416.297 240.092 429.196 227.546C435.154 221.764 439.842 217.631 445.439 211.516C461.627 193.882 479.872 178.297 500.544 166.242Z" fill="#99B2FA"/>
<path d="M532.643 172.988C489.714 191.436 438.676 223.645 404.327 264.462" stroke="#E8E8E8" stroke-width="0.71" stroke-linecap="round" stroke-linejoin="round"/>
<path d="M64.606 223.098C55.7477 222.107 46.4353 221.727 38.2534 225.257C30.0715 228.788 23.4278 237.303 24.6972 246.115C25.8462 253.917 32.8328 259.82 40.3475 262.201C47.8623 264.582 55.9515 264.156 63.8369 263.915C104.339 262.701 155.571 265.889 194.84 275.794C187.427 273.941 171.545 256.567 154.644 250.322C146.861 247.44 140.903 245.559 133.332 242.233C111.372 232.642 88.4104 225.758 64.606 223.098Z" fill="#CF88EB"/>
<path d="M37.9941 242.242C84.7227 241.76 144.433 250.581 192.348 274.024" stroke="#E8E8E8" stroke-width="0.71" stroke-linecap="round" stroke-linejoin="round"/>
<path d="M387.795 94.2633C391.826 86.313 396.607 78.3257 404.048 73.4147C411.488 68.5037 422.256 67.5864 428.927 73.5166C434.82 78.7519 435.923 87.8327 433.792 95.4308C431.661 103.029 426.87 109.506 422.348 115.992C399.109 149.211 373.692 193.827 360.442 232.068C362.934 224.859 357.134 202.037 361.174 184.487C363.027 176.397 364.732 170.384 366.113 162.202C370.106 138.629 376.963 115.631 387.795 94.2633Z" fill="#54D9FF"/>
<path d="M418.393 82.5047C392.364 121.32 366.994 176.092 360.322 229.01" stroke="#E8E8E8" stroke-width="0.71" stroke-linecap="round" stroke-linejoin="round"/>
<path d="M290.485 95.2363C292.977 114.019 312.315 126.444 317.273 144.726C312.234 136.845 306.257 129.604 299.473 123.164C296.693 120.477 293.589 117.873 289.892 116.678C286.195 115.483 281.7 115.937 279.023 118.763C275.993 121.969 276.187 127.25 278.374 131.077C280.561 134.904 284.304 137.564 288.057 139.852C294.84 144.031 302.086 147.497 308.739 152C315.392 156.503 321.48 162.091 324.899 169.318C316.658 161.556 307.109 155.313 296.693 150.879C293.719 149.619 290.55 148.479 287.334 148.785C284.119 149.09 280.848 151.24 280.264 154.409C279.999 156.409 280.491 158.435 281.645 160.089C285.991 166.937 295.22 168.141 303.022 170.365C313.69 173.415 323.268 179.441 330.634 187.739L313.464 179.761C308.831 177.593 303.911 175.378 298.769 175.526C295.414 175.619 291.56 177.38 291.096 180.688C290.79 182.884 292.125 184.996 293.737 186.535C298.37 190.927 305.069 192.02 311.259 193.503C322.832 196.282 332.126 198.96 343.839 207.624C345.293 208.106 347.934 206.373 347.545 204.047C347.156 201.722 345.784 198.21 345.247 195.902C343.505 188.425 346.387 176.926 351.344 169.643C356.301 162.359 360.221 158.412 366.031 151.796C367.532 150.091 369.005 148.229 369.441 146.005C369.876 143.781 368.94 141.131 366.818 140.343C365.361 139.931 363.801 140.097 362.463 140.807C357.728 142.873 354.467 147.219 351.418 151.388L341.225 165.38C340.438 166.455 339.233 167.669 338.001 167.178C341.883 152.398 354.921 141.418 359.137 126.722C359.795 124.434 360.175 121.83 358.924 119.81C356.728 116.27 350.936 117.15 348.203 120.292C345.469 123.433 344.802 127.806 343.727 131.828C341.538 139.954 337.294 147.379 331.403 153.39C329.55 153.149 329.643 150.425 330.301 148.674C333.173 141.029 336.657 133.57 338.64 125.647C340.623 117.725 341.086 109.098 337.908 101.556C337.151 99.4445 335.78 97.6082 333.97 96.2834C332.117 95.088 329.421 94.9305 327.771 96.4224C327.024 97.1774 326.46 98.0934 326.122 99.1002C320.646 112.721 327.243 128.474 323.87 142.771C322.786 134.589 320.822 124.332 317.801 116.048C316.06 111.757 313.988 107.609 311.602 103.641C308.053 97.6825 305.616 93.8001 300.121 89.9454C296.081 87.1563 289.679 89.1207 290.485 95.2363Z" fill="#AA246E"/>
<path d="M47.7321 178.214C59.2312 193.271 82.1832 194.448 95.5633 207.865C87.2751 203.53 78.4916 200.216 69.4053 197.997C65.6248 197.07 61.6775 196.338 57.8598 197.125C54.0422 197.913 50.3822 200.554 49.5204 204.344C48.4826 208.625 51.2717 213.109 55.08 215.343C58.8884 217.576 63.4195 218.011 67.8394 218.122C75.8267 218.373 83.8418 217.817 91.8106 218.4C99.7794 218.984 107.878 220.828 114.438 225.396C103.428 222.754 92.0374 222.083 80.7933 223.413C77.5872 223.793 74.3071 224.386 71.6292 226.258C68.9513 228.13 67.2371 231.595 68.2934 234.644C69.0556 236.512 70.4906 238.026 72.3149 238.888C79.4868 242.668 88.0671 239.128 95.971 237.173C106.746 234.525 118.051 234.994 128.569 238.526L109.675 240.157C104.551 240.592 99.2141 241.084 94.8498 243.78C91.9774 245.522 89.4941 248.96 90.7543 252.119C91.5882 254.176 93.7935 255.353 95.9525 255.881C102.133 257.392 108.508 255.01 114.624 253.213C126.03 249.868 135.435 247.588 149.909 249.284C151.41 248.978 152.837 246.161 151.308 244.354C149.779 242.548 146.888 240.166 145.276 238.433C140.05 232.809 136.825 221.393 137.52 212.609C138.215 203.825 139.642 198.46 141.393 189.824C141.838 187.6 142.19 185.256 141.467 183.106C140.744 180.956 138.613 179.122 136.38 179.492C134.912 179.868 133.641 180.785 132.822 182.059C129.746 186.21 129.116 191.603 128.504 196.736C127.886 202.475 127.25 208.217 126.595 213.962C126.447 215.278 126.002 216.927 124.686 217.122C120.702 202.361 126.54 186.349 122.917 171.505C122.351 169.198 121.397 166.742 119.303 165.612C115.643 163.629 111.047 167.28 110.241 171.366C109.435 175.452 111.028 179.576 112.094 183.597C114.223 191.741 114.223 200.295 112.094 208.439C110.37 209.144 109.101 206.734 108.804 204.89C107.489 196.82 106.812 188.619 104.616 180.752C102.42 172.886 98.5099 165.176 92.0144 160.219C90.3094 158.766 88.2086 157.856 85.9823 157.606C83.7677 157.495 81.3492 158.69 80.6728 160.812C80.3994 161.834 80.3614 162.905 80.5616 163.944C82.5816 178.492 96.1378 188.888 100.317 202.963C95.3132 196.393 88.5119 188.48 81.7847 182.791C78.1431 179.93 74.2827 177.358 70.2393 175.1C64.1978 171.7 60.1578 169.541 53.477 168.929C48.5753 168.419 43.9793 173.303 47.7321 178.214Z" fill="#AA246E"/>
<path d="M477.667 35.841C473.612 34.8 469.315 35.3157 465.621 37.2865C465.887 36.901 466.117 36.4915 466.307 36.0634C464.04 36.6585 461.717 37.0187 459.376 37.1382C451.963 37.4811 444.291 34.8217 439.13 29.7254C437.082 34.2463 436.377 39.2609 437.1 44.1711C437.749 49.2397 439.324 52.1214 441.465 56.7637C442.859 59.4353 445.158 61.524 447.951 62.6569C454.91 65.8166 461.322 66.076 468.114 65.4367C470.511 65.334 472.856 64.7011 474.98 63.5835C476.034 63.0099 476.932 62.1891 477.599 61.1917C478.265 60.1943 478.68 59.05 478.807 57.8571C478.797 57.0064 478.605 56.1679 478.242 55.3982C477.88 54.6286 477.356 53.946 476.706 53.3966C476.057 52.8473 475.297 52.4441 474.478 52.2145C473.659 51.9849 472.8 51.9342 471.959 52.0658C474.665 50.5925 477.704 49.7122 480.169 47.859C482.634 46.0058 484.45 42.7349 483.319 39.8717C482.365 37.6942 479.993 36.4155 477.667 35.841Z" fill="#FEF640"/>
<path d="M459.329 37.1383C461.67 37.0187 463.993 36.6586 466.26 36.0634C466.753 35.0092 467.007 33.8587 467.002 32.6948C466.997 31.5309 466.735 30.3825 466.233 29.3323C465.732 28.282 465.004 27.3559 464.101 26.6207C463.199 25.8854 462.145 25.3593 461.015 25.0802C459.885 24.801 458.708 24.7757 457.567 25.0062C456.426 25.2366 455.35 25.717 454.417 26.4129C453.484 27.1087 452.717 28.0027 452.171 29.0305C451.625 30.0583 451.313 31.1944 451.259 32.357C451.852 28.7618 449.711 24.379 446.07 24.1566C443.095 23.9805 440.668 26.5472 439.296 29.1973C439.222 29.3456 439.157 29.5123 439.083 29.6699C444.244 34.8218 451.954 37.4811 459.329 37.1383Z" fill="#FEF640"/>
<path d="M441.928 59.2192C439.326 56.089 437.503 52.3863 436.61 48.4151C436.423 47.8138 436.404 47.1732 436.554 46.5618C436.645 46.2696 436.833 46.0177 437.088 45.8488C437.343 45.6799 437.649 45.6045 437.953 45.6352C438.414 45.7957 438.796 46.1275 439.019 46.5618C440.188 48.4121 441.066 50.4309 441.623 52.5477C440.231 48.9753 440.004 45.0543 440.974 41.3451C441.178 40.5853 441.558 39.7235 442.327 39.5753C443.383 39.3714 444.078 40.6594 444.319 41.7064C445.153 45.2515 445.2 48.936 444.458 52.5014C446.266 49.4631 448.772 46.8997 451.769 45.0237C452.137 44.7037 452.571 44.4696 453.041 44.3382C453.51 44.2068 454.003 44.1814 454.484 44.2639C454.96 44.4772 455.352 44.8441 455.595 45.3061C455.839 45.768 455.921 46.2982 455.827 46.812C455.617 47.8448 455.137 48.8038 454.438 49.5918C452.271 52.3755 449.664 54.7856 446.719 56.7267C449.753 55.075 453.142 54.1817 456.597 54.1229C457.487 54.0561 458.381 54.1957 459.21 54.5306C459.62 54.7058 459.974 54.9902 460.234 55.353C460.494 55.7157 460.649 56.1428 460.683 56.5877C460.683 58.0332 459.108 58.9042 457.736 59.3675C454.804 60.3218 451.739 60.8034 448.656 60.7945C451.619 60.8899 454.53 61.6065 457.199 62.8979C458.033 63.2963 458.969 64.0561 458.7 64.9364C454.79 66.3726 450.499 64.714 446.654 63.0832C444.777 62.2167 443.151 60.887 441.928 59.2192Z" fill="#84246E"/>
<path d="M442.169 58.3667C437.758 60.3218 433.95 63.3982 430.308 66.5486C418.726 76.5652 408.07 87.7956 399.786 100.657C391.502 113.518 385.572 128.094 383.858 143.281C382.931 151.62 383.237 160.136 383.561 168.558" stroke="#84246E" stroke-width="2.13" stroke-miterlimit="10"/>
<path d="M440.177 59.7844C440.375 60.0298 440.613 60.2397 440.881 60.4052C441.274 60.6041 441.697 60.7387 442.132 60.8037C442.596 60.8871 443.151 60.9612 443.476 60.6184C443.647 60.4118 443.745 60.1543 443.754 59.8863C443.838 58.9324 443.593 57.9784 443.058 57.184C442.523 56.3895 441.732 55.8028 440.816 55.522C438.203 54.8364 439.306 58.7466 440.177 59.7844Z" fill="#84246E"/>
<path d="M104.579 89.4265C126.818 91.7615 147.203 103.909 163.335 119.43C179.467 134.95 191.986 153.798 204.346 172.515" stroke="#84246E" stroke-width="1.46" stroke-miterlimit="10"/>
<path d="M96.444 91.4279C98.566 91.9005 100.762 91.3816 102.865 90.8627L107.545 89.7137C105.575 87.815 103.309 86.2501 100.836 85.0807C98.881 84.2746 94.4055 83.4777 92.8303 85.5162C90.9122 87.981 94.2109 90.9739 96.444 91.4279Z" fill="#84246E"/>
<path d="M109.62 94.3374C108.448 95.0447 107.451 96.0082 106.705 97.1556C105.959 98.3031 105.482 99.6046 105.311 100.963C105.144 103.186 106.367 105.688 108.536 106.207C110.704 106.726 112.863 105.151 114.243 103.372C116.189 100.883 117.385 97.89 117.69 94.7451C117.913 92.3916 117.375 91.7337 115.161 92.197C113.199 92.5667 111.321 93.2921 109.62 94.3374Z" fill="#84246E"/>
<path d="M121.204 87.5917C120.424 85.3367 120.271 82.9127 120.759 80.5774C121.001 79.3262 121.653 78.1915 122.612 77.3528C123.096 76.9476 123.696 76.7068 124.326 76.6652C124.955 76.6235 125.582 76.7832 126.115 77.1211C126.571 77.5 126.93 77.983 127.162 78.5296C128.941 82.236 128.023 86.6373 126.735 90.5754C126.512 91.3514 126.171 92.0888 125.725 92.7622C125.058 93.6888 124.697 94.0224 124.002 93.0772C122.79 91.4053 121.846 89.5546 121.204 87.5917Z" fill="#84246E"/>
<path d="M182.802 131.541C184.191 129.593 186.084 128.062 188.278 127.111C189.434 126.568 190.738 126.424 191.985 126.704C192.596 126.86 193.141 127.206 193.543 127.692C193.944 128.179 194.181 128.78 194.218 129.409C194.178 130 193.996 130.571 193.69 131.077C191.716 134.691 187.611 136.516 183.683 137.74C182.925 138.019 182.127 138.175 181.32 138.203C180.171 138.203 179.698 138.101 180.06 136.989C180.685 135.041 181.61 133.203 182.802 131.541Z" fill="#84246E"/>
<path d="M174.547 122.525C175.717 120.449 177.431 118.731 179.505 117.558C180.589 116.903 181.861 116.629 183.118 116.78C183.741 116.875 184.317 117.165 184.765 117.607C185.212 118.05 185.509 118.623 185.611 119.245C185.631 119.84 185.507 120.431 185.249 120.968C183.656 124.749 179.755 126.982 175.983 128.594C175.254 128.942 174.476 129.18 173.676 129.298C172.527 129.409 172.055 129.354 172.296 128.205C172.746 126.206 173.506 124.289 174.547 122.525Z" fill="#84246E"/>
<path d="M163.391 127.843C162.271 129.947 160.595 131.704 158.545 132.921C157.477 133.603 156.211 133.906 154.95 133.783C154.325 133.703 153.741 133.427 153.283 132.994C152.825 132.561 152.516 131.994 152.402 131.374C152.37 130.782 152.482 130.191 152.726 129.65C154.236 125.823 158.091 123.507 161.834 121.811C162.555 121.447 163.327 121.194 164.123 121.061C165.263 120.922 165.745 120.968 165.522 122.117C165.118 124.126 164.399 126.059 163.391 127.843Z" fill="#84246E"/>
<path d="M165.467 114.139C165.98 111.81 167.117 109.664 168.756 107.931C169.6 106.989 170.735 106.356 171.981 106.133C172.603 106.037 173.24 106.143 173.799 106.435C174.357 106.726 174.808 107.189 175.085 107.755C175.28 108.317 175.337 108.917 175.252 109.506C174.835 113.592 171.758 116.872 168.617 119.523C168.021 120.068 167.346 120.521 166.616 120.866C165.55 121.311 165.078 121.404 164.976 120.227C164.823 118.184 164.989 116.131 165.467 114.139Z" fill="#84246E"/>
<path d="M145.49 101.167C144.714 98.9139 144.563 96.4928 145.054 94.1614C145.29 92.908 145.943 91.7714 146.908 90.9368C147.389 90.531 147.987 90.2889 148.615 90.2456C149.243 90.2023 149.869 90.36 150.401 90.6959C150.858 91.0748 151.217 91.5578 151.448 92.1043C153.227 95.8107 152.319 100.212 151.022 104.15C150.801 104.929 150.464 105.669 150.021 106.346C149.345 107.273 148.993 107.597 148.298 106.652C147.079 104.983 146.131 103.131 145.49 101.167Z" fill="#84246E"/>
<path d="M191.18 141.696C192.499 139.698 194.338 138.096 196.498 137.063C197.642 136.483 198.948 136.306 200.205 136.563C200.819 136.701 201.373 137.031 201.787 137.506C202.2 137.981 202.451 138.576 202.503 139.204C202.482 139.797 202.316 140.375 202.021 140.89C200.168 144.541 196.081 146.45 192.19 147.803C191.437 148.098 190.643 148.276 189.836 148.331C188.687 148.331 188.214 148.266 188.548 147.145C189.136 145.202 190.024 143.364 191.18 141.696Z" fill="#84246E"/>
<path d="M143.238 108.83C140.94 109.46 138.857 110.707 137.215 112.434C136.319 113.331 135.748 114.502 135.594 115.761C135.531 116.386 135.67 117.016 135.99 117.558C136.31 118.099 136.794 118.525 137.373 118.772C137.943 118.933 138.544 118.956 139.124 118.837C143.192 118.207 146.305 114.964 148.779 111.683C149.296 111.062 149.714 110.365 150.021 109.617C150.401 108.533 150.466 108.06 149.298 108.014C147.248 107.969 145.204 108.244 143.238 108.83Z" fill="#84246E"/>
<path d="M184.814 153.603C182.515 154.234 180.433 155.48 178.791 157.208C177.892 158.104 177.318 159.275 177.16 160.534C177.098 161.161 177.238 161.791 177.56 162.333C177.882 162.875 178.368 163.3 178.948 163.546C179.518 163.711 180.119 163.733 180.699 163.61C184.758 162.98 187.871 159.737 190.355 156.457C190.873 155.837 191.292 155.14 191.596 154.391C191.976 153.307 192.041 152.834 190.873 152.788C188.823 152.743 186.779 153.018 184.814 153.603Z" fill="#84246E"/>
<path d="M137.169 107.514C135.983 109.582 134.261 111.291 132.184 112.462C131.093 113.108 129.818 113.372 128.561 113.212C127.939 113.115 127.363 112.823 126.917 112.378C126.471 111.934 126.177 111.36 126.077 110.738C126.062 110.146 126.189 109.558 126.448 109.024C128.06 105.244 132.008 103.029 135.77 101.435C136.5 101.093 137.278 100.862 138.077 100.75C139.217 100.648 139.698 100.703 139.448 101.843C138.986 103.84 138.217 105.753 137.169 107.514Z" fill="#84246E"/>
<path d="M179.774 145.44C178.756 147.22 177.273 148.69 175.484 149.693C174.55 150.256 173.452 150.485 172.371 150.342C171.834 150.26 171.338 150.01 170.955 149.626C170.571 149.243 170.32 148.747 170.239 148.21C170.22 147.701 170.329 147.194 170.555 146.737C171.944 143.485 175.308 141.585 178.57 140.251C179.2 139.953 179.871 139.753 180.562 139.658C181.544 139.565 181.952 139.611 181.739 140.584C181.341 142.295 180.678 143.934 179.774 145.44Z" fill="#84246E"/>
<path d="M118.664 101.167C117.998 102.23 117.612 103.444 117.543 104.697C117.514 105.321 117.645 105.943 117.926 106.501C118.207 107.059 118.627 107.536 119.146 107.884C119.823 108.259 120.607 108.393 121.37 108.264C122.159 108.108 122.905 107.786 123.559 107.317C124.213 106.849 124.758 106.246 125.16 105.549C125.952 104.154 126.5 102.635 126.781 101.055C127.189 99.2022 127.791 94.2819 124.641 95.5791C122.078 96.7184 119.973 98.6864 118.664 101.167Z" fill="#84246E"/>
<path d="M164.337 134.005C163.681 135.07 163.296 136.279 163.215 137.526C163.192 138.152 163.328 138.773 163.61 139.332C163.892 139.891 164.311 140.37 164.828 140.723C165.505 141.098 166.289 141.232 167.052 141.103C167.839 140.947 168.584 140.624 169.236 140.156C169.889 139.687 170.433 139.085 170.832 138.388C171.632 136.997 172.181 135.476 172.454 133.894C172.871 132.041 173.473 127.121 170.322 128.418C167.757 129.557 165.649 131.524 164.337 134.005Z" fill="#84246E"/>
<path d="M140.235 90.6866C140.049 89.446 139.552 88.2727 138.79 87.2767C138.409 86.7802 137.905 86.3917 137.328 86.1496C136.751 85.9075 136.121 85.8201 135.5 85.8961C134.741 86.0483 134.057 86.4573 133.563 87.0543C133.065 87.6848 132.708 88.4143 132.514 89.1941C132.321 89.9739 132.297 90.786 132.442 91.5761C132.752 93.1499 133.325 94.6599 134.138 96.0424C135.065 97.7473 137.77 101.852 139.318 98.8222C140.53 96.2908 140.853 93.4244 140.235 90.6866Z" fill="#84246E"/>
<path d="M203.559 155.382C204.626 154.721 205.514 153.808 206.144 152.723C206.449 152.178 206.61 151.564 206.61 150.939C206.61 150.314 206.449 149.7 206.144 149.155C205.695 148.514 205.042 148.044 204.291 147.821C203.512 147.603 202.695 147.554 201.896 147.679C201.097 147.804 200.334 148.099 199.658 148.544C198.323 149.43 197.153 150.543 196.202 151.833C194.979 153.343 192.254 157.439 195.655 157.689C198.474 157.827 201.257 157.014 203.559 155.382Z" fill="#84246E"/>
<path d="M188.132 164.509C187.157 165.297 186.395 166.316 185.917 167.474C185.684 168.055 185.605 168.686 185.688 169.306C185.771 169.926 186.013 170.514 186.389 171.014C186.904 171.59 187.601 171.973 188.363 172.098C189.158 172.21 189.968 172.151 190.739 171.924C191.509 171.697 192.222 171.308 192.829 170.782C194.036 169.729 195.052 168.475 195.832 167.076C196.851 165.426 199.019 161.016 195.609 161.201C192.816 161.434 190.183 162.599 188.132 164.509Z" fill="#84246E"/>
<path d="M148.073 116.808C147.075 117.565 146.284 118.562 145.775 119.708C145.527 120.282 145.431 120.909 145.496 121.531C145.561 122.152 145.785 122.747 146.146 123.257C146.646 123.849 147.332 124.254 148.092 124.406C148.882 124.539 149.692 124.501 150.467 124.297C151.242 124.092 151.964 123.725 152.586 123.22C153.827 122.199 154.881 120.97 155.699 119.587C156.765 117.966 159.054 113.62 155.653 113.713C152.851 113.866 150.182 114.956 148.073 116.808Z" fill="#84246E"/>
<path d="M108.36 80.7813C108.221 80.2306 108.214 79.6548 108.339 79.1009C108.465 78.5469 108.72 78.0305 109.083 77.5937C109.602 77.1993 110.242 76.9966 110.894 77.0203C111.546 77.0439 112.17 77.2924 112.659 77.7235C113.613 78.6157 114.303 79.754 114.652 81.0129C115.624 83.7914 116.229 86.6854 116.449 89.6211C116.518 90.0513 116.474 90.4922 116.319 90.8998C115.458 92.6881 112.103 88.296 111.483 87.5177C109.869 85.585 108.792 83.2618 108.36 80.7813Z" fill="#84246E"/>
<path d="M155.598 104.53C155.607 102.258 156.094 100.014 157.025 97.942C157.959 95.8598 159.601 94.1757 161.658 93.1885C162.358 92.8255 163.14 92.65 163.927 92.6792C164.715 92.7085 165.481 92.9414 166.152 93.3553C167.505 94.3746 167.792 96.2648 167.727 97.9883C167.478 102.589 165.444 106.911 162.057 110.034C161.01 111.007 157.785 113.861 156.692 112.814C156.024 112.165 155.923 109.728 155.765 108.802C155.583 107.386 155.527 105.956 155.598 104.53Z" fill="#84246E"/>
<path d="M547.626 239.23C526.74 231.132 503.149 232.651 481.652 239.082C460.155 245.513 440.464 256.558 420.932 267.529" stroke="#84246E" stroke-width="1.46" stroke-miterlimit="10"/>
<path d="M553.937 244.716C551.843 244.16 550.128 242.696 548.488 241.269L544.847 238.109C547.471 237.32 550.206 236.96 552.945 237.044C555.049 237.22 559.431 238.554 559.867 241.084C560.432 244.178 556.142 245.3 553.937 244.716Z" fill="#84246E"/>
<path d="M540.889 241.278C541.611 242.441 542.059 243.753 542.198 245.114C542.338 246.475 542.166 247.851 541.695 249.136C540.824 251.202 538.6 252.842 536.432 252.333C534.264 251.823 533.069 249.414 532.652 247.208C532.057 244.1 532.359 240.886 533.523 237.942C534.403 235.737 535.181 235.403 536.942 236.821C538.52 238.051 539.859 239.562 540.889 241.278Z" fill="#84246E"/>
<path d="M533.67 229.965C535.395 228.318 536.638 226.233 537.265 223.932C537.636 222.716 537.587 221.411 537.126 220.226C536.884 219.644 536.462 219.155 535.922 218.83C535.382 218.505 534.752 218.361 534.124 218.419C533.546 218.549 533.007 218.812 532.549 219.188C529.269 221.671 528.074 226.008 527.443 230.066C527.286 230.859 527.249 231.672 527.332 232.476C527.508 233.615 527.675 234.06 528.722 233.541C530.549 232.616 532.218 231.409 533.67 229.965Z" fill="#84246E"/>
<path d="M458.792 240.935C458.47 238.578 457.508 236.355 456.012 234.505C455.24 233.498 454.155 232.777 452.927 232.457C452.314 232.316 451.672 232.374 451.094 232.623C450.516 232.871 450.032 233.296 449.711 233.838C449.479 234.384 449.377 234.978 449.415 235.57C449.517 239.675 452.343 243.187 455.271 246.069C455.81 246.656 456.435 247.159 457.124 247.561C458.153 248.08 458.616 248.209 458.801 247.051C459.118 245.025 459.115 242.961 458.792 240.935Z" fill="#84246E"/>
<path d="M470.263 236.691C470.17 234.311 469.43 232.002 468.123 230.011C467.46 228.929 466.451 228.102 465.26 227.666C464.663 227.463 464.017 227.454 463.416 227.643C462.814 227.831 462.288 228.206 461.914 228.713C461.626 229.233 461.467 229.815 461.451 230.409C461.136 234.505 463.592 238.276 466.223 241.436C466.711 242.081 467.295 242.647 467.956 243.113C468.883 243.734 469.364 243.91 469.67 242.779C470.181 240.793 470.381 238.739 470.263 236.691Z" fill="#84246E"/>
<path d="M477.75 246.514C477.786 248.899 478.475 251.229 479.742 253.25C480.374 254.338 481.353 255.183 482.522 255.65C483.113 255.867 483.759 255.89 484.364 255.715C484.969 255.54 485.502 255.176 485.886 254.677C486.186 254.167 486.358 253.591 486.386 253C486.794 248.904 484.422 245.077 481.864 241.88C481.392 241.227 480.823 240.649 480.178 240.166C479.251 239.527 478.779 239.342 478.445 240.463C477.897 242.431 477.663 244.473 477.75 246.514Z" fill="#84246E"/>
<path d="M482.16 233.374C482.772 231.072 482.743 228.647 482.077 226.36C481.767 225.128 481.044 224.039 480.029 223.274C479.52 222.904 478.907 222.704 478.278 222.704C477.648 222.704 477.035 222.904 476.526 223.274C476.108 223.691 475.79 224.198 475.6 224.757C474.108 228.584 475.34 232.911 476.925 236.701C477.205 237.46 477.598 238.173 478.092 238.813C478.834 239.684 479.214 239.981 479.834 238.99C480.897 237.25 481.682 235.356 482.16 233.374Z" fill="#84246E"/>
<path d="M505.845 230.993C507.572 229.348 508.815 227.262 509.44 224.961C509.813 223.745 509.764 222.439 509.301 221.254C509.063 220.666 508.643 220.17 508.104 219.836C507.564 219.503 506.932 219.351 506.299 219.401C505.719 219.53 505.179 219.797 504.724 220.179C501.444 222.653 500.248 226.99 499.618 231.058C499.461 231.848 499.424 232.657 499.507 233.458C499.683 234.597 499.85 235.051 500.897 234.523C502.721 233.613 504.391 232.422 505.845 230.993Z" fill="#84246E"/>
<path d="M446.7 246.134C446.428 243.773 445.518 241.53 444.068 239.647C443.324 238.621 442.257 237.874 441.038 237.525C440.428 237.368 439.785 237.41 439.2 237.643C438.615 237.876 438.12 238.289 437.786 238.823C437.535 239.361 437.417 239.953 437.443 240.546C437.443 244.66 440.223 248.237 443.002 251.193C443.539 251.796 444.164 252.315 444.856 252.731C445.866 253.278 446.329 253.417 446.542 252.268C446.921 250.244 446.974 248.174 446.7 246.134Z" fill="#84246E"/>
<path d="M504.363 238.813C506.116 240.426 507.398 242.486 508.069 244.771C508.46 245.98 508.434 247.286 507.995 248.478C507.761 249.061 507.348 249.555 506.815 249.888C506.282 250.221 505.657 250.376 505.03 250.331C504.448 250.219 503.904 249.964 503.445 249.59C500.119 247.181 498.812 242.863 498.127 238.813C497.949 238.026 497.896 237.217 497.969 236.413C498.117 235.274 498.284 234.82 499.341 235.32C501.189 236.212 502.884 237.391 504.363 238.813Z" fill="#84246E"/>
<path d="M446.931 259.616C448.685 261.228 449.967 263.288 450.637 265.574C451.027 266.782 451.004 268.086 450.573 269.28C450.339 269.863 449.925 270.357 449.392 270.69C448.859 271.023 448.234 271.179 447.607 271.133C447.026 271.012 446.481 270.758 446.014 270.392C442.687 267.974 441.381 263.665 440.695 259.616C440.523 258.825 440.469 258.013 440.537 257.207C440.695 256.067 440.853 255.613 441.909 256.113C443.754 257.014 445.448 258.195 446.931 259.616Z" fill="#84246E"/>
<path d="M510.376 240.416C510.479 242.796 511.229 245.102 512.544 247.088C513.216 248.161 514.227 248.98 515.416 249.414C516.015 249.615 516.662 249.621 517.263 249.429C517.865 249.237 518.39 248.859 518.761 248.348C519.043 247.826 519.199 247.245 519.215 246.652C519.503 242.557 517.029 238.795 514.388 235.654C513.899 235.009 513.311 234.446 512.646 233.986C511.719 233.365 511.228 233.198 510.932 234.328C510.428 236.316 510.24 238.37 510.376 240.416Z" fill="#84246E"/>
<path d="M455.142 254.677C455.225 256.725 455.866 258.711 456.995 260.422C457.573 261.349 458.444 262.056 459.469 262.433C459.984 262.604 460.541 262.607 461.057 262.44C461.574 262.274 462.024 261.946 462.342 261.506C462.588 261.06 462.722 260.561 462.731 260.051C462.981 256.521 460.878 253.287 458.58 250.581C458.158 250.03 457.655 249.546 457.088 249.145C456.254 248.617 455.865 248.469 455.605 249.442C455.184 251.153 455.027 252.918 455.142 254.677Z" fill="#84246E"/>
<path d="M529.752 243.178C529.855 244.427 529.645 245.682 529.14 246.829C528.882 247.4 528.48 247.894 527.973 248.263C527.466 248.632 526.872 248.862 526.249 248.932C525.477 248.957 524.719 248.718 524.099 248.256C523.468 247.758 522.952 247.131 522.584 246.416C522.216 245.701 522.006 244.916 521.968 244.114C521.899 242.512 522.106 240.91 522.58 239.379C523.08 237.525 524.776 232.892 526.981 235.487C528.738 237.669 529.713 240.377 529.752 243.178Z" fill="#84246E"/>
<path d="M474.1 251.563C474.199 252.813 473.985 254.068 473.479 255.214C473.219 255.782 472.817 256.274 472.313 256.642C471.808 257.01 471.218 257.243 470.597 257.318C469.821 257.339 469.06 257.097 468.438 256.632C467.811 256.134 467.297 255.507 466.932 254.795C466.566 254.082 466.356 253.299 466.316 252.499C466.242 250.894 466.449 249.289 466.928 247.755C467.419 245.902 469.115 241.269 471.329 243.863C473.087 246.048 474.063 248.759 474.1 251.563Z" fill="#84246E"/>
<path d="M515.37 224.043C516.1 223.026 517.075 222.21 518.205 221.671C518.772 221.405 519.397 221.29 520.021 221.339C520.645 221.388 521.246 221.598 521.764 221.949C522.366 222.432 522.787 223.105 522.959 223.858C523.111 224.648 523.091 225.462 522.901 226.244C522.711 227.025 522.354 227.757 521.856 228.389C520.871 229.658 519.67 230.743 518.307 231.595C516.723 232.698 512.433 235.098 512.433 231.688C512.526 228.882 513.56 226.189 515.37 224.043Z" fill="#84246E"/>
<path d="M429.446 252.657C428.795 251.586 428.419 250.369 428.353 249.117C428.331 248.493 428.47 247.873 428.757 247.317C429.044 246.762 429.47 246.291 429.993 245.948C430.674 245.576 431.462 245.448 432.226 245.587C433.014 245.756 433.756 246.091 434.404 246.57C435.051 247.05 435.588 247.662 435.979 248.367C436.762 249.769 437.298 251.295 437.563 252.879C437.953 254.779 438.49 259.662 435.367 258.337C432.812 257.161 430.727 255.161 429.446 252.657Z" fill="#84246E"/>
<path d="M439 267.825C439.5 268.974 439.71 270.227 439.611 271.476C439.557 272.109 439.336 272.717 438.972 273.237C438.607 273.758 438.112 274.173 437.536 274.441C436.815 274.722 436.02 274.745 435.284 274.506C434.526 274.242 433.834 273.82 433.252 273.267C432.67 272.714 432.213 272.044 431.911 271.3C431.319 269.808 430.99 268.225 430.939 266.621C430.79 264.684 430.883 259.773 433.82 261.497C436.205 262.968 438.029 265.196 439 267.825Z" fill="#84246E"/>
<path d="M496.421 243.697C496.957 244.829 497.205 246.077 497.144 247.329C497.1 247.952 496.898 248.553 496.556 249.076C496.213 249.598 495.743 250.024 495.189 250.312C494.476 250.614 493.68 250.66 492.937 250.442C492.172 250.2 491.468 249.798 490.87 249.263C490.273 248.728 489.796 248.072 489.472 247.338C488.843 245.867 488.467 244.301 488.36 242.705C488.165 240.778 488.109 235.857 491.093 237.498C493.509 238.913 495.384 241.095 496.421 243.697Z" fill="#84246E"/>
<path d="M548.228 229.77C548.602 229.344 548.87 228.836 549.01 228.287C549.15 227.737 549.158 227.163 549.034 226.61C548.759 226.015 548.283 225.536 547.69 225.258C547.096 224.98 546.424 224.921 545.791 225.09C544.535 225.443 543.402 226.14 542.52 227.101C540.377 229.125 538.507 231.421 536.96 233.93C536.698 234.283 536.535 234.698 536.488 235.135C536.441 237.127 541.436 234.746 542.334 234.338C544.665 233.358 546.698 231.783 548.228 229.77Z" fill="#84246E"/>
<path d="M495.338 229.344C496.359 227.325 496.952 225.116 497.08 222.857C497.195 220.57 496.492 218.317 495.097 216.501C494.641 215.86 494.027 215.347 493.314 215.014C492.601 214.682 491.813 214.539 491.029 214.601C489.37 214.889 488.249 216.455 487.527 217.965C485.633 222.18 485.463 226.969 487.054 231.308C487.545 232.652 489.102 236.664 490.575 236.21C491.502 235.932 492.66 233.81 493.197 233.05C494.014 231.877 494.73 230.637 495.338 229.344Z" fill="#84246E"/>
<path d="M199.176 78.2701C197.545 78.6871 196.563 80.8275 196.331 82.69C195.789 77.9682 194.07 73.458 191.333 69.5726C188.595 65.6873 184.926 62.5512 180.662 60.4515C176.734 58.5983 171.396 57.82 168.969 62.4993C167.857 64.6027 167.671 69.6434 168.264 71.9507C169.698 78.0216 172.806 83.5688 177.234 87.9624C176.518 87.6351 175.765 87.3956 174.992 87.2489C174.06 87.0176 173.087 87.0052 172.15 87.2126C171.213 87.4199 170.337 87.8415 169.589 88.4442C168.974 89.11 168.509 89.901 168.228 90.763C167.946 91.6251 167.854 92.5378 167.959 93.4386C168.27 96.5244 169.604 99.4175 171.748 101.658C173.713 103.718 175.937 105.515 178.364 107.004C178.077 107.004 177.79 107.004 177.493 107.004C177.161 107.02 176.83 107.054 176.502 107.106C175.995 107.073 175.486 107.145 175.008 107.317C174.53 107.49 174.092 107.758 173.722 108.107C172.983 108.537 172.335 109.107 171.813 109.784C171.113 110.793 170.649 111.947 170.457 113.159C170.264 114.372 170.348 115.613 170.701 116.789C171.44 119.145 172.708 121.3 174.408 123.09C178.547 127.685 183.677 131.278 189.409 133.598C190.546 134.073 191.695 134.509 192.856 134.904C191.911 134.81 190.961 134.776 190.012 134.802C188.481 134.747 186.97 135.165 185.685 135.997C184.882 136.701 184.29 137.612 183.975 138.631C183.659 139.65 183.632 140.737 183.896 141.77C184.485 144.162 185.554 146.41 187.037 148.377C192.866 155.623 210.202 166.687 224.908 172.645C222.867 140.043 215.022 108.068 201.743 78.2238C200.892 78.0696 200.02 78.0853 199.176 78.2701ZM202.882 137.656L202.623 137.536L202.882 137.656Z" fill="#F04A7B" fill-opacity="0.8"/>
<path d="M232.524 126.639C231.598 123.572 229.819 120.421 227.095 118.735C224.37 117.048 219.913 117.984 219.228 121.125C219.385 113.898 219.024 106.559 216.865 99.6653C214.706 92.7714 211.759 85.5161 206.468 80.5866C205.169 79.3405 203.526 78.5113 201.752 78.2052C215.031 108.049 222.876 140.025 224.917 172.626C225.705 172.95 226.492 173.256 227.261 173.553C227.578 173.701 227.925 173.776 228.275 173.772C228.625 173.768 228.97 173.685 229.284 173.529C229.597 173.373 229.871 173.149 230.086 172.872C230.301 172.595 230.45 172.274 230.523 171.931C232.061 163.388 235.869 137.73 232.524 126.639Z" fill="#DF4270" fill-opacity="0.8"/>
<path d="M178.43 66.1965C199.445 99.7766 213.965 136.915 228.364 173.812" stroke="#E8C79A" stroke-width="0.62" stroke-linecap="round" stroke-linejoin="round"/>
<path d="M202.892 85.6273C205.693 94.1472 205.845 103.316 203.327 111.924" stroke="#E8C79A" stroke-width="0.62" stroke-linecap="round" stroke-linejoin="round"/>
<path d="M198.629 103.437C198.768 103.122 198.342 102.871 198.017 102.779C190.704 100.843 183.854 97.459 177.873 92.8271" stroke="#E8C79A" stroke-width="0.62" stroke-linecap="round" stroke-linejoin="round"/>
<path d="M209.915 128.131C199.923 125.386 190.569 120.701 182.386 114.343" stroke="#E8C79A" stroke-width="0.62" stroke-linecap="round" stroke-linejoin="round"/>
<path d="M224.945 124.665C225.637 129.991 225.91 135.364 225.76 140.733C225.604 146.126 224.193 151.409 221.637 156.16" stroke="#E8C79A" stroke-width="0.62" stroke-linecap="round" stroke-linejoin="round"/>
<path d="M220.072 152.575C209.769 150.074 199.895 146.058 190.772 140.658" stroke="#E8C79A" stroke-width="0.62" stroke-linecap="round" stroke-linejoin="round"/>
<path d="M182.859 104.243C182.411 104.216 181.974 104.092 181.578 103.879C181.183 103.666 180.839 103.37 180.57 103.01C180.309 102.744 180.12 102.415 180.021 102.055C179.922 101.695 179.916 101.316 180.005 100.953C180.589 99.3874 182.998 99.6653 183.887 100.749C184.897 101.991 184.944 104.243 182.859 104.243Z" fill="#E0A95D"/>
<path d="M181.636 86.174C181.369 86.1573 181.11 86.0832 180.875 85.9569C180.639 85.8305 180.434 85.6549 180.273 85.442C180.118 85.2837 180.005 85.0881 179.947 84.874C179.889 84.6598 179.886 84.4343 179.94 84.2189C180.283 83.2923 181.71 83.4591 182.238 84.1077C182.766 84.7563 182.868 86.174 181.636 86.174Z" fill="#E0A95D"/>
<path d="M175.817 75.1568C175.612 75.4978 175.336 75.7909 175.009 76.0162C174.681 76.2416 174.309 76.3941 173.917 76.4633C173.601 76.5625 173.264 76.5788 172.94 76.5107C172.615 76.4425 172.314 76.2922 172.064 76.0741C171.063 74.9807 172.258 73.1924 173.481 72.9329C174.871 72.6364 176.66 73.5167 175.817 75.1568Z" fill="#E0A95D"/>
<path d="M192.357 77.6122C192.174 77.9238 191.924 78.1915 191.627 78.3964C191.329 78.6013 190.99 78.7385 190.633 78.7983C190.344 78.8916 190.036 78.9082 189.739 78.8465C189.442 78.7848 189.165 78.6468 188.938 78.4462C188.011 77.4547 189.114 75.8239 190.226 75.583C191.495 75.3142 193.126 76.1482 192.357 77.6122Z" fill="#E0A95D"/>
<path d="M183.137 122.747C183.005 122.987 182.82 123.195 182.597 123.355C182.375 123.516 182.119 123.624 181.849 123.674C181.635 123.743 181.406 123.755 181.185 123.71C180.964 123.664 180.759 123.563 180.589 123.414C179.913 122.673 180.719 121.459 181.516 121.283C182.313 121.107 183.712 121.626 183.137 122.747Z" fill="#E0A95D"/>
<path d="M190.587 112.286C190.327 112.359 190.055 112.376 189.788 112.336C189.522 112.296 189.267 112.2 189.04 112.054C188.836 111.957 188.661 111.81 188.53 111.627C188.398 111.444 188.316 111.231 188.289 111.007C188.289 109.997 189.725 109.654 190.448 110.081C191.171 110.507 191.764 111.887 190.587 112.286Z" fill="#E0A95D"/>
<path d="M177.605 113.954C177.499 114.203 177.34 114.426 177.138 114.607C176.936 114.788 176.697 114.922 176.438 115.001C176.233 115.096 176.006 115.137 175.781 115.119C175.555 115.101 175.338 115.025 175.15 114.899C174.381 114.25 175.039 112.934 175.836 112.656C176.632 112.378 178.032 112.777 177.605 113.954Z" fill="#E0A95D"/>
<path d="M101.05 116.539C99.7711 117.623 99.8081 119.986 100.41 121.756C97.8663 117.747 94.3577 114.441 90.2056 112.139C86.0535 109.837 81.3904 108.613 76.643 108.579C72.288 108.579 67.1824 110.238 66.9971 115.51C66.923 117.892 68.943 122.515 70.4811 124.332C74.4183 129.17 79.6309 132.81 85.5292 134.839C84.7434 134.858 83.9627 134.97 83.2034 135.173C82.2652 135.299 81.3761 135.667 80.624 136.242C79.8719 136.817 79.2829 137.578 78.9151 138.45C78.5473 139.322 78.4135 140.276 78.5269 141.215C78.6403 142.155 78.9971 143.049 79.5618 143.809C81.185 146.449 83.6442 148.471 86.5484 149.554C89.2161 150.56 92.0043 151.211 94.8415 151.49C94.5722 151.599 94.3092 151.723 94.0539 151.861C93.7591 152.019 93.4745 152.196 93.2014 152.389C92.7314 152.58 92.3055 152.865 91.9501 153.226C91.5947 153.588 91.3173 154.019 91.1351 154.492C90.6547 155.202 90.3179 155.998 90.1436 156.837C89.9541 158.05 90.0397 159.29 90.3941 160.466C90.7486 161.642 91.3628 162.723 92.1914 163.629C93.8697 165.427 95.9359 166.818 98.2329 167.697C103.971 170.019 110.163 171.005 116.339 170.578C117.562 170.513 118.785 170.402 120.045 170.263C119.154 170.588 118.284 170.968 117.441 171.403C116.038 172.019 114.859 173.055 114.069 174.368C113.655 175.353 113.523 176.432 113.687 177.487C113.85 178.543 114.303 179.532 114.995 180.345C116.568 182.238 118.506 183.795 120.694 184.922C129.098 188.907 149.548 191.306 165.356 190.278C149.331 161.816 128.35 136.446 103.403 115.362C102.547 115.589 101.746 115.99 101.05 116.539Z" fill="#F04A7B"/>
<path d="M152.142 145.569C149.974 143.206 147.009 141.149 143.803 140.806C140.597 140.464 137.001 143.262 137.761 146.366C134.759 139.787 131.275 133.347 126.281 128.075C121.286 122.803 115.532 117.567 108.62 115.427C106.906 114.877 105.068 114.848 103.338 115.343C128.285 136.427 149.265 161.798 165.291 190.259C166.143 190.204 166.986 190.148 167.802 190.074C168.152 190.067 168.496 189.982 168.81 189.824C169.123 189.666 169.396 189.441 169.611 189.163C169.825 188.886 169.974 188.564 170.048 188.221C170.121 187.879 170.117 187.524 170.035 187.183C167.709 178.844 159.972 154.094 152.142 145.569Z" fill="#DF4270"/>
<path d="M77.0869 114.704C110.621 135.775 139.874 162.888 168.895 189.842" stroke="#E8C79A" stroke-width="0.62" stroke-linecap="round" stroke-linejoin="round"/>
<path d="M107.6 121.552C113.83 128.002 117.958 136.188 119.442 145.032" stroke="#E8C79A" stroke-width="0.62" stroke-linecap="round" stroke-linejoin="round"/>
<path d="M111.512 139.435C111.512 139.092 111.011 139.046 110.678 139.111C103.245 140.539 95.6013 140.463 88.1982 138.889" stroke="#E8C79A" stroke-width="0.62" stroke-linecap="round" stroke-linejoin="round"/>
<path d="M132.433 156.763C122.238 158.644 111.771 158.496 101.633 156.327" stroke="#E8C79A" stroke-width="0.62" stroke-linecap="round" stroke-linejoin="round"/>
<path d="M144.451 147.08C147.376 151.581 149.947 156.302 152.142 161.201C154.352 166.118 155.387 171.483 155.163 176.87" stroke="#E8C79A" stroke-width="0.62" stroke-linecap="round" stroke-linejoin="round"/>
<path d="M152.207 174.368C141.841 176.591 131.201 177.262 120.638 176.36" stroke="#E8C79A" stroke-width="0.62" stroke-linecap="round" stroke-linejoin="round"/>
<path d="M97.6669 147.024C97.2514 147.193 96.8043 147.269 96.3565 147.248C95.9086 147.227 95.4705 147.11 95.0724 146.904C94.7189 146.781 94.4032 146.569 94.1563 146.288C93.9094 146.007 93.7398 145.667 93.664 145.301C93.5065 143.642 95.7952 142.836 97.0739 143.447C98.5194 144.114 99.5386 146.116 97.6669 147.024Z" fill="#E0A95D"/>
<path d="M88.6979 131.29C88.4519 131.39 88.1872 131.436 87.9218 131.425C87.6564 131.414 87.3965 131.346 87.1598 131.225C86.9528 131.156 86.7673 131.034 86.6212 130.872C86.4751 130.709 86.3734 130.512 86.3258 130.299C86.2332 129.317 87.586 128.835 88.3458 129.187C89.1056 129.539 89.8098 130.753 88.6979 131.29Z" fill="#E0A95D"/>
<path d="M78.6722 123.905C78.6352 124.302 78.5134 124.686 78.3152 125.031C78.117 125.376 77.8469 125.675 77.5232 125.907C77.2797 126.136 76.9815 126.299 76.657 126.38C76.3325 126.461 75.9927 126.458 75.67 126.37C74.2893 125.814 74.5858 123.683 75.568 122.914C76.717 122.043 78.7092 122.052 78.6722 123.905Z" fill="#E0A95D"/>
<path d="M94.6288 118.911C94.6006 119.278 94.4923 119.634 94.3113 119.954C94.1304 120.274 93.8813 120.551 93.5817 120.764C93.3635 120.972 93.0951 121.12 92.8028 121.193C92.5105 121.266 92.2042 121.262 91.9138 121.181C90.6629 120.681 90.9316 118.744 91.8212 118.04C92.7107 117.336 94.6936 117.234 94.6288 118.911Z" fill="#E0A95D"/>
<path d="M105.979 163.555C105.953 163.824 105.871 164.085 105.737 164.32C105.602 164.555 105.42 164.758 105.2 164.917C105.036 165.072 104.835 165.182 104.616 165.237C104.397 165.292 104.168 165.29 103.949 165.232C103.023 164.861 103.217 163.379 103.885 162.888C104.552 162.396 106.006 162.322 105.979 163.555Z" fill="#E0A95D"/>
<path d="M108.137 150.925C107.938 151.108 107.701 151.245 107.444 151.327C107.186 151.408 106.913 151.432 106.645 151.398C106.42 151.4 106.197 151.344 105.999 151.235C105.801 151.127 105.634 150.969 105.515 150.777C105.079 149.85 106.219 148.924 107.062 149.016C107.906 149.109 109.017 150.026 108.137 150.925Z" fill="#E0A95D"/>
<path d="M97.1668 158.06C97.1813 158.338 97.133 158.615 97.0255 158.872C96.918 159.129 96.7541 159.358 96.546 159.543C96.4044 159.718 96.2199 159.853 96.0105 159.936C95.801 160.019 95.5738 160.046 95.3507 160.015C94.3685 159.756 94.4241 158.292 94.9893 157.699C95.5545 157.106 97.0371 156.809 97.1668 158.06Z" fill="#E0A95D"/>
<path d="M432.68 102.01C412.6 127.772 397.278 156.91 387.434 188.054C403.112 185.812 422.645 179.27 430.057 173.645C431.965 172.091 433.54 170.169 434.69 167.993C435.197 167.053 435.433 165.99 435.372 164.924C435.312 163.857 434.957 162.829 434.348 161.952C433.303 160.83 431.937 160.06 430.437 159.746C429.524 159.492 428.596 159.297 427.657 159.163C428.871 159.051 430.094 158.912 431.308 158.727C437.439 157.874 443.295 155.637 448.432 152.185C450.502 150.855 452.239 149.067 453.51 146.959C454.138 145.905 454.52 144.722 454.626 143.499C454.732 142.276 454.559 141.045 454.121 139.898C453.778 139.114 453.287 138.403 452.676 137.804C452.4 137.376 452.038 137.01 451.614 136.727C451.19 136.445 450.712 136.254 450.211 136.164C449.909 136.031 449.6 135.917 449.284 135.821C449.006 135.747 448.728 135.682 448.441 135.627C451.156 134.768 453.747 133.559 456.151 132.032C458.773 130.376 460.765 127.89 461.812 124.971C462.132 124.121 462.264 123.212 462.198 122.307C462.133 121.401 461.871 120.521 461.432 119.726C460.853 118.962 460.105 118.343 459.247 117.917C458.388 117.491 457.443 117.27 456.484 117.271C455.696 117.225 454.906 117.275 454.13 117.419C459.488 114.219 463.843 109.584 466.704 104.039C467.835 101.945 468.864 97.006 468.298 94.6987C467.038 89.5654 461.701 89.0279 457.438 89.8989C452.797 90.9004 448.481 93.0504 444.885 96.1521C441.29 99.2538 438.53 103.208 436.859 107.653C437.081 105.799 436.646 103.474 435.163 102.677C434.389 102.289 433.544 102.062 432.68 102.01ZM417.465 159.376L417.196 159.431L417.465 159.376Z" fill="#F04A7B"/>
<path d="M391.14 141.594C392.78 138.814 395.254 136.211 398.312 135.228C401.37 134.246 405.466 136.238 405.364 139.444C406.957 132.393 409.07 125.36 412.841 119.189C416.613 113.018 421.181 106.689 427.528 103.177C429.093 102.289 430.885 101.882 432.68 102.01C412.601 127.772 397.278 156.91 387.434 188.054C386.591 188.174 385.757 188.295 384.941 188.388C384.597 188.455 384.241 188.443 383.901 188.354C383.562 188.265 383.247 188.1 382.979 187.872C382.712 187.644 382.5 187.358 382.358 187.037C382.217 186.716 382.149 186.366 382.162 186.015C382.727 177.361 385.21 151.546 391.14 141.594Z" fill="#DF4270"/>
<path d="M458.209 95.9869C429.716 123.498 406.663 156.04 383.794 188.378" stroke="#E8C79A" stroke-width="0.62" stroke-linecap="round" stroke-linejoin="round"/>
<path d="M429.78 108.941C425.01 116.532 422.652 125.39 423.016 134.348" stroke="#E8C79A" stroke-width="0.62" stroke-linecap="round" stroke-linejoin="round"/>
<path d="M429.623 127.25C429.567 126.907 430.04 126.768 430.382 126.759C437.958 126.639 445.433 124.998 452.361 121.932" stroke="#E8C79A" stroke-width="0.62" stroke-linecap="round" stroke-linejoin="round"/>
<path d="M412.712 148.497C423.075 148.241 433.286 145.946 442.762 141.742" stroke="#E8C79A" stroke-width="0.62" stroke-linecap="round" stroke-linejoin="round"/>
<path d="M398.962 141.502C397.024 146.508 395.475 151.657 394.329 156.902C393.172 162.171 393.261 167.638 394.588 172.867" stroke="#E8C79A" stroke-width="0.62" stroke-linecap="round" stroke-linejoin="round"/>
<path d="M396.97 169.735C407.566 169.797 418.114 168.292 428.27 165.269" stroke="#E8C79A" stroke-width="0.62" stroke-linecap="round" stroke-linejoin="round"/>
<path d="M444.736 131.837C445.177 131.919 445.63 131.903 446.063 131.791C446.497 131.679 446.901 131.474 447.247 131.189C447.566 130.995 447.831 130.723 448.015 130.399C448.2 130.075 448.299 129.709 448.303 129.335C448.109 127.677 445.709 127.362 444.597 128.205C443.3 129.159 442.716 131.328 444.736 131.837Z" fill="#E0A95D"/>
<path d="M450.286 114.593C450.547 114.64 450.816 114.631 451.073 114.565C451.33 114.5 451.571 114.38 451.778 114.213C451.965 114.096 452.121 113.934 452.229 113.741C452.338 113.549 452.396 113.332 452.398 113.111C452.287 112.128 450.86 111.943 450.193 112.443C449.526 112.944 449.09 114.297 450.286 114.593Z" fill="#E0A95D"/>
<path d="M458.579 105.308C458.698 105.688 458.897 106.037 459.162 106.332C459.428 106.628 459.753 106.863 460.117 107.023C460.395 107.19 460.71 107.285 461.033 107.299C461.357 107.314 461.679 107.248 461.97 107.106C463.203 106.281 462.48 104.252 461.359 103.705C460.108 103.085 458.162 103.502 458.579 105.308Z" fill="#E0A95D"/>
<path d="M441.937 103.696C442.044 104.044 442.224 104.365 442.465 104.636C442.706 104.908 443.004 105.125 443.336 105.271C443.594 105.429 443.888 105.518 444.19 105.529C444.491 105.541 444.791 105.474 445.06 105.336C446.181 104.586 445.514 102.742 444.495 102.241C443.327 101.676 441.557 102.093 441.937 103.696Z" fill="#E0A95D"/>
<path d="M440 149.72C440.077 149.981 440.209 150.221 440.389 150.424C440.568 150.627 440.79 150.789 441.038 150.897C441.231 151.013 441.451 151.078 441.676 151.086C441.901 151.094 442.125 151.045 442.326 150.944C443.169 150.388 442.669 149.007 441.909 148.636C441.149 148.266 439.713 148.497 440 149.72Z" fill="#E0A95D"/>
<path d="M435.285 137.804C435.519 137.944 435.78 138.03 436.051 138.058C436.321 138.085 436.595 138.052 436.851 137.962C437.063 137.909 437.259 137.804 437.42 137.657C437.582 137.51 437.705 137.325 437.778 137.119C438.019 136.137 436.712 135.469 435.925 135.71C435.137 135.951 434.247 137.109 435.285 137.804Z" fill="#E0A95D"/>
<path d="M447.488 142.53C447.538 142.8 447.647 143.056 447.807 143.278C447.967 143.501 448.175 143.685 448.415 143.818C448.591 143.959 448.799 144.054 449.021 144.093C449.243 144.132 449.471 144.114 449.684 144.04C450.611 143.586 450.268 142.187 449.564 141.696C448.86 141.205 447.368 141.279 447.488 142.53Z" fill="#E0A95D"/>
<path d="M346.071 122.089C346.998 122.942 347.869 123.757 348.805 124.554C347.962 124.122 347.092 123.745 346.201 123.424C344.791 122.816 343.228 122.657 341.725 122.97C340.724 123.336 339.842 123.973 339.179 124.808C338.515 125.643 338.094 126.646 337.963 127.704C337.651 130.146 337.831 132.626 338.492 134.997C341.447 144.337 354.8 162.285 366.827 173.062C367.07 173.314 367.367 173.509 367.695 173.631C368.023 173.753 368.375 173.8 368.723 173.768C369.072 173.736 369.409 173.626 369.71 173.446C370.01 173.266 370.267 173.021 370.459 172.728C375 165.315 387.861 142.817 388.76 131.263C389.01 128.066 388.5 124.489 386.573 121.922C384.646 119.356 380.152 118.624 378.382 121.302C381.162 114.621 383.469 107.653 383.941 100.444C384.414 93.2349 384.321 85.4051 381.162 78.891C380.634 77.6685 379.816 76.5928 378.78 75.7566C377.744 74.9204 376.519 74.3488 375.213 74.0912C373.536 73.8874 371.84 75.5275 370.951 77.1768C372.153 72.5841 372.186 67.763 371.045 63.1545C369.903 58.546 367.625 54.2972 364.418 50.7964C361.425 47.6274 356.764 44.9959 352.771 48.4614C350.973 50.0181 348.971 54.6418 348.684 57.0047C347.824 63.1993 348.719 69.5111 351.269 75.2217C350.713 74.6577 350.091 74.163 349.416 73.7484C348.687 73.147 347.813 72.7466 346.881 72.5868C345.949 72.4269 344.991 72.5132 344.103 72.8371C343.214 73.161 342.426 73.7112 341.816 74.4334C341.205 75.1555 340.794 76.0245 340.623 76.9544C339.792 79.9425 339.984 83.1227 341.169 85.9888C342.256 88.6299 343.676 91.1211 345.395 93.4016C345.135 93.2843 344.867 93.1731 344.589 93.0681C344.274 92.9661 343.959 92.8827 343.662 92.8086C343.203 92.591 342.704 92.472 342.197 92.4592C341.689 92.4465 341.185 92.5402 340.715 92.7345C339.868 92.8674 339.054 93.1598 338.316 93.5962C337.3 94.2863 336.451 95.1957 335.834 96.2574C335.217 97.3191 334.845 98.506 334.748 99.7303C334.573 102.182 334.96 104.641 335.879 106.921C338.088 112.681 341.573 117.867 346.071 122.089ZM356.968 130.577L357.135 130.762L356.968 130.577Z" fill="#F04A7B" fill-opacity="0.6"/>
<path d="M360.294 55.3182C367.707 94.2355 367.707 134.079 367.772 173.71" stroke="#E8C79A" stroke-width="0.62" stroke-linecap="round" stroke-linejoin="round"/>
<path d="M376.038 82.2916C375.56 91.2492 372.374 99.8506 366.901 106.958" stroke="#E8C79A" stroke-width="0.62" stroke-linecap="round" stroke-linejoin="round"/>
<path d="M365.604 97.349C365.845 97.0988 365.539 96.7096 365.271 96.5058C359.16 92.0436 354.011 86.3964 350.13 79.9011" stroke="#E8C79A" stroke-width="0.62" stroke-linecap="round" stroke-linejoin="round"/>
<path d="M367.161 124.452C358.846 118.265 351.829 110.504 346.507 101.611" stroke="#E8C79A" stroke-width="0.62" stroke-linecap="round" stroke-linejoin="round"/>
<path d="M382.422 126.676C381.126 131.885 379.432 136.988 377.353 141.937C375.251 146.904 372.026 151.316 367.93 154.826" stroke="#E8C79A" stroke-width="0.62" stroke-linecap="round" stroke-linejoin="round"/>
<path d="M367.754 150.907C359.06 144.842 351.316 137.519 344.774 129.178" stroke="#E8C79A" stroke-width="0.62" stroke-linecap="round" stroke-linejoin="round"/>
<path d="M350.612 92.373C350.204 92.1848 349.843 91.9098 349.554 91.5672C349.264 91.2247 349.053 90.8229 348.935 90.3901C348.783 90.0482 348.723 89.673 348.761 89.301C348.798 88.929 348.931 88.5732 349.148 88.2682C350.26 87.0173 352.409 88.157 352.854 89.4913C353.327 91.0202 352.558 93.1236 350.612 92.373Z" fill="#E0A95D"/>
<path d="M355.994 75.0919C355.754 74.9782 355.542 74.8143 355.371 74.6113C355.2 74.4082 355.074 74.1708 355.003 73.9151C354.915 73.7115 354.881 73.4887 354.903 73.2681C354.926 73.0475 355.005 72.8363 355.132 72.6549C355.79 71.9136 357.06 72.59 357.319 73.3777C357.579 74.1653 357.18 75.5366 355.994 75.0919Z" fill="#E0A95D"/>
<path d="M354.614 62.7125C354.299 62.957 353.934 63.1307 353.546 63.2219C353.157 63.313 352.754 63.3194 352.363 63.2407C352.031 63.2187 351.712 63.1117 351.434 62.9298C351.156 62.748 350.93 62.4976 350.778 62.2029C350.241 60.8222 352.001 59.5898 353.234 59.7844C354.642 60.0161 355.995 61.4894 354.614 62.7125Z" fill="#E0A95D"/>
<path d="M369.134 71.0056C368.854 71.2302 368.528 71.3919 368.18 71.4798C367.831 71.5677 367.468 71.5798 367.114 71.5152C366.814 71.4979 366.523 71.4035 366.27 71.2412C366.017 71.0789 365.81 70.8542 365.669 70.5886C365.178 69.3285 366.79 68.2073 367.911 68.3926C369.162 68.5501 370.385 69.8844 369.134 71.0056Z" fill="#E0A95D"/>
<path d="M344.162 109.719C343.949 109.886 343.701 110.004 343.437 110.065C343.173 110.126 342.898 110.128 342.633 110.071C342.408 110.059 342.19 109.988 342.001 109.864C341.812 109.74 341.66 109.569 341.558 109.367C341.197 108.44 342.392 107.588 343.226 107.727C344.06 107.866 345.098 108.885 344.162 109.719Z" fill="#E0A95D"/>
<path d="M354.883 102.705C354.614 102.678 354.354 102.595 354.119 102.461C353.884 102.327 353.681 102.145 353.521 101.926C353.367 101.762 353.256 101.561 353.201 101.342C353.146 101.123 353.148 100.893 353.206 100.675C353.577 99.7488 355.059 99.9341 355.551 100.61C356.042 101.287 356.144 102.723 354.883 102.705Z" fill="#E0A95D"/>
<path d="M342.188 99.5171C341.999 99.7093 341.77 99.8579 341.517 99.9523C341.264 100.047 340.993 100.085 340.724 100.064C340.5 100.078 340.276 100.034 340.073 99.9368C339.87 99.8394 339.696 99.6917 339.566 99.5078C339.084 98.5812 340.168 97.6546 341.012 97.6546C341.855 97.6546 343.022 98.5719 342.188 99.5171Z" fill="#E0A95D"/>
<path d="M258.173 115.427C258.173 115.195 258.238 114.973 258.266 114.751C258.525 111.785 257.849 108.311 255.245 106.874C252.048 105.105 247.888 107.662 246.47 111.026C247.035 110.071 247.391 109.007 247.515 107.905C247.639 106.803 247.529 105.687 247.192 104.63C246.854 103.573 246.297 102.6 245.557 101.774C244.817 100.948 243.911 100.287 242.897 99.8362C241.884 99.385 240.787 99.1533 239.677 99.1562C238.568 99.1591 237.472 99.3966 236.461 99.8529C235.45 100.309 234.547 100.974 233.811 101.804C233.075 102.634 232.523 103.611 232.191 104.669C234.447 106.935 236.971 108.917 239.706 110.572C245.28 113.901 251.683 115.584 258.173 115.427Z" fill="#FDF53F"/>
<path d="M239.707 110.572C236.971 108.917 234.447 106.935 232.192 104.669C231.878 105.561 231.734 106.504 231.766 107.449C229.695 103.789 226.325 101.04 222.324 99.7488C220.053 98.989 217.366 98.8222 215.43 100.212C212.937 102.019 212.715 105.772 213.817 108.644C214.92 111.517 216.996 113.898 218.497 116.594C217.855 116.031 217.1 115.613 216.282 115.368C215.464 115.123 214.603 115.058 213.757 115.177C212.912 115.295 212.102 115.595 211.383 116.056C210.664 116.517 210.053 117.127 209.592 117.845C209.061 118.921 208.798 120.109 208.827 121.308C208.856 122.507 209.176 123.682 209.759 124.73C210.955 126.812 212.597 128.603 214.568 129.975C219.988 134.117 225.548 137.323 233.1 138.379C236.059 138.91 239.11 138.371 241.708 136.859C245.998 134.079 248.871 132.495 252.132 128.566C255.334 124.844 257.415 120.292 258.137 115.436C251.658 115.583 245.269 113.897 239.707 110.572Z" fill="#FDF53F"/>
<path d="M239.993 138.657C243.859 137.404 247.374 135.254 250.251 132.384C250.731 131.964 251.089 131.423 251.288 130.818C251.38 130.519 251.362 130.197 251.238 129.91C251.114 129.623 250.892 129.39 250.612 129.252C250.373 129.197 250.125 129.19 249.884 129.231C249.642 129.272 249.411 129.361 249.204 129.493C247.224 130.426 245.402 131.66 243.802 133.153C246.886 130.876 249.175 127.686 250.343 124.035C250.519 123.685 250.595 123.292 250.562 122.902C250.529 122.511 250.39 122.137 250.158 121.82C249.37 121.079 248.101 121.82 247.323 122.552C244.728 125.106 242.717 128.191 241.429 131.596C241.524 128.075 240.781 124.581 239.261 121.403C239.125 120.941 238.888 120.514 238.568 120.154C238.248 119.793 237.851 119.508 237.408 119.319C236.893 119.241 236.366 119.34 235.914 119.599C235.462 119.858 235.11 120.262 234.915 120.746C234.548 121.724 234.446 122.782 234.619 123.813C234.942 127.337 235.854 130.782 237.315 134.005C235.636 130.983 233.252 128.412 230.366 126.509C229.645 125.983 228.815 125.625 227.938 125.462C227.5 125.387 227.05 125.434 226.636 125.597C226.223 125.761 225.862 126.034 225.594 126.389C224.815 127.612 225.677 129.168 226.604 130.299C228.567 132.676 230.898 134.725 233.507 136.368C230.953 134.867 228.111 133.92 225.168 133.588C224.241 133.486 223.055 133.588 222.805 134.515C225.344 137.804 229.847 138.703 233.924 139.37C235.975 139.652 238.064 139.407 239.993 138.657Z" fill="#84246E"/>
<path d="M240.253 137.823C242.931 141.826 244.497 146.468 245.887 151.083C250.307 165.741 253.3 180.919 253.402 196.227C253.503 211.534 250.705 227.008 244.015 240.778C240.309 248.357 235.518 255.335 230.728 262.284" stroke="#84246E" stroke-width="2.13" stroke-miterlimit="10"/>
<path d="M241.162 140.084C240.864 140.186 240.55 140.233 240.235 140.223C239.797 140.182 239.368 140.069 238.966 139.889C238.521 139.713 238.039 139.472 237.928 139.018C237.894 138.753 237.946 138.483 238.076 138.249C238.517 137.399 239.236 136.726 240.113 136.342C240.989 135.957 241.971 135.885 242.895 136.136C245.508 136.924 242.459 139.667 241.162 140.084Z" fill="#84246E"/>
<path d="M302.686 152.324C300.249 143.744 297.127 134.988 290.724 128.742C284.321 122.497 273.971 119.541 266.289 124.109C259.497 128.122 256.671 136.822 257.32 144.689C257.969 152.556 261.406 159.867 264.612 167.076C281.05 204.14 297.47 252.731 303.14 292.844C302.075 285.283 312.138 264.008 311.535 246.004C311.248 237.665 310.748 231.475 310.952 223.182C311.517 199.257 309.228 175.369 302.686 152.324Z" fill="#54D9FF"/>
<path d="M274.907 134.922C293.022 178 307.431 236.608 303.845 289.832" stroke="#E8E8E8" stroke-width="0.71" stroke-linecap="round" stroke-linejoin="round"/>
<path d="M264.669 194.892L287.111 182.967L311.648 199.229C311.648 199.229 293.245 206.799 282.858 204.853C272.471 202.908 264.669 194.892 264.669 194.892Z" fill="#C3BFEC"/>
<path d="M266.837 197.061L286.592 182.967C286.592 182.967 286.592 174.266 272.693 170.402C258.794 166.538 133.48 145.264 133.48 145.264L105.812 164.277L266.837 197.061Z" fill="#EBEBEB"/>
<path d="M130.737 146.626C130.737 146.626 259.776 170.31 268.162 171.95C281.134 174.489 284.368 184.079 284.368 184.079" stroke="#C3BFEC" stroke-width="1.05" stroke-miterlimit="10"/>
<path opacity="0.9" d="M128.56 148.229C128.56 148.229 257.598 171.913 265.984 173.543C278.957 176.092 282.19 185.673 282.19 185.673" stroke="#C0BDE4" stroke-width="1.05" stroke-miterlimit="10"/>
<path opacity="0.81" d="M126.382 149.823C126.382 149.823 255.421 173.506 263.806 175.147C276.779 177.685 280.013 187.276 280.013 187.276" stroke="#BEBBDD" stroke-width="1.05" stroke-miterlimit="10"/>
<path opacity="0.71" d="M124.205 151.425C124.205 151.425 253.244 175.109 261.62 176.74C274.639 179.279 277.827 188.87 277.827 188.87" stroke="#BBB8D5" stroke-width="1.05" stroke-miterlimit="10"/>
<path opacity="0.61" d="M122.027 153.056C122.027 153.056 251.066 176.74 259.443 178.38C272.415 180.919 275.649 190.51 275.649 190.51" stroke="#B8B6CE" stroke-width="1.05" stroke-miterlimit="10"/>
<path opacity="0.51" d="M119.84 154.613C119.84 154.613 248.879 178.306 257.264 179.928C270.237 182.467 273.471 192.057 273.471 192.057" stroke="#B5B4C6" stroke-width="1.05" stroke-miterlimit="10"/>
<path opacity="0.42" d="M117.663 156.216C117.663 156.216 246.702 179.928 255.088 181.54C268.06 184.079 271.294 193.669 271.294 193.669" stroke="#B3B2BE" stroke-width="1.05" stroke-miterlimit="10"/>
<path opacity="0.32" d="M115.485 157.81C115.485 157.81 244.524 181.503 252.91 183.134C265.882 185.673 269.116 195.263 269.116 195.263" stroke="#B0AFB7" stroke-width="1.05" stroke-miterlimit="10"/>
<path opacity="0.22" d="M113.309 159.413C113.309 159.413 242.347 183.097 250.724 184.737C263.743 187.276 266.93 196.866 266.93 196.866" stroke="#ADADAF" stroke-width="1.05" stroke-miterlimit="10"/>
<path d="M306.237 196.848L287.112 182.948C287.112 182.948 287.112 174.248 301.011 170.384C314.91 166.52 440.215 145.245 440.215 145.245L467.93 164.259L306.237 196.848Z" fill="#EBEBEB"/>
<path d="M442.966 146.626C442.966 146.626 313.927 170.31 305.541 171.95C292.569 174.489 289.335 184.079 289.335 184.079" stroke="#C3BFEC" stroke-width="1.05" stroke-miterlimit="10"/>
<path opacity="0.9" d="M445.143 148.229C445.143 148.229 316.151 171.913 307.728 173.543C294.755 176.092 291.521 185.673 291.521 185.673" stroke="#C0BDE4" stroke-width="1.05" stroke-miterlimit="10"/>
<path opacity="0.81" d="M447.321 149.823C447.321 149.823 318.291 173.506 309.906 175.147C296.933 177.685 293.699 187.276 293.699 187.276" stroke="#BEBBDD" stroke-width="1.05" stroke-miterlimit="10"/>
<path opacity="0.71" d="M449.507 151.425C449.507 151.425 320.468 175.109 312.082 176.74C299.11 179.279 295.876 188.87 295.876 188.87" stroke="#BBB8D5" stroke-width="1.05" stroke-miterlimit="10"/>
<path opacity="0.61" d="M451.685 153.056C451.685 153.056 322.637 176.703 314.297 178.343C301.325 180.882 298.091 190.473 298.091 190.473" stroke="#B8B6CE" stroke-width="1.05" stroke-miterlimit="10"/>
<path opacity="0.51" d="M453.862 154.613C453.862 154.613 324.823 178.306 316.438 179.928C303.465 182.467 300.231 192.057 300.231 192.057" stroke="#B5B4C6" stroke-width="1.05" stroke-miterlimit="10"/>
<path opacity="0.42" d="M456.068 156.216C456.068 156.216 327.002 179.928 318.625 181.54C305.653 184.079 302.419 193.669 302.419 193.669" stroke="#B3B2BE" stroke-width="1.05" stroke-miterlimit="10"/>
<path opacity="0.32" d="M458.218 157.81C458.218 157.81 329.189 181.503 320.784 183.134C307.812 185.673 304.578 195.263 304.578 195.263" stroke="#B0AFB7" stroke-width="1.05" stroke-miterlimit="10"/>
<path opacity="0.22" d="M460.404 159.413C460.404 159.413 331.365 183.097 322.98 184.737C310.007 187.276 306.773 196.866 306.773 196.866" stroke="#ADADAF" stroke-width="1.05" stroke-miterlimit="10"/>
<path d="M259.471 184.672L261.482 336.829L125.271 315.258C124.202 315.088 123.214 314.584 122.448 313.818C121.683 313.053 121.179 312.065 121.009 310.996L97.6304 162.739C97.5558 162.26 97.5955 161.77 97.7462 161.309C97.8969 160.849 98.1544 160.43 98.4977 160.088C98.8409 159.745 99.2602 159.489 99.7214 159.339C100.183 159.19 100.673 159.151 101.151 159.227L259.471 184.672Z" fill="url(#paint1_linear_124_200)"/>
<path d="M313.796 184.672L311.832 336.829L448.043 315.258C449.111 315.087 450.097 314.583 450.861 313.818C451.625 313.052 452.127 312.064 452.296 310.996L475.674 162.739C475.751 162.26 475.713 161.769 475.563 161.307C475.413 160.845 475.155 160.426 474.811 160.083C474.468 159.74 474.047 159.484 473.585 159.335C473.123 159.186 472.632 159.149 472.153 159.227L313.796 184.672Z" fill="url(#paint2_linear_124_200)"/>
<path d="M439.223 301.229C439.753 300.453 440.472 299.825 441.311 299.402C442.151 298.979 443.083 298.775 444.023 298.811L461.554 181.132C460.042 181.092 458.605 180.471 457.54 179.397C456.475 178.324 455.865 176.881 455.837 175.369L331.765 195.532C331.779 196.634 331.456 197.714 330.838 198.627C330.315 199.395 329.607 200.02 328.78 200.444C327.953 200.868 327.032 201.078 326.103 201.054L323.416 318.464C324.514 318.501 325.58 318.844 326.492 319.456C327.284 319.973 327.937 320.675 328.396 321.502C328.854 322.329 329.104 323.255 329.124 324.2L438.352 304.306C438.328 303.216 438.631 302.145 439.223 301.229V301.229Z" stroke="#E8E8E8" stroke-width="0.87" stroke-miterlimit="10"/>
<path d="M134.833 301.229C134.304 300.456 133.589 299.829 132.753 299.406C131.917 298.983 130.988 298.779 130.052 298.811L112.521 181.132C114.034 181.094 115.474 180.474 116.541 179.4C117.608 178.326 118.219 176.882 118.247 175.369L242.319 195.532C242.309 196.633 242.632 197.712 243.246 198.627C243.77 199.396 244.479 200.022 245.308 200.446C246.137 200.87 247.059 201.079 247.99 201.054L250.677 318.464C249.579 318.501 248.513 318.844 247.601 319.456C246.812 319.978 246.162 320.684 245.708 321.514C245.255 322.344 245.01 323.273 244.997 324.218L135.741 304.306C135.759 303.212 135.442 302.138 134.833 301.229V301.229Z" stroke="#D98469" stroke-miterlimit="10"/>
<path d="M303.993 195.254C298.489 199.349 288.111 198.96 286.666 198.905H286.499C285.044 198.979 274.675 199.349 269.162 195.254C264.992 192.15 259.47 184.672 259.47 184.672L261.48 336.829C263.112 339.381 265.337 341.498 267.967 343.001C275.148 346.837 285.572 346.049 286.573 345.957C287.583 346.049 297.998 346.837 305.17 343.001C307.8 341.499 310.026 339.381 311.656 336.829L313.704 184.672C313.704 184.672 308.163 192.15 303.993 195.254Z" fill="#EEA450"/>
<path d="M370.44 173.256L367.66 265.212L375.453 253.862L382.365 263.767C382.365 263.767 384.83 172.357 384.951 169.809C384.951 169.216 384.358 168.734 383.95 168.948L369.884 171.727C369.662 171.792 370.44 171.588 370.44 173.256Z" fill="#FEF640"/>
<path d="M259.47 184.672L261.48 336.829C263.112 339.381 265.337 341.498 267.967 343.001L268.458 343.251L266.707 193.141C264.104 190.486 261.687 187.656 259.47 184.672Z" fill="#E0605E"/>
<path d="M306.034 193.512L303.541 343.779C304.106 343.538 304.653 343.288 305.181 343.001C307.811 341.499 310.037 339.381 311.667 336.829L313.715 184.672C311.374 187.802 308.806 190.757 306.034 193.512Z" fill="#E0605E"/>
<g style="mix-blend-mode:color-dodge" opacity="0.08">
<g style="mix-blend-mode:color-dodge" opacity="0.08">
<path d="M422.008 248.802C406.048 272.917 393.085 298.887 383.405 326.137L407.191 322.365C420.205 295.204 438.776 271.077 461.703 251.545L471.053 192.243C452.375 208.943 435.895 227.948 422.008 248.802Z" fill="#E6AD5F"/>
</g>
<g style="mix-blend-mode:color-dodge" opacity="0.08">
<path d="M407.191 322.365L447.962 315.879C449.031 315.709 450.019 315.205 450.785 314.439C451.55 313.674 452.054 312.686 452.224 311.617L461.703 251.517C438.773 271.057 420.202 295.193 407.191 322.365Z" fill="#EBB873"/>
</g>
</g>
<path d="M420.032 16.6973C418.386 17.709 417.055 19.1593 416.187 20.8856C415.765 21.7489 415.538 22.6944 415.522 23.6551C415.506 24.6158 415.702 25.5682 416.094 26.4452C417.354 29.0397 420.496 30.2257 423.377 30.1516C427.369 29.9589 431.166 28.3717 434.107 25.6668C435.296 24.7381 436.23 23.5236 436.822 22.1365C440.436 12.2126 424.619 13.7322 420.032 16.6973Z" fill="white"/>
<path d="M549.655 62.2492C547.747 61.9754 545.8 62.2485 544.04 63.0368C543.164 63.4335 542.386 64.0174 541.76 64.7475C541.134 65.4775 540.676 66.3359 540.417 67.2621C539.75 70.0419 541.418 72.9793 543.66 74.7954C546.857 77.1854 550.794 78.373 554.779 78.1497C556.285 78.1902 557.777 77.8491 559.116 77.1583C568.28 71.7562 555.094 62.8793 549.655 62.2492Z" fill="white"/>
<path d="M178.44 49.0821C180.525 50.2497 182.99 51.0558 185.288 50.435C188.225 49.6566 190.199 46.6637 190.532 43.643C190.866 40.6223 189.828 37.6108 188.457 34.9051C187.194 32.1748 185.286 29.7928 182.897 27.9649C181.692 27.0614 180.296 26.447 178.817 26.1691C177.337 25.8911 175.813 25.9571 174.363 26.3618C162.336 30.3092 171.796 45.3479 178.44 49.0821Z" stroke="white" stroke-miterlimit="10"/>
<path d="M10.8723 94.0965C12.9479 95.264 15.4126 96.0702 17.7199 95.4586C20.6572 94.671 22.6216 91.6873 22.9552 88.6666C23.2888 85.6459 22.2602 82.6252 20.8796 79.9195C19.6152 77.1903 17.7074 74.8087 15.32 72.9792C14.1133 72.0802 12.7173 71.4685 11.2384 71.1907C9.75945 70.9129 8.23663 70.9763 6.78595 71.3762C-5.26916 75.3235 4.21926 90.3623 10.8723 94.0965Z" stroke="white" stroke-miterlimit="10"/>
<path d="M90.7166 53.2149C91.3438 52.5792 91.7022 51.7264 91.7174 50.8335C91.6489 50.2729 91.4162 49.7451 91.0486 49.3164C90.6809 48.8877 90.1947 48.5773 89.651 48.4243C88.5568 48.1307 87.4007 48.1629 86.3245 48.517C85.2382 48.7719 84.2302 49.2871 83.3872 50.0181C82.9681 50.3862 82.6397 50.8462 82.4275 51.3621C82.2154 51.878 82.1252 52.436 82.1641 52.9925C82.6459 57.6162 88.8542 55.346 90.7166 53.2149Z" stroke="white" stroke-width="0.71" stroke-miterlimit="10"/>
<path d="M517.16 97.8771C518.008 97.589 518.711 96.9849 519.124 96.1907C519.312 95.6591 519.34 95.0839 519.203 94.5368C519.066 93.9898 518.771 93.4951 518.355 93.1144C517.504 92.3658 516.455 91.877 515.335 91.706C514.251 91.4419 513.12 91.4419 512.036 91.706C511.497 91.8492 510.998 92.1141 510.577 92.4803C510.156 92.8466 509.825 93.3044 509.608 93.8186C507.959 98.257 514.547 98.952 517.16 97.8771Z" stroke="white" stroke-width="0.71" stroke-miterlimit="10"/>
<path d="M268.098 87.7679C268.946 87.4807 269.652 86.8808 270.072 86.0907C270.258 85.5567 270.284 84.9797 270.145 84.4312C270.007 83.8827 269.711 83.3869 269.294 83.0051C268.445 82.2541 267.395 81.7677 266.273 81.606C265.19 81.3372 264.057 81.3372 262.974 81.606C262.434 81.7527 261.934 82.0222 261.515 82.3934C261.095 82.7647 260.767 83.2277 260.556 83.7464C258.943 88.1941 265.495 88.8427 268.098 87.7679Z" stroke="white" stroke-width="0.71" stroke-miterlimit="10"/>
<path d="M459.366 39.3343C460.213 39.0493 460.917 38.4485 461.331 37.6572C461.522 37.1245 461.551 36.547 461.414 35.9978C461.277 35.4486 460.98 34.9523 460.562 34.5716C459.712 33.8219 458.662 33.3357 457.541 33.1724C456.458 32.9036 455.325 32.9036 454.242 33.1724C453.705 33.3195 453.207 33.5858 452.787 33.9515C452.367 34.3173 452.034 34.7731 451.814 35.2851C450.202 39.7235 456.753 40.4092 459.366 39.3343Z" stroke="white" stroke-width="0.71" stroke-miterlimit="10"/>
<path d="M582.632 55.7073C586.691 59.145 593.131 60.0531 597.356 56.8285C600.72 54.2526 602.054 49.6937 601.841 45.4591C601.681 42.4918 600.863 39.5972 599.446 36.985C598.029 34.3728 596.049 32.1083 593.65 30.3555C589.943 27.761 585.051 26.5471 580.946 28.3447C570.04 33.126 576.017 50.1014 582.632 55.7073Z" stroke="white" stroke-width="0.74" stroke-miterlimit="10"/>
<defs>
<linearGradient id="paint0_linear_124_200" x1="287.826" y1="37.2104" x2="287.208" y2="416.372" gradientUnits="userSpaceOnUse">
<stop stop-color="#EAD0E6"/>
<stop offset="1" stop-color="#EAD0E6" stop-opacity="0"/>
</linearGradient>
<linearGradient id="paint1_linear_124_200" x1="97.5933" y1="248.014" x2="261.445" y2="248.014" gradientUnits="userSpaceOnUse">
<stop offset="0.09" stop-color="#EC9D52"/>
<stop offset="1" stop-color="#E0A553"/>
</linearGradient>
<linearGradient id="paint2_linear_124_200" x1="311.832" y1="248.014" x2="505.67" y2="248.014" gradientUnits="userSpaceOnUse">
<stop offset="0.25" stop-color="#EEA450"/>
<stop offset="1" stop-color="#E67C59"/>
</linearGradient>
</defs>
</svg>
