<svg width="490" height="323" viewBox="0 0 490 323" fill="none" xmlns="http://www.w3.org/2000/svg">
<g clip-path="url(#clip0_55_3227)">
<path opacity="0.5" d="M84.9471 19.0675C47.886 49.6925 97.4147 89.0012 71.7567 106.176C46.0986 123.35 -60.1696 156.788 46.8346 223.186C153.839 289.584 156.791 333.594 233.183 291.534C309.574 249.474 304.09 241.938 366.953 270.359C429.817 298.78 495.529 254.56 473.191 202.081C450.854 149.603 436.634 150.264 462.13 116.748C487.626 83.231 447.761 -9.48953 359.944 62.1659C272.128 133.821 217.167 80.3263 207.525 53.5261C197.883 26.7259 143.487 -29.3323 84.9471 19.0675Z" fill="url(#paint0_linear_55_3227)"/>
<path opacity="0.26" d="M331.215 32.0448C356.558 61.4912 444.502 28.7807 443.577 83.0689C442.495 146.641 356.063 165.345 384.047 210.012C412.031 254.678 381.13 304.783 268.663 303.836C156.196 302.89 -24.7249 246.814 18.8635 185.915C62.452 125.015 33.412 121.887 31.2829 94.9684C29.1539 68.05 51.2154 9.01688 138.313 58.2535C225.411 107.49 267.046 -42.5199 331.215 32.0448Z" fill="url(#paint1_linear_55_3227)"/>
<g opacity="0.71">
<path opacity="0.71" d="M228.141 280.405C228.141 280.405 173.438 114.632 82.4063 29.4774C76.2732 23.7511 66.2632 27.0282 64.7562 35.2694C54.663 90.4031 40.4825 256.164 228.141 280.405Z" fill="url(#paint2_linear_55_3227)"/>
<path opacity="0.5" d="M210.342 270.95C210.441 271.022 210.508 271.131 210.527 271.252C210.546 271.373 210.517 271.497 210.445 271.597C210.373 271.696 210.264 271.763 210.143 271.782C210.022 271.801 209.898 271.772 209.798 271.7C191.618 260.462 120.151 203.711 85.0084 81.3471C84.9886 81.2687 84.9988 81.1857 85.037 81.1144C85.0752 81.0432 85.1387 80.9888 85.2149 80.9619C85.2912 80.935 85.3747 80.9376 85.4492 80.9691C85.5237 81.0007 85.5836 81.0589 85.6173 81.1324C96.4028 109.269 139.505 212.728 210.342 270.95Z" fill="white"/>
</g>
<g opacity="0.6">
<path opacity="0.6" d="M227.782 291.183C227.933 290.954 228.02 290.688 228.033 290.414C228.046 290.139 227.984 289.867 227.855 289.624C227.726 289.382 227.534 289.179 227.299 289.037C227.064 288.895 226.795 288.819 226.52 288.817C213.023 288.94 156.476 286.504 156.48 237.009C156.48 180.81 159.911 164.665 132.759 146.698C108.034 130.334 87.1025 133.62 71.0865 142.4C70.8484 142.534 70.6621 142.744 70.5573 142.996C70.4525 143.249 70.4353 143.529 70.5085 143.792C70.5816 144.056 70.7408 144.287 70.9607 144.449C71.1807 144.611 71.4486 144.695 71.7217 144.687C82.6736 144.117 107.854 144.845 117.917 162.159C130.945 184.6 132.452 241.741 158.185 267.511C183.593 292.966 204.292 291.244 226.524 291.849C226.774 291.856 227.021 291.798 227.242 291.681C227.463 291.565 227.651 291.393 227.786 291.183H227.782Z" fill="url(#paint3_linear_55_3227)"/>
</g>
<path d="M19.135 207.422C18.7994 207.321 18.4942 207.138 18.2467 206.889C17.9993 206.641 17.8172 206.335 17.717 205.999C17.6167 205.663 17.6013 205.307 17.6722 204.964C17.743 204.62 17.898 204.3 18.123 204.031C20.826 200.863 25.3206 194.392 27.9972 184.096C30.6739 173.8 38.8966 150.746 67.4897 149.191C96.0829 147.635 116.926 193.542 134.011 239.585C151.096 285.628 208.734 289.75 208.734 289.75L224.434 291.805C224.434 291.805 171.489 295.981 143.347 265.255C115.205 234.529 104.621 178.944 73.6315 187.461C43.8906 195.645 44.1797 214.612 19.135 207.422Z" fill="url(#paint4_linear_55_3227)"/>
<g opacity="0.6">
<path opacity="0.6" d="M27.1211 262.639C26.8125 262.857 26.4432 262.972 26.0655 262.968C25.6879 262.964 25.321 262.842 25.0167 262.618C24.7125 262.394 24.4864 262.08 24.3703 261.721C24.2543 261.361 24.2542 260.974 24.37 260.615C27.2438 251.095 34.8838 232.987 51.9687 229.298C75.3882 224.242 95.0841 230.643 126.586 262.95C157.229 294.351 209.89 295.008 223.379 292.059C223.684 291.992 224.004 292.035 224.28 292.182C224.556 292.329 224.771 292.57 224.886 292.861C224.964 293.043 225 293.241 224.993 293.439C224.985 293.637 224.934 293.831 224.842 294.007C224.75 294.183 224.62 294.336 224.462 294.455C224.303 294.574 224.121 294.657 223.926 294.697C214.403 296.524 164.217 305.554 136.027 298.399C106.413 290.889 54.0233 243.283 27.1211 262.639Z" fill="url(#paint5_linear_55_3227)"/>
</g>
<path opacity="0.71" d="M37.9636 247.844C41.3089 245.306 45.0449 243.331 49.025 241.995C50.0107 241.627 51.0183 241.351 52.0258 241.048C53.0334 240.746 54.0541 240.514 55.0924 240.325C57.1502 239.907 59.2346 239.632 61.3306 239.502C69.7328 238.998 78.1833 240.75 85.8628 244.071C93.5422 247.392 100.56 252.164 106.952 257.522C108.524 258.893 110.088 260.291 111.622 261.68C113.155 263.069 114.64 264.497 116.204 265.846L118.526 267.888L120.891 269.881C122.46 271.226 124.094 272.475 125.71 273.768C128.987 276.269 132.312 278.705 135.786 280.922C139.244 283.149 142.824 285.181 146.51 287.008C153.885 290.66 161.747 293.232 169.855 294.644C173.913 295.332 178.009 295.771 182.121 295.959C186.239 296.16 190.374 296.16 194.505 296.055C202.772 295.836 211.03 295.122 219.292 294.517C219.344 294.513 219.396 294.529 219.436 294.563C219.476 294.596 219.502 294.645 219.506 294.697C219.511 294.749 219.495 294.801 219.461 294.841C219.427 294.882 219.379 294.907 219.327 294.912C215.204 295.35 211.082 295.753 206.951 296.112C202.82 296.471 198.685 296.791 194.536 296.988C186.252 297.383 177.889 297.216 169.636 295.893C161.376 294.575 153.357 292.042 145.84 288.375C142.091 286.534 138.448 284.486 134.927 282.241C131.401 280.006 128.023 277.566 124.702 275.051C123.077 273.737 121.413 272.501 119.831 271.152L117.417 269.158L115.065 267.108C113.483 265.759 111.976 264.326 110.43 262.937C108.884 261.548 107.363 260.173 105.835 258.814C99.5614 253.513 92.7274 248.816 85.2144 245.539C81.4644 243.902 77.5589 242.647 73.5572 241.793C67.5488 240.493 61.3436 240.386 55.2939 241.478C54.2819 241.635 53.2919 241.881 52.2931 242.104C51.2943 242.328 50.3086 242.621 49.3404 242.954C47.3899 243.576 45.4866 244.337 43.6455 245.232C41.8036 246.113 40.0443 247.157 38.3886 248.352C38.3189 248.405 38.231 248.428 38.1443 248.416C38.0577 248.404 37.9793 248.358 37.9264 248.288C37.8735 248.219 37.8505 248.131 37.8624 248.044C37.8744 247.957 37.9202 247.879 37.9899 247.826L37.9636 247.844Z" fill="white"/>
<path d="M440.787 48.5359C437.974 40.9125 434.049 33.7754 429.835 26.8048C429.546 26.3437 429.125 25.9806 428.626 25.7632C428.127 25.5458 427.575 25.4842 427.04 25.5866C426.506 25.6889 426.015 25.9503 425.632 26.3366C425.249 26.7229 424.991 27.216 424.893 27.7512C423.106 38.0778 416.206 47.5851 408.225 54.7704C398.061 63.9228 385.883 70.6963 376.158 80.3131C356.116 100.108 348.9 129.493 346.916 157.572C344.932 185.652 347.354 214.09 342.557 241.837C340.279 255.064 336.24 268.295 328.241 279.078C320.386 289.658 308.221 297.61 295.079 298.079C294.989 298.082 294.902 298.103 294.821 298.143C294.741 298.182 294.67 298.238 294.614 298.307C294.557 298.376 294.515 298.456 294.492 298.542C294.469 298.628 294.464 298.718 294.478 298.807C294.497 298.917 294.544 299.02 294.616 299.105C294.688 299.191 294.781 299.255 294.886 299.293C310.451 304.888 328.464 295.788 337.659 281.991C346.925 268.094 349.049 250.687 349.439 233.99C349.829 217.293 348.778 200.342 352.668 184.101C356.62 167.76 365.377 152.979 377.809 141.664C389.054 131.469 402.823 124.546 415.291 115.889C427.758 107.232 439.494 95.9498 443.42 81.277C446.298 70.5429 444.637 58.9808 440.787 48.5359Z" fill="url(#paint6_linear_55_3227)"/>
<path d="M320.951 307.328L320.645 305.181H320.894C321.77 305.181 322.647 305.12 323.523 305.028L324.324 304.945L323.698 305.418C322.822 306.075 322.016 306.636 321.262 307.135L320.951 307.328ZM321.148 305.611L321.288 306.579C321.762 306.259 322.257 305.913 322.778 305.532C322.223 305.575 321.68 305.602 321.148 305.611Z" fill="url(#paint7_linear_55_3227)"/>
<g opacity="0.6">
<path opacity="0.6" d="M482.154 96.7691C472.135 107.324 457.775 113.996 443.796 119.017C425.511 125.589 405.999 130.811 391.389 143.618C376.131 156.998 368.294 176.977 363.957 196.802C359.62 216.627 358.214 237.053 353.005 256.667C348.046 275.319 338.987 293.816 323.553 305.243C336.695 303.84 347.717 293.177 353.364 281.045C359.388 268.103 360.641 253.548 362.713 239.423C364.785 225.298 368.035 210.686 377.121 199.676C394.951 178.076 428.148 177.634 450.937 161.353C462.725 152.928 471.215 140.529 477.125 127.298C481.151 118.281 484.068 108.839 486.622 99.2883C486.794 98.7165 486.767 98.1031 486.544 97.549C486.321 96.9949 485.916 96.5332 485.396 96.2399C484.876 95.9467 484.272 95.8393 483.682 95.9354C483.093 96.0316 482.554 96.3256 482.154 96.7691Z" fill="url(#paint8_linear_55_3227)"/>
</g>
<path opacity="0.5" d="M426.278 49.7977C426.098 50.56 425.888 51.2829 425.656 52.0146L425.296 53.1011L424.898 54.1701C424.358 55.5955 423.76 56.9975 423.106 58.3762C422.799 59.0728 422.449 59.7475 422.099 60.4266C421.748 61.1057 421.411 61.7848 421.021 62.4376L419.877 64.4179C419.483 65.0707 419.063 65.706 418.655 66.35C417.862 67.6644 416.951 68.8736 416.084 70.1267C415.646 70.7576 415.168 71.3447 414.708 71.9537L413.306 73.7544C412.325 74.9242 411.313 76.0633 410.319 77.2199L407.16 80.5234C406.065 81.5837 404.939 82.6133 403.831 83.6604C403.288 84.1905 402.687 84.6637 402.109 85.1588L400.357 86.6309C399.2 87.6342 398.004 88.5455 396.822 89.4918L393.286 92.3134C388.559 96.03 384.036 99.9993 379.737 104.204C375.492 108.429 371.701 113.087 368.426 118.101C366.799 120.616 365.304 123.209 363.94 125.878C362.576 128.548 361.348 131.283 360.255 134.084C358.09 139.703 356.285 145.454 354.854 151.303C353.386 157.143 352.265 163.075 351.297 169.029C351.284 169.117 351.237 169.196 351.166 169.249C351.095 169.302 351.006 169.325 350.918 169.312C350.83 169.299 350.751 169.252 350.698 169.181C350.645 169.11 350.623 169.021 350.635 168.933C351.433 162.935 352.458 156.963 353.811 151.053C355.141 145.127 356.88 139.301 359.016 133.615C360.111 130.781 361.316 127.986 362.652 125.247C363.988 122.509 365.495 119.854 367.12 117.273C370.422 112.14 374.263 107.374 378.576 103.056C382.901 98.7863 387.454 94.7526 392.213 90.9727L395.748 88.1293C396.922 87.1829 398.123 86.2497 399.253 85.2815L400.975 83.84C401.544 83.3581 402.135 82.8981 402.674 82.3723C403.769 81.3515 404.865 80.3482 405.96 79.3054L409.101 76.0983C410.091 74.9767 411.098 73.8727 412.075 72.7379L413.495 70.9854C413.963 70.4027 414.458 69.8375 414.892 69.2329C415.768 68.0237 416.701 66.8451 417.521 65.5877C419.212 63.1145 420.754 60.5425 422.138 57.8855C422.834 56.5711 423.483 55.2041 424.07 53.8284L424.508 52.79L424.911 51.7473C425.178 51.0507 425.428 50.3365 425.634 49.6355C425.656 49.5501 425.712 49.4772 425.788 49.4329C425.865 49.3885 425.956 49.3763 426.041 49.399C426.127 49.4216 426.199 49.4773 426.244 49.5537C426.288 49.6301 426.3 49.721 426.278 49.8064V49.7977Z" fill="white"/>
<path opacity="0.71" d="M20.5501 204.154C21.9049 203.781 23.2118 203.251 24.4446 202.576C25.6811 201.913 26.8542 201.137 27.9492 200.259C30.1311 198.498 31.9875 196.369 33.4339 193.967C34.1535 192.771 34.7874 191.525 35.3307 190.239C35.8606 188.946 36.3098 187.622 36.6756 186.274C36.8465 185.599 37.0173 184.92 37.1619 184.232L37.5649 182.138C37.862 180.7 38.2617 179.286 38.7609 177.906C40.7561 172.399 43.8369 167.35 47.8203 163.057C49.8334 160.903 52.1276 159.03 54.6411 157.489C55.91 156.717 57.2404 156.052 58.6188 155.5C60.0082 154.957 61.4456 154.547 62.9119 154.273C63.6435 154.128 64.3882 154.05 65.1286 153.966C65.8689 153.883 66.6181 153.87 67.3628 153.888C68.8554 153.906 70.3429 154.068 71.8049 154.369C74.7021 154.961 77.4944 155.983 80.0889 157.401C85.2581 160.201 89.6783 164.074 93.5991 168.302C95.5661 170.414 97.4016 172.639 99.1407 174.926C100.88 177.213 102.531 179.57 104.104 181.971C107.218 186.789 110.087 191.761 112.699 196.868C112.716 196.899 112.726 196.933 112.729 196.968C112.733 197.003 112.729 197.038 112.718 197.071C112.707 197.105 112.69 197.136 112.667 197.163C112.645 197.189 112.617 197.211 112.585 197.227C112.524 197.256 112.453 197.262 112.388 197.243C112.322 197.223 112.266 197.18 112.23 197.122C109.352 192.197 106.36 187.334 103.083 182.686C101.436 180.363 99.7672 178.063 97.9755 175.864C96.1837 173.665 94.357 171.483 92.3856 169.467C88.4649 165.415 84.1279 161.712 79.1996 159.11C77.9694 158.471 76.6993 157.912 75.3971 157.436C74.1161 156.956 72.7973 156.584 71.4544 156.323C70.1113 156.056 68.7455 155.918 67.3759 155.912C66.6925 155.912 66.0135 155.942 65.3345 155.986C64.6555 156.03 63.9765 156.139 63.3106 156.275C61.9658 156.534 60.6465 156.911 59.3679 157.401C58.0913 157.909 56.8578 158.518 55.6793 159.224C53.3095 160.663 51.1448 162.415 49.244 164.433C45.3884 168.483 42.3654 173.251 40.3467 178.466C39.8436 179.763 39.4351 181.094 39.1245 182.449L38.6864 184.548C38.5199 185.257 38.333 185.963 38.1257 186.664C37.7016 188.061 37.1909 189.431 36.5968 190.765C35.9863 192.092 35.2821 193.375 34.4896 194.603C32.8788 197.044 30.8518 199.184 28.5011 200.925C26.1714 202.679 23.4956 203.919 20.6508 204.561C20.6229 204.568 20.594 204.568 20.5658 204.563C20.5375 204.558 20.5106 204.548 20.4865 204.532C20.4624 204.517 20.4417 204.497 20.4255 204.473C20.4093 204.449 20.3981 204.423 20.3924 204.395C20.3816 204.34 20.3918 204.284 20.4211 204.237C20.4504 204.189 20.4965 204.155 20.5501 204.141V204.154Z" fill="white"/>
<path opacity="0.57" d="M343.401 284.219C395.002 232.612 395.002 148.941 343.401 97.3343C291.8 45.7275 208.139 45.7275 156.538 97.3343C104.937 148.941 104.937 232.612 156.538 284.219C208.139 335.826 291.8 335.826 343.401 284.219Z" fill="white"/>
<path d="M249.966 303.56C312.246 303.56 362.735 253.066 362.735 190.778C362.735 128.49 312.246 77.9954 249.966 77.9954C187.685 77.9954 137.196 128.49 137.196 190.778C137.196 253.066 187.685 303.56 249.966 303.56Z" fill="url(#paint9_linear_55_3227)"/>
<path d="M250.193 306.009C241.914 306.006 233.659 305.117 225.569 303.359C203.304 298.536 182.968 287.219 167.135 270.837C151.301 254.456 140.68 233.747 136.614 211.328C132.549 188.91 135.222 165.789 144.296 144.89C153.37 123.991 168.436 106.253 187.59 93.9179C206.744 81.5829 229.126 75.2055 251.904 75.5923C274.682 75.979 296.834 83.1125 315.558 96.0906C334.283 109.069 348.739 127.309 357.098 148.503C365.457 169.698 367.344 192.896 362.52 215.164L360.168 214.651L362.52 215.164C356.949 240.841 342.777 263.844 322.349 280.365C301.921 296.886 276.464 305.934 250.193 306.009ZM249.755 80.3744C228.93 80.4071 208.538 86.3305 190.936 97.4604C173.333 108.59 159.238 124.473 150.276 143.274C141.315 162.075 137.854 183.028 140.293 203.712C142.732 224.396 150.971 243.969 164.06 260.17C177.148 276.37 194.551 288.538 214.259 295.268C233.967 301.997 255.177 303.014 275.439 298.201C295.701 293.388 314.188 282.942 328.766 268.068C343.344 253.194 353.417 234.499 357.824 214.143C360.892 199.976 361.14 185.344 358.553 171.082C355.967 156.819 350.597 143.206 342.75 131.019C334.903 118.832 324.732 108.31 312.819 100.054C300.907 91.7986 287.484 85.9703 273.319 82.9024C265.574 81.2201 257.672 80.3697 249.746 80.3657L249.755 80.3744Z" fill="white"/>
<path d="M298.585 239.397C325.434 212.545 325.434 169.009 298.585 142.156C271.735 115.304 228.204 115.304 201.355 142.156C174.506 169.009 174.506 212.545 201.355 239.397C228.204 266.249 271.735 266.249 298.585 239.397Z" fill="url(#paint10_linear_55_3227)"/>
<path d="M250.101 261.969C244.989 261.965 239.892 261.416 234.896 260.33C217.207 256.456 201.676 245.949 191.498 230.97C181.32 215.991 177.27 197.68 180.182 179.806C183.093 161.931 192.743 145.853 207.148 134.878C221.552 123.904 239.615 118.869 257.619 120.809C275.622 122.749 292.198 131.517 303.934 145.308C315.67 159.1 321.675 176.865 320.712 194.95C319.749 213.034 311.891 230.062 298.757 242.528C285.622 254.995 268.209 261.952 250.101 261.969ZM249.825 124.397C232.801 124.403 216.426 130.936 204.073 142.651C191.72 154.367 184.328 170.374 183.419 187.376C182.511 204.378 188.155 221.082 199.189 234.048C210.223 247.014 225.809 255.255 242.736 257.075C259.662 258.895 276.643 254.155 290.181 243.831C303.719 233.507 312.784 218.385 315.51 201.578C318.235 184.772 314.414 167.559 304.833 153.485C295.252 139.411 280.64 129.546 264.006 125.922C259.348 124.914 254.596 124.406 249.83 124.406L249.825 124.397Z" fill="white"/>
<path d="M272.445 205.103C280.344 192.692 276.689 176.227 264.279 168.327C251.87 160.427 235.407 164.083 227.508 176.493C219.608 188.904 223.264 205.369 235.673 213.27C248.082 221.17 264.546 217.514 272.445 205.103Z" fill="url(#paint11_linear_55_3227)"/>
<path d="M249.97 219.83C243.96 219.832 238.098 217.969 233.191 214.499C228.284 211.029 224.574 206.123 222.572 200.456C220.57 194.789 220.375 188.64 222.013 182.857C223.652 177.075 227.043 171.943 231.72 168.168C236.397 164.394 242.129 162.163 248.127 161.784C254.125 161.404 260.092 162.894 265.208 166.048C270.323 169.203 274.334 173.866 276.689 179.396C279.043 184.926 279.624 191.05 278.353 196.925C276.95 203.411 273.368 209.221 268.204 213.388C263.04 217.555 256.605 219.829 249.97 219.83ZM249.97 166.545C243.762 166.541 237.788 168.919 233.28 173.188C228.772 177.457 226.073 183.293 225.739 189.493C225.404 195.693 227.46 201.785 231.482 206.515C235.505 211.244 241.188 214.251 247.361 214.915C253.533 215.579 259.726 213.851 264.662 210.085C269.599 206.32 272.903 200.805 273.895 194.675C274.887 188.546 273.491 182.269 269.995 177.139C266.498 172.008 261.167 168.414 255.1 167.097C253.412 166.731 251.689 166.545 249.961 166.545H249.97Z" fill="white"/>
<path d="M280.17 170.977L282.897 175.213L443.236 71.949L440.508 67.7129L280.17 170.977Z" fill="url(#paint12_linear_55_3227)"/>
<path d="M284.455 163.132C286.887 161.564 294.259 173.021 291.833 174.585L250.977 194.449C250.665 194.6 250.309 194.632 249.975 194.538C249.641 194.444 249.353 194.231 249.166 193.939C248.978 193.648 248.904 193.297 248.957 192.955C249.01 192.612 249.186 192.3 249.453 192.079L284.455 163.132Z" fill="url(#paint13_linear_55_3227)"/>
<path d="M443.152 72.0018L460.5 77.6055L430.886 96.6771C426.094 99.7619 420.678 101.745 415.027 102.483C409.377 103.221 403.633 102.695 398.21 100.944L443.152 72.0018Z" fill="url(#paint14_linear_55_3227)"/>
<path d="M440.423 67.7739L442.504 49.6574L412.89 68.729C408.099 71.8139 404.052 75.9244 401.042 80.7636C398.032 85.6028 396.134 91.0501 395.485 96.7121L440.423 67.7739Z" fill="url(#paint15_linear_55_3227)"/>
<g opacity="0.71">
<path opacity="0.71" d="M279.225 298.662C279.225 298.662 346.986 211.703 419.225 180.416C420.325 179.936 421.535 179.761 422.726 179.91C423.917 180.06 425.046 180.527 425.995 181.264C426.943 182 427.675 182.979 428.114 184.097C428.553 185.214 428.683 186.429 428.49 187.615C422.777 222.538 395.98 324.139 279.225 298.662Z" fill="url(#paint16_linear_55_3227)"/>
<path opacity="0.5" d="M291.824 296.822C291.758 296.85 291.704 296.9 291.673 296.965C291.642 297.029 291.636 297.103 291.655 297.172C291.674 297.241 291.718 297.3 291.778 297.339C291.838 297.378 291.911 297.393 291.981 297.383C305.185 294.57 359.747 276.011 406.652 210.708C406.685 210.666 406.701 210.613 406.695 210.559C406.69 210.506 406.663 210.457 406.621 210.423C406.579 210.39 406.526 210.374 406.472 210.38C406.419 210.385 406.37 210.412 406.336 210.454C393.943 224.908 346.32 277.259 291.824 296.822Z" fill="white"/>
</g>
<g opacity="0.71">
<path opacity="0.71" d="M489.334 245.64C489.493 245.631 489.644 245.568 489.762 245.461C489.881 245.355 489.96 245.212 489.986 245.054C490.012 244.897 489.983 244.736 489.906 244.597C489.828 244.459 489.705 244.35 489.558 244.29C478.448 239.839 436.831 225.999 389.436 246.003C346.066 264.308 318.638 284.252 308.738 292.086C308.29 292.438 307.943 292.902 307.73 293.431C307.518 293.96 307.448 294.536 307.527 295.1C307.605 295.665 307.831 296.199 308.18 296.649C308.529 297.099 308.99 297.45 309.518 297.667C323.207 303.293 362.358 317.028 389.247 302.986C421.415 286.201 453.635 247.94 489.334 245.64Z" fill="url(#paint17_linear_55_3227)"/>
<path opacity="0.5" d="M448.791 247.471C448.791 247.471 407.739 242.183 311.301 293.86C311.301 293.86 410.967 247.059 448.791 247.471Z" fill="white"/>
</g>
<path d="M243.719 196.482L242.842 197.446C242.785 197.516 242.714 197.573 242.634 197.615C242.554 197.656 242.466 197.68 242.376 197.687C242.286 197.693 242.195 197.68 242.11 197.65C242.025 197.62 241.947 197.573 241.881 197.512C241.815 197.45 241.762 197.376 241.726 197.293C241.689 197.211 241.67 197.121 241.669 197.031C241.669 196.941 241.687 196.852 241.722 196.768C241.757 196.685 241.809 196.61 241.874 196.548L242.777 195.593C242.899 195.494 243.052 195.442 243.21 195.447C243.367 195.452 243.517 195.513 243.633 195.619C243.749 195.725 243.823 195.869 243.842 196.025C243.861 196.181 243.823 196.338 243.736 196.469L243.719 196.482Z" fill="white"/>
<path d="M240.735 199.694L239.859 200.658C239.737 200.789 239.568 200.866 239.389 200.873C239.21 200.879 239.036 200.815 238.904 200.693C238.773 200.571 238.696 200.401 238.689 200.222C238.682 200.043 238.747 199.869 238.869 199.737L239.772 198.782C239.832 198.718 239.904 198.666 239.984 198.629C240.064 198.593 240.151 198.573 240.239 198.569C240.327 198.566 240.415 198.581 240.497 198.612C240.58 198.643 240.656 198.689 240.72 198.75C240.784 198.81 240.836 198.882 240.873 198.962C240.909 199.042 240.93 199.129 240.933 199.217C240.936 199.305 240.922 199.393 240.891 199.475C240.86 199.558 240.813 199.634 240.753 199.698L240.735 199.694Z" fill="white"/>
<path d="M237.748 202.901L236.872 203.865C236.746 203.999 236.572 204.078 236.389 204.084C236.205 204.09 236.027 204.023 235.892 203.897C235.758 203.772 235.679 203.598 235.673 203.415C235.667 203.231 235.734 203.052 235.86 202.918L236.766 201.963C236.894 201.844 237.063 201.777 237.238 201.778C237.413 201.778 237.581 201.845 237.708 201.965C237.835 202.085 237.912 202.249 237.923 202.424C237.933 202.598 237.877 202.771 237.765 202.905L237.748 202.901Z" fill="white"/>
<path d="M234.769 206.099L233.866 207.058C233.803 207.129 233.727 207.186 233.642 207.227C233.557 207.267 233.464 207.29 233.37 207.294C233.276 207.298 233.182 207.283 233.093 207.25C233.005 207.217 232.924 207.167 232.855 207.102C232.787 207.037 232.732 206.959 232.694 206.873C232.656 206.787 232.636 206.693 232.634 206.599C232.633 206.505 232.651 206.411 232.686 206.324C232.722 206.236 232.774 206.157 232.841 206.09L233.748 205.14C233.878 205.014 234.051 204.943 234.232 204.942C234.413 204.94 234.587 205.009 234.718 205.134C234.85 205.258 234.928 205.429 234.936 205.609C234.945 205.79 234.883 205.967 234.764 206.103L234.769 206.099Z" fill="white"/>
<path d="M231.733 209.289L230.826 210.244C230.694 210.382 230.513 210.462 230.322 210.467C230.131 210.471 229.946 210.4 229.808 210.268C229.669 210.136 229.589 209.954 229.585 209.763C229.58 209.572 229.652 209.387 229.784 209.249L230.695 208.303C230.76 208.235 230.838 208.18 230.924 208.143C231.01 208.105 231.102 208.084 231.196 208.082C231.29 208.08 231.384 208.097 231.471 208.131C231.559 208.165 231.639 208.216 231.707 208.281C231.775 208.346 231.829 208.424 231.867 208.51C231.905 208.596 231.925 208.688 231.927 208.782C231.929 208.876 231.913 208.97 231.879 209.057C231.845 209.145 231.794 209.225 231.729 209.293L231.733 209.289Z" fill="white"/>
<path d="M228.701 212.461L227.786 213.407C227.647 213.532 227.466 213.6 227.28 213.596C227.093 213.593 226.915 213.519 226.781 213.39C226.647 213.26 226.567 213.084 226.558 212.898C226.548 212.712 226.61 212.529 226.73 212.386L227.65 211.444C227.787 211.313 227.969 211.241 228.159 211.242C228.348 211.243 228.53 211.317 228.665 211.45C228.801 211.582 228.88 211.762 228.886 211.951C228.892 212.14 228.824 212.325 228.697 212.465L228.701 212.461Z" fill="white"/>
<path d="M225.648 215.606L224.724 216.548C224.656 216.624 224.574 216.686 224.482 216.73C224.39 216.773 224.291 216.797 224.189 216.801C224.088 216.805 223.986 216.787 223.892 216.751C223.797 216.714 223.711 216.658 223.638 216.587C223.565 216.516 223.508 216.431 223.469 216.337C223.431 216.243 223.412 216.142 223.413 216.041C223.415 215.939 223.437 215.839 223.478 215.746C223.52 215.653 223.58 215.57 223.655 215.501L224.579 214.572C224.717 214.431 224.906 214.351 225.103 214.349C225.301 214.347 225.491 214.423 225.633 214.561C225.774 214.7 225.854 214.888 225.856 215.086C225.858 215.284 225.782 215.474 225.644 215.615L225.648 215.606Z" fill="white"/>
<path d="M222.564 218.735L221.626 219.65C221.483 219.794 221.289 219.875 221.087 219.875C220.884 219.875 220.69 219.795 220.547 219.652C220.403 219.51 220.322 219.315 220.322 219.113C220.321 218.91 220.401 218.716 220.544 218.572L221.482 217.648C221.552 217.577 221.636 217.521 221.728 217.483C221.82 217.445 221.919 217.425 222.018 217.425C222.118 217.425 222.217 217.445 222.309 217.483C222.401 217.521 222.485 217.577 222.555 217.648C222.628 217.718 222.686 217.802 222.725 217.895C222.765 217.988 222.786 218.088 222.787 218.189C222.788 218.291 222.769 218.391 222.73 218.484C222.692 218.578 222.635 218.663 222.564 218.735Z" fill="white"/>
<path d="M219.436 221.841L218.494 222.761C218.422 222.838 218.336 222.899 218.239 222.941C218.143 222.983 218.039 223.006 217.934 223.007C217.829 223.008 217.725 222.988 217.628 222.948C217.531 222.908 217.443 222.848 217.369 222.773C217.295 222.698 217.238 222.609 217.199 222.511C217.161 222.413 217.143 222.308 217.146 222.203C217.15 222.098 217.174 221.995 217.218 221.899C217.262 221.804 217.325 221.718 217.404 221.648L218.35 220.737C218.498 220.604 218.692 220.534 218.891 220.541C219.09 220.547 219.279 220.63 219.418 220.772C219.558 220.914 219.638 221.104 219.641 221.303C219.644 221.502 219.571 221.694 219.436 221.841Z" fill="white"/>
<path d="M216.295 224.908L215.345 225.784C215.269 225.856 215.18 225.913 215.083 225.951C214.986 225.989 214.882 226.007 214.778 226.005C214.673 226.002 214.57 225.98 214.475 225.938C214.379 225.896 214.293 225.835 214.221 225.76C214.149 225.685 214.092 225.596 214.054 225.498C214.016 225.401 213.998 225.297 214 225.193C214.002 225.089 214.025 224.986 214.067 224.89C214.109 224.795 214.17 224.708 214.245 224.636L215.2 223.734C215.352 223.589 215.554 223.512 215.763 223.517C215.972 223.522 216.171 223.61 216.315 223.762C216.459 223.914 216.537 224.116 216.532 224.325C216.526 224.535 216.438 224.733 216.286 224.877L216.295 224.908Z" fill="white"/>
<path d="M213.106 227.905L212.138 228.781C211.981 228.927 211.773 229.004 211.559 228.996C211.345 228.989 211.143 228.896 210.997 228.739C210.851 228.582 210.773 228.374 210.781 228.16C210.789 227.946 210.882 227.744 211.038 227.598L212.002 226.722C212.08 226.65 212.17 226.594 212.269 226.558C212.368 226.521 212.473 226.504 212.579 226.509C212.684 226.513 212.787 226.537 212.883 226.581C212.979 226.626 213.065 226.688 213.137 226.765C213.208 226.843 213.264 226.934 213.301 227.032C213.337 227.131 213.354 227.237 213.35 227.342C213.346 227.447 213.321 227.551 213.277 227.647C213.233 227.742 213.17 227.829 213.093 227.9L213.106 227.905Z" fill="white"/>
<path d="M209.873 230.879L208.892 231.756C208.811 231.828 208.717 231.884 208.615 231.92C208.513 231.956 208.405 231.972 208.296 231.966C208.188 231.961 208.082 231.934 207.984 231.887C207.887 231.84 207.799 231.775 207.726 231.694C207.654 231.614 207.598 231.52 207.562 231.418C207.526 231.315 207.51 231.207 207.516 231.099C207.521 230.991 207.548 230.885 207.595 230.787C207.642 230.689 207.707 230.601 207.788 230.529L208.769 229.653C208.932 229.514 209.142 229.444 209.355 229.458C209.568 229.472 209.767 229.569 209.91 229.728C210.053 229.887 210.128 230.095 210.12 230.309C210.111 230.522 210.019 230.724 209.864 230.871L209.873 230.879Z" fill="white"/>
<path d="M206.592 233.802L205.597 234.678C205.429 234.824 205.21 234.897 204.989 234.881C204.767 234.866 204.56 234.763 204.414 234.595C204.269 234.427 204.195 234.208 204.211 233.986C204.227 233.764 204.33 233.558 204.498 233.412L205.492 232.535C205.659 232.391 205.877 232.319 206.098 232.335C206.318 232.351 206.524 232.454 206.668 232.621C206.813 232.788 206.885 233.006 206.869 233.227C206.853 233.447 206.75 233.653 206.583 233.797L206.592 233.802Z" fill="white"/>
<path d="M203.258 236.667L202.251 237.517C202.076 237.662 201.852 237.732 201.626 237.712C201.4 237.691 201.191 237.582 201.046 237.407C200.901 237.233 200.831 237.008 200.851 236.782C200.872 236.556 200.981 236.348 201.155 236.203L202.163 235.37C202.337 235.226 202.562 235.157 202.787 235.178C203.012 235.2 203.219 235.31 203.363 235.484C203.507 235.658 203.576 235.883 203.555 236.108C203.534 236.333 203.424 236.54 203.249 236.685L203.258 236.667Z" fill="white"/>
<path d="M199.876 239.475L198.846 240.303C198.761 240.397 198.657 240.47 198.54 240.519C198.424 240.568 198.299 240.591 198.172 240.587C198.046 240.583 197.922 240.552 197.81 240.496C197.697 240.439 197.597 240.359 197.518 240.261C197.439 240.163 197.382 240.049 197.351 239.926C197.32 239.804 197.316 239.676 197.339 239.552C197.362 239.428 197.411 239.31 197.484 239.207C197.557 239.104 197.651 239.017 197.76 238.954L198.781 238.139C198.962 238.037 199.173 238.002 199.378 238.041C199.582 238.081 199.765 238.191 199.895 238.354C200.026 238.516 200.094 238.719 200.088 238.927C200.082 239.135 200.002 239.334 199.863 239.489L199.876 239.475Z" fill="white"/>
<path d="M196.433 242.214L195.386 243.02C195.294 243.091 195.19 243.143 195.078 243.173C194.967 243.203 194.85 243.211 194.735 243.197C194.621 243.182 194.51 243.145 194.41 243.088C194.309 243.03 194.221 242.954 194.15 242.862C194.08 242.771 194.028 242.666 193.997 242.555C193.967 242.443 193.959 242.326 193.973 242.212C193.988 242.097 194.025 241.986 194.083 241.886C194.14 241.785 194.217 241.697 194.308 241.627L195.351 240.834C195.535 240.692 195.769 240.629 196 240.66C196.231 240.69 196.44 240.811 196.582 240.996C196.723 241.181 196.786 241.414 196.756 241.645C196.725 241.876 196.604 242.085 196.42 242.227L196.433 242.214Z" fill="white"/>
<path d="M192.928 244.878L191.864 245.662C191.672 245.803 191.432 245.862 191.197 245.827C190.961 245.791 190.75 245.663 190.608 245.471C190.467 245.28 190.408 245.04 190.444 244.804C190.48 244.569 190.607 244.357 190.799 244.216L191.859 243.449C192.05 243.309 192.289 243.251 192.523 243.287C192.757 243.323 192.968 243.451 193.108 243.642C193.248 243.833 193.306 244.072 193.27 244.306C193.234 244.54 193.106 244.751 192.915 244.891L192.928 244.878Z" fill="white"/>
<path d="M189.362 247.458L188.28 248.216C188.182 248.285 188.072 248.334 187.955 248.36C187.838 248.386 187.717 248.388 187.599 248.368C187.481 248.347 187.368 248.303 187.267 248.239C187.166 248.174 187.079 248.091 187.01 247.993C186.941 247.895 186.892 247.784 186.866 247.667C186.84 247.55 186.838 247.429 186.859 247.311C186.879 247.193 186.923 247.08 186.987 246.979C187.052 246.878 187.135 246.791 187.233 246.722L188.311 245.977C188.509 245.84 188.753 245.786 188.99 245.828C189.227 245.871 189.437 246.005 189.575 246.203C189.713 246.4 189.766 246.645 189.724 246.882C189.682 247.119 189.547 247.329 189.349 247.467L189.362 247.458Z" fill="white"/>
<path d="M185.731 249.955L184.631 250.683C184.427 250.819 184.177 250.868 183.936 250.819C183.695 250.771 183.484 250.629 183.348 250.424C183.212 250.22 183.163 249.97 183.211 249.729C183.26 249.488 183.402 249.276 183.606 249.141L184.701 248.426C184.906 248.311 185.146 248.278 185.373 248.334C185.601 248.389 185.799 248.529 185.928 248.725C186.056 248.921 186.106 249.158 186.066 249.389C186.026 249.62 185.9 249.827 185.713 249.969L185.731 249.955Z" fill="white"/>
<path d="M182.038 252.356L180.921 253.057C180.71 253.176 180.461 253.209 180.227 253.149C179.992 253.089 179.79 252.941 179.661 252.736C179.533 252.531 179.488 252.284 179.537 252.047C179.585 251.81 179.723 251.601 179.922 251.463L181.035 250.779C181.139 250.704 181.258 250.652 181.383 250.625C181.509 250.598 181.638 250.597 181.764 250.623C181.89 250.648 182.009 250.698 182.114 250.772C182.22 250.845 182.309 250.939 182.377 251.048C182.444 251.157 182.489 251.279 182.507 251.406C182.526 251.533 182.518 251.662 182.485 251.786C182.452 251.91 182.393 252.026 182.313 252.126C182.233 252.226 182.134 252.309 182.02 252.369L182.038 252.356Z" fill="white"/>
<path d="M178.284 254.656L177.14 255.327C176.922 255.455 176.663 255.491 176.418 255.427C176.174 255.363 175.965 255.205 175.837 254.987C175.709 254.769 175.673 254.51 175.737 254.265C175.8 254.021 175.959 253.812 176.176 253.684L177.302 253.027C177.519 252.915 177.77 252.89 178.003 252.958C178.237 253.026 178.436 253.181 178.559 253.391C178.682 253.601 178.72 253.85 178.665 254.087C178.609 254.324 178.465 254.531 178.262 254.665L178.284 254.656Z" fill="white"/>
<path d="M174.454 256.847L173.298 257.483C173.187 257.543 173.066 257.582 172.941 257.595C172.816 257.609 172.689 257.598 172.568 257.563C172.447 257.528 172.334 257.469 172.235 257.39C172.137 257.311 172.055 257.214 171.995 257.104C171.934 256.993 171.896 256.872 171.882 256.746C171.868 256.621 171.879 256.494 171.914 256.373C171.949 256.252 172.008 256.139 172.087 256.041C172.166 255.943 172.263 255.861 172.374 255.8L173.521 255.178C173.743 255.074 173.995 255.059 174.227 255.135C174.459 255.212 174.654 255.374 174.771 255.588C174.887 255.803 174.918 256.054 174.856 256.291C174.794 256.527 174.644 256.731 174.437 256.86L174.454 256.847Z" fill="white"/>
<path d="M170.564 258.924L169.386 259.52C169.272 259.581 169.147 259.619 169.019 259.632C168.89 259.644 168.76 259.631 168.637 259.592C168.514 259.554 168.399 259.491 168.301 259.407C168.202 259.324 168.121 259.221 168.062 259.106C168.004 258.991 167.969 258.865 167.96 258.736C167.951 258.607 167.968 258.478 168.009 258.355C168.051 258.233 168.117 258.12 168.203 258.024C168.289 257.927 168.393 257.849 168.51 257.793L169.675 257.206C169.903 257.09 170.168 257.069 170.412 257.149C170.656 257.228 170.858 257.401 170.974 257.629C171.09 257.858 171.111 258.123 171.032 258.366C170.952 258.61 170.779 258.812 170.551 258.928L170.564 258.924Z" fill="white"/>
<path d="M166.613 260.882L165.413 261.443C165.296 261.517 165.165 261.565 165.028 261.584C164.891 261.603 164.752 261.593 164.619 261.555C164.487 261.517 164.364 261.45 164.259 261.361C164.153 261.271 164.068 261.161 164.009 261.036C163.95 260.911 163.918 260.775 163.915 260.637C163.912 260.499 163.938 260.362 163.992 260.235C164.046 260.108 164.127 259.993 164.228 259.9C164.329 259.806 164.449 259.735 164.58 259.691L165.767 259.143C165.995 259.061 166.245 259.068 166.468 259.16C166.692 259.253 166.873 259.426 166.975 259.645C167.078 259.864 167.096 260.113 167.025 260.344C166.954 260.576 166.799 260.772 166.591 260.895L166.613 260.882Z" fill="white"/>
<path d="M162.592 262.709L161.374 263.231C161.137 263.317 160.876 263.31 160.645 263.21C160.413 263.11 160.229 262.925 160.13 262.693C160.03 262.461 160.023 262.2 160.111 261.964C160.198 261.727 160.372 261.533 160.598 261.421L161.799 260.909C162.039 260.806 162.309 260.804 162.551 260.901C162.793 260.998 162.987 261.188 163.089 261.428C163.191 261.668 163.194 261.938 163.096 262.18C162.999 262.422 162.81 262.616 162.57 262.718L162.592 262.709Z" fill="white"/>
<path d="M158.513 264.401L157.278 264.878C157.035 264.962 156.768 264.948 156.535 264.84C156.302 264.732 156.119 264.537 156.026 264.297C155.933 264.058 155.937 263.791 156.036 263.554C156.136 263.316 156.323 263.127 156.559 263.025L157.777 262.56C158.022 262.466 158.295 262.472 158.535 262.579C158.776 262.685 158.964 262.883 159.059 263.128C159.153 263.373 159.147 263.646 159.04 263.886C158.934 264.126 158.736 264.315 158.491 264.409L158.513 264.401Z" fill="white"/>
<path d="M154.378 265.943L153.125 266.381C153 266.424 152.868 266.442 152.737 266.434C152.605 266.427 152.476 266.393 152.358 266.335C152.239 266.278 152.133 266.197 152.046 266.099C151.958 266 151.891 265.885 151.848 265.761C151.805 265.636 151.786 265.504 151.794 265.373C151.802 265.241 151.836 265.112 151.893 264.994C151.951 264.875 152.031 264.769 152.13 264.682C152.228 264.594 152.343 264.527 152.468 264.484L153.699 264.046C153.949 263.959 154.224 263.975 154.462 264.091C154.7 264.207 154.883 264.413 154.969 264.663C155.056 264.914 155.039 265.188 154.923 265.427C154.808 265.665 154.602 265.847 154.351 265.934L154.378 265.943Z" fill="white"/>
<path d="M150.181 267.332L148.915 267.717C148.787 267.759 148.651 267.776 148.517 267.765C148.382 267.754 148.251 267.716 148.131 267.654C148.012 267.592 147.906 267.506 147.819 267.403C147.733 267.299 147.669 267.179 147.629 267.05C147.59 266.92 147.577 266.785 147.591 266.65C147.606 266.516 147.646 266.386 147.711 266.268C147.776 266.15 147.864 266.046 147.97 265.962C148.076 265.878 148.198 265.817 148.328 265.78L149.576 265.408C149.832 265.331 150.109 265.36 150.344 265.487C150.579 265.614 150.755 265.829 150.831 266.085C150.908 266.341 150.88 266.617 150.753 266.853C150.626 267.088 150.411 267.264 150.155 267.34L150.181 267.332Z" fill="white"/>
<path d="M145.936 268.554L144.652 268.891C144.391 268.959 144.113 268.921 143.88 268.784C143.647 268.647 143.478 268.423 143.41 268.162C143.342 267.9 143.381 267.623 143.518 267.39C143.654 267.157 143.878 266.988 144.14 266.92L145.397 266.595C145.654 266.538 145.924 266.583 146.149 266.721C146.374 266.858 146.536 267.078 146.602 267.333C146.668 267.589 146.632 267.86 146.502 268.089C146.372 268.318 146.158 268.488 145.905 268.563L145.936 268.554Z" fill="white"/>
<path d="M141.643 269.597L140.328 269.877C140.062 269.935 139.784 269.885 139.555 269.738C139.326 269.591 139.164 269.359 139.106 269.093C139.048 268.827 139.098 268.548 139.245 268.319C139.392 268.09 139.624 267.928 139.89 267.87L141.161 267.599C141.423 267.549 141.694 267.604 141.917 267.751C142.139 267.898 142.296 268.126 142.353 268.387C142.41 268.648 142.363 268.92 142.222 269.147C142.081 269.374 141.858 269.537 141.599 269.601L141.643 269.597Z" fill="white"/>
<path d="M137.306 270.473L135.992 270.696C135.721 270.743 135.443 270.68 135.219 270.521C134.994 270.363 134.842 270.122 134.796 269.851C134.749 269.58 134.812 269.302 134.971 269.078C135.129 268.853 135.37 268.701 135.641 268.655L136.925 268.44C137.19 268.405 137.458 268.474 137.673 268.633C137.888 268.792 138.034 269.028 138.079 269.292C138.123 269.556 138.064 269.826 137.914 270.047C137.763 270.268 137.533 270.423 137.271 270.477L137.306 270.473Z" fill="white"/>
<path d="M132.929 271.156L131.615 271.323C131.479 271.34 131.341 271.33 131.209 271.293C131.077 271.257 130.953 271.195 130.845 271.111C130.626 270.941 130.484 270.691 130.45 270.416C130.416 270.141 130.492 269.864 130.662 269.645C130.832 269.427 131.082 269.285 131.357 269.251L132.649 269.093C132.923 269.059 133.198 269.135 133.416 269.305C133.633 269.475 133.774 269.724 133.808 269.997C133.841 270.271 133.765 270.547 133.595 270.764C133.426 270.982 133.177 271.123 132.903 271.156H132.929Z" fill="white"/>
<path d="M128.527 271.634L127.212 271.739C127.075 271.75 126.936 271.734 126.805 271.691C126.673 271.648 126.551 271.58 126.446 271.491C126.341 271.401 126.255 271.291 126.192 271.168C126.129 271.045 126.091 270.911 126.08 270.773C126.069 270.635 126.085 270.497 126.128 270.365C126.171 270.234 126.239 270.112 126.328 270.007C126.418 269.901 126.528 269.815 126.651 269.752C126.774 269.689 126.908 269.651 127.046 269.64L128.36 269.544C128.637 269.523 128.911 269.613 129.122 269.794C129.333 269.975 129.463 270.233 129.484 270.51C129.505 270.787 129.415 271.061 129.234 271.272C129.052 271.483 128.795 271.613 128.518 271.634H128.527Z" fill="white"/>
<path d="M124.106 271.91L122.792 271.949C122.649 271.962 122.504 271.945 122.367 271.9C122.23 271.855 122.104 271.783 121.996 271.687C121.888 271.591 121.801 271.475 121.739 271.344C121.678 271.214 121.644 271.072 121.639 270.928C121.634 270.784 121.659 270.641 121.712 270.506C121.764 270.372 121.844 270.25 121.945 270.148C122.046 270.045 122.168 269.964 122.301 269.91C122.435 269.856 122.578 269.83 122.722 269.833H122.744L124.058 269.794C124.329 269.801 124.586 269.912 124.778 270.104C124.969 270.295 125.08 270.552 125.088 270.823C125.096 271.093 125 271.357 124.82 271.559C124.64 271.761 124.389 271.887 124.12 271.91H124.106Z" fill="white"/>
<path d="M119.678 271.976H118.364C118.218 271.982 118.072 271.959 117.936 271.907C117.799 271.855 117.675 271.776 117.57 271.674C117.466 271.573 117.383 271.451 117.327 271.316C117.271 271.181 117.244 271.036 117.246 270.89C117.249 270.744 117.281 270.6 117.341 270.467C117.401 270.334 117.488 270.215 117.596 270.117C117.704 270.019 117.831 269.944 117.969 269.896C118.107 269.849 118.253 269.83 118.399 269.842L119.713 269.868C119.995 269.873 120.264 269.989 120.46 270.192C120.657 270.395 120.764 270.668 120.76 270.95C120.755 271.233 120.639 271.502 120.436 271.698C120.233 271.894 119.96 272.002 119.678 271.997V271.976Z" fill="white"/>
<path d="M115.244 271.831L113.93 271.748C113.647 271.727 113.383 271.596 113.196 271.382C113.01 271.168 112.915 270.888 112.933 270.605C112.951 270.321 113.08 270.056 113.292 269.868C113.504 269.679 113.782 269.581 114.066 269.597L115.38 269.684C115.664 269.703 115.929 269.835 116.116 270.049C116.304 270.264 116.398 270.544 116.379 270.828C116.36 271.112 116.229 271.377 116.014 271.564C115.8 271.751 115.52 271.846 115.236 271.827L115.244 271.831Z" fill="white"/>
<path d="M110.828 271.472L109.514 271.323C109.367 271.315 109.222 271.276 109.09 271.21C108.957 271.144 108.84 271.052 108.744 270.939C108.649 270.826 108.578 270.694 108.535 270.553C108.492 270.411 108.479 270.262 108.495 270.115C108.512 269.968 108.559 269.826 108.632 269.698C108.706 269.569 108.805 269.457 108.923 269.369C109.041 269.28 109.177 269.216 109.321 269.182C109.464 269.147 109.614 269.142 109.76 269.167H109.781L111.069 269.321C111.342 269.367 111.587 269.517 111.753 269.738C111.92 269.96 111.994 270.237 111.962 270.512C111.93 270.788 111.794 271.04 111.581 271.218C111.369 271.395 111.096 271.485 110.82 271.467L110.828 271.472Z" fill="white"/>
<path d="M106.413 270.911L105.098 270.692C104.813 270.644 104.557 270.485 104.389 270.249C104.221 270.013 104.153 269.72 104.2 269.435C104.248 269.149 104.407 268.893 104.643 268.725C104.879 268.557 105.172 268.489 105.458 268.536L106.737 268.751C107.023 268.794 107.281 268.949 107.453 269.182C107.625 269.415 107.698 269.707 107.655 269.993C107.612 270.28 107.457 270.537 107.224 270.709C106.991 270.881 106.699 270.954 106.413 270.911Z" fill="white"/>
<path d="M102.067 270.087L100.753 269.798C100.608 269.771 100.471 269.715 100.348 269.633C100.225 269.552 100.12 269.446 100.039 269.324C99.9579 269.201 99.9023 269.063 99.8754 268.918C99.8485 268.773 99.851 268.624 99.8827 268.481C99.9144 268.337 99.9747 268.201 100.06 268.081C100.145 267.961 100.254 267.859 100.379 267.782C100.504 267.704 100.644 267.653 100.789 267.63C100.935 267.608 101.083 267.615 101.226 267.651H101.248L102.514 267.932C102.796 267.997 103.041 268.172 103.196 268.417C103.35 268.662 103.401 268.959 103.338 269.242C103.276 269.525 103.103 269.771 102.86 269.928C102.616 270.085 102.32 270.139 102.037 270.078L102.067 270.087Z" fill="white"/>
<path d="M97.7479 269.049L96.4644 268.69C96.3193 268.655 96.1828 268.592 96.0629 268.503C95.943 268.414 95.8422 268.302 95.7665 268.174C95.6909 268.045 95.6419 267.903 95.6226 267.755C95.6033 267.607 95.614 267.457 95.6541 267.313C95.6942 267.17 95.7629 267.036 95.856 266.919C95.9491 266.803 96.0648 266.706 96.1961 266.636C96.3273 266.565 96.4715 266.521 96.62 266.508C96.7685 266.494 96.9182 266.51 97.0601 266.556H97.082L98.3305 266.907C98.6083 266.991 98.842 267.18 98.9815 267.435C99.121 267.689 99.1551 267.988 99.0765 268.268C98.9979 268.547 98.8129 268.784 98.5612 268.929C98.3095 269.073 98.0112 269.113 97.7304 269.04L97.7479 269.049Z" fill="white"/>
<path d="M93.4938 267.774L92.2322 267.336C91.9516 267.241 91.7203 267.038 91.5893 266.772C91.4583 266.506 91.4382 266.199 91.5334 265.919C91.6287 265.638 91.8315 265.407 92.0973 265.276C92.3631 265.145 92.67 265.124 92.9506 265.22L94.1728 265.658C94.4369 265.765 94.6499 265.969 94.7683 266.229C94.8867 266.488 94.9015 266.783 94.8097 267.053C94.7179 267.323 94.5264 267.547 94.2744 267.68C94.0225 267.814 93.7291 267.846 93.4544 267.77L93.4938 267.774Z" fill="white"/>
<path d="M89.3277 266.258L88.0923 265.754C87.95 265.703 87.8195 265.623 87.7087 265.52C87.5979 265.416 87.509 265.292 87.4475 265.154C87.3859 265.015 87.3528 264.866 87.3503 264.715C87.3477 264.563 87.3757 264.413 87.4326 264.272C87.4895 264.132 87.5741 264.005 87.6813 263.898C87.7886 263.791 87.9163 263.707 88.0568 263.65C88.1974 263.594 88.3478 263.567 88.4992 263.57C88.6505 263.573 88.7997 263.607 88.9378 263.669L90.1381 264.159C90.3969 264.284 90.5985 264.502 90.7017 264.77C90.8049 265.037 90.802 265.335 90.6935 265.6C90.5849 265.866 90.379 266.08 90.1179 266.199C89.8567 266.318 89.5599 266.333 89.2883 266.241L89.3277 266.258Z" fill="white"/>
<path d="M85.2317 264.497L84.027 263.923C83.7689 263.786 83.5737 263.554 83.4822 263.276C83.3908 262.998 83.41 262.696 83.536 262.432C83.662 262.168 83.885 261.963 84.1585 261.86C84.432 261.756 84.7348 261.762 85.0039 261.877L86.1692 262.442C86.4291 262.578 86.6262 262.809 86.7188 263.087C86.8114 263.365 86.7923 263.669 86.6655 263.933C86.5387 264.197 86.3142 264.402 86.0393 264.504C85.7645 264.606 85.4607 264.597 85.1923 264.479L85.2317 264.497Z" fill="white"/>
<path d="M81.2586 262.49L80.0933 261.842C79.8318 261.692 79.6399 261.446 79.5591 261.156C79.4782 260.866 79.5151 260.555 79.6616 260.292C79.8081 260.029 80.0525 259.835 80.3416 259.751C80.6308 259.667 80.9414 259.7 81.206 259.844L82.3319 260.479C82.5956 260.627 82.7899 260.873 82.8721 261.164C82.9542 261.455 82.9175 261.766 82.7699 262.03C82.6224 262.294 82.3761 262.488 82.0853 262.57C81.7944 262.653 81.4829 262.616 81.2191 262.468L81.2586 262.49Z" fill="white"/>
<path d="M77.4209 260.238L76.295 259.52C76.0394 259.354 75.86 259.094 75.7964 258.796C75.7327 258.498 75.79 258.187 75.9555 257.932C76.1211 257.676 76.3814 257.497 76.6792 257.433C76.977 257.369 77.2879 257.426 77.5435 257.592L78.63 258.297C78.7621 258.376 78.8771 258.481 78.9679 258.606C79.0587 258.73 79.1235 258.872 79.1585 259.022C79.1935 259.172 79.198 259.327 79.1716 259.479C79.1453 259.631 79.0887 259.776 79.0051 259.905C78.9216 260.034 78.8129 260.146 78.6855 260.232C78.558 260.319 78.4145 260.379 78.2634 260.409C78.1123 260.438 77.9567 260.438 77.8059 260.406C77.6552 260.375 77.5123 260.313 77.3858 260.225L77.4209 260.238Z" fill="white"/>
<path d="M73.7323 257.737L72.6809 256.939C72.4518 256.752 72.3036 256.483 72.2671 256.189C72.2306 255.895 72.3087 255.599 72.4851 255.361C72.6615 255.123 72.9226 254.962 73.2144 254.912C73.5062 254.861 73.8062 254.925 74.0521 255.09L75.086 255.866C75.2071 255.956 75.3092 256.069 75.3867 256.198C75.4641 256.328 75.5152 256.471 75.5372 256.621C75.5592 256.77 75.5515 256.922 75.5147 257.069C75.4778 257.215 75.4125 257.353 75.3225 257.474C75.2325 257.595 75.1195 257.697 74.99 257.774C74.8604 257.852 74.7169 257.903 74.5676 257.925C74.4184 257.947 74.2662 257.939 74.1199 257.902C73.9735 257.866 73.8359 257.8 73.7148 257.71L73.7323 257.737Z" fill="white"/>
<path d="M70.2192 254.998L69.1985 254.122C69.0725 254.028 68.9671 253.909 68.8889 253.772C68.8106 253.636 68.7612 253.484 68.7436 253.328C68.726 253.172 68.7406 253.013 68.7865 252.863C68.8324 252.712 68.9087 252.573 69.0106 252.453C69.1125 252.333 69.2379 252.235 69.379 252.166C69.5202 252.096 69.6741 252.056 69.8312 252.048C69.9884 252.04 70.1455 252.065 70.2928 252.12C70.4402 252.175 70.5746 252.26 70.6879 252.369L71.6736 253.206C71.8847 253.41 72.0103 253.686 72.0249 253.979C72.0394 254.271 71.9419 254.559 71.752 254.782C71.5622 255.006 71.2943 255.148 71.003 255.181C70.7117 255.214 70.4189 255.134 70.1842 254.959L70.2192 254.998Z" fill="white"/>
<path d="M66.8851 252.045L65.9213 251.121C65.7143 250.905 65.5989 250.618 65.5991 250.319C65.5994 250.02 65.7153 249.733 65.9227 249.517C66.13 249.302 66.4126 249.176 66.7113 249.164C67.0099 249.153 67.3014 249.257 67.5247 249.456L68.4534 250.354C68.5697 250.458 68.6638 250.584 68.7303 250.724C68.7967 250.865 68.834 251.018 68.84 251.174C68.846 251.329 68.8205 251.484 68.765 251.63C68.7096 251.775 68.6253 251.908 68.5173 252.02C68.4093 252.133 68.2798 252.222 68.1365 252.283C67.9932 252.343 67.8391 252.375 67.6834 252.375C67.5277 252.375 67.3736 252.343 67.2304 252.282C67.0872 252.221 66.9579 252.131 66.85 252.019L66.8851 252.045Z" fill="white"/>
<path d="M63.7444 248.895L62.8376 247.914C62.629 247.687 62.519 247.387 62.5318 247.079C62.5445 246.772 62.6789 246.482 62.9055 246.273C63.132 246.064 63.4322 245.954 63.7398 245.967C64.0475 245.98 64.3375 246.114 64.5461 246.341L65.4222 247.292C65.6302 247.518 65.7399 247.817 65.7271 248.124C65.7144 248.431 65.5803 248.72 65.3543 248.928C65.1283 249.136 64.829 249.246 64.5222 249.233C64.2153 249.22 63.9261 249.086 63.7181 248.86L63.7444 248.895Z" fill="white"/>
<path d="M60.8005 245.561L59.9769 244.527C59.7817 244.288 59.6894 243.982 59.7202 243.675C59.751 243.368 59.9024 243.086 60.1412 242.891C60.3799 242.695 60.6865 242.603 60.9933 242.634C61.3002 242.665 61.5822 242.816 61.7774 243.055L62.5922 244.058C62.7706 244.298 62.8497 244.597 62.8131 244.894C62.7764 245.19 62.6268 245.461 62.3955 245.65C62.1641 245.84 61.8687 245.932 61.5708 245.909C61.2729 245.886 60.9954 245.749 60.7961 245.526L60.8005 245.561Z" fill="white"/>
<path d="M58.0581 242.06L57.2739 240.978C57.1116 240.728 57.0515 240.425 57.1061 240.131C57.1607 239.838 57.3258 239.576 57.5674 239.401C57.8089 239.226 58.1086 239.15 58.4044 239.189C58.7003 239.228 58.9699 239.379 59.1576 239.611L59.9155 240.658C60.0779 240.909 60.1379 241.212 60.0833 241.506C60.0287 241.799 59.8636 242.06 59.6221 242.236C59.3805 242.411 59.0809 242.487 58.785 242.448C58.4891 242.409 58.2195 242.257 58.0318 242.025L58.0581 242.06Z" fill="white"/>
<path d="M55.5171 238.411L54.7942 237.289C54.647 237.029 54.6046 236.723 54.6759 236.433C54.7472 236.143 54.9267 235.891 55.1777 235.729C55.4287 235.567 55.732 235.508 56.0256 235.562C56.3193 235.617 56.5809 235.782 56.7568 236.023L57.4577 237.114C57.5406 237.243 57.5972 237.387 57.6245 237.538C57.6517 237.688 57.6489 237.843 57.6164 237.993C57.5839 238.142 57.5221 238.284 57.4348 238.41C57.3474 238.536 57.2361 238.643 57.1073 238.726C56.9784 238.809 56.8345 238.866 56.6837 238.893C56.533 238.92 56.3783 238.917 56.2286 238.885C56.0789 238.852 55.9371 238.791 55.8113 238.703C55.6854 238.616 55.578 238.505 55.4952 238.376L55.5171 238.411Z" fill="white"/>
<path d="M53.1866 234.625L52.5295 233.469C52.4491 233.335 52.3963 233.187 52.3742 233.032C52.352 232.878 52.3609 232.721 52.4005 232.57C52.44 232.419 52.5093 232.277 52.6042 232.154C52.6992 232.03 52.818 231.926 52.9535 231.849C53.0891 231.772 53.2387 231.723 53.3936 231.705C53.5484 231.686 53.7054 231.699 53.8553 231.742C54.0052 231.785 54.145 231.858 54.2663 231.956C54.3877 232.054 54.4883 232.175 54.5622 232.312L55.2018 233.438C55.3545 233.707 55.3942 234.026 55.3121 234.324C55.2299 234.622 55.0327 234.876 54.7637 235.028C54.4947 235.181 54.1761 235.221 53.8779 235.139C53.5796 235.057 53.3263 234.859 53.1735 234.59L53.1866 234.625Z" fill="white"/>
<path d="M51.0577 230.726L50.462 229.534C50.3929 229.397 50.3517 229.247 50.3405 229.094C50.3293 228.94 50.3485 228.786 50.3969 228.64C50.4453 228.494 50.522 228.359 50.6226 228.242C50.7232 228.126 50.8458 228.031 50.9833 227.961C51.1208 227.892 51.2705 227.851 51.424 227.84C51.5774 227.829 51.7316 227.848 51.8776 227.896C52.0236 227.945 52.1587 228.022 52.2751 228.122C52.3915 228.223 52.4869 228.345 52.556 228.483L53.1342 229.644C53.2033 229.781 53.2445 229.931 53.2557 230.085C53.2669 230.238 53.2477 230.392 53.1993 230.538C53.1509 230.684 53.0742 230.819 52.9736 230.936C52.873 231.052 52.7504 231.148 52.6129 231.217C52.4754 231.286 52.3257 231.327 52.1722 231.338C52.0188 231.349 51.8646 231.33 51.7186 231.282C51.5726 231.233 51.4375 231.157 51.3211 231.056C51.2047 230.955 51.1093 230.833 51.0402 230.695L51.0577 230.726Z" fill="white"/>
<path d="M49.1391 226.722L48.5871 225.504C48.5249 225.36 48.4918 225.205 48.4894 225.048C48.487 224.892 48.5155 224.736 48.5733 224.59C48.6311 224.445 48.717 224.312 48.8261 224.2C48.9351 224.087 49.0653 223.997 49.2091 223.935C49.353 223.873 49.5076 223.84 49.6643 223.837C49.8209 223.835 49.9765 223.864 50.1221 223.921C50.2678 223.979 50.4006 224.065 50.513 224.174C50.6255 224.283 50.7153 224.413 50.7775 224.557L51.2988 225.745C51.3606 225.886 51.394 226.038 51.3971 226.192C51.4002 226.346 51.3729 226.499 51.3168 226.643C51.2606 226.787 51.1768 226.918 51.0699 227.029C50.9631 227.14 50.8355 227.229 50.6942 227.291C50.553 227.353 50.401 227.386 50.2468 227.389C50.0927 227.393 49.9394 227.365 49.7958 227.309C49.6522 227.253 49.5211 227.169 49.4099 227.062C49.2987 226.955 49.2097 226.828 49.1478 226.687L49.1391 226.722Z" fill="white"/>
<path d="M47.4217 222.625L46.9485 221.403C46.8744 221.255 46.8321 221.094 46.8241 220.93C46.8162 220.765 46.8429 220.601 46.9024 220.447C46.962 220.293 47.0531 220.154 47.17 220.037C47.2868 219.921 47.4267 219.831 47.5807 219.772C47.7346 219.713 47.8992 219.687 48.0638 219.696C48.2284 219.705 48.3893 219.748 48.5361 219.823C48.683 219.898 48.8125 220.002 48.9163 220.13C49.0201 220.258 49.096 220.407 49.1389 220.566L49.577 221.779C49.653 222.061 49.6218 222.361 49.4893 222.622C49.3568 222.882 49.1324 223.083 48.8598 223.187C48.5871 223.292 48.2855 223.291 48.0133 223.185C47.7411 223.08 47.5178 222.877 47.3866 222.616L47.4217 222.625Z" fill="white"/>
<path d="M45.9148 218.454L45.503 217.188C45.4549 217.041 45.4364 216.885 45.4484 216.731C45.4603 216.577 45.5026 216.426 45.5728 216.288C45.643 216.15 45.7396 216.027 45.8573 215.926C45.975 215.825 46.1114 215.749 46.2586 215.701C46.4059 215.653 46.5612 215.634 46.7157 215.646C46.8701 215.658 47.0207 215.7 47.1588 215.77C47.2969 215.841 47.4198 215.937 47.5206 216.055C47.6213 216.173 47.6979 216.309 47.7459 216.456L48.1446 217.688C48.2416 217.985 48.2165 218.309 48.0747 218.588C47.933 218.867 47.6863 219.078 47.3889 219.175C47.0915 219.272 46.7677 219.247 46.4887 219.105C46.2098 218.963 45.9986 218.717 45.9016 218.419L45.9148 218.454Z" fill="white"/>
<path d="M44.6094 214.209L44.2589 212.925C44.2181 212.775 44.2071 212.619 44.2268 212.465C44.2464 212.31 44.2961 212.162 44.3732 212.027C44.4503 211.892 44.5532 211.774 44.676 211.679C44.7989 211.583 44.9392 211.514 45.0891 211.473C45.2389 211.432 45.3954 211.421 45.5495 211.44C45.7035 211.46 45.8523 211.51 45.9871 211.587C46.122 211.664 46.2403 211.767 46.3354 211.89C46.4305 212.013 46.5004 212.153 46.5413 212.303L46.883 213.556C46.9238 213.706 46.9348 213.862 46.9151 214.016C46.8955 214.17 46.8458 214.319 46.7687 214.454C46.6916 214.589 46.5887 214.707 46.4659 214.802C46.343 214.897 46.2027 214.967 46.0528 215.008C45.903 215.049 45.7465 215.06 45.5924 215.04C45.4384 215.021 45.2896 214.971 45.1548 214.894C45.0199 214.817 44.9016 214.714 44.8065 214.591C44.7114 214.468 44.6415 214.328 44.6006 214.178L44.6094 214.209Z" fill="white"/>
<path d="M43.5139 209.911L43.2204 208.596C43.1518 208.289 43.2082 207.967 43.377 207.701C43.5458 207.435 43.8133 207.248 44.1206 207.179C44.4279 207.11 44.7499 207.167 45.0156 207.336C45.2814 207.504 45.4692 207.772 45.5378 208.079L45.8182 209.346C45.8663 209.644 45.7986 209.95 45.6289 210.201C45.4592 210.451 45.2003 210.627 44.905 210.693C44.6098 210.759 44.3005 210.71 44.0403 210.556C43.7801 210.401 43.5887 210.153 43.5051 209.862L43.5139 209.911Z" fill="white"/>
<path d="M42.6204 205.565L42.3926 204.25C42.3623 204.095 42.3633 203.935 42.3956 203.781C42.4278 203.626 42.4907 203.479 42.5805 203.349C42.6702 203.219 42.7851 203.108 42.9183 203.022C43.0515 202.937 43.2004 202.88 43.3562 202.853C43.5121 202.826 43.6717 202.83 43.8257 202.866C43.9797 202.902 44.1251 202.968 44.2532 203.06C44.3814 203.153 44.4897 203.27 44.5719 203.406C44.6541 203.541 44.7085 203.691 44.7319 203.847L44.951 205.126C44.9777 205.28 44.9739 205.437 44.9399 205.59C44.9058 205.742 44.8421 205.886 44.7524 206.013C44.6627 206.141 44.5488 206.249 44.4171 206.333C44.2854 206.416 44.1386 206.473 43.985 206.5C43.8314 206.527 43.674 206.523 43.5219 206.489C43.3697 206.455 43.2258 206.391 43.0983 206.301C42.9707 206.212 42.8621 206.098 42.7786 205.966C42.6951 205.834 42.6384 205.688 42.6116 205.534L42.6204 205.565Z" fill="white"/>
<path d="M41.9327 201.179L41.7662 199.864C41.7267 199.551 41.8134 199.234 42.0073 198.984C42.2012 198.735 42.4863 198.572 42.8 198.533C43.1137 198.493 43.4303 198.58 43.68 198.774C43.9298 198.968 44.0923 199.253 44.1318 199.567L44.2939 200.855C44.3145 201.158 44.218 201.459 44.0243 201.694C43.8305 201.928 43.5542 202.08 43.252 202.118C42.9499 202.155 42.6448 202.076 42.3994 201.896C42.1541 201.715 41.9871 201.448 41.9327 201.148V201.179Z" fill="white"/>
<path d="M41.4552 196.767L41.3501 195.453C41.3317 195.293 41.3458 195.131 41.3914 194.977C41.437 194.822 41.5133 194.679 41.6156 194.555C41.7179 194.431 41.8442 194.329 41.9869 194.255C42.1296 194.18 42.2858 194.136 42.4462 194.123C42.6065 194.111 42.7677 194.131 42.9201 194.182C43.0725 194.234 43.213 194.315 43.3331 194.422C43.4533 194.529 43.5506 194.659 43.6194 194.805C43.6881 194.95 43.7268 195.108 43.7332 195.269L43.834 196.583C43.8578 196.898 43.7553 197.21 43.5491 197.45C43.3429 197.69 43.0499 197.838 42.7344 197.862C42.419 197.886 42.107 197.784 41.8671 197.577C41.6272 197.371 41.4791 197.078 41.4552 196.763V196.767Z" fill="white"/>
<path d="M41.1835 192.338L41.144 191.023C41.1513 190.716 41.2762 190.423 41.4929 190.205C41.7096 189.987 42.0017 189.861 42.3089 189.852C42.6162 189.843 42.9152 189.952 43.1443 190.157C43.3734 190.362 43.5151 190.647 43.5403 190.953L43.5754 192.267C43.58 192.425 43.5536 192.581 43.4978 192.728C43.4419 192.875 43.3577 193.009 43.2499 193.123C43.1421 193.238 43.0128 193.33 42.8695 193.394C42.7261 193.458 42.5715 193.494 42.4145 193.499C42.2574 193.503 42.101 193.477 41.9541 193.421C41.8073 193.365 41.6728 193.281 41.5585 193.173C41.4442 193.065 41.3523 192.936 41.2879 192.793C41.2236 192.649 41.1881 192.495 41.1835 192.338Z" fill="white"/>
<path d="M41.1394 187.895L41.1657 186.581C41.1721 186.262 41.3047 185.959 41.5343 185.739C41.7639 185.518 42.0718 185.398 42.3901 185.404C42.7084 185.411 43.0112 185.543 43.2318 185.773C43.4524 186.002 43.5727 186.31 43.5663 186.629L43.54 187.943C43.5369 188.101 43.5027 188.256 43.4395 188.401C43.3762 188.545 43.2851 188.676 43.1714 188.785C43.0577 188.894 42.9236 188.98 42.7768 189.037C42.63 189.095 42.4733 189.123 42.3156 189.119C42.158 189.116 42.0025 189.082 41.8581 189.019C41.7137 188.956 41.5832 188.865 41.4739 188.751C41.3647 188.637 41.2789 188.503 41.2215 188.356C41.1641 188.209 41.1362 188.053 41.1394 187.895Z" fill="white"/>
<path d="M41.2842 183.465L41.3674 182.151C41.3686 181.987 41.4032 181.825 41.4692 181.675C41.5351 181.525 41.631 181.39 41.751 181.278C41.8709 181.166 42.0124 181.08 42.1668 181.025C42.3212 180.97 42.4853 180.947 42.6489 180.957C42.8125 180.968 42.9723 181.011 43.1184 181.086C43.2645 181.16 43.3939 181.263 43.4987 181.39C43.6035 181.516 43.6814 181.662 43.7277 181.819C43.7741 181.976 43.7878 182.142 43.7681 182.304L43.6805 183.619C43.6601 183.937 43.5144 184.233 43.2753 184.444C43.0363 184.654 42.7234 184.761 42.4057 184.74C42.0879 184.72 41.7912 184.574 41.5809 184.335C41.3706 184.096 41.2639 183.783 41.2842 183.465Z" fill="white"/>
<path d="M41.6305 179.045L41.7751 177.73C41.8093 177.413 41.9684 177.121 42.2174 176.921C42.4663 176.72 42.7847 176.627 43.1024 176.661C43.4202 176.696 43.7113 176.855 43.9118 177.104C44.1122 177.353 44.2056 177.671 44.1713 177.989L44.0311 179.277C44.0142 179.434 43.9664 179.587 43.8905 179.726C43.8146 179.865 43.7121 179.987 43.5888 180.086C43.4656 180.186 43.324 180.26 43.1721 180.304C43.0203 180.349 42.8611 180.363 42.7038 180.346C42.5464 180.329 42.394 180.281 42.2551 180.205C42.1162 180.129 41.9937 180.027 41.8944 179.904C41.7952 179.78 41.7212 179.639 41.6766 179.487C41.6321 179.335 41.6179 179.176 41.6349 179.018L41.6305 179.045Z" fill="white"/>
<path d="M42.1646 174.646L42.3617 173.332C42.4114 173.017 42.5834 172.734 42.8403 172.546C43.0972 172.357 43.4181 172.277 43.7334 172.324C44.0486 172.371 44.3327 172.54 44.5237 172.795C44.7148 173.051 44.7974 173.371 44.7536 173.687L44.5608 174.97C44.4978 175.273 44.3214 175.54 44.0679 175.716C43.8143 175.893 43.5028 175.965 43.1972 175.919C42.8917 175.873 42.6154 175.712 42.425 175.469C42.2346 175.226 42.1445 174.919 42.1733 174.611L42.1646 174.646Z" fill="white"/>
<path d="M42.8921 170.273L43.1374 168.959C43.1955 168.644 43.3765 168.364 43.6406 168.182C43.9048 168 44.2304 167.931 44.5458 167.989C44.8612 168.047 45.1407 168.228 45.3227 168.492C45.5046 168.756 45.5742 169.082 45.5161 169.397L45.2708 170.677C45.198 170.977 45.0129 171.238 44.7535 171.406C44.4942 171.574 44.1804 171.637 43.8764 171.581C43.5725 171.525 43.3016 171.354 43.1194 171.105C42.9371 170.855 42.8573 170.545 42.8964 170.238L42.8921 170.273Z" fill="white"/>
<path d="M43.7681 165.936L44.066 164.644C44.1019 164.488 44.1681 164.341 44.2608 164.212C44.3534 164.082 44.4708 163.972 44.606 163.887C44.7413 163.803 44.8918 163.746 45.0491 163.72C45.2064 163.693 45.3672 163.698 45.5226 163.734C45.6779 163.77 45.8246 163.837 45.9544 163.929C46.0841 164.022 46.1943 164.139 46.2787 164.275C46.3632 164.41 46.4201 164.56 46.4463 164.718C46.4725 164.875 46.4675 165.036 46.4316 165.191L46.1381 166.457C46.0648 166.767 45.8726 167.036 45.6029 167.206C45.3331 167.375 45.0076 167.432 44.6964 167.364C44.3853 167.295 44.1136 167.107 43.9399 166.84C43.7662 166.573 43.7045 166.248 43.7681 165.936Z" fill="white"/>
<path d="M44.828 161.638L45.1741 160.354C45.2691 160.055 45.4763 159.803 45.7523 159.653C46.0283 159.503 46.3518 159.465 46.6551 159.547C46.9583 159.63 47.2179 159.827 47.3795 160.096C47.5411 160.366 47.5923 160.688 47.5222 160.994L47.1805 162.251C47.0957 162.562 46.8909 162.827 46.6112 162.986C46.3314 163.146 45.9997 163.188 45.6889 163.104C45.3781 163.019 45.1137 162.814 44.9539 162.534C44.7941 162.254 44.752 161.923 44.8368 161.612L44.828 161.638Z" fill="white"/>
<path d="M46.0459 157.384L46.4402 156.113C46.5366 155.805 46.7517 155.547 47.038 155.397C47.3243 155.247 47.6584 155.217 47.9669 155.314C48.2754 155.41 48.5329 155.625 48.6828 155.912C48.8328 156.198 48.8628 156.532 48.7664 156.841L48.3765 158.085C48.3363 158.246 48.2638 158.397 48.1632 158.529C48.0627 158.66 47.9363 158.77 47.7918 158.852C47.6472 158.933 47.4876 158.984 47.3228 159.001C47.1579 159.019 46.9912 159.002 46.8329 158.953C46.6746 158.904 46.528 158.822 46.4022 158.714C46.2763 158.607 46.1738 158.474 46.1009 158.325C46.0281 158.176 45.9864 158.014 45.9785 157.848C45.9705 157.683 45.9964 157.517 46.0547 157.362L46.0459 157.384Z" fill="white"/>
<path d="M47.4129 153.173L47.851 151.92C47.9672 151.627 48.1928 151.389 48.4803 151.258C48.7678 151.127 49.0949 151.112 49.393 151.217C49.6911 151.322 49.937 151.538 50.0791 151.82C50.2212 152.103 50.2485 152.429 50.1552 152.731L49.7171 153.962C49.6686 154.119 49.5888 154.265 49.4826 154.391C49.3764 154.516 49.246 154.619 49.0991 154.693C48.9522 154.767 48.7919 154.811 48.6277 154.821C48.4636 154.832 48.299 154.809 48.1439 154.754C47.9887 154.7 47.8462 154.614 47.7248 154.503C47.6034 154.393 47.5056 154.258 47.4374 154.108C47.3691 153.959 47.3318 153.797 47.3275 153.633C47.3233 153.468 47.3524 153.304 47.4129 153.152V153.173Z" fill="white"/>
<path d="M48.9329 149.02L49.4147 147.785C49.4657 147.626 49.5484 147.48 49.6578 147.355C49.7671 147.23 49.9009 147.128 50.0509 147.056C50.2008 146.985 50.3639 146.944 50.53 146.938C50.6961 146.931 50.8618 146.959 51.0169 147.018C51.1721 147.078 51.3134 147.169 51.4323 147.285C51.5512 147.401 51.6452 147.54 51.7084 147.694C51.7717 147.848 51.8029 148.013 51.8002 148.179C51.7975 148.345 51.7609 148.509 51.6927 148.661L51.2152 149.901C51.1643 150.059 51.0816 150.205 50.9722 150.33C50.8628 150.455 50.7291 150.557 50.5791 150.629C50.4291 150.701 50.2661 150.741 50.1 150.747C49.9339 150.754 49.7682 150.727 49.6131 150.667C49.4579 150.607 49.3166 150.517 49.1977 150.4C49.0788 150.284 48.9848 150.145 48.9215 149.991C48.8583 149.837 48.8271 149.672 48.8298 149.506C48.8324 149.34 48.869 149.176 48.9372 149.024L48.9329 149.02Z" fill="white"/>
<path d="M50.5891 144.919L51.1104 143.701C51.2388 143.402 51.4808 143.166 51.7831 143.045C52.0854 142.924 52.4233 142.929 52.7225 143.057C53.0217 143.186 53.2576 143.428 53.3784 143.73C53.4991 144.032 53.4949 144.37 53.3665 144.669L52.8496 145.865C52.7907 146.02 52.7012 146.161 52.5863 146.28C52.4715 146.4 52.3338 146.494 52.1814 146.559C52.0291 146.623 51.8652 146.656 51.6998 146.656C51.5343 146.655 51.3707 146.621 51.2187 146.556C51.0667 146.491 50.9295 146.395 50.8153 146.276C50.7011 146.156 50.6124 146.014 50.5544 145.859C50.4964 145.704 50.4703 145.539 50.4778 145.374C50.4853 145.208 50.5261 145.046 50.5978 144.897L50.5891 144.919Z" fill="white"/>
<path d="M52.3761 140.875L52.9368 139.675C53.079 139.385 53.329 139.163 53.6331 139.056C53.9371 138.949 54.271 138.966 54.563 139.103C54.855 139.239 55.0818 139.485 55.1947 139.787C55.3076 140.089 55.2975 140.423 55.1667 140.717L54.6103 141.896C54.4625 142.176 54.2124 142.389 53.912 142.489C53.6116 142.59 53.2841 142.57 52.9975 142.436C52.7109 142.301 52.4873 142.061 52.3732 141.765C52.2591 141.47 52.2633 141.141 52.3849 140.849L52.3761 140.875Z" fill="white"/>
<path d="M54.2818 136.893L54.882 135.714C55.0414 135.445 55.2972 135.247 55.5974 135.16C55.8976 135.072 56.2198 135.102 56.4986 135.244C56.7773 135.386 56.9917 135.628 57.0983 135.922C57.2049 136.216 57.1956 136.54 57.0724 136.827L56.481 137.988C56.3155 138.246 56.0599 138.434 55.764 138.514C55.468 138.594 55.1528 138.561 54.8797 138.422C54.6065 138.283 54.3949 138.047 54.2861 137.76C54.1772 137.473 54.1788 137.156 54.2906 136.871L54.2818 136.893Z" fill="white"/>
<path d="M56.3277 132.976L56.9586 131.81C57.1154 131.52 57.3812 131.304 57.6975 131.209C58.0138 131.115 58.3547 131.15 58.6451 131.307C58.9356 131.463 59.1519 131.729 59.2463 132.046C59.3408 132.362 59.3058 132.703 59.1489 132.993L58.5269 134.137C58.37 134.427 58.1042 134.644 57.7879 134.738C57.4716 134.833 57.1307 134.798 56.8403 134.641C56.5498 134.484 56.3336 134.218 56.2391 133.902C56.1446 133.585 56.1796 133.244 56.3365 132.954L56.3277 132.976Z" fill="white"/>
<path d="M58.4784 129.116L59.1487 127.972C59.2277 127.827 59.3351 127.699 59.4644 127.597C59.5938 127.494 59.7424 127.418 59.9016 127.373C60.0608 127.329 60.2273 127.317 60.3912 127.338C60.5551 127.359 60.7131 127.413 60.8559 127.496C60.9987 127.579 61.1233 127.69 61.2223 127.823C61.3214 127.955 61.3929 128.106 61.4327 128.266C61.4724 128.427 61.4796 128.594 61.4537 128.757C61.4278 128.92 61.3695 129.076 61.2821 129.217L60.625 130.343C60.5433 130.483 60.4348 130.606 60.3056 130.704C60.1764 130.803 60.0291 130.875 59.872 130.916C59.715 130.958 59.5514 130.968 59.3904 130.946C59.2295 130.925 59.0744 130.871 58.934 130.79C58.7936 130.708 58.6707 130.599 58.5723 130.47C58.4739 130.341 58.4019 130.194 58.3604 130.037C58.3189 129.879 58.3087 129.716 58.3305 129.555C58.3522 129.394 58.4055 129.239 58.4872 129.098L58.4784 129.116Z" fill="white"/>
<path d="M60.7477 125.326L61.4487 124.2C61.535 124.063 61.6474 123.944 61.7797 123.85C61.9119 123.757 62.0613 123.69 62.2193 123.654C62.3774 123.618 62.5409 123.613 62.7007 123.64C62.8605 123.668 63.0134 123.726 63.1506 123.812C63.2878 123.899 63.4067 124.011 63.5004 124.143C63.5941 124.276 63.6609 124.425 63.6969 124.583C63.7329 124.741 63.7374 124.905 63.7102 125.065C63.683 125.224 63.6246 125.377 63.5383 125.515L62.8505 126.627C62.7642 126.765 62.6517 126.884 62.5193 126.978C62.387 127.072 62.2374 127.139 62.0792 127.175C61.921 127.211 61.7571 127.216 61.5971 127.189C61.437 127.162 61.2839 127.104 61.1464 127.017C61.0089 126.931 60.8897 126.818 60.7957 126.686C60.7017 126.554 60.6347 126.404 60.5985 126.246C60.5623 126.088 60.5576 125.924 60.5847 125.764C60.6118 125.604 60.6702 125.45 60.7565 125.313L60.7477 125.326Z" fill="white"/>
<path d="M63.1176 121.598L63.8492 120.494C64.0302 120.226 64.3096 120.04 64.6267 119.977C64.9437 119.914 65.2728 119.979 65.5424 120.157C65.8119 120.336 66.0002 120.613 66.0663 120.93C66.1323 121.246 66.0708 121.576 65.895 121.847L65.1766 122.938C64.9977 123.21 64.7181 123.4 64.3993 123.466C64.0805 123.531 63.7487 123.468 63.4769 123.289C63.205 123.11 63.0153 122.83 62.9496 122.511C62.8839 122.193 62.9475 121.861 63.1264 121.589L63.1176 121.598Z" fill="white"/>
<path d="M65.5887 117.939L66.3466 116.857C66.4372 116.722 66.5538 116.607 66.6896 116.518C66.8253 116.428 66.9775 116.367 67.1372 116.337C67.297 116.307 67.4611 116.31 67.6198 116.344C67.7786 116.379 67.929 116.444 68.0621 116.538C68.1952 116.631 68.3084 116.75 68.395 116.887C68.4816 117.025 68.54 117.178 68.5667 117.338C68.5934 117.499 68.5878 117.663 68.5504 117.821C68.5129 117.979 68.4443 118.128 68.3486 118.259L67.5995 119.319C67.5115 119.46 67.3959 119.581 67.2598 119.675C67.1237 119.769 66.9698 119.835 66.8076 119.868C66.6453 119.901 66.4781 119.9 66.3159 119.867C66.1538 119.833 66.0002 119.767 65.8645 119.672C65.7287 119.577 65.6136 119.456 65.5261 119.315C65.4387 119.175 65.3807 119.018 65.3558 118.854C65.3308 118.691 65.3394 118.524 65.3809 118.363C65.4224 118.203 65.4961 118.053 65.5975 117.922L65.5887 117.939Z" fill="white"/>
<path d="M68.1555 114.351L68.944 113.286C69.1357 113.027 69.4225 112.855 69.7412 112.807C70.06 112.76 70.3846 112.841 70.6437 113.032C70.9028 113.224 71.0751 113.511 71.1228 113.83C71.1704 114.148 71.0895 114.473 70.8978 114.732L70.118 115.814C70.0231 115.943 69.9037 116.052 69.7667 116.135C69.6297 116.218 69.4777 116.273 69.3195 116.297C69.1613 116.321 68.9998 116.313 68.8445 116.275C68.6891 116.236 68.5428 116.168 68.4139 116.073C68.2851 115.978 68.1761 115.859 68.0934 115.722C68.0107 115.585 67.9558 115.433 67.9317 115.274C67.9077 115.116 67.9152 114.955 67.9535 114.799C67.9919 114.644 68.0605 114.497 68.1555 114.369V114.351Z" fill="white"/>
<path d="M70.8103 110.824L71.6251 109.781C71.7232 109.656 71.8451 109.551 71.9838 109.472C72.1225 109.393 72.2754 109.343 72.4336 109.323C72.5919 109.304 72.7524 109.316 72.9061 109.358C73.0597 109.401 73.2035 109.473 73.3292 109.571C73.4549 109.669 73.5601 109.791 73.6387 109.93C73.7173 110.069 73.7678 110.221 73.7873 110.38C73.8068 110.538 73.795 110.699 73.7525 110.852C73.71 111.006 73.6376 111.15 73.5395 111.275L72.7335 112.309C72.6357 112.435 72.514 112.541 72.3754 112.62C72.2369 112.699 72.0841 112.75 71.9259 112.77C71.7676 112.79 71.607 112.778 71.4532 112.736C71.2994 112.694 71.1553 112.622 71.0293 112.524C70.9034 112.426 70.7979 112.305 70.7189 112.166C70.6399 112.027 70.589 111.875 70.5691 111.716C70.5492 111.558 70.5606 111.398 70.6027 111.244C70.6449 111.09 70.7169 110.946 70.8147 110.82L70.8103 110.824Z" fill="white"/>
<path d="M73.557 107.372L74.3981 106.351C74.6067 106.121 74.8957 105.98 75.2053 105.957C75.5149 105.935 75.8214 106.032 76.0613 106.229C76.3011 106.426 76.456 106.708 76.4938 107.016C76.5316 107.324 76.4495 107.635 76.2643 107.884L75.4364 108.892C75.3387 109.023 75.2155 109.132 75.0744 109.214C74.9332 109.296 74.7769 109.349 74.6149 109.368C74.4529 109.388 74.2886 109.375 74.1318 109.33C73.975 109.284 73.8291 109.208 73.7027 109.104C73.5764 109.001 73.4722 108.873 73.3966 108.729C73.3209 108.584 73.2753 108.426 73.2625 108.263C73.2497 108.1 73.27 107.937 73.3221 107.782C73.3742 107.627 73.4571 107.485 73.5658 107.363L73.557 107.372Z" fill="white"/>
<path d="M76.3871 103.985L77.2633 102.982C77.3663 102.862 77.4917 102.764 77.6325 102.693C77.7734 102.623 77.9268 102.58 78.084 102.569C78.2412 102.557 78.3992 102.576 78.5489 102.626C78.6986 102.675 78.8371 102.754 78.9564 102.857C79.0758 102.96 79.1737 103.085 79.2446 103.226C79.3155 103.367 79.3579 103.52 79.3695 103.678C79.3811 103.835 79.3616 103.993 79.3122 104.143C79.2627 104.292 79.1843 104.431 79.0813 104.55L78.2314 105.545C78.1292 105.665 78.0041 105.765 77.8633 105.837C77.7225 105.909 77.5688 105.952 77.4112 105.964C77.2535 105.977 77.095 105.957 76.9448 105.908C76.7946 105.858 76.6556 105.78 76.5361 105.676C76.2941 105.468 76.1444 105.172 76.1198 104.853C76.0952 104.535 76.1976 104.22 76.4046 103.976L76.3871 103.985Z" fill="white"/>
<path d="M79.3001 100.673L80.1762 99.6914C80.2793 99.5651 80.407 99.461 80.5515 99.3857C80.6961 99.3103 80.8545 99.2652 81.0171 99.253C81.1796 99.2409 81.343 99.262 81.4971 99.3151C81.6513 99.3681 81.793 99.452 81.9136 99.5617C82.0343 99.6713 82.1314 99.8044 82.1989 99.9528C82.2664 100.101 82.303 100.262 82.3065 100.425C82.3099 100.588 82.2801 100.75 82.2189 100.901C82.1577 101.052 82.0664 101.189 81.9505 101.304L81.0743 102.272C80.8611 102.508 80.5627 102.651 80.2448 102.667C79.9268 102.683 79.6154 102.573 79.3789 102.36C79.1425 102.146 79.0005 101.848 78.984 101.53C78.9676 101.212 79.0781 100.901 79.2913 100.664L79.3001 100.673Z" fill="white"/>
<path d="M82.2922 97.4131L83.2034 96.458C83.4218 96.2291 83.7222 96.0963 84.0385 96.0889C84.3548 96.0816 84.6611 96.2001 84.8899 96.4186C85.1188 96.637 85.2516 96.9375 85.259 97.2538C85.2663 97.5702 85.1478 97.8765 84.9294 98.1054L84.0532 99.0517C83.9451 99.1668 83.8153 99.2595 83.6714 99.3244C83.5274 99.3893 83.3721 99.4252 83.2142 99.4301C83.0564 99.435 82.8992 99.4087 82.7515 99.3528C82.6038 99.2969 82.4685 99.2125 82.3535 99.1043C82.2384 98.9962 82.1458 98.8664 82.0809 98.7224C82.016 98.5784 81.9801 98.4231 81.9752 98.2652C81.9703 98.1074 81.9966 97.9501 82.0524 97.8024C82.1083 97.6547 82.1928 97.5195 82.3009 97.4044L82.2922 97.4131Z" fill="white"/>
<path d="M85.3851 94.2674L86.3226 93.3298C86.5503 93.1285 86.8462 93.0218 87.15 93.0315C87.4537 93.0412 87.7423 93.1666 87.9566 93.3821C88.1709 93.5976 88.2949 93.8868 88.303 94.1907C88.3111 94.4945 88.2029 94.7899 88.0004 95.0166L87.0761 95.941C86.8508 96.154 86.5515 96.2708 86.2415 96.2667C85.9316 96.2625 85.6355 96.1377 85.416 95.9188C85.1966 95.6999 85.071 95.4041 85.0661 95.0941C85.0611 94.7841 85.1771 94.4845 85.3895 94.2586L85.3851 94.2674Z" fill="white"/>
<path d="M88.5129 91.1786L89.4767 90.2717C89.5883 90.1591 89.7213 90.0702 89.868 90.01C90.0146 89.9499 90.1719 89.9199 90.3304 89.9217C90.4889 89.9236 90.6454 89.9572 90.7906 90.0207C90.9358 90.0843 91.0668 90.1763 91.1757 90.2914C91.2847 90.4066 91.3694 90.5424 91.4248 90.6909C91.4802 90.8394 91.5052 90.9976 91.4983 91.1559C91.4915 91.3143 91.4528 91.4696 91.3847 91.6128C91.3166 91.7559 91.2205 91.8839 91.1019 91.9892L90.1557 92.8917C90.0452 93.0097 89.9118 93.1039 89.7636 93.1685C89.6154 93.2331 89.4556 93.2667 89.2939 93.2673C89.1323 93.268 88.9722 93.2356 88.8235 93.1722C88.6748 93.1087 88.5406 93.0156 88.4292 92.8985C88.3178 92.7814 88.2314 92.6427 88.1755 92.491C88.1195 92.3394 88.0951 92.1779 88.1038 92.0164C88.1124 91.855 88.1539 91.697 88.2258 91.5522C88.2977 91.4074 88.3984 91.2788 88.5217 91.1742L88.5129 91.1786Z" fill="white"/>
<path d="M91.746 88.1775L92.7316 87.3012C92.964 87.0921 93.2699 86.9838 93.5821 87.0002C93.8943 87.0167 94.1872 87.1564 94.3963 87.3888C94.6054 87.6212 94.7137 87.9272 94.6973 88.2394C94.6808 88.5517 94.5411 88.8446 94.3087 89.0537L93.3406 89.93C93.1082 90.1397 92.802 90.2486 92.4894 90.2325C92.1768 90.2165 91.8834 90.077 91.6737 89.8446C91.464 89.6122 91.3552 89.306 91.3712 88.9933C91.3872 88.6807 91.5267 88.3872 91.7591 88.1775H91.746Z" fill="white"/>
<path d="M95.0537 85.2595L96.0613 84.3833C96.2983 84.1811 96.6059 84.0813 96.9165 84.106C97.227 84.1306 97.515 84.2776 97.7172 84.5147C97.9194 84.7517 98.0191 85.0594 97.9945 85.37C97.9698 85.6806 97.8228 85.9686 97.5858 86.1708L96.5957 87.0208C96.4784 87.1212 96.3424 87.1975 96.1955 87.2453C96.0487 87.2932 95.8939 87.3116 95.7399 87.2996C95.5859 87.2876 95.4359 87.2454 95.2982 87.1754C95.1605 87.1054 95.038 87.0089 94.9376 86.8916C94.8372 86.7742 94.7609 86.6382 94.7131 86.4913C94.6653 86.3445 94.6468 86.1896 94.6588 86.0356C94.6708 85.8816 94.713 85.7315 94.783 85.5938C94.8531 85.4562 94.9495 85.3336 95.0669 85.2332L95.0537 85.2595Z" fill="white"/>
<path d="M98.4398 82.4293L99.4693 81.5969C99.5889 81.5002 99.7264 81.4281 99.874 81.3846C100.022 81.341 100.176 81.327 100.329 81.3433C100.482 81.3596 100.63 81.4058 100.765 81.4794C100.901 81.553 101.02 81.6524 101.116 81.7721C101.213 81.8918 101.285 82.0293 101.329 82.1769C101.372 82.3244 101.386 82.4791 101.37 82.6321C101.354 82.785 101.307 82.9333 101.234 83.0684C101.16 83.2035 101.061 83.3228 100.941 83.4194L99.9292 84.2387C99.6876 84.4339 99.3783 84.5252 99.0694 84.4923C98.7605 84.4594 98.4773 84.3052 98.2821 84.0635C98.0869 83.8218 97.9957 83.5125 98.0285 83.2035C98.0614 82.8946 98.2156 82.6114 98.4573 82.4161L98.4398 82.4293Z" fill="white"/>
<path d="M101.901 79.691L102.956 78.8892C103.077 78.7896 103.217 78.7154 103.368 78.6711C103.518 78.6267 103.676 78.6132 103.832 78.6313C103.987 78.6494 104.138 78.6988 104.274 78.7764C104.41 78.854 104.529 78.9583 104.624 79.0831C104.719 79.2078 104.788 79.3504 104.827 79.5024C104.865 79.6544 104.873 79.8126 104.849 79.9675C104.825 80.1224 104.77 80.2709 104.687 80.4041C104.604 80.5372 104.495 80.6523 104.367 80.7425L103.346 81.5399C103.099 81.7144 102.794 81.7864 102.495 81.7407C102.196 81.6949 101.926 81.535 101.742 81.2946C101.559 81.0541 101.475 80.7518 101.51 80.4512C101.544 80.1505 101.694 79.8749 101.927 79.6822L101.901 79.691Z" fill="white"/>
<path d="M105.44 77.0534L106.518 76.278C106.768 76.1139 107.072 76.0529 107.366 76.1076C107.661 76.1623 107.922 76.3285 108.097 76.5715C108.272 76.8146 108.346 77.1157 108.304 77.412C108.262 77.7083 108.107 77.977 107.872 78.1619L106.816 78.9286C106.692 79.0181 106.552 79.0823 106.403 79.1176C106.255 79.153 106.101 79.1587 105.95 79.1345C105.8 79.1103 105.655 79.0566 105.525 78.9766C105.395 78.8965 105.282 78.7916 105.193 78.6679C105.103 78.5442 105.039 78.4041 105.004 78.2556C104.968 78.1071 104.963 77.9531 104.987 77.8023C105.011 77.6516 105.065 77.5071 105.145 77.3771C105.225 77.2471 105.33 77.1341 105.453 77.0447L105.44 77.0534Z" fill="white"/>
<path d="M109.041 74.5123L110.141 73.7675C110.395 73.5932 110.708 73.5272 111.011 73.5838C111.315 73.6405 111.583 73.8154 111.757 74.0698C111.931 74.3243 111.997 74.6376 111.941 74.9408C111.884 75.244 111.709 75.5122 111.455 75.6865L110.355 76.4226C110.101 76.5969 109.789 76.6632 109.486 76.6069C109.183 76.5506 108.915 76.3764 108.741 76.1225C108.567 75.8686 108.5 75.5558 108.557 75.2531C108.613 74.9503 108.787 74.6823 109.041 74.508V74.5123Z" fill="white"/>
<path d="M112.739 72.0719L113.856 71.3666C113.984 71.2857 114.126 71.2309 114.275 71.2052C114.425 71.1795 114.577 71.1835 114.725 71.2168C114.873 71.2502 115.012 71.3123 115.136 71.3996C115.26 71.487 115.365 71.5978 115.446 71.7258C115.527 71.8538 115.582 71.9965 115.607 72.1457C115.633 72.2949 115.629 72.4477 115.596 72.5954C115.562 72.7431 115.5 72.8828 115.413 73.0065C115.325 73.1301 115.215 73.2354 115.087 73.3162L113.987 74.0172C113.729 74.1816 113.416 74.2369 113.118 74.1707C112.819 74.1046 112.559 73.9225 112.395 73.6645C112.23 73.4066 112.175 73.0939 112.241 72.7952C112.307 72.4965 112.489 72.2364 112.747 72.0719H112.739Z" fill="white"/>
<path d="M116.488 69.7499L117.627 69.0708C117.757 68.9937 117.901 68.9429 118.05 68.9214C118.2 68.8998 118.352 68.9078 118.498 68.9451C118.644 68.9823 118.782 69.0479 118.902 69.1383C119.023 69.2287 119.125 69.342 119.202 69.4717C119.279 69.6014 119.33 69.7451 119.352 69.8945C119.373 70.0438 119.365 70.196 119.328 70.3423C119.291 70.4885 119.225 70.626 119.135 70.7469C119.044 70.8678 118.931 70.9697 118.801 71.0468L117.68 71.7171C117.419 71.862 117.112 71.8995 116.824 71.8218C116.536 71.7441 116.289 71.5573 116.137 71.3009C115.984 71.0445 115.937 70.7387 116.006 70.4484C116.075 70.158 116.254 69.9059 116.506 69.7455L116.488 69.7499Z" fill="white"/>
<path d="M120.313 67.5417L121.474 66.9021C121.736 66.7635 122.043 66.7335 122.327 66.8183C122.612 66.9031 122.852 67.0961 122.996 67.3558C123.139 67.6155 123.176 67.9212 123.097 68.2075C123.018 68.4937 122.83 68.7375 122.573 68.8868L121.434 69.5221C121.304 69.5948 121.161 69.6412 121.012 69.6586C120.864 69.676 120.714 69.664 120.57 69.6233C120.427 69.5826 120.293 69.514 120.176 69.4215C120.058 69.329 119.961 69.2142 119.888 69.0839C119.815 68.9536 119.769 68.8102 119.751 68.662C119.734 68.5137 119.746 68.3635 119.787 68.2199C119.827 68.0763 119.896 67.9421 119.988 67.825C120.081 67.7079 120.196 67.6101 120.326 67.5373L120.313 67.5417Z" fill="white"/>
<path d="M124.203 65.4562L125.381 64.856C125.645 64.7201 125.952 64.6945 126.235 64.7849C126.517 64.8752 126.752 65.0742 126.888 65.338C127.024 65.6017 127.05 65.9087 126.96 66.1913C126.869 66.474 126.67 66.7091 126.407 66.8451L125.25 67.4497C125.119 67.5176 124.976 67.5591 124.829 67.5717C124.682 67.5843 124.534 67.5679 124.394 67.5233C124.253 67.4788 124.123 67.407 124.01 67.312C123.897 67.2171 123.804 67.1009 123.736 66.97C123.669 66.8391 123.627 66.6961 123.614 66.5492C123.602 66.4023 123.618 66.2543 123.663 66.1137C123.707 65.9732 123.779 65.8428 123.874 65.73C123.969 65.6171 124.085 65.5241 124.216 65.4562H124.203Z" fill="white"/>
<path d="M128.159 63.4934L129.355 62.9282C129.616 62.8233 129.908 62.8221 130.171 62.9247C130.433 63.0274 130.647 63.2262 130.768 63.4808C130.889 63.7354 130.909 64.0265 130.823 64.295C130.737 64.5635 130.552 64.7892 130.305 64.9261L129.131 65.4869C129 65.5539 128.856 65.594 128.709 65.6047C128.561 65.6154 128.413 65.5965 128.273 65.5492C128.133 65.5019 128.004 65.4271 127.894 65.3292C127.783 65.2313 127.693 65.1122 127.629 64.979C127.565 64.8459 127.529 64.7012 127.521 64.5537C127.514 64.4061 127.536 64.2586 127.587 64.1198C127.638 63.981 127.715 63.8537 127.816 63.7453C127.916 63.637 128.037 63.5499 128.172 63.489L128.159 63.4934Z" fill="white"/>
<path d="M132.172 61.6577L133.39 61.1319C133.654 61.0213 133.95 61.0189 134.216 61.1251C134.482 61.2314 134.695 61.4378 134.81 61.6999C134.925 61.962 134.932 62.2588 134.831 62.5263C134.729 62.7938 134.526 63.0105 134.266 63.1298L133.07 63.6555C132.806 63.7614 132.511 63.7602 132.247 63.6522C131.984 63.5442 131.773 63.338 131.659 63.0771C131.545 62.8162 131.537 62.5212 131.637 62.2546C131.737 61.9881 131.936 61.7708 132.194 61.6489L132.172 61.6577Z" fill="white"/>
<path d="M136.246 59.9534L137.477 59.4671C137.741 59.3678 138.034 59.376 138.292 59.4901C138.55 59.6042 138.753 59.815 138.857 60.0772C138.962 60.3394 138.959 60.6321 138.85 60.8924C138.741 61.1527 138.534 61.3598 138.274 61.4693L137.065 61.9513C136.932 62.0112 136.788 62.0436 136.643 62.0466C136.497 62.0495 136.352 62.023 136.217 61.9685C136.081 61.914 135.958 61.8327 135.855 61.7295C135.752 61.6264 135.671 61.5034 135.617 61.368C135.562 61.2327 135.536 61.0877 135.539 60.9419C135.542 60.796 135.574 60.6523 135.634 60.5193C135.694 60.3864 135.781 60.2669 135.888 60.1682C135.995 60.0694 136.122 59.9934 136.259 59.9446L136.246 59.9534Z" fill="white"/>
<path d="M140.372 58.3805L141.621 57.9424C141.886 57.8471 142.178 57.861 142.432 57.9809C142.687 58.1009 142.884 58.3171 142.979 58.5821C143.074 58.847 143.06 59.1389 142.94 59.3936C142.82 59.6483 142.604 59.845 142.339 59.9403L141.117 60.3784C140.856 60.456 140.575 60.4309 140.331 60.3082C140.088 60.1854 139.901 59.9742 139.808 59.7179C139.715 59.4616 139.723 59.1795 139.832 58.9292C139.94 58.679 140.139 58.4796 140.39 58.3718L140.372 58.3805Z" fill="white"/>
<path d="M144.552 56.9522L145.818 56.5536C146.08 56.4766 146.362 56.5052 146.603 56.6331C146.844 56.761 147.026 56.9782 147.11 57.2384C147.193 57.4985 147.172 57.7809 147.05 58.0254C146.928 58.2699 146.715 58.4571 146.457 58.547L145.218 58.9501C144.952 59.0361 144.663 59.0131 144.415 58.8861C144.166 58.7592 143.978 58.5387 143.892 58.2732C143.807 58.0077 143.83 57.7189 143.956 57.4703C144.083 57.2218 144.304 57.0338 144.569 56.9479L144.552 56.9522Z" fill="white"/>
<path d="M148.779 55.6729L150.058 55.3181C150.318 55.2546 150.593 55.2946 150.824 55.4297C151.055 55.5647 151.225 55.7842 151.298 56.042C151.371 56.2998 151.34 56.5757 151.214 56.8117C151.087 57.0477 150.874 57.2253 150.619 57.3071L149.366 57.662C149.101 57.7375 148.817 57.7047 148.576 57.5708C148.335 57.4369 148.158 57.2128 148.082 56.9479C148.007 56.6829 148.04 56.3989 148.173 56.1581C148.307 55.9174 148.531 55.7397 148.796 55.6642L148.779 55.6729Z" fill="white"/>
<path d="M153.05 54.5425L154.338 54.2314C154.594 54.1849 154.859 54.2379 155.077 54.3797C155.295 54.5216 155.451 54.7415 155.513 54.9944C155.574 55.2474 155.537 55.5143 155.408 55.7406C155.279 55.9669 155.069 56.1354 154.82 56.2118L153.554 56.5228C153.422 56.5614 153.282 56.5727 153.145 56.5561C153.008 56.5395 152.876 56.4954 152.756 56.4264C152.636 56.3574 152.532 56.2649 152.449 56.1545C152.366 56.044 152.306 55.918 152.273 55.7839C152.24 55.6497 152.234 55.5103 152.256 55.3739C152.279 55.2376 152.328 55.1071 152.402 54.9903C152.476 54.8736 152.572 54.7729 152.686 54.6945C152.8 54.616 152.928 54.5613 153.064 54.5337L153.05 54.5425Z" fill="white"/>
<path d="M157.357 53.5612L158.671 53.2983C158.8 53.2715 158.933 53.2705 159.063 53.2952C159.192 53.3199 159.316 53.3699 159.426 53.4423C159.536 53.5147 159.631 53.6082 159.705 53.7172C159.779 53.8263 159.831 53.949 159.858 54.0781C159.885 54.2073 159.886 54.3405 159.861 54.4701C159.836 54.5996 159.786 54.7231 159.714 54.8333C159.642 54.9436 159.548 55.0385 159.439 55.1126C159.33 55.1868 159.207 55.2387 159.078 55.2655L157.804 55.5327C157.545 55.5763 157.28 55.5182 157.064 55.3705C156.848 55.2229 156.698 54.9972 156.644 54.7409C156.591 54.4845 156.639 54.2175 156.778 53.9959C156.918 53.7743 157.138 53.6153 157.392 53.5524L157.357 53.5612Z" fill="white"/>
<path d="M161.693 52.7243L163.008 52.5096C163.267 52.4655 163.533 52.5261 163.747 52.6781C163.962 52.8301 164.107 53.061 164.151 53.3202C164.195 53.5793 164.135 53.8453 163.983 54.0598C163.831 54.2742 163.6 54.4195 163.341 54.4637L162.057 54.6871C161.797 54.7324 161.529 54.6725 161.313 54.5205C161.097 54.3685 160.95 54.1369 160.905 53.8766C160.86 53.6163 160.92 53.3487 161.071 53.1326C161.223 52.9165 161.455 52.7696 161.715 52.7243H161.693Z" fill="white"/>
<path d="M166.061 52.0627L167.375 51.8919C167.632 51.857 167.892 51.9256 168.098 52.0825C168.304 52.2395 168.44 52.4719 168.475 52.7287C168.51 52.9855 168.441 53.2456 168.284 53.4519C168.127 53.6581 167.895 53.7935 167.638 53.8284L166.324 54.008C166.066 54.0435 165.804 53.975 165.597 53.8176C165.39 53.6603 165.253 53.427 165.218 53.169C165.182 52.9111 165.251 52.6496 165.408 52.4421C165.565 52.2347 165.799 52.0982 166.057 52.0627H166.061Z" fill="white"/>
<path d="M170.446 51.5458L171.761 51.4231C171.887 51.411 172.014 51.4239 172.135 51.4609C172.256 51.498 172.368 51.5585 172.466 51.6391C172.564 51.7196 172.644 51.8186 172.704 51.9304C172.763 52.0422 172.8 52.1646 172.812 52.2906C172.824 52.4166 172.811 52.5437 172.774 52.6648C172.737 52.7858 172.677 52.8984 172.596 52.996C172.516 53.0937 172.417 53.1745 172.305 53.2339C172.193 53.2932 172.071 53.33 171.945 53.3421L170.63 53.4735C170.375 53.4991 170.119 53.4221 169.921 53.2594C169.722 53.0967 169.596 52.8617 169.57 52.606C169.545 52.3504 169.622 52.0951 169.784 51.8962C169.947 51.6974 170.182 51.5713 170.438 51.5458H170.446Z" fill="white"/>
<path d="M174.844 51.1909L176.159 51.112C176.405 51.1051 176.645 51.1944 176.827 51.3611C177.009 51.5279 177.119 51.7589 177.134 52.0054C177.149 52.2518 177.067 52.4944 176.907 52.6817C176.746 52.8691 176.518 52.9865 176.272 53.0091L174.958 53.0923C174.833 53.1004 174.708 53.0838 174.59 53.0434C174.471 53.0031 174.362 52.9398 174.268 52.8572C174.174 52.7747 174.097 52.6744 174.042 52.5621C173.987 52.4498 173.954 52.3278 173.946 52.2029C173.938 52.0781 173.955 51.9529 173.995 51.8344C174.036 51.716 174.099 51.6067 174.181 51.5127C174.264 51.4187 174.364 51.3419 174.476 51.2867C174.589 51.2315 174.711 51.1989 174.836 51.1909H174.844Z" fill="white"/>
<path d="M179.256 50.9981L180.57 50.9718C180.806 50.9807 181.03 51.0791 181.196 51.247C181.362 51.4149 181.457 51.6398 181.463 51.8758C181.47 52.1119 181.386 52.3414 181.229 52.5177C181.072 52.694 180.853 52.8039 180.618 52.8251L179.304 52.8645C179.057 52.8715 178.816 52.7798 178.636 52.6098C178.457 52.4397 178.352 52.2051 178.345 51.9576C178.338 51.7101 178.429 51.4699 178.599 51.29C178.769 51.1101 179.004 51.0051 179.251 50.9981H179.256Z" fill="white"/>
<path d="M183.672 50.9718L184.986 50.9981C185.225 51.001 185.454 51.0989 185.621 51.2702C185.788 51.4415 185.88 51.6722 185.878 51.9116C185.875 52.151 185.777 52.3794 185.605 52.5466C185.434 52.7138 185.204 52.8061 184.964 52.8032H183.65C183.408 52.8032 183.177 52.7072 183.006 52.5363C182.835 52.3654 182.739 52.1336 182.739 51.8919C182.739 51.6502 182.835 51.4184 183.006 51.2475C183.177 51.0766 183.408 50.9806 183.65 50.9806L183.672 50.9718Z" fill="white"/>
<path d="M188.083 51.112L189.397 51.1865C189.63 51.1981 189.848 51.3016 190.004 51.4741C190.16 51.6467 190.241 51.8742 190.23 52.1066C190.218 52.339 190.114 52.5572 189.942 52.7134C189.769 52.8695 189.542 52.9506 189.31 52.939L187.995 52.8777C187.76 52.8666 187.539 52.7626 187.38 52.5884C187.222 52.4142 187.139 52.1842 187.15 51.9489C187.161 51.7136 187.265 51.4923 187.439 51.3337C187.613 51.1751 187.843 51.0922 188.079 51.1033L188.083 51.112Z" fill="white"/>
<path d="M192.486 51.41L193.8 51.537C193.993 51.5956 194.159 51.7187 194.272 51.8856C194.384 52.0526 194.436 52.2532 194.418 52.4537C194.4 52.6542 194.313 52.8424 194.173 52.9866C194.032 53.1309 193.847 53.2224 193.647 53.2457L192.332 53.1362C192.132 53.0847 191.956 52.9638 191.836 52.795C191.716 52.6263 191.66 52.4205 191.677 52.2142C191.695 52.0079 191.785 51.8144 191.931 51.668C192.077 51.5216 192.271 51.4317 192.477 51.4144L192.486 51.41Z" fill="white"/>
<path d="M196.875 51.8962L198.189 52.0759C198.298 52.09 198.402 52.1253 198.497 52.1798C198.592 52.2343 198.675 52.307 198.742 52.3937C198.808 52.4803 198.857 52.5793 198.886 52.6849C198.914 52.7905 198.922 52.9006 198.908 53.0091C198.894 53.1175 198.858 53.2222 198.804 53.317C198.749 53.4118 198.677 53.4949 198.59 53.5616C198.503 53.6283 198.404 53.6773 198.299 53.7058C198.193 53.7343 198.083 53.7417 197.975 53.7276L196.66 53.5655C196.443 53.5334 196.247 53.4176 196.114 53.2428C195.981 53.0681 195.922 52.8483 195.949 52.6304C195.976 52.4124 196.087 52.2137 196.258 52.0765C196.43 51.9393 196.648 51.8746 196.866 51.8962H196.875Z" fill="white"/>
<path d="M201.243 52.549L202.557 52.7769C202.662 52.7947 202.763 52.833 202.853 52.8897C202.943 52.9464 203.021 53.0202 203.083 53.1071C203.144 53.194 203.188 53.2921 203.212 53.3959C203.236 53.4998 203.239 53.6073 203.221 53.7123C203.203 53.8173 203.165 53.9177 203.108 54.0079C203.051 54.0981 202.977 54.1762 202.891 54.2379C202.804 54.2995 202.706 54.3434 202.602 54.3671C202.498 54.3908 202.391 54.3939 202.286 54.376L201.002 54.1613C200.896 54.1438 200.794 54.1055 200.703 54.0487C200.612 53.9918 200.532 53.9176 200.47 53.8301C200.407 53.7426 200.362 53.6437 200.338 53.5389C200.313 53.4341 200.31 53.3255 200.327 53.2194C200.345 53.1132 200.383 53.0116 200.44 52.9202C200.497 52.8288 200.571 52.7496 200.659 52.6869C200.746 52.6243 200.845 52.5795 200.95 52.5551C201.055 52.5306 201.163 52.5271 201.269 52.5447L201.243 52.549Z" fill="white"/>
<path d="M205.576 53.3728L206.868 53.6532C207.065 53.7032 207.235 53.8276 207.343 54.0003C207.451 54.173 207.488 54.3806 207.446 54.5798C207.404 54.779 207.287 54.9543 207.119 55.069C206.95 55.1837 206.745 55.229 206.544 55.1954L205.265 54.9325C205.158 54.9155 205.056 54.877 204.965 54.8195C204.874 54.7619 204.795 54.6865 204.734 54.5977C204.673 54.5089 204.63 54.4087 204.609 54.303C204.588 54.1973 204.588 54.0884 204.61 53.9828C204.632 53.8773 204.675 53.7772 204.737 53.6888C204.798 53.6004 204.877 53.5254 204.969 53.4684C205.06 53.4113 205.162 53.3735 205.269 53.357C205.376 53.3406 205.484 53.3459 205.589 53.3728H205.576Z" fill="white"/>
<path d="M209.873 54.3717L211.152 54.7047C211.349 54.7546 211.517 54.8805 211.621 55.0547C211.724 55.2289 211.754 55.4371 211.704 55.6335C211.654 55.8299 211.529 55.9983 211.354 56.1019C211.18 56.2054 210.972 56.2355 210.776 56.1855L209.51 55.8701C209.311 55.8207 209.14 55.6944 209.034 55.519C208.929 55.3435 208.897 55.1334 208.947 54.9347C208.996 54.736 209.122 54.565 209.298 54.4594C209.473 54.3539 209.683 54.3223 209.882 54.3717H209.873Z" fill="white"/>
<path d="M214.127 55.5502L215.389 55.9402C215.576 55.9983 215.733 56.1285 215.825 56.3023C215.916 56.4761 215.935 56.6792 215.877 56.8668C215.819 57.0545 215.689 57.2114 215.515 57.303C215.341 57.3946 215.138 57.4134 214.951 57.3553L213.698 56.9917C213.507 56.9336 213.347 56.8022 213.254 56.6263C213.16 56.4505 213.14 56.2447 213.198 56.0541C213.256 55.8635 213.388 55.7038 213.563 55.6102C213.739 55.5165 213.945 55.4965 214.136 55.5546L214.127 55.5502Z" fill="white"/>
<path d="M218.319 56.9128L219.563 57.3509C219.735 57.4167 219.875 57.547 219.953 57.7141C220.031 57.8812 220.041 58.0721 219.98 58.2463C219.92 58.4205 219.794 58.5644 219.63 58.6475C219.465 58.7306 219.275 58.7465 219.099 58.6916L217.863 58.2535C217.683 58.1919 217.534 58.0611 217.45 57.8897C217.366 57.7184 217.353 57.5207 217.414 57.34C217.476 57.1593 217.607 57.0105 217.778 56.9263C217.949 56.842 218.147 56.8293 218.328 56.8909L218.319 56.9128Z" fill="white"/>
<path d="M222.45 58.455L223.677 58.9545C223.76 58.9876 223.835 59.0366 223.899 59.0989C223.963 59.1612 224.014 59.2354 224.049 59.3174C224.084 59.3994 224.103 59.4875 224.104 59.5767C224.105 59.6659 224.089 59.7545 224.056 59.8373C224.023 59.9202 223.973 59.9957 223.911 60.0596C223.849 60.1235 223.775 60.1744 223.693 60.2096C223.611 60.2448 223.523 60.2635 223.433 60.2647C223.344 60.2658 223.256 60.2494 223.173 60.2163L221.951 59.7343C221.861 59.7054 221.779 59.6586 221.709 59.5967C221.638 59.5348 221.581 59.4592 221.541 59.3746C221.501 59.2899 221.479 59.1979 221.476 59.1042C221.472 59.0106 221.488 58.9172 221.522 58.8299C221.556 58.7426 221.608 58.6632 221.674 58.5966C221.74 58.5299 221.818 58.4774 221.905 58.4423C221.992 58.4072 222.085 58.3902 222.179 58.3924C222.273 58.3946 222.365 58.4159 222.45 58.455Z" fill="white"/>
</g>
<defs>
<linearGradient id="paint0_linear_55_3227" x1="-1.19718e-05" y1="154.032" x2="477.655" y2="154.032" gradientUnits="userSpaceOnUse">
<stop stop-color="#B37CFF"/>
<stop offset="1" stop-color="#F895E7"/>
</linearGradient>
<linearGradient id="paint1_linear_55_3227" x1="699818" y1="117152" x2="275061" y2="117152" gradientUnits="userSpaceOnUse">
<stop stop-color="#B37CFF"/>
<stop offset="1" stop-color="#F895E7"/>
</linearGradient>
<linearGradient id="paint2_linear_55_3227" x1="110.501" y1="144.248" x2="24.7066" y2="3.2543" gradientUnits="userSpaceOnUse">
<stop stop-color="#53D8FF"/>
<stop offset="1" stop-color="#3840F7"/>
</linearGradient>
<linearGradient id="paint3_linear_55_3227" x1="91.543" y1="230.019" x2="206.527" y2="201.971" gradientUnits="userSpaceOnUse">
<stop stop-color="#A737D5"/>
<stop offset="1" stop-color="#EF497A"/>
</linearGradient>
<linearGradient id="paint4_linear_55_3227" x1="221894" y1="77369.8" x2="140258" y2="380.601" gradientUnits="userSpaceOnUse">
<stop stop-color="#A737D5"/>
<stop offset="1" stop-color="#EF497A"/>
</linearGradient>
<linearGradient id="paint5_linear_55_3227" x1="13353.5" y1="47219.8" x2="99217.5" y2="47219.8" gradientUnits="userSpaceOnUse">
<stop stop-color="#A737D5"/>
<stop offset="1" stop-color="#EF497A"/>
</linearGradient>
<linearGradient id="paint6_linear_55_3227" x1="107280" y1="113838" x2="158912" y2="113838" gradientUnits="userSpaceOnUse">
<stop stop-color="#53D8FF"/>
<stop offset="1" stop-color="#3840F7"/>
</linearGradient>
<linearGradient id="paint7_linear_55_3227" x1="3175.69" y1="2057.48" x2="3171" y2="2076.33" gradientUnits="userSpaceOnUse">
<stop stop-color="#A737D5"/>
<stop offset="1" stop-color="#EF497A"/>
</linearGradient>
<linearGradient id="paint8_linear_55_3227" x1="127221" y1="104450" x2="187999" y2="104450" gradientUnits="userSpaceOnUse">
<stop stop-color="#A737D5"/>
<stop offset="1" stop-color="#EF497A"/>
</linearGradient>
<linearGradient id="paint9_linear_55_3227" x1="414.537" y1="-43.291" x2="152.979" y2="328.632" gradientUnits="userSpaceOnUse">
<stop stop-color="#FDF53F"/>
<stop offset="1" stop-color="#D93C65"/>
</linearGradient>
<linearGradient id="paint10_linear_55_3227" x1="16436.4" y1="9400.19" x2="-23510.2" y2="135726" gradientUnits="userSpaceOnUse">
<stop stop-color="#FDF53F"/>
<stop offset="1" stop-color="#D93C65"/>
</linearGradient>
<linearGradient id="paint11_linear_55_3227" x1="27121.4" y1="32128.3" x2="36311.2" y2="21261.5" gradientUnits="userSpaceOnUse">
<stop stop-color="#FDF53F"/>
<stop offset="1" stop-color="#D93C65"/>
</linearGradient>
<linearGradient id="paint12_linear_55_3227" x1="427.088" y1="73.3051" x2="280.759" y2="181.068" gradientUnits="userSpaceOnUse">
<stop stop-color="#CB236D"/>
<stop offset="1" stop-color="#4C246D"/>
</linearGradient>
<linearGradient id="paint13_linear_55_3227" x1="43911.4" y1="6416.87" x2="32858.2" y2="17589.6" gradientUnits="userSpaceOnUse">
<stop stop-color="#CB236D"/>
<stop offset="1" stop-color="#4C246D"/>
</linearGradient>
<linearGradient id="paint14_linear_55_3227" x1="107844" y1="12720.5" x2="118876" y2="6315.65" gradientUnits="userSpaceOnUse">
<stop stop-color="#FDF53F"/>
<stop offset="1" stop-color="#D93C65"/>
</linearGradient>
<linearGradient id="paint15_linear_55_3227" x1="89726.1" y1="-97528" x2="104997" y2="-109485" gradientUnits="userSpaceOnUse">
<stop stop-color="#FDF53F"/>
<stop offset="1" stop-color="#D93C65"/>
</linearGradient>
<linearGradient id="paint16_linear_55_3227" x1="-58654.8" y1="58720" x2="-36293.9" y2="39962.9" gradientUnits="userSpaceOnUse">
<stop stop-color="#A737D5"/>
<stop offset="1" stop-color="#EF497A"/>
</linearGradient>
<linearGradient id="paint17_linear_55_3227" x1="135966" y1="105824" x2="85282.8" y2="78758.2" gradientUnits="userSpaceOnUse">
<stop stop-color="#FDF53F"/>
<stop offset="1" stop-color="#D93C65"/>
</linearGradient>
<clipPath id="clip0_55_3227">
<rect width="490" height="322.912" fill="white" transform="translate(0 0.0440674)"/>
</clipPath>
</defs>
</svg>
