<svg width="371" height="141" viewBox="0 0 371 141" fill="none" xmlns="http://www.w3.org/2000/svg">
<path d="M117.873 68.8408C54.0786 83.9603 19.0034 115.054 19.0034 115.054" stroke="#54565A" stroke-opacity="0.4" stroke-width="1.4" stroke-miterlimit="10"/>
<path d="M19.4721 92.0318L7.12635 123.782L44.6968 123.643" stroke="#54565A" stroke-opacity="0.4" stroke-width="1.4" stroke-miterlimit="10"/>
<path d="M135.637 109.581C135.637 109.581 208.789 116.344 274.94 105.644C325.75 97.4246 367.931 81.9248 364.334 59.6887C360.308 34.8024 285.993 11.6124 204.621 24.7753C123.249 37.9381 93.5981 63.0661 96.062 78.2983C100.676 106.819 188.697 127.546 274.657 113.641C345.337 102.208 345.929 79.2938 344.992 73.5013C342.05 55.3161 293.062 33.5459 217.948 41.7338" stroke="#54565A" stroke-opacity="0.4" stroke-width="1.4" stroke-miterlimit="10"/>
</svg>
