<svg width="26" height="26" viewBox="0 0 26 26" fill="none" xmlns="http://www.w3.org/2000/svg">
<path d="M12.9236 0.0114373C9.66727 -0.00164488 6.52706 1.22808 4.13562 3.45282C1.74417 5.67757 0.279243 8.732 0.035989 12.0007C-0.207265 15.2694 0.78923 18.5094 2.8247 21.068C4.86017 23.6266 7.78333 25.3136 11.0052 25.789V16.4194H7.81557V12.9916H11.0052V10.7063C11.0052 6.94712 12.8214 5.30177 15.9203 5.30177C16.8045 5.29259 17.6883 5.34606 18.5651 5.46175V8.44397H16.4424C15.1257 8.44397 14.6717 9.70081 14.6717 11.1177V12.9801H18.531L18.0089 16.408H14.7171V25.8117C17.9437 25.3563 20.8791 23.6872 22.9321 21.1405C24.9852 18.5938 26.0035 15.3588 25.7819 12.0866C25.5603 8.81448 24.1153 5.74835 21.7378 3.50569C19.3604 1.26302 16.2272 0.0103884 12.969 0L12.9236 0.0114373Z" fill="white"/>
</svg>
