<svg width="237" height="158" viewBox="0 0 237 158" fill="none" xmlns="http://www.w3.org/2000/svg">
<path d="M75.0837 65.1825C88.7035 74.1465 104.071 80.1168 120.17 82.6985C136.195 85.3376 153.18 83.7512 167.54 76.3069C168.743 75.5537 170.092 75.0654 171.498 74.8744C173.181 74.946 174.81 75.4837 176.205 76.4272C193.834 86.2197 209.867 98.644 223.749 113.272C204.178 121.735 183.458 127.242 162.268 129.613C162.268 129.613 107.958 135.557 55.9574 114.321C47.5047 111.052 39.3715 107.01 31.6609 102.248C22.4064 96.2084 14.0323 88.9173 6.77699 80.5819C20.4639 73.9193 34.7776 68.6299 49.5082 64.7915C56.2345 63.021 62.6933 61.6697 68.82 60.6275C70.3438 61.8214 72.4506 63.3924 75.0837 65.1825Z" stroke="#515050" stroke-width="1.4" stroke-miterlimit="10"/>
<path d="M68.967 60.6519C72.9187 50.4181 77.0282 39.9291 84.4105 31.7657C98.0237 16.8041 121.86 12.9881 140.183 21.5637C158.505 30.1393 170.596 49.8305 171.62 70.0313C171.72 72.1322 171.548 74.5851 169.801 75.753" stroke="#515050" stroke-width="1.4" stroke-miterlimit="10"/>
<path d="M14.8491 89.8341C16.0812 96.7559 18.6691 103.366 22.4641 109.284C26.859 116.046 39.1484 131.32 118.837 140.623C171.227 146.737 187.612 142.67 199.589 132.418C204.21 128.452 208.099 123.707 211.079 118.397" stroke="#515050" stroke-width="1.4" stroke-miterlimit="10"/>
<path d="M49.6279 76.3236C51.3188 75.2154 53.2155 74.459 55.205 74.0993C57.7377 73.44 60.4192 73.66 62.8107 74.7233C64.1065 75.4818 65.1931 76.551 65.9723 77.8345C66.7514 79.118 67.1987 80.5754 67.2738 82.075C67.3908 85.0953 66.5586 88.0762 64.894 90.599C64.1079 92.0243 62.9584 93.2163 61.5625 94.0536C59.9568 94.7412 58.2059 95.0211 56.4658 94.8683C53.5397 95.0156 50.6336 94.3129 48.098 92.8451C42.4612 89.1046 44.7159 79.7328 49.6279 76.3236Z" stroke="#515050" stroke-width="1.4" stroke-miterlimit="10"/>
<path d="M83.9208 95.6025C84.3082 94.2135 85.0034 92.9297 85.955 91.8464C86.9067 90.7631 88.0901 89.9082 89.4176 89.3452C91.7136 88.5826 94.166 88.4172 96.5436 88.8646C98.2616 88.9973 99.9245 89.5318 101.398 90.4249C103.978 92.2393 104.746 95.7073 104.809 98.844C104.871 101.981 104.381 105.258 102.233 107.452C101.123 108.45 99.8032 109.186 98.3713 109.609C96.9394 110.031 95.4313 110.129 93.9571 109.893C85.8759 109.042 81.5639 103.485 83.9208 95.6025Z" stroke="#515050" stroke-width="1.4" stroke-miterlimit="10"/>
<path d="M128.08 108.004C127.567 105.841 127.795 103.569 128.727 101.55C129.659 99.5323 131.242 97.8858 133.222 96.8746C134.703 96.2437 136.292 95.9043 137.902 95.8753C142.235 95.6792 146.896 97.1084 149.412 100.616C150.654 102.49 151.258 104.715 151.133 106.96C151.007 109.205 150.16 111.349 148.717 113.074C147.216 114.712 145.279 115.888 143.133 116.464C140.987 117.039 138.721 116.99 136.602 116.322C133.523 114.028 129.295 112.885 128.08 108.004Z" stroke="#515050" stroke-width="1.4" stroke-miterlimit="10"/>
<path d="M165.902 104.541C165.26 102.816 165.045 100.962 165.273 99.1364C165.502 97.3107 166.168 95.5672 167.215 94.0542C167.99 92.8264 169.044 91.7984 170.29 91.0538C172.071 90.1651 174.063 89.7835 176.046 89.9506C177.659 89.8914 179.265 90.1799 180.756 90.7966C182.247 91.4132 183.588 92.3436 184.688 93.5244C185.529 94.708 186.081 96.0716 186.301 97.5065C186.522 98.9415 186.404 100.408 185.957 101.789C183.387 110.663 170.04 114.469 165.902 104.541Z" stroke="#515050" stroke-width="1.4" stroke-miterlimit="10"/>
<path d="M107.201 60.217C105.425 56.2356 102.53 49.7046 105.581 42.7301C106.952 39.4869 109.267 36.7317 112.226 34.8232C115.185 32.9147 118.65 31.9414 122.17 32.0302C125.69 32.119 129.102 33.2657 131.961 35.321C134.819 37.3762 136.993 40.2447 138.199 43.5529C142.196 54.3349 132.185 64.1993 129.26 67.0921C126.593 69.7296 123.496 72.7597 119.407 72.5824C112.547 72.2468 108.457 63.1367 107.201 60.217Z" stroke="#515050" stroke-width="1.4" stroke-miterlimit="10"/>
<path d="M124.835 59.5143C124.725 58.5582 124.843 57.5895 125.178 56.6874C125.513 55.7853 126.057 54.9754 126.766 54.3236C127.962 52.9823 129.857 51.7228 131.437 52.5785C131.905 52.869 132.283 53.2842 132.529 53.7776C132.775 54.2709 132.879 54.8229 132.829 55.3719C132.709 56.4847 132.335 57.5551 131.735 58.5001C131.151 59.6843 130.284 60.7063 129.21 61.4754C128.67 61.8527 128.036 62.0712 127.378 62.1061C126.72 62.1411 126.066 61.9911 125.489 61.6731C125.217 61.4964 124.986 61.2638 124.811 60.991C124.636 60.7181 124.521 60.4112 124.474 60.0905C124.426 59.7698 124.448 59.4426 124.537 59.1309C124.625 58.8191 124.779 58.5299 124.989 58.2823" stroke="#515050" stroke-width="1.4" stroke-miterlimit="10"/>
<path d="M110.113 55.3872C109.913 53.5844 109.922 51.4189 111.404 50.3561C112.084 49.9669 112.874 49.8152 113.65 49.925C114.426 50.0347 115.143 50.3998 115.688 50.9625C116.751 52.1167 117.436 53.5686 117.65 55.1232C118.013 56.9364 117.902 59.2174 116.269 60.09C115.774 60.3199 115.228 60.4166 114.684 60.3706C114.141 60.3245 113.619 60.1374 113.169 59.8277C112.282 59.1901 111.558 58.3509 111.058 57.3791C110.455 56.5212 110.17 55.4798 110.253 54.4345" stroke="#515050" stroke-width="1.4" stroke-miterlimit="10"/>
<path d="M108.879 63.984C107.119 64.5644 105.524 65.5616 104.232 66.8908C101.151 69.7095 98.3376 72.8068 95.8268 76.1431" stroke="#515050" stroke-width="1.4" stroke-miterlimit="10"/>
<path d="M130.699 65.5747C131.778 65.9617 132.698 66.6949 133.317 67.66C136.746 72.3368 138.817 77.8699 139.302 83.6491" stroke="#515050" stroke-width="1.4" stroke-miterlimit="10"/>
</svg>
