<svg width="236" height="306" viewBox="0 0 236 306" fill="none" xmlns="http://www.w3.org/2000/svg">
<path d="M214.952 1C210.749 18.8677 207.567 36.9604 205.422 55.19" stroke="#515050" stroke-width="1.4" stroke-miterlimit="10"/>
<path d="M181.391 22.3594C199.706 25.4198 217.789 29.74 235.511 35.2894" stroke="#515050" stroke-width="1.4" stroke-miterlimit="10"/>
<path d="M183.66 42.9693L234.4 14.0293" stroke="#515050" stroke-width="1.4" stroke-miterlimit="10"/>
<path d="M200.301 10.1699C207.741 23.8699 215.174 37.5732 222.601 51.2799" stroke="#515050" stroke-width="1.4" stroke-miterlimit="10"/>
<path d="M1.55087 160.559C0.630871 150.929 -1.06907 119.799 14.9909 93.4892C34.3009 61.8492 81.3609 33.8792 131.311 49.2392C173.991 62.3692 204.851 106.909 201.781 151.459C198.711 196.009 161.781 236.019 117.551 242.259C108.391 243.549 98.7709 243.619 90.5509 247.779C71.8509 257.209 67.1309 283.639 48.7309 293.629C33.5609 301.869 13.8009 295.299 6.57089 279.629C4.81217 276.087 3.90473 272.184 3.92087 268.229C4.22087 255.669 11.4309 246.969 14.5609 242.029C27.0809 222.259 5.16087 198.199 1.55087 160.559Z" stroke="#515050" stroke-width="1.4" stroke-miterlimit="10"/>
<path d="M18.4609 230.459C22.4127 241.951 30.6536 251.471 41.4609 257.029C58.4009 265.509 74.261 260.359 77.101 259.379" stroke="#515050" stroke-width="1.4" stroke-miterlimit="10"/>
<path d="M4.16114 276.189C4.85114 280.189 0.951169 283.869 1.44117 287.909C1.73117 290.249 3.44117 292.139 5.07117 293.799C9.94117 298.719 15.5812 303.359 22.3712 304.709C29.1612 306.059 37.2412 303.079 39.6012 296.569" stroke="#515050" stroke-width="1.4" stroke-miterlimit="10"/>
<path d="M4.92188 258.24C5.29959 262.759 6.59949 267.153 8.74121 271.151C10.8829 275.148 13.8211 278.664 17.3744 281.482C20.9277 284.299 25.0208 286.359 29.401 287.533C33.7812 288.708 38.3556 288.972 42.8419 288.31" stroke="#515050" stroke-width="1.4" stroke-miterlimit="10"/>
<path d="M12.1523 257.369C16.7123 271.309 31.0923 279.749 45.2823 283.369C49.9623 284.579 55.7324 285.109 58.8824 281.429" stroke="#515050" stroke-width="1.4" stroke-miterlimit="10"/>
<path d="M14.9102 241.369C19.0802 249.509 30.4802 269.029 49.0502 271.499C50.3328 271.674 51.6258 271.761 52.9202 271.759" stroke="#515050" stroke-width="1.4" stroke-miterlimit="10"/>
<path d="M30.6113 249.451L49.4913 219.33C53.5913 212.79 57.8613 205.48 56.6013 197.87C55.3913 190.52 49.1114 183.871 50.7714 176.631C51.3545 174.57 52.2553 172.613 53.4413 170.83L79.3313 127.24C74.6413 123.83 75.6413 115.24 80.9813 113.02C86.3213 110.8 93.1413 116.02 92.2913 121.8C92.1828 122.693 91.8893 123.554 91.4296 124.327C90.9698 125.1 90.354 125.769 89.6213 126.29C86.7713 128.17 83.0313 126.91 79.6213 126.54" stroke="#515050" stroke-width="1.4" stroke-miterlimit="10"/>
<path d="M45.0625 258.67L74.6226 206.33C75.1402 205.182 75.968 204.202 77.0126 203.5C78.4326 202.73 80.1626 203.07 81.7726 203.18C91.7726 203.82 99.4825 194.75 105.363 186.57L127.243 156.12C124.053 157.39 120.243 154.12 120.593 150.67C120.943 147.22 124.593 144.74 127.973 145.05C132.063 145.42 135.463 149.74 134.473 153.73C133.483 157.72 127.953 159.85 124.743 157.28" stroke="#515050" stroke-width="1.4" stroke-miterlimit="10"/>
<path d="M120.742 222.52C131.019 220.599 140.792 216.591 149.457 210.743C158.123 204.895 165.496 197.331 171.122 188.52" stroke="#515050" stroke-width="1.4" stroke-miterlimit="10"/>
<path d="M142.631 201.63C155.964 194.348 166.666 183.054 173.221 169.35" stroke="#515050" stroke-width="1.4" stroke-miterlimit="10"/>
<path d="M16.921 143.5C13.0641 128.35 15.2668 112.292 23.061 98.7402" stroke="#515050" stroke-width="1.4" stroke-miterlimit="10"/>
</svg>
