<svg width="28" height="31" viewBox="0 0 28 31" fill="none" xmlns="http://www.w3.org/2000/svg">
<path d="M26.6633 6.78962C26.2099 5.00837 25.146 3.4531 23.6655 2.40755C21.8852 1.26971 19.8737 0.564747 17.7855 0.346839C15.4357 -0.0455275 13.0444 -0.105333 10.6787 0.169161C8.92897 0.338373 7.21727 0.794246 5.60897 1.5193C4.32044 2.05237 3.18605 2.91301 2.31311 4.01965C1.44018 5.12629 0.857543 6.44244 0.62027 7.84368C0.379556 9.12421 0.205693 10.4168 0.0994121 11.7163C-0.146723 14.2489 0.0651483 16.8063 0.724438 19.2604C1.19185 21.2632 2.38816 23.0083 4.06952 24.1398C4.53246 24.4046 5.02128 24.619 5.52794 24.7794C5.81731 24.886 6.10666 24.9926 6.33815 25.0992C6.56964 25.2058 6.54652 25.2176 6.54652 25.4071C6.54652 26.9941 6.54652 30.1444 6.54652 30.1444V30.8075H7.70399L7.90074 30.6181C8.01649 30.4997 10.9102 27.6455 11.9287 26.4967L12.0792 26.3428C12.2528 26.1296 12.2528 26.1295 12.4264 26.1295C13.8154 26.1295 15.2391 26.0466 16.6512 25.9637C18.5445 25.9383 20.4196 25.5818 22.1955 24.9096C23.8039 24.2749 25.1242 23.0506 25.8994 21.4751C26.7011 19.7949 27.1841 17.9745 27.3231 16.1102C27.6627 12.9882 27.4391 9.82895 26.6633 6.78962ZM20.5287 20.3856C20.0927 21.0802 19.4523 21.6153 18.6999 21.9134C18.439 22.0305 18.1572 22.091 17.8723 22.091C17.5874 22.091 17.3056 22.0305 17.0447 21.9134C12.5692 20.0786 8.8602 16.7023 6.55807 12.3677C6.11833 11.424 5.73187 10.4552 5.4006 9.4662C5.33672 9.25458 5.29785 9.03584 5.28485 8.81476C5.31752 8.14627 5.57508 7.50985 6.01385 7.01341C6.45262 6.51698 7.04563 6.19101 7.6924 6.09077C7.90282 6.0553 8.11855 6.07358 8.32045 6.14382C8.52235 6.21406 8.70419 6.33419 8.84987 6.49354C9.77565 7.39312 10.5293 8.46138 11.0722 9.64373C11.193 9.86715 11.2314 10.1276 11.1805 10.3776C11.1295 10.6275 10.9925 10.8504 10.7944 11.0057C10.711 11.0871 10.622 11.1623 10.5282 11.2308C10.3244 11.3334 10.1448 11.4801 10.0021 11.6609C9.8594 11.8417 9.75692 12.0523 9.70183 12.2778C9.64674 12.5033 9.64034 12.7383 9.68311 12.9665C9.72588 13.1948 9.8168 13.4108 9.94948 13.5995C10.78 15.3911 12.257 16.7834 14.0701 17.4839C14.2912 17.5794 14.5358 17.6023 14.7701 17.5493C15.0045 17.4962 15.2169 17.3698 15.378 17.1878C15.4342 17.1387 15.4847 17.0832 15.5285 17.0222C16.2461 15.7786 17.2994 15.8377 18.2717 16.6075C18.9198 17.0694 19.5333 17.5669 20.1699 18.0407C21.0727 18.7276 21.0727 19.4026 20.5287 20.3856ZM14.4867 8.02121C14.2733 8.02277 14.0604 8.04264 13.8501 8.08049C13.6853 8.09473 13.5212 8.04509 13.3905 7.94141C13.2597 7.83774 13.1718 7.68759 13.1441 7.52071C13.1165 7.35384 13.1511 7.18245 13.2411 7.04045C13.3311 6.89845 13.47 6.79623 13.6302 6.75405C13.9133 6.70638 14.1998 6.68254 14.4867 6.68293C15.8497 6.68293 17.1569 7.23704 18.1207 8.22318C19.0845 9.20932 19.6259 10.5468 19.6259 11.9414C19.6282 12.2356 19.601 12.5292 19.5449 12.8178C19.5202 12.9726 19.4428 13.1134 19.3262 13.2153C19.2097 13.3172 19.0616 13.3736 18.9083 13.3744H18.7578C18.5884 13.3425 18.4379 13.2442 18.3384 13.1004C18.2389 12.9566 18.1984 12.7786 18.2254 12.6045C18.322 12.0423 18.2968 11.4653 18.1514 10.9142C18.0061 10.3631 17.7442 9.8514 17.3842 9.41531C17.0243 8.97921 16.5751 8.62945 16.0684 8.39059C15.5617 8.15174 15.0099 8.02964 14.452 8.03307L14.4867 8.02121ZM17.6582 12.0361C17.6582 12.2131 17.5903 12.383 17.4691 12.5093C17.3478 12.6355 17.183 12.7081 17.01 12.7112C16.836 12.7082 16.6699 12.6361 16.5468 12.5101C16.4237 12.3842 16.3533 12.2142 16.3503 12.0361C16.3503 11.5052 16.1442 10.9962 15.7773 10.6209C15.4105 10.2455 14.913 10.0346 14.3942 10.0346C14.2201 10.0316 14.054 9.95949 13.9309 9.83355C13.8078 9.7076 13.7374 9.53759 13.7344 9.3595C13.7374 9.18253 13.8083 9.01384 13.9317 8.88979C14.0551 8.76574 14.2212 8.69633 14.3942 8.69636C14.8228 8.69636 15.2472 8.78267 15.6433 8.95051C16.0393 9.11835 16.3991 9.36439 16.7022 9.67452C17.0053 9.98465 17.2457 10.3529 17.4097 10.7581C17.5738 11.1633 17.6582 11.5975 17.6582 12.0361ZM21.3968 13.5283C21.3604 13.6754 21.2767 13.8056 21.1591 13.898C21.0415 13.9904 20.8969 14.0396 20.7487 14.0377H20.6098C20.4396 13.9981 20.2916 13.8911 20.1983 13.7401C20.105 13.5892 20.074 13.4066 20.1121 13.2323C20.2141 12.8059 20.2646 12.3684 20.2625 11.9295C20.2625 10.359 19.6528 8.85285 18.5674 7.74234C17.4821 6.63182 16.0101 6.00793 14.4752 6.00793C14.0431 6.00705 13.6123 6.0547 13.1904 6.15004C13.0231 6.18902 12.8475 6.15856 12.7021 6.06532C12.5568 5.97208 12.4535 5.82362 12.4149 5.65257C12.3765 5.47992 12.4059 5.29881 12.4969 5.14817C12.5878 4.99753 12.733 4.8895 12.901 4.84732C13.9408 4.6067 15.0202 4.60921 16.0588 4.85483C17.0975 5.10045 18.0685 5.58279 18.8997 6.26584C19.7308 6.94889 20.4005 7.81513 20.8589 8.79987C21.3174 9.78461 21.5527 10.8625 21.5473 11.9532C21.5542 12.4902 21.5037 13.0263 21.3968 13.552V13.5283Z" fill="white"/>
</svg>
