<svg width="172" height="42" viewBox="0 0 172 42" fill="none" xmlns="http://www.w3.org/2000/svg">
<path d="M41.2047 12.6528C39.8843 12.6528 38.9961 13.5835 38.9961 15.0364C38.9961 16.4655 39.8207 17.42 41.0111 17.42C42.138 17.42 42.9175 16.6193 42.9175 15.4925V13.5198C42.5914 12.9551 41.9842 12.6528 41.2047 12.6528Z" fill="#515050"/>
<path d="M53.4455 12.4556C52.3398 12.4556 51.5816 13.0627 51.2793 14.0809H55.3942C55.3306 13.1078 54.5723 12.4556 53.4455 12.4556Z" fill="#515050"/>
<path d="M28.6623 12.4556C27.5566 12.4556 26.7984 13.0627 26.4961 14.0809H30.611C30.5474 13.1078 29.7891 12.4556 28.6623 12.4556Z" fill="#515050"/>
<path d="M71.4414 16.8975C71.4414 17.5046 71.9399 17.8493 72.7618 17.8493C73.9098 17.8493 74.6681 17.1573 74.6681 16.1392V15.9668C74.2996 15.8793 73.8223 15.8369 73.3477 15.8369C72.1149 15.8369 71.4414 16.2267 71.4414 16.8975Z" fill="#515050"/>
<path d="M82.1264 0H18.952C17.9525 0 17.0377 0.384449 16.3484 1.01283L1.78172 13.1402C0.71322 13.8322 0 15.0333 0 16.3935V37.4904C0 39.6195 1.74195 41.3615 3.87101 41.3615H67.0453C67.8354 41.3615 68.5752 41.1202 69.1903 40.7092L69.1929 40.7066C69.4183 40.5554 69.6278 40.3804 69.816 40.1869L83.9876 28.3591C85.1834 27.6989 86 26.4236 86 24.968V3.87101C85.9974 1.74195 84.2554 0 82.1264 0ZM33.927 15.728H26.4528C26.6702 16.8972 27.4921 17.6131 28.7913 17.6131C29.6768 17.6131 30.3874 17.2711 30.6393 16.6851L33.6751 17.4275C33.007 19.4372 31.1537 20.6675 28.6826 20.6675C25.2809 20.6675 22.9636 18.3502 22.9636 14.9909C22.9636 11.6979 25.196 9.40178 28.5314 9.40178C32.1082 9.40443 34.2955 12.0028 33.927 15.728ZM46.3593 20.4501H42.9152V19.8217C42.1781 20.3626 41.2687 20.6675 40.2505 20.6675C37.4136 20.6675 35.3534 18.329 35.3534 15.0996C35.3534 11.7191 37.5859 9.40178 40.7914 9.40178C41.5709 9.40178 42.2868 9.5529 42.9152 9.81274V5.28684H46.3593V20.4501ZM58.7121 15.728H51.2378C51.4552 16.8972 52.2772 17.6131 53.5763 17.6131C54.4619 17.6131 55.1725 17.2711 55.4243 16.6851L58.4602 17.4275C57.792 19.4372 55.9387 20.6675 53.4676 20.6675C50.0659 20.6675 47.7486 18.3502 47.7486 14.9909C47.7486 11.6979 49.9811 9.40178 53.3165 9.40178C56.8906 9.40443 59.0779 12.0028 58.7121 15.728ZM66.6264 12.6577C66.4169 12.5887 66.1942 12.5437 65.937 12.5437C64.6167 12.5437 63.6834 13.583 63.6834 15.0359V20.4527H60.2392V9.61919H63.6834V10.3987C64.4417 9.77032 65.3935 9.40178 66.4779 9.40178C67.1275 9.40178 67.7029 9.59002 68.0157 9.78888C67.2601 10.6161 66.8173 11.5414 66.6264 12.6577ZM78.1148 20.4501H74.6707V19.7793C73.8461 20.3414 72.8068 20.6675 71.6375 20.6675C69.3202 20.6675 67.8036 19.4107 67.8036 17.4407C67.8036 15.2746 69.6225 13.9966 72.8068 13.9966C73.4564 13.9966 74.1059 14.0602 74.6707 14.1477V13.7368C74.6707 12.9573 74.0582 12.5622 73.0242 12.4588C72.0246 12.3581 71.3061 13.119 71.2212 13.7262L68.1934 12.9864C68.5911 10.6691 70.4683 9.40708 73.2628 9.40708C76.1448 9.40708 78.1148 10.9449 78.1148 13.0898V20.4501Z" fill="#515050"/>
<path d="M96.7431 9.49977H94.1211V22.4198H96.7431V18.6768C97.3701 18.9998 98.0921 19.1708 98.9091 19.1708C101.702 19.1708 103.659 17.1378 103.659 14.1928C103.659 11.3618 101.854 9.32877 99.3081 9.32877C98.3011 9.32877 97.4271 9.65177 96.7431 10.2218V9.49977ZM96.7431 15.6938V13.7938C96.7431 12.6348 97.5601 11.7988 98.7381 11.7988C100.03 11.7988 100.885 12.7868 100.885 14.2498C100.885 15.7318 99.9731 16.7008 98.6051 16.7008C97.7501 16.7008 97.0661 16.3208 96.7431 15.6938Z" fill="#515050"/>
<path d="M111.975 9.59477C111.69 9.42377 111.253 9.32877 110.759 9.32877C109.714 9.32877 108.802 9.70877 108.099 10.3738V9.49977H105.477V18.9998H108.099V14.2498C108.099 12.7678 109.03 11.7228 110.36 11.7228C110.683 11.7228 110.968 11.7988 111.215 11.9128L111.975 9.59477Z" fill="#515050"/>
<path d="M121.978 16.0168L119.565 15.8078C119.356 16.4348 118.577 16.8338 117.608 16.8338C116.316 16.8338 115.48 16.1118 115.252 14.9338H122.092C122.396 11.6088 120.496 9.32877 117.418 9.32877C114.53 9.32877 112.554 11.3428 112.554 14.2308C112.554 17.1378 114.568 19.1708 117.532 19.1708C119.812 19.1708 121.541 17.9548 121.978 16.0168ZM115.309 13.2808C115.613 12.2738 116.392 11.6658 117.494 11.6658C118.653 11.6658 119.47 12.3308 119.546 13.2808H115.309Z" fill="#515050"/>
<path d="M126.56 9.49977H123.938V18.9998H126.56V13.7178C126.56 12.5208 127.301 11.7228 128.403 11.7228C129.315 11.7228 129.885 12.2928 129.885 13.1668V18.9998H132.507V13.7178C132.507 12.5208 133.248 11.7228 134.35 11.7228C135.262 11.7228 135.832 12.2928 135.832 13.1668V18.9998H138.454V12.6348C138.454 10.6588 137.105 9.32877 135.091 9.32877C133.818 9.32877 132.716 9.86077 131.994 10.7538C131.424 9.86077 130.417 9.32877 129.144 9.32877C128.137 9.32877 127.244 9.65177 126.56 10.2408V9.49977Z" fill="#515050"/>
<path d="M140.484 6.38377C140.484 7.25777 141.111 7.90377 142.004 7.90377C142.878 7.90377 143.524 7.25777 143.524 6.38377C143.524 5.49077 142.878 4.86377 142.004 4.86377C141.111 4.86377 140.484 5.49077 140.484 6.38377ZM140.693 18.9998H143.315V9.49977H140.693V18.9998Z" fill="#515050"/>
<path d="M151.635 18.9998H154.257V9.49977H151.635V14.7818C151.635 15.9788 150.894 16.7768 149.754 16.7768C148.785 16.7768 148.177 16.2068 148.177 15.3138V9.49977H145.555V15.8458C145.555 17.8408 146.961 19.1708 149.013 19.1708C150.039 19.1708 150.932 18.8288 151.635 18.2588V18.9998Z" fill="#515050"/>
<path d="M159.124 9.49977H156.502V18.9998H159.124V13.7178C159.124 12.5208 159.865 11.7228 160.967 11.7228C161.879 11.7228 162.449 12.2928 162.449 13.1668V18.9998H165.071V13.7178C165.071 12.5208 165.812 11.7228 166.914 11.7228C167.826 11.7228 168.396 12.2928 168.396 13.1668V18.9998H171.018V12.6348C171.018 10.6588 169.669 9.32877 167.655 9.32877C166.382 9.32877 165.28 9.86077 164.558 10.7538C163.988 9.86077 162.981 9.32877 161.708 9.32877C160.701 9.32877 159.808 9.65177 159.124 10.2408V9.49977Z" fill="#515050"/>
</svg>
