<svg width="173" height="43" viewBox="0 0 173 43" fill="none" xmlns="http://www.w3.org/2000/svg">
<path d="M41.2049 13.6528C39.8845 13.6528 38.9963 14.5835 38.9963 16.0364C38.9963 17.4655 39.8209 18.42 41.0113 18.42C42.1382 18.42 42.9177 17.6193 42.9177 16.4925V14.5198C42.5915 13.9551 41.9844 13.6528 41.2049 13.6528Z" fill="white"/>
<path d="M53.4459 13.4556C52.3403 13.4556 51.582 14.0627 51.2797 15.0809H55.3947C55.331 14.1078 54.5727 13.4556 53.4459 13.4556Z" fill="white"/>
<path d="M28.6618 13.4556C27.5562 13.4556 26.7979 14.0627 26.4956 15.0809H30.6105C30.5469 14.1078 29.7886 13.4556 28.6618 13.4556Z" fill="white"/>
<path d="M71.4418 17.8975C71.4418 18.5046 71.9402 18.8493 72.7622 18.8493C73.9102 18.8493 74.6685 18.1573 74.6685 17.1392V16.9668C74.3 16.8793 73.8227 16.8369 73.3481 16.8369C72.1152 16.8369 71.4418 17.2267 71.4418 17.8975Z" fill="white"/>
<path d="M82.1264 1H18.952C17.9525 1 17.0377 1.38445 16.3484 2.01283L1.78172 14.1402C0.71322 14.8322 0 16.0333 0 17.3935V38.4904C0 40.6195 1.74195 42.3615 3.87101 42.3615H67.0453C67.8354 42.3615 68.5752 42.1202 69.1903 41.7092L69.1929 41.7066C69.4183 41.5554 69.6278 41.3804 69.816 41.1869L83.9876 29.3591C85.1834 28.6989 86 27.4236 86 25.968V4.87101C85.9974 2.74195 84.2554 1 82.1264 1ZM33.927 16.728H26.4528C26.6702 17.8972 27.4921 18.6131 28.7913 18.6131C29.6768 18.6131 30.3874 18.2711 30.6393 17.6851L33.6751 18.4275C33.007 20.4372 31.1537 21.6675 28.6826 21.6675C25.2809 21.6675 22.9636 19.3502 22.9636 15.9909C22.9636 12.6979 25.196 10.4018 28.5314 10.4018C32.1082 10.4044 34.2955 13.0028 33.927 16.728ZM46.3593 21.4501H42.9152V20.8217C42.1781 21.3626 41.2687 21.6675 40.2505 21.6675C37.4136 21.6675 35.3534 19.329 35.3534 16.0996C35.3534 12.7191 37.5859 10.4018 40.7914 10.4018C41.5709 10.4018 42.2868 10.5529 42.9152 10.8127V6.28684H46.3593V21.4501ZM58.7121 16.728H51.2378C51.4552 17.8972 52.2772 18.6131 53.5763 18.6131C54.4619 18.6131 55.1725 18.2711 55.4243 17.6851L58.4602 18.4275C57.792 20.4372 55.9387 21.6675 53.4676 21.6675C50.0659 21.6675 47.7486 19.3502 47.7486 15.9909C47.7486 12.6979 49.9811 10.4018 53.3165 10.4018C56.8906 10.4044 59.0779 13.0028 58.7121 16.728ZM66.6264 13.6577C66.4169 13.5887 66.1942 13.5437 65.937 13.5437C64.6167 13.5437 63.6834 14.583 63.6834 16.0359V21.4527H60.2392V10.6192H63.6834V11.3987C64.4417 10.7703 65.3935 10.4018 66.4779 10.4018C67.1275 10.4018 67.7029 10.59 68.0157 10.7889C67.2601 11.6161 66.8173 12.5414 66.6264 13.6577ZM78.1148 21.4501H74.6707V20.7793C73.8461 21.3414 72.8068 21.6675 71.6375 21.6675C69.3202 21.6675 67.8036 20.4107 67.8036 18.4407C67.8036 16.2746 69.6225 14.9966 72.8068 14.9966C73.4564 14.9966 74.1059 15.0602 74.6707 15.1477V14.7368C74.6707 13.9573 74.0582 13.5622 73.0242 13.4588C72.0246 13.3581 71.3061 14.119 71.2212 14.7262L68.1934 13.9864C68.5911 11.6691 70.4683 10.4071 73.2628 10.4071C76.1448 10.4071 78.1148 11.9449 78.1148 14.0898V21.4501Z" fill="white"/>
<path d="M96.743 10.5H94.121V23.42H96.743V19.677C97.37 20 98.092 20.171 98.909 20.171C101.702 20.171 103.659 18.138 103.659 15.193C103.659 12.362 101.854 10.329 99.308 10.329C98.301 10.329 97.427 10.652 96.743 11.222V10.5ZM96.743 16.694V14.794C96.743 13.635 97.56 12.799 98.738 12.799C100.03 12.799 100.885 13.787 100.885 15.25C100.885 16.732 99.973 17.701 98.605 17.701C97.75 17.701 97.066 17.321 96.743 16.694ZM111.974 10.595C111.689 10.424 111.252 10.329 110.758 10.329C109.713 10.329 108.801 10.709 108.098 11.374V10.5H105.476V20H108.098V15.25C108.098 13.768 109.029 12.723 110.359 12.723C110.682 12.723 110.967 12.799 111.214 12.913L111.974 10.595ZM121.978 17.017L119.565 16.808C119.356 17.435 118.577 17.834 117.608 17.834C116.316 17.834 115.48 17.112 115.252 15.934H122.092C122.396 12.609 120.496 10.329 117.418 10.329C114.53 10.329 112.554 12.343 112.554 15.231C112.554 18.138 114.568 20.171 117.532 20.171C119.812 20.171 121.541 18.955 121.978 17.017ZM115.309 14.281C115.613 13.274 116.392 12.666 117.494 12.666C118.653 12.666 119.47 13.331 119.546 14.281H115.309ZM126.56 10.5H123.938V20H126.56V14.718C126.56 13.521 127.301 12.723 128.403 12.723C129.315 12.723 129.885 13.293 129.885 14.167V20H132.507V14.718C132.507 13.521 133.248 12.723 134.35 12.723C135.262 12.723 135.832 13.293 135.832 14.167V20H138.454V13.635C138.454 11.659 137.105 10.329 135.091 10.329C133.818 10.329 132.716 10.861 131.994 11.754C131.424 10.861 130.417 10.329 129.144 10.329C128.137 10.329 127.244 10.652 126.56 11.241V10.5ZM140.484 7.384C140.484 8.258 141.111 8.904 142.004 8.904C142.878 8.904 143.524 8.258 143.524 7.384C143.524 6.491 142.878 5.864 142.004 5.864C141.111 5.864 140.484 6.491 140.484 7.384ZM140.693 20H143.315V10.5H140.693V20ZM151.635 20H154.257V10.5H151.635V15.782C151.635 16.979 150.894 17.777 149.754 17.777C148.785 17.777 148.177 17.207 148.177 16.314V10.5H145.555V16.846C145.555 18.841 146.961 20.171 149.013 20.171C150.039 20.171 150.932 19.829 151.635 19.259V20ZM159.124 10.5H156.502V20H159.124V14.718C159.124 13.521 159.865 12.723 160.967 12.723C161.879 12.723 162.449 13.293 162.449 14.167V20H165.071V14.718C165.071 13.521 165.812 12.723 166.914 12.723C167.826 12.723 168.396 13.293 168.396 14.167V20H171.018V13.635C171.018 11.659 169.669 10.329 167.655 10.329C166.382 10.329 165.28 10.861 164.558 11.754C163.988 10.861 162.981 10.329 161.708 10.329C160.701 10.329 159.808 10.652 159.124 11.241V10.5Z" fill="white"/>
</svg>
