<svg width="116" height="56" viewBox="0 0 116 56" fill="none" xmlns="http://www.w3.org/2000/svg">
<path d="M55.5786 17.0659C53.7977 17.0659 52.5996 18.3212 52.5996 20.281C52.5996 22.2086 53.7118 23.4961 55.3176 23.4961C56.8375 23.4961 57.8889 22.416 57.8889 20.8961V18.2354C57.449 17.4736 56.6301 17.0659 55.5786 17.0659Z" fill="white"/>
<path d="M72.0898 16.8013C70.5985 16.8013 69.5757 17.6202 69.168 18.9935H74.7183C74.6325 17.681 73.6097 16.8013 72.0898 16.8013Z" fill="white"/>
<path d="M38.6601 16.8013C37.1688 16.8013 36.146 17.6202 35.7383 18.9935H41.2887C41.2028 17.681 40.18 16.8013 38.6601 16.8013Z" fill="white"/>
<path d="M96.3633 22.7918C96.3633 23.6108 97.0356 24.0757 98.1443 24.0757C99.6928 24.0757 100.716 23.1423 100.716 21.769V21.5366C100.218 21.4185 99.5748 21.3613 98.9346 21.3613C97.2717 21.3613 96.3633 21.887 96.3633 22.7918Z" fill="white"/>
<path d="M110.775 0H25.5632C24.2149 0 22.9811 0.51856 22.0513 1.36614L2.40326 17.724C0.962017 18.6574 0 20.2775 0 22.1121V50.5685C0 53.4403 2.34961 55.7899 5.22136 55.7899H90.4332C91.499 55.7899 92.4967 55.4644 93.3264 54.9101L93.33 54.9065C93.634 54.7027 93.9165 54.4666 94.1704 54.2056L113.286 38.2518C114.899 37.3613 116 35.6411 116 33.6778V5.22136C115.996 2.34961 113.647 0 110.775 0ZM45.762 21.2145H35.6805C35.9737 22.7916 37.0824 23.7572 38.8348 23.7572C40.0292 23.7572 40.9877 23.2958 41.3274 22.5055L45.4222 23.5068C44.521 26.2177 42.0212 27.8771 38.6881 27.8771C34.0998 27.8771 30.9741 24.7514 30.9741 20.2203C30.9741 15.7785 33.9853 12.6815 38.4843 12.6815C43.3087 12.685 46.2591 16.1898 45.762 21.2145ZM62.5311 27.5838H57.8856V26.7362C56.8914 27.4658 55.6647 27.8771 54.2914 27.8771C50.4648 27.8771 47.686 24.7228 47.686 20.3669C47.686 15.8071 50.6973 12.6815 55.021 12.6815C56.0724 12.6815 57.038 12.8853 57.8856 13.2358V7.13109H62.5311V27.5838ZM79.193 21.2145H69.1115C69.4047 22.7916 70.5134 23.7572 72.2658 23.7572C73.4602 23.7572 74.4187 23.2958 74.7584 22.5055L78.8533 23.5068C77.952 26.2177 75.4522 27.8771 72.1191 27.8771C67.5308 27.8771 64.4051 24.7514 64.4051 20.2203C64.4051 15.7785 67.4163 12.6815 71.9153 12.6815C76.7361 12.685 79.6865 16.1898 79.193 21.2145ZM89.8682 17.0731C89.5856 16.9801 89.2852 16.9194 88.9383 16.9194C87.1574 16.9194 85.8985 18.3212 85.8985 20.281V27.5874H81.2529V12.9747H85.8985V14.0261C86.9213 13.1786 88.2052 12.6815 89.6679 12.6815C90.5441 12.6815 91.3201 12.9354 91.7421 13.2036C90.7229 14.3194 90.1257 15.5675 89.8682 17.0731ZM105.364 27.5838H100.719V26.679C99.6064 27.4372 98.2045 27.8771 96.6273 27.8771C93.5017 27.8771 91.456 26.1819 91.456 23.5247C91.456 20.6029 93.9094 18.8791 98.2045 18.8791C99.0807 18.8791 99.9568 18.965 100.719 19.083V18.5287C100.719 17.4772 99.8925 16.9444 98.4977 16.8049C97.1495 16.669 96.1803 17.6954 96.0658 18.5144L91.9818 17.5166C92.5182 14.3909 95.0502 12.6886 98.8196 12.6886C102.707 12.6886 105.364 14.7629 105.364 17.6561V27.5838Z" fill="white"/>
</svg>
