<svg width="32" height="27" viewBox="0 0 32 27" fill="none" xmlns="http://www.w3.org/2000/svg">
<path d="M31.4626 1.14371C31.3038 0.783632 31.0376 0.481047 30.7002 0.277169C30.3629 0.0732905 29.9707 -0.021982 29.577 0.00426957C29.1372 0.0116748 28.7013 0.0885379 28.2856 0.232103C28.0914 0.311864 9.14356 7.52448 1.38388 10.7035C1.09718 10.7915 0.832132 10.9383 0.605782 11.1346C0.379433 11.3308 0.196802 11.5721 0.0696542 11.843C-0.0382317 12.1832 -0.0203269 12.5508 0.120137 12.8789C0.260601 13.2071 0.514329 13.4743 0.835335 13.632C2.76668 14.4752 6.78937 15.6488 8.04646 16.0134C8.45788 17.3921 9.90925 22.1891 10.5835 24.2401C10.6892 24.5133 10.8815 24.7446 11.1311 24.8989C11.3807 25.0531 11.6739 25.1218 11.9663 25.0947H12.1377C12.3189 25.0697 12.4851 24.9808 12.6063 24.8441C12.7042 24.7281 12.764 24.5849 12.7777 24.4339L13.1777 18.6456L16.2747 20.9245C18.686 22.7248 21.5659 24.8669 23.1316 26.0292C23.6012 26.4022 24.1773 26.6175 24.7772 26.6444C25.2753 26.6033 25.7463 26.4005 26.1178 26.0671C26.4893 25.7337 26.741 25.2881 26.8343 24.7985C28.1714 19.614 30.1256 9.82627 31.2912 3.98092L31.5541 2.69334C31.6946 2.18074 31.6624 1.63635 31.4626 1.14371ZM11.8406 17.3124L11.4863 22.4627C10.6064 19.6596 9.31499 15.3753 9.30356 15.3183L24.1601 5.70149C24.596 5.39478 25.0634 5.13499 25.5543 4.92661C26.0686 4.81267 26.1943 5.0177 26.1029 5.14304C25.4516 5.8277 24.765 6.47816 24.0458 7.09158L12.2292 16.8338C12.1319 16.8784 12.0462 16.9448 11.9788 17.0278C11.9114 17.1108 11.8641 17.2082 11.8406 17.3124Z" fill="white"/>
</svg>
