<svg width="384" height="456" viewBox="0 0 384 456" fill="none" xmlns="http://www.w3.org/2000/svg">
<path d="M138.984 95.9595C160.327 108.772 184.146 116.906 208.867 119.826C233.453 122.835 259.286 119.344 280.721 107.08C282.507 105.855 284.534 105.024 286.667 104.644C289.238 104.647 291.758 105.364 293.945 106.715C321.421 120.542 346.629 138.475 368.701 159.898C339.383 174.045 308.125 183.757 275.951 188.714C275.951 188.714 193.459 201.213 112.818 172.114C99.7179 167.661 87.0558 162.01 74.9928 155.233C60.494 146.606 47.2589 136.014 35.6645 123.759C56.1209 112.73 77.6204 103.756 99.8475 96.9689C109.996 93.8426 119.763 91.3728 129.042 89.3955C131.541 91.1323 134.854 93.3955 138.984 95.9595Z" stroke="white" stroke-width="1.4" stroke-miterlimit="10"/>
<path d="M129.362 89.4354C134.742 73.5749 140.347 57.3151 151.091 44.3956C170.911 20.7121 207.03 13.3833 235.521 25.3053C264.011 37.2274 283.701 66.4994 286.541 97.2489C286.827 100.447 286.719 104.2 284.128 106.092" stroke="white" stroke-width="1.4" stroke-miterlimit="10"/>
<path d="M48.6585 137.373C50.9759 147.854 55.3417 157.773 61.505 166.561C68.6367 176.597 88.3492 199.118 210.494 208.268C290.797 214.28 315.533 207.039 333.154 190.643C339.952 184.302 345.584 176.817 349.794 168.529" stroke="white" stroke-width="1.4" stroke-miterlimit="10"/>
<path d="M100.858 114.565C103.368 112.767 106.213 111.493 109.225 110.819C113.047 109.653 117.151 109.819 120.866 111.289C122.891 112.365 124.616 113.927 125.886 115.835C127.155 117.744 127.93 119.939 128.139 122.222C128.509 126.821 127.428 131.421 125.048 135.374C123.939 137.598 122.261 139.489 120.185 140.855C117.779 142.005 115.126 142.543 112.462 142.42C108.008 142.83 103.53 141.942 99.5698 139.863C90.7101 134.511 93.5814 120.076 100.858 114.565Z" stroke="white" stroke-width="1.4" stroke-miterlimit="10"/>
<path d="M154.387 141.803C154.89 139.659 155.869 137.657 157.252 135.945C158.635 134.232 160.386 132.853 162.376 131.91C165.83 130.602 169.56 130.194 173.215 130.726C175.844 130.82 178.415 131.53 180.719 132.799C184.768 135.404 186.136 140.642 186.454 145.426C186.772 150.21 186.207 155.237 183.07 158.719C181.439 160.311 179.473 161.519 177.316 162.254C175.158 162.989 172.864 163.232 170.6 162.967C158.219 162.18 151.29 153.976 154.387 141.803Z" stroke="white" stroke-width="1.4" stroke-miterlimit="10"/>
<path d="M222.53 157.926C221.605 154.659 221.807 151.176 223.102 148.038C224.397 144.9 226.709 142.288 229.668 140.624C231.888 139.568 234.291 138.949 236.745 138.803C243.342 138.23 250.543 140.115 254.602 145.307C256.615 148.087 257.677 151.443 257.628 154.875C257.579 158.308 256.422 161.632 254.329 164.353C252.144 166.948 249.264 168.864 246.027 169.878C242.79 170.891 239.33 170.96 236.056 170.075C231.189 166.768 224.691 165.295 222.53 157.926Z" stroke="white" stroke-width="1.4" stroke-miterlimit="10"/>
<path d="M279.69 152.821C278.602 150.231 278.156 147.417 278.39 144.617C278.623 141.818 279.529 139.116 281.03 136.742C282.135 134.82 283.676 133.185 285.531 131.971C288.193 130.528 291.191 129.82 294.217 129.921C296.677 129.728 299.149 130.067 301.467 130.914C303.784 131.761 305.893 133.095 307.65 134.828C309.007 136.58 309.936 138.626 310.363 140.8C310.79 142.975 310.702 145.22 310.108 147.355C306.75 161.053 286.63 167.704 279.69 152.821Z" stroke="white" stroke-width="1.4" stroke-miterlimit="10"/>
<path d="M187.659 86.3538C184.698 80.393 179.87 70.6137 184.083 59.7818C185.968 54.7479 189.326 50.3987 193.719 47.3003C198.112 44.2019 203.336 42.498 208.711 42.4108C214.085 42.3236 219.362 43.857 223.853 46.8112C228.344 49.7655 231.841 54.0035 233.889 58.9736C240.669 75.1674 226.022 90.8478 221.743 95.4456C217.841 99.6375 213.31 104.456 207.061 104.444C196.576 104.366 189.76 90.7281 187.659 86.3538Z" stroke="white" stroke-width="1.4" stroke-miterlimit="10"/>
<path d="M214.512 84.1657C214.283 82.7143 214.401 81.2292 214.855 79.8319C215.31 78.4347 216.088 77.1648 217.127 76.1258C218.868 74.0041 221.679 71.963 224.142 73.1683C224.875 73.5819 225.478 74.1913 225.885 74.9282C226.291 75.6652 226.484 76.5007 226.443 77.3413C226.331 79.0464 225.827 80.7028 224.972 82.1822C224.156 84.0256 222.898 85.6394 221.309 86.8805C220.509 87.4902 219.555 87.8636 218.554 87.9585C217.553 88.0534 216.545 87.866 215.645 87.4174C215.219 87.1652 214.852 86.825 214.568 86.4198C214.283 86.0147 214.088 85.5539 213.996 85.0677C213.904 84.5815 213.916 84.081 214.031 83.5998C214.147 83.1186 214.364 82.6678 214.667 82.2768" fill="white"/>
<path d="M214.512 84.1657C214.283 82.7143 214.401 81.2292 214.855 79.8319C215.31 78.4347 216.088 77.1648 217.127 76.1258C218.868 74.0041 221.679 71.963 224.142 73.1683C224.875 73.5819 225.478 74.1913 225.885 74.9282C226.291 75.6652 226.484 76.5007 226.443 77.3413C226.331 79.0464 225.827 80.7028 224.972 82.1822C224.156 84.0256 222.898 85.6394 221.309 86.8805C220.509 87.4902 219.555 87.8636 218.554 87.9585C217.553 88.0534 216.545 87.866 215.645 87.4174C215.219 87.1652 214.852 86.825 214.568 86.4198C214.283 86.0147 214.088 85.5539 213.996 85.0677C213.904 84.5815 213.916 84.081 214.031 83.5998C214.147 83.1186 214.364 82.6678 214.667 82.2768" stroke="white" stroke-width="1.4" stroke-miterlimit="10"/>
<path d="M191.747 78.7955C191.304 76.0551 191.206 72.7543 193.399 71.0394C194.411 70.4026 195.607 70.1212 196.797 70.2396C197.988 70.358 199.104 70.8695 199.972 71.6933C201.666 73.3867 202.802 75.5581 203.227 77.9159C203.871 80.6558 203.87 84.1454 201.435 85.5796C200.695 85.9616 199.868 86.1437 199.036 86.1079C198.204 86.0721 197.395 85.8197 196.69 85.3755C195.296 84.4591 194.139 83.2248 193.315 81.7741C192.341 80.5036 191.841 78.9331 191.901 77.3333" fill="white"/>
<path d="M191.747 78.7955C191.304 76.0551 191.206 72.7543 193.399 71.0394C194.411 70.4026 195.607 70.1212 196.797 70.2396C197.988 70.358 199.104 70.8695 199.972 71.6933C201.666 73.3867 202.802 75.5581 203.227 77.9159C203.871 80.6558 203.87 84.1454 201.435 85.5796C200.695 85.9616 199.868 86.1437 199.036 86.1079C198.204 86.0721 197.395 85.8197 196.69 85.3755C195.296 84.4591 194.139 83.2248 193.315 81.7741C192.341 80.5036 191.841 78.9331 191.901 77.3333" stroke="white" stroke-width="1.4" stroke-miterlimit="10"/>
<path d="M190.458 91.9933C187.807 92.9857 185.437 94.6084 183.553 96.7214C179.032 101.216 174.936 106.118 171.317 111.366" stroke="white" stroke-width="1.4" stroke-miterlimit="10"/>
<path d="M223.844 93.0386C225.514 93.5607 226.964 94.6209 227.968 96.0539C233.496 102.971 237.005 111.28 238.11 120.065" stroke="white" stroke-width="1.4" stroke-miterlimit="10"/>
<path d="M137.34 200.47L36.4083 419.634" stroke="white" stroke-width="1.4" stroke-miterlimit="10"/>
<path d="M254.863 210.459L322.535 454.651" stroke="white" stroke-width="1.4" stroke-miterlimit="10"/>
<path d="M199.297 275.159C201.714 275.131 204.101 275.695 206.25 276.802C208.399 277.91 210.244 279.527 211.624 281.513C215.497 287.811 213.32 298.214 207.905 302.873C205.69 304.761 203 306.642 202.572 309.526C202.514 311.991 203.258 314.408 204.691 316.413C209.113 324.771 211.024 334.229 210.195 343.648C209.81 347.818 207.203 353.123 203.108 352.119C200.259 351.394 199.156 347.895 199.266 344.946C199.376 341.998 200.221 338.988 199.281 336.212C199.162 335.725 198.928 335.274 198.599 334.898C198.269 334.521 197.853 334.229 197.387 334.047C195.902 333.664 194.505 337.083 193.714 338.618C186.954 354.059 179.633 385.573 169.323 387.148C168.371 387.33 167.388 387.256 166.475 386.932C165.561 386.609 164.75 386.048 164.126 385.307C161.568 380.977 171.267 367.98 172.703 360.348C172.914 359.373 172.781 358.355 172.328 357.465C171.719 356.664 170.826 356.126 169.833 355.963C168.84 355.799 167.822 356.022 166.988 356.586C165.333 357.796 163.948 359.336 162.92 361.109C159.183 366.159 154.052 370.007 148.159 372.181C147.112 372.705 145.905 372.809 144.784 372.471C142.544 371.494 142.968 368.232 144.013 366.051C150.719 352.285 167.133 344.729 171.946 330.23C172.384 328.903 172.33 328.319 172.215 328.029C171.367 326.544 168.109 327.526 163.549 327.244C162.09 327.066 155.809 326.699 155.303 324.679C154.797 322.659 158.613 321.017 168.391 314.758C180.071 307.325 181.184 306.03 182.02 304.325C185.039 298.117 180.261 294.695 182.802 287.475C184.018 284.016 186.236 280.998 189.174 278.805C192.111 276.612 195.635 275.342 199.297 275.159Z" fill="white" stroke="white" stroke-width="1.4" stroke-miterlimit="10"/>
</svg>
