<svg width="27" height="26" viewBox="0 0 27 26" fill="none" xmlns="http://www.w3.org/2000/svg">
<path fill-rule="evenodd" clip-rule="evenodd" d="M0 12.9002C0 7.49562 -6.1866e-06 4.78764 1.40357 2.92517C1.85013 2.32122 2.39602 1.79226 3.01946 1.35965C4.942 -6.70157e-05 7.73736 0 13.3163 0C18.8952 0 21.7024 -6.70157e-05 23.6249 1.35965C24.2483 1.79226 24.7942 2.32122 25.2408 2.92517C26.6444 4.78764 26.6444 7.49562 26.6444 12.9002C26.6444 18.3048 26.6444 21.0242 25.2408 22.8752C24.7978 23.4853 24.2514 24.0185 23.6249 24.4521C21.7024 25.8118 18.907 25.8117 13.3163 25.8117C7.72557 25.8117 4.942 25.8118 3.01946 24.4521C2.39292 24.0185 1.84659 23.4853 1.40357 22.8752C-6.1866e-06 21.0242 0 18.3162 0 12.9002ZM13.3163 6.0445C11.9166 6.0445 10.5484 6.44649 9.38459 7.19981C8.2208 7.95312 7.31375 9.02388 6.77812 10.2766C6.24249 11.5293 6.10235 12.9078 6.37541 14.2377C6.64847 15.5676 7.32247 16.789 8.31219 17.7478C9.3019 18.7066 10.5629 19.3596 11.9357 19.6241C13.3084 19.8886 14.7313 19.7529 16.0245 19.234C17.3176 18.7151 18.4229 17.8364 19.2005 16.709C19.9781 15.5816 20.3931 14.2561 20.3931 12.9002C20.3838 11.0879 19.6341 9.35292 18.3079 8.07463C16.9817 6.79634 15.1871 6.07865 13.3163 6.07867V6.0445ZM13.3163 17.1393C12.4438 17.1393 11.591 16.8887 10.8655 16.4191C10.1401 15.9496 9.5747 15.2822 9.24082 14.5013C8.90695 13.7204 8.8196 12.8612 8.98981 12.0322C9.16001 11.2033 9.58014 10.4419 10.1971 9.84421C10.814 9.24656 11.6 8.83956 12.4557 8.67467C13.3114 8.50978 14.1983 8.59434 15.0044 8.91778C15.8104 9.24123 16.4994 9.78892 16.9841 10.4917C17.4688 11.1944 17.7275 12.0207 17.7275 12.8659C17.7322 13.43 17.6215 13.9893 17.4019 14.5118C17.1824 15.0342 16.8582 15.5093 16.4481 15.9098C16.038 16.3102 15.5501 16.6281 15.0126 16.845C14.4751 17.0619 13.8986 17.1736 13.3163 17.1736V17.1393ZM21.8439 5.53024C21.8439 5.64974 21.8194 5.76811 21.7719 5.87838C21.7243 5.98865 21.6546 6.08871 21.5668 6.17268C21.479 6.25665 21.3749 6.32285 21.2605 6.36753C21.1461 6.41222 21.0237 6.43446 20.9003 6.43295C20.6532 6.43295 20.4162 6.33778 20.2414 6.1685C20.0667 5.99921 19.9685 5.76964 19.9685 5.53024C19.967 5.41074 19.9899 5.29224 20.036 5.1814C20.0822 5.07056 20.1506 4.96962 20.2372 4.88458C20.3239 4.79955 20.4272 4.73204 20.541 4.68596C20.6548 4.63989 20.777 4.61621 20.9003 4.61622C21.0273 4.61614 21.1529 4.64083 21.2698 4.68889C21.3866 4.73696 21.4923 4.80734 21.5804 4.89588C21.6685 4.98443 21.7372 5.08938 21.7825 5.20427C21.8278 5.31916 21.8486 5.44165 21.8439 5.56455V5.53024Z" fill="white"/>
</svg>
