<svg width="34" height="24" viewBox="0 0 34 24" fill="none" xmlns="http://www.w3.org/2000/svg">
<path fill-rule="evenodd" clip-rule="evenodd" d="M29.6231 0.711796C31.0467 1.09521 32.1693 2.21755 32.5525 3.64139C33.2645 6.2421 33.2371 11.6631 33.2371 11.6631C33.2371 11.6631 33.2371 17.0565 32.5527 19.6574C32.1693 21.081 31.047 22.2036 29.6231 22.5868C27.0222 23.2714 16.6186 23.2714 16.6186 23.2714C16.6186 23.2714 6.2421 23.2714 3.61401 22.5596C2.19016 22.1762 1.06782 21.0536 0.68441 19.6301C0 17.0565 0 11.6357 0 11.6357C0 11.6357 0 6.2421 0.68441 3.64139C1.06757 2.2178 2.21755 1.06782 3.61376 0.684663C6.21472 0 16.6183 0 16.6183 0C16.6183 0 27.0222 0 29.6231 0.711796ZM21.9561 11.6357L13.3047 16.6186V6.65283L21.9561 11.6357Z" fill="white"/>
</svg>
