<svg width="24" height="24" viewBox="0 0 24 24" fill="none" xmlns="http://www.w3.org/2000/svg">
<path d="M19.2 7.9999H16.2L16.58 7.8599C17.1021 7.66322 17.5657 7.33698 17.927 6.91186C18.2884 6.48674 18.5357 5.9767 18.6457 5.4297C18.7557 4.8827 18.7248 4.31671 18.5558 3.78495C18.3869 3.25319 18.0855 2.77312 17.68 2.3899C17.2711 2.00929 16.7718 1.73941 16.2294 1.60584C15.687 1.47228 15.1195 1.47945 14.5806 1.62669C14.0418 1.77392 13.5495 2.05633 13.1503 2.44715C12.7512 2.83798 12.4585 3.32426 12.3 3.8599L12 4.9999L11.67 3.8799C11.4417 3.06262 10.9046 2.36611 10.1722 1.93751C9.43984 1.50892 8.56954 1.3818 7.74517 1.58302C6.92081 1.78425 6.20695 2.29805 5.75441 3.01588C5.30187 3.73371 5.1461 4.59934 5.32 5.4299C5.4259 5.9777 5.67105 6.48901 6.03185 6.91461C6.39264 7.3402 6.85692 7.66575 7.38 7.8599L7.77 7.9999H4.77C4.03342 8.01038 3.33042 8.30969 2.81234 8.83337C2.29426 9.35706 2.00255 10.0633 2 10.7999V19.1999C2.00264 19.9417 2.29848 20.6524 2.82301 21.1769C3.34754 21.7014 4.05821 21.9973 4.8 21.9999H19.2C19.9418 21.9973 20.6525 21.7014 21.177 21.1769C21.7015 20.6524 21.9974 19.9417 22 19.1999V10.7999C21.9974 10.0581 21.7015 9.34744 21.177 8.82291C20.6525 8.29838 19.9418 8.00253 19.2 7.9999ZM14.25 4.4299C14.3067 4.22006 14.418 4.029 14.5726 3.87617C14.7272 3.72335 14.9195 3.61422 15.13 3.5599C15.2432 3.52447 15.3614 3.50758 15.48 3.5099C15.6645 3.51147 15.8464 3.55321 16.0131 3.63223C16.1799 3.71125 16.3274 3.82565 16.4454 3.96746C16.5634 4.10928 16.6491 4.2751 16.6965 4.4534C16.744 4.6317 16.752 4.81819 16.72 4.9999C16.6803 5.2128 16.5856 5.4116 16.4453 5.57651C16.3049 5.74143 16.1238 5.86672 15.92 5.9399L13.53 6.8299L14.25 4.4299ZM7.28 4.9999C7.24803 4.81819 7.25604 4.6317 7.30347 4.4534C7.35089 4.2751 7.43659 4.10928 7.55461 3.96746C7.67263 3.82565 7.82013 3.71125 7.98685 3.63223C8.15357 3.55321 8.33551 3.51147 8.52 3.5099C8.6386 3.50758 8.75679 3.52447 8.87 3.5599C9.08047 3.61422 9.27279 3.72335 9.42737 3.87617C9.58196 4.029 9.69328 4.22006 9.75 4.4299L10.47 6.8699L8.08 5.9999C7.86828 5.92179 7.68189 5.78738 7.54092 5.61117C7.39994 5.43495 7.30973 5.2236 7.28 4.9999ZM20 19.1999C20 19.4121 19.9157 19.6156 19.7657 19.7656C19.6157 19.9156 19.4122 19.9999 19.2 19.9999H4.8C4.58783 19.9999 4.38434 19.9156 4.23431 19.7656C4.08429 19.6156 4 19.4121 4 19.1999V13.9999H20V19.1999ZM20 11.9999H4V10.7999C4 10.5877 4.08429 10.3842 4.23431 10.2342C4.38434 10.0842 4.58783 9.9999 4.8 9.9999H19.2C19.4122 9.9999 19.6157 10.0842 19.7657 10.2342C19.9157 10.3842 20 10.5877 20 10.7999V11.9999Z" fill="#5F3CF7"/>
</svg>
