<svg width="2496" height="679" viewBox="0 0 2496 679" fill="none" xmlns="http://www.w3.org/2000/svg">
<g clip-path="url(#clip0_130_5650)">
<rect width="2496" height="679" fill="#202B36"/>
<path opacity="0.25" fill-rule="evenodd" clip-rule="evenodd" d="M1056.11 -31.1191H821.436L821.506 7.28926H845.28C856.088 7.79833 855.544 15.3817 855.544 15.3817V213.306C855.544 226.296 847.157 225.207 847.157 225.207H828.524V267.425H1057.16V180.339H1000.43V207.39C999.908 216.027 992.311 216.536 992.311 216.536H932.323V140.807H1021.95V92.1814H932.323V19.7001H989.626C999.908 19.7001 1000.43 26.7222 1000.43 26.7222V55.3882H1056.11V-31.1191ZM518.583 -31.0128V6.85131H540.515C540.515 6.85131 549.832 7.92212 549.832 15.6284V214.184C549.832 214.184 549.288 219.661 544.357 220.223H517.495V267.988H675.405C675.405 267.988 811.382 268.672 809.206 111.65C809.206 111.65 814.119 -18.4971 694.476 -30.6973C694.476 -30.6973 684.739 -31.0128 678.159 -31.0128H518.583ZM1957.43 399.275C1920.27 323.88 1823.33 329.989 1823.33 329.989C1744.51 331.081 1708.39 385.743 1707.53 387.034L1707.52 387.057C1644.91 489.609 1704.2 570.551 1704.2 570.551C1743.54 633.746 1829.98 629.323 1829.98 629.323C1918.66 628.779 1950.22 568.919 1950.22 568.919C2003.91 484.817 1957.43 399.275 1957.43 399.275ZM947.183 330.498H863.702L775.501 569.112C772.395 581.646 760.376 586.35 760.376 586.35H742.62V627.076H866.807V584.771H844.384C833.418 583.7 839.682 573.799 839.682 573.799L850.121 552.401H949.271L957.079 572.728C959.675 585.315 950.288 585.28 950.288 585.28H922.128V627.55H1068.23V587.369H1051.53C1042.65 586.842 1040.07 578.996 1040.07 578.996L947.183 330.498ZM523.548 330.269H749.025V416.197H691.721V387.566C691.721 387.566 690.668 380.772 682.878 380.772H630.295V450.059H721.408V504.74H629.259V586.508H704.758V627.69H518.354V585.49H547.515C547.515 585.49 555.323 585.49 554.814 574.044V379.228C554.814 379.228 555.867 370.854 548.041 370.38H523.548V330.269ZM1273.3 433.874V394.201C1261.16 376.995 1233.31 376.982 1231.61 376.981H1231.6C1231.55 376.981 1231.53 376.981 1231.53 376.98C1161.61 376.98 1158.48 471.475 1158.48 471.475C1151.68 584.77 1233.09 580.065 1233.09 580.065C1279.53 577.467 1280.58 544.588 1280.58 544.588V521.1H1333.27V605.641C1291 630.199 1232.56 629.129 1232.56 629.129C1168.91 631.218 1133.43 609.275 1133.43 609.275C1066.12 568.022 1072.39 478.268 1072.39 478.268C1076.04 407.77 1108.39 376.98 1108.39 376.98C1151.69 327.934 1222.68 330.497 1222.68 330.497C1288.97 328.408 1334.87 355.564 1334.87 355.564V433.874H1273.3ZM1371.92 328.953H1648.46V416.145H1592.12V387.409C1592.12 387.409 1591.05 380.107 1581.15 380.616H1548.27V585.297H1600.45V628.095H1419.91V585.824H1472.11V381.177H1438.7C1438.7 381.177 1429.3 379.598 1428.79 388.989V416.145H1372.45L1371.92 328.953ZM620.874 18.6816H672.387C672.387 18.6816 730.077 31.742 730.077 116.915C730.077 116.915 731.445 214.499 663.457 224.803H620.189L620.874 18.6816ZM1760.35 481.112C1765.17 589.562 1831.09 582.295 1831.09 582.295C1893.92 582.014 1898.04 484.097 1898.04 484.097C1898.04 367.66 1832.12 373.839 1832.12 373.839C1755.34 373.242 1760.35 481.112 1760.35 481.112ZM936.884 508.55L898.513 396.975L860.737 508.55H936.884Z" fill="black"/>
<g filter="url(#filter0_f_130_5650)">
<ellipse cx="624.5" cy="37.5" rx="407.5" ry="267.5" fill="white" fill-opacity="0.1"/>
</g>
</g>
<defs>
<filter id="filter0_f_130_5650" x="-103" y="-550" width="1455" height="1175" filterUnits="userSpaceOnUse" color-interpolation-filters="sRGB">
<feFlood flood-opacity="0" result="BackgroundImageFix"/>
<feBlend mode="normal" in="SourceGraphic" in2="BackgroundImageFix" result="shape"/>
<feGaussianBlur stdDeviation="160" result="effect1_foregroundBlur_130_5650"/>
</filter>
<clipPath id="clip0_130_5650">
<rect width="2496" height="679" fill="white"/>
</clipPath>
</defs>
</svg>
