<svg width="104" height="104" viewBox="0 0 104 104" fill="none" xmlns="http://www.w3.org/2000/svg">
<path d="M9 31H71V98H9V31Z" fill="white"/>
<path fill-rule="evenodd" clip-rule="evenodd" d="M70 32H10V97H70V32ZM9 31V98H71V31H9Z" fill="#282A36"/>
<path d="M13 27H76V94H13V27Z" fill="white"/>
<path fill-rule="evenodd" clip-rule="evenodd" d="M75 28H14V93H75V28ZM13 27V94H76V27H13Z" fill="#282A36"/>
<path d="M17 23H80V90H17V23Z" fill="white"/>
<path fill-rule="evenodd" clip-rule="evenodd" d="M79 24H18V89H79V24ZM17 23V90H80V23H17Z" fill="#282A36"/>
<path d="M21 19H84V86H21V19Z" fill="white"/>
<path fill-rule="evenodd" clip-rule="evenodd" d="M83 20H22V85H83V20ZM21 19V86H84V19H21Z" fill="#282A36"/>
<path d="M25 15H88V82H25V15Z" fill="white"/>
<path fill-rule="evenodd" clip-rule="evenodd" d="M87 16H26V81H87V16ZM25 15V82H88V15H25Z" fill="#282A36"/>
<path d="M29 11H92V78H29V11Z" fill="white"/>
<path fill-rule="evenodd" clip-rule="evenodd" d="M91 12H30V77H91V12ZM29 11V78H92V11H29Z" fill="#282A36"/>
<path d="M33 7H96V74H33V7Z" fill="white"/>
<path fill-rule="evenodd" clip-rule="evenodd" d="M95 8H34V73H95V8ZM33 7V74H96V7H33Z" fill="#282A36"/>
<path d="M50 28L64 25L78 28V51.5L64 61L50 51.5V28Z" fill="#F2E109"/>
</svg>
