<svg width="104" height="104" viewBox="0 0 104 104" fill="none" xmlns="http://www.w3.org/2000/svg">
<path d="M38.384 36.6836C32.6445 39.9973 30.678 47.3364 33.9917 53.0759L41.7429 66.5013C45.0566 72.2408 52.3957 74.2074 58.1352 70.8936L90.1781 52.3936C95.9176 49.0799 97.8841 41.7409 94.5704 36.0013L86.8193 22.5759C83.5055 16.8364 76.1665 14.8699 70.4269 18.1836L38.384 36.6836Z" fill="white"/>
<path fill-rule="evenodd" clip-rule="evenodd" d="M42.6089 66.0013L34.8577 52.5759C31.8202 47.3147 33.6228 40.5872 38.884 37.5496L70.9269 19.0496C76.1882 16.0121 82.9157 17.8147 85.9532 23.0759L93.7044 36.5013C96.742 41.7626 94.9393 48.4901 89.6781 51.5276L57.6352 70.0276C52.374 73.0652 45.6465 71.2626 42.6089 66.0013ZM33.9917 53.0759C30.678 47.3364 32.6445 39.9973 38.384 36.6836L70.4269 18.1836C76.1665 14.8699 83.5055 16.8364 86.8193 22.5759L94.5704 36.0013C97.8841 41.7409 95.9176 49.0799 90.1781 52.3936L58.1352 70.8936C52.3957 74.2074 45.0566 72.2408 41.7429 66.5013L33.9917 53.0759Z" fill="#282A36"/>
<path d="M67.8047 19.6438L87.6032 53.9358L90.2012 52.4358C95.9407 49.122 97.9072 41.783 94.5935 36.0434L86.7951 22.5361C83.4814 16.7966 76.1423 14.8301 70.4028 18.1438L67.8047 19.6438Z" fill="white"/>
<path fill-rule="evenodd" clip-rule="evenodd" d="M87.9692 52.5697L69.1707 20.0098L70.9028 19.0098C76.164 15.9723 82.8915 17.7749 85.929 23.0361L93.7275 36.5434C96.7651 41.8047 94.9624 48.5322 89.7012 51.5697L87.9692 52.5697ZM67.8047 19.6438L70.4028 18.1438C76.1423 14.8301 83.4814 16.7966 86.7951 22.5361L94.5935 36.0434C97.9072 41.783 95.9407 49.122 90.2012 52.4358L87.6032 53.9358L67.8047 19.6438Z" fill="#282A36"/>
<path d="M57.4464 27.7C62.7076 24.6624 69.4351 26.465 72.4727 31.7262L79.4727 43.8506C82.5102 49.1118 80.7076 55.8393 75.4464 58.8769C70.1852 61.9144 63.4577 60.1118 60.4201 54.8506L53.4201 42.7262C50.3825 37.465 52.1852 30.7375 57.4464 27.7Z" fill="white"/>
<path fill-rule="evenodd" clip-rule="evenodd" d="M78.6066 44.3506L71.6066 32.2262C68.8452 27.4433 62.7293 25.8046 57.9464 28.566C53.1634 31.3274 51.5247 37.4433 54.2861 42.2262L61.2861 54.3506C64.0475 59.1335 70.1634 60.7723 74.9464 58.0108C79.7293 55.2494 81.3681 49.1335 78.6066 44.3506ZM72.4727 31.7262C69.4351 26.465 62.7076 24.6624 57.4464 27.7C52.1852 30.7375 50.3825 37.465 53.4201 42.7262L60.4201 54.8506C63.4577 60.1118 70.1852 61.9144 75.4464 58.8769C80.7076 55.8393 82.5102 49.1118 79.4727 43.8506L72.4727 31.7262Z" fill="#282A36"/>
<path fill-rule="evenodd" clip-rule="evenodd" d="M75.7059 65.0781C77.748 63.8991 78.3774 61.2448 77.082 59.2744L77.9176 58.7251C79.5289 61.176 78.746 64.4776 76.2059 65.9441L60.2867 75.1351C58.9477 75.9081 57.4707 76.4121 55.9385 76.6188L55.8018 76.6372C51.6422 77.1981 48.1765 73.4799 49.0282 69.3699C49.5885 66.6655 51.8996 64.6774 54.6574 64.5272L57.1036 64.394C58.4009 64.3233 59.6634 63.948 60.7886 63.2983L64.1697 61.3462L64.6697 62.2123L61.2886 64.1643C60.0273 64.8925 58.6122 65.3133 57.1579 65.3925L54.7117 65.5257C52.407 65.6512 50.4757 67.3127 50.0073 69.5728C49.2956 73.0076 52.192 76.115 55.6682 75.6462L55.8048 75.6277C57.2079 75.4385 58.5605 74.977 59.7867 74.2691L75.7059 65.0781Z" fill="#282A36"/>
<path d="M38.1601 83.3819L48.3152 71.8857L34.2152 47.4638L22.3283 49.24C18.8015 49.767 15.7788 52.038 14.2908 55.2786L14.0193 55.8698C13.6761 56.6173 13.2025 57.2979 12.6209 57.8795L11.6086 58.8918C8.98835 61.512 9.47119 65.8854 12.5999 67.871C15.1076 69.4624 18.4128 68.8973 20.2494 66.5633L20.9756 65.6405C22.6312 63.5365 25.3311 62.545 27.9549 63.0775L29.3984 63.3705C31.0713 63.71 32.1007 65.4024 31.6329 67.044L31.445 67.7032C30.5349 70.8968 27.7071 73.1675 24.3923 73.3665C21.032 73.5682 18.1778 75.8974 17.3066 79.149L16.3314 82.7885C15.6383 85.375 17.0436 88.0609 19.5635 88.9664L20.6209 89.3463C22.1073 89.8803 23.7684 89.3882 24.724 88.1306C25.411 87.2265 26.4828 86.6975 27.6183 86.702L30.7309 86.7143C33.5717 86.7255 36.2793 85.511 38.1601 83.3819Z" fill="white"/>
<path fill-rule="evenodd" clip-rule="evenodd" d="M34.4781 46.9189L48.9281 71.9471L38.5349 83.7128C36.5588 85.9499 33.7139 87.226 30.729 87.2142L27.6164 87.2019C26.6378 87.198 25.7143 87.6539 25.1222 88.4331C24.0345 89.8645 22.1438 90.4246 20.4519 89.8167L19.3946 89.4368C16.6299 88.4434 15.0881 85.4967 15.8485 82.659L16.8237 79.0195C17.7507 75.5601 20.7873 73.0819 24.3624 72.8673C27.4653 72.681 30.1123 70.5555 30.9643 67.566L31.1521 66.9069C31.5401 65.5455 30.6864 64.142 29.2991 63.8604L27.8556 63.5674C25.4169 63.0725 22.9074 63.994 21.3686 65.9496L20.6425 66.8724C18.6472 69.4081 15.0564 70.0219 12.3321 68.293C8.93308 66.136 8.40853 61.3848 11.2551 58.5381L12.2674 57.5259C12.8071 56.9862 13.2465 56.3547 13.565 55.6611L13.8365 55.0698C15.395 51.6758 18.5608 49.2974 22.2545 48.7454L34.4781 46.9189ZM33.9525 48.0086L22.4023 49.7345C19.0425 50.2365 16.1629 52.3999 14.7453 55.4871L14.4738 56.0784C14.1058 56.8798 13.5981 57.6094 12.9745 58.233L11.9623 59.2452C9.56837 61.6391 10.0095 65.6347 12.8679 67.4487C15.159 68.9026 18.1787 68.3864 19.8566 66.254L20.5828 65.3312C22.3552 63.0787 25.2456 62.0173 28.0545 62.5874L29.498 62.8804C31.4564 63.2779 32.6615 65.2591 32.1138 67.181L31.926 67.8401C30.9577 71.238 27.9491 73.6538 24.4223 73.8655C21.2769 74.0543 18.6052 76.2346 17.7896 79.2784L16.8144 82.9179C16.1887 85.2531 17.4574 87.6782 19.7327 88.4957L20.79 88.8756C22.071 89.3359 23.5025 88.9118 24.326 87.828C25.108 86.7989 26.3279 86.1968 27.6204 86.2019L30.7329 86.2142C33.4297 86.2249 36 85.0719 37.7854 83.0508L47.7024 71.8242L33.9525 48.0086Z" fill="#282A36"/>
<path d="M67.2405 26.6641C72.98 23.3504 80.3191 25.3169 83.6328 31.0564L85.6328 34.5205C88.9465 40.26 86.98 47.5991 81.2405 50.9128L79.5085 51.9128C73.7689 55.2265 66.4299 53.26 63.1162 47.5205L61.1162 44.0564C57.8024 38.3169 59.7689 30.9778 65.5085 27.6641L67.2405 26.6641Z" fill="white"/>
<path fill-rule="evenodd" clip-rule="evenodd" d="M84.7668 35.0205L82.7668 31.5564C79.7292 26.2951 73.0017 24.4925 67.7405 27.5301L66.0085 28.5301C60.7472 31.5677 58.9446 38.2951 61.9822 43.5564L63.9822 47.0205C67.0197 52.2817 73.7472 54.0843 79.0085 51.0467L80.7405 50.0467C86.0017 47.0092 87.8044 40.2817 84.7668 35.0205ZM83.6328 31.0564C80.3191 25.3169 72.98 23.3504 67.2405 26.6641L65.5085 27.6641C59.7689 30.9778 57.8024 38.3169 61.1162 44.0564L63.1162 47.5205C66.4299 53.26 73.7689 55.2265 79.5085 51.9128L81.2405 50.9128C86.98 47.5991 88.9465 40.26 85.6328 34.5205L83.6328 31.0564Z" fill="#282A36"/>
<path d="M48 54L57.5371 60.384L41.4157 69.6916L32 63L48 54Z" fill="#F2E109"/>
<path d="M48.0001 54L48.0001 42L32.0001 51.0469L32.0001 63L48.0001 54Z" fill="#F2E109"/>
<path d="M64.4099 31.7634C68.7145 29.2781 74.2188 30.753 76.7041 35.0577L78.7041 38.5218C81.1894 42.8264 79.7145 48.3307 75.4099 50.816C71.1052 53.3013 65.6009 51.8264 63.1156 47.5218L61.1156 44.0577C58.6304 39.753 60.1052 34.2487 64.4099 31.7634Z" fill="#282A36"/>
<path d="M69.4416 33.4763C71.1156 32.5098 73.2562 33.0834 74.2227 34.7574L75.2227 36.4895C76.1892 38.1635 75.6156 40.304 73.9416 41.2705C72.2675 42.237 70.127 41.6635 69.1605 39.9895L68.1605 38.2574C67.194 36.5834 67.7675 34.4428 69.4416 33.4763Z" fill="white"/>
<path d="M65.7449 39.0757C66.4623 38.6615 67.3797 38.9073 67.7939 39.6247L68.2939 40.4907C68.7082 41.2082 68.4623 42.1256 67.7449 42.5398C67.0275 42.954 66.1101 42.7082 65.6959 41.9907L65.1959 41.1247C64.7817 40.4073 65.0275 39.4899 65.7449 39.0757Z" fill="white"/>
<path d="M49.5416 63.5341C50.1976 63.9639 50.9973 64.1159 51.7653 63.9567C53.6412 63.5677 55.555 64.4255 56.5129 66.0846L57.0626 67.0367C58.0288 68.7102 57.6514 70.8362 56.1682 72.0749L52.9394 74.7712C49.4565 77.6799 44.1927 76.7454 41.9238 72.8156L41.2661 71.6764C39.6109 68.8095 40.5932 65.1435 43.4601 63.4883L44.2345 63.0412C45.7193 62.1839 47.5604 62.2359 48.9945 63.1756L49.5416 63.5341Z" fill="white"/>
<path fill-rule="evenodd" clip-rule="evenodd" d="M52.2984 74.0037L55.5272 71.3073C56.6372 70.3803 56.9197 68.7892 56.1966 67.5367L55.6469 66.5846C54.9047 65.2991 53.4218 64.6344 51.9683 64.9358C50.941 65.1489 49.8711 64.9455 48.9935 64.3705L48.4464 64.012C47.3281 63.2793 45.8924 63.2387 44.7345 63.9072L43.9601 64.3543C41.5715 65.7334 40.7531 68.7878 42.1322 71.1764L42.7899 72.3156C44.7483 75.7077 49.292 76.5144 52.2984 74.0037ZM51.7653 63.9567C50.9973 64.1159 50.1976 63.9639 49.5416 63.5341L48.9945 63.1756C47.5604 62.2359 45.7193 62.1839 44.2345 63.0412L43.4601 63.4883C40.5932 65.1435 39.6109 68.8095 41.2661 71.6764L41.9238 72.8156C44.1927 76.7454 49.4565 77.6799 52.9394 74.7712L56.1682 72.0749C57.6514 70.8362 58.0288 68.7102 57.0626 67.0367L56.5129 66.0846C55.555 64.4255 53.6412 63.5677 51.7653 63.9567Z" fill="#282A36"/>
<path fill-rule="evenodd" clip-rule="evenodd" d="M51.3919 24.8451C53.5122 23.621 56.2184 24.2475 57.5849 26.279L58.4146 25.7209C56.7547 23.2532 53.4675 22.4921 50.8919 23.9791L35.2551 33.007C33.9682 33.75 32.9235 34.8491 32.2467 36.1719L31.409 37.8094C29.7746 41.0041 31.264 44.9111 34.6103 46.2071C37.3921 47.2844 40.544 46.1734 42.0354 43.5898L43.4656 41.112C44.202 39.8363 45.2612 38.777 46.5369 38.0405L49.6698 36.2317L49.1698 35.3657L46.0369 37.1745C44.6092 37.9987 43.4237 39.1843 42.5996 40.6121L41.1693 43.0899C39.9244 45.2464 37.2935 46.1738 34.9715 45.2746C32.1782 44.1928 30.9349 40.9315 32.2993 38.2648L33.137 36.6274C33.726 35.4761 34.6351 34.5197 35.7551 33.8731L51.3919 24.8451Z" fill="#282A36"/>
<path d="M40.9612 48.6724C40.917 47.8893 41.1852 47.1207 41.7071 46.5353C42.9819 45.1052 43.1959 43.0188 42.2381 41.3597L41.6884 40.4076C40.7221 38.7341 38.6923 37.998 36.878 38.6632L32.9285 40.1111C28.6681 41.6731 26.8455 46.699 29.1143 50.6287L29.772 51.7679C31.4273 54.6349 35.0932 55.6172 37.9601 53.9619L38.7345 53.5148C40.2193 52.6576 41.0948 51.0372 40.9981 49.3254L40.9612 48.6724Z" fill="white"/>
<path fill-rule="evenodd" clip-rule="evenodd" d="M33.2727 41.05L37.2222 39.602C38.5801 39.1042 40.0992 39.6551 40.8223 40.9076L41.372 41.8597C42.1142 43.1452 41.9484 44.7618 40.9606 45.8699C40.2625 46.653 39.9036 47.6813 39.9628 48.7288L39.9997 49.3818C40.0751 50.7167 39.3924 51.9803 38.2345 52.6488L37.4601 53.0959C35.0715 54.475 32.0171 53.6566 30.638 51.2679L29.9803 50.1287C28.0219 46.7366 29.5951 42.3983 33.2727 41.05ZM41.7071 46.5353C41.1852 47.1207 40.917 47.8893 40.9612 48.6724L40.9981 49.3254C41.0948 51.0372 40.2193 52.6576 38.7345 53.5148L37.9601 53.9619C35.0932 55.6172 31.4273 54.6349 29.772 51.7679L29.1143 50.6287C26.8455 46.699 28.6681 41.6731 32.9285 40.1111L36.878 38.6632C38.6923 37.998 40.7221 38.7341 41.6884 40.4076L42.2381 41.3597C43.1959 43.0188 42.9819 45.1052 41.7071 46.5353Z" fill="#282A36"/>
<path fill-rule="evenodd" clip-rule="evenodd" d="M67.467 77.6025C64.4887 79.322 60.6803 78.3016 58.9608 75.3232L58.0947 75.8232C60.0904 79.2799 64.5104 80.4642 67.967 78.4685L71.0322 76.6988C72.7224 75.723 74.8837 76.3021 75.8595 77.9923L75.9528 78.1538C76.6105 79.293 76.5177 80.7161 75.7177 81.7604L75.3632 82.2232C74.532 83.3081 74.4356 84.7866 75.119 85.9702C76.0527 87.5875 78.1207 88.1416 79.7379 87.2079L82.2052 85.7834L81.7052 84.9173L79.2379 86.3419C78.099 86.9994 76.6426 86.6092 75.985 85.4702C75.5037 84.6367 75.5716 83.5954 76.157 82.8313L76.5115 82.3685C77.5574 81.0035 77.6786 79.143 76.8188 77.6538L76.7255 77.4923C75.4736 75.3238 72.7007 74.5808 70.5322 75.8328L67.467 77.6025Z" fill="#282A36"/>
<path fill-rule="evenodd" clip-rule="evenodd" d="M80.2246 72.7969L83.053 79.1608L82.1392 79.567L79.3108 73.203L80.2246 72.7969Z" fill="#F2E109"/>
<path fill-rule="evenodd" clip-rule="evenodd" d="M86.5887 89.0604L88.0833 92.4233L87.1695 92.8294L85.6749 89.4665L86.5887 89.0604Z" fill="#F2E109"/>
<path fill-rule="evenodd" clip-rule="evenodd" d="M89.4253 85.7791L95.9253 88.2791L95.5663 89.2124L89.0663 86.7124L89.4253 85.7791Z" fill="#F2E109"/>
<path fill-rule="evenodd" clip-rule="evenodd" d="M86.9381 80.8033L91.5936 77.0385L92.2224 77.816L87.5669 81.5809L86.9381 80.8033Z" fill="#F2E109"/>
</svg>
