<svg width="104" height="104" viewBox="0 0 104 104" fill="none" xmlns="http://www.w3.org/2000/svg">
<path d="M53.9551 69.9785L69.5435 60.9785L88.0435 93.0215L77.9368 93.5161L72.4551 102.021L53.9551 69.9785Z" fill="white"/>
<path fill-rule="evenodd" clip-rule="evenodd" d="M77.9368 93.5161L88.0435 93.0215L69.5435 60.9785L53.9551 69.9785L72.4551 102.021L77.9368 93.5161ZM72.502 100.103L77.3746 92.5424L86.3584 92.1027L69.1775 62.3445L55.3211 70.3445L72.502 100.103Z" fill="#282A36"/>
<path d="M32.5 60.9785L48.0885 69.9785L29.5885 102.021L24.1067 93.5161L14 93.0215L32.5 60.9785Z" fill="white"/>
<path fill-rule="evenodd" clip-rule="evenodd" d="M24.1067 93.5161L29.5885 102.021L48.0885 69.9785L32.5 60.9785L14 93.0215L24.1067 93.5161ZM15.6851 92.1027L24.6689 92.5424L29.5415 100.103L46.7224 70.3445L32.866 62.3445L15.6851 92.1027Z" fill="#282A36"/>
<path d="M52 10L57.1915 12.5663L62.8704 11.4311L67.2209 15.2536L73 15.6269L76.2129 20.4452L81.6985 22.3015L83.5548 27.7871L88.3731 31L88.7464 36.7791L92.5689 41.1296L91.4337 46.8085L94 52L91.4337 57.1915L92.5689 62.8704L88.7464 67.2209L88.3731 73L83.5548 76.2129L81.6985 81.6985L76.2129 83.5548L73 88.3731L67.2209 88.7464L62.8704 92.5689L57.1915 91.4337L52 94L46.8085 91.4337L41.1296 92.5689L36.7791 88.7464L31 88.3731L27.7871 83.5548L22.3015 81.6985L20.4452 76.2129L15.6269 73L15.2536 67.2209L11.4311 62.8704L12.5663 57.1915L10 52L12.5663 46.8085L11.4311 41.1296L15.2536 36.7791L15.6269 31L20.4452 27.7871L22.3015 22.3015L27.7871 20.4452L31 15.6269L36.7791 15.2536L41.1296 11.4311L46.8085 12.5663L52 10Z" fill="white"/>
<path fill-rule="evenodd" clip-rule="evenodd" d="M57.1915 12.5663L52 10L46.8085 12.5663L41.1296 11.4311L36.7791 15.2536L31 15.6269L27.7871 20.4452L22.3015 22.3015L20.4452 27.7871L15.6269 31L15.2536 36.7791L11.4311 41.1296L12.5663 46.8085L10 52L12.5663 57.1915L11.4311 62.8704L15.2536 67.2209L15.6269 73L20.4452 76.2129L22.3015 81.6985L27.7871 83.5548L31 88.3731L36.7791 88.7464L41.1296 92.5689L46.8085 91.4337L52 94L57.1915 91.4337L62.8704 92.5689L67.2209 88.7464L73 88.3731L76.2129 83.5548L81.6985 81.6985L83.5548 76.2129L88.3731 73L88.7464 67.2209L92.5689 62.8704L91.4337 57.1915L94 52L91.4337 46.8085L92.5689 41.1296L88.7464 36.7791L88.3731 31L83.5548 27.7871L81.6985 22.3015L76.2129 20.4452L73 15.6269L67.2209 15.2536L62.8704 11.4311L57.1915 12.5663ZM62.5817 12.5086L57.0537 13.6136L52 11.1155L46.9463 13.6136L41.4183 12.5086L37.1834 16.2296L31.5578 16.593L28.4302 21.2832L23.0903 23.0903L21.2832 28.4302L16.593 31.5578L16.2296 37.1834L12.5086 41.4183L13.6136 46.9463L11.1155 52L13.6136 57.0537L12.5086 62.5817L16.2296 66.8166L16.593 72.4422L21.2832 75.5698L23.0903 80.9097L28.4302 82.7168L31.5578 87.407L37.1834 87.7704L41.4183 91.4914L46.9463 90.3864L52 92.8845L57.0537 90.3864L62.5817 91.4914L66.8166 87.7704L72.4422 87.407L75.5698 82.7168L80.9097 80.9097L82.7168 75.5698L87.407 72.4422L87.7704 66.8166L91.4914 62.5817L90.3864 57.0537L92.8845 52L90.3864 46.9463L91.4914 41.4183L87.7704 37.1834L87.407 31.5578L82.7168 28.4302L80.9097 23.0903L75.5698 21.2832L72.4422 16.593L66.8166 16.2296L62.5817 12.5086Z" fill="#282A36"/>
<path d="M88 52C88 71.8823 71.8823 88 52 88C32.1177 88 16 71.8823 16 52C16 32.1177 32.1177 16 52 16C71.8823 16 88 32.1177 88 52Z" fill="white"/>
<path fill-rule="evenodd" clip-rule="evenodd" d="M52 87C71.33 87 87 71.33 87 52C87 32.67 71.33 17 52 17C32.67 17 17 32.67 17 52C17 71.33 32.67 87 52 87ZM52 88C71.8823 88 88 71.8823 88 52C88 32.1177 71.8823 16 52 16C32.1177 16 16 32.1177 16 52C16 71.8823 32.1177 88 52 88Z" fill="#282A36"/>
<path d="M77 52C77 65.8071 65.8071 77 52 77C38.1929 77 27 65.8071 27 52C27 38.1929 38.1929 27 52 27C65.8071 27 77 38.1929 77 52Z" fill="white"/>
<path fill-rule="evenodd" clip-rule="evenodd" d="M52 76C65.2548 76 76 65.2548 76 52C76 38.7452 65.2548 28 52 28C38.7452 28 28 38.7452 28 52C28 65.2548 38.7452 76 52 76ZM52 77C65.8071 77 77 65.8071 77 52C77 38.1929 65.8071 27 52 27C38.1929 27 27 38.1929 27 52C27 65.8071 38.1929 77 52 77Z" fill="#282A36"/>
<path fill-rule="evenodd" clip-rule="evenodd" d="M77.8284 34.3547L51.5527 60.6304L41.1982 50.4685L46.8018 44.7588L51.4999 49.3695L72.1716 28.6979L77.8284 34.3547Z" fill="#F2E109"/>
</svg>
