<?xml version="1.0" encoding="utf-8"?>
<!-- Generator: Adobe Illustrator 24.2.3, SVG Export Plug-In . SVG Version: 6.00 Build 0)  -->
<svg version="1.1" id="Слой_1" xmlns="http://www.w3.org/2000/svg" xmlns:xlink="http://www.w3.org/1999/xlink" x="0px" y="0px"
	 viewBox="0 0 56 56" style="enable-background:new 0 0 56 56;" xml:space="preserve">
<style type="text/css">
	.st0{fill-rule:evenodd;clip-rule:evenodd;fill:#282A36;}
	.st1{fill:none;stroke:#282A36;}
</style>
<path class="st0" d="M33.6,19.5c-0.7,0-1.4,0-2.1,0c-0.9,0-1.5,0.5-1.5,1.4c-0.1,0.7,0,1.6,0,2.3c0,0.3,0.1,0.3,0.3,0.3
	c1.1,0,2.1,0,3.2,0c0.3,0,0.4,0.1,0.4,0.4c-0.1,1.3-0.3,2.6-0.3,3.8c0,0.3-0.1,0.3-0.4,0.3c-0.9,0-1.7,0-2.5,0
	C30,28,30,27.9,30,28.5c0,4,0,7.9,0,11.9c0,0.4-0.1,0.5-0.5,0.5c-1.5,0-2.9,0-4.4,0c-0.4,0-0.5-0.1-0.5-0.5c0-2,0-4,0-6s0-4.1,0-6.1
	c0-0.3-0.1-0.5-0.4-0.4c-0.6,0-1.3,0-1.9,0c-0.3,0-0.3-0.1-0.3-0.3c0-1.3,0-2.5,0-3.8c0-0.3,0.1-0.3,0.3-0.3c0.7,0,1.3,0,1.9,0
	c0.4,0,0.5-0.1,0.5-0.5c0-0.9,0-1.9,0-2.9c0-1.2,0.3-2.3,1-3.3c0.9-1.2,2.1-1.8,3.6-1.8c1.5-0.1,2.9,0,4.4-0.1
	c0.2,0,0.3,0.1,0.3,0.3c0,1.3,0,2.6,0,3.9C33.9,19.4,33.8,19.5,33.6,19.5z"/>
<rect x="0.5" y="0.5" class="st1" width="55" height="55"/>
</svg>
