<?xml version="1.0" encoding="utf-8"?>
<!-- Generator: Adobe Illustrator 24.2.3, SVG Export Plug-In . SVG Version: 6.00 Build 0)  -->
<svg version="1.1" id="Слой_1" xmlns="http://www.w3.org/2000/svg" xmlns:xlink="http://www.w3.org/1999/xlink" x="0px" y="0px"
	 viewBox="0 0 500 500" style="enable-background:new 0 0 500 500;" xml:space="preserve">
<style type="text/css">
	.st0{fill:url(#SVGID_1_);}
	.st1{fill:#7F7F80;}
	.st2{fill:#C4C4C4;}
	.st3{fill:url(#SVGID_2_);}
	.st4{fill:url(#SVGID_3_);}
	.st5{fill:url(#SVGID_4_);}
	.st6{fill:url(#SVGID_5_);}
	.st7{fill:#35393C;}
	.st8{fill:url(#SVGID_6_);}
	.st9{fill:url(#SVGID_7_);}
	.st10{fill:url(#SVGID_8_);}
	.st11{fill:url(#SVGID_9_);}
	.st12{fill:url(#SVGID_10_);}
	.st13{fill:url(#SVGID_11_);}
	.st14{fill:url(#SVGID_12_);}
	.st15{fill:url(#SVGID_13_);}
	.st16{opacity:0.5;}
	.st17{fill:#FFFFFF;}
	.st18{fill:url(#SVGID_14_);}
	.st19{fill:url(#SVGID_15_);}
	.st20{fill-rule:evenodd;clip-rule:evenodd;fill:url(#SVGID_16_);fill-opacity:0.5;}
	.st21{fill:#424242;fill-opacity:0.3;}
	.st22{fill:#646464;}
	.st23{fill:url(#SVGID_17_);}
	.st24{fill:url(#SVGID_18_);}
	.st25{fill:url(#SVGID_19_);}
</style>
<radialGradient id="SVGID_1_" cx="-710.6775" cy="788.6965" r="1" gradientTransform="matrix(-93.411 -281.5255 -239.7738 79.5577 122948.6172 -262623.8438)" gradientUnits="userSpaceOnUse">
	<stop  offset="0" style="stop-color:#FCFCFC"/>
	<stop  offset="1" style="stop-color:#CACACA"/>
</radialGradient>
<path class="st0" d="M103,403.2V97h260.8v306.2H103z"/>
<rect x="136.7" y="154.1" class="st1" width="168.7" height="7.8"/>
<rect x="136.7" y="174.8" class="st1" width="168.7" height="7.8"/>
<rect x="136.7" y="224.1" class="st1" width="168.7" height="7.8"/>
<rect x="136.7" y="244.9" class="st1" width="168.7" height="7.8"/>
<rect x="136.7" y="265.7" class="st1" width="168.7" height="7.8"/>
<rect x="136.7" y="283.8" class="st1" width="168.7" height="7.8"/>
<rect x="136.7" y="304.6" class="st1" width="150.5" height="7.8"/>
<rect x="136.7" y="325.3" class="st1" width="132.3" height="7.8"/>
<g>
	<path class="st2" d="M241.8,365.6L171.8,385l192-164.8v22.1l-3.9,1.3L336.5,267l-3.9,7.8L241.8,365.6z"/>
</g>
<linearGradient id="SVGID_2_" gradientUnits="userSpaceOnUse" x1="309.0808" y1="257.8369" x2="210.4818" y2="148.8589" gradientTransform="matrix(1 0 0 -1 0 502)">
	<stop  offset="0" style="stop-color:#CC9924"/>
	<stop  offset="1" style="stop-color:#FFB917"/>
</linearGradient>
<path class="st3" d="M192.5,316.3l-22.1,70.1l71.4-20.8l92.1-92.1l-49.3-49.3L192.5,316.3z"/>
<linearGradient id="SVGID_3_" gradientUnits="userSpaceOnUse" x1="181.8148" y1="154.2858" x2="209.0587" y2="127.0417" gradientTransform="matrix(1 0 0 -1 0 502)">
	<stop  offset="0" style="stop-color:#C6AC79"/>
	<stop  offset="0.526" style="stop-color:#FFE3AB;stop-opacity:0.4635"/>
	<stop  offset="1" style="stop-color:#C6AC79"/>
</linearGradient>
<path class="st4" d="M199,327.9c1-8.3-4.3-11.2-6.5-11.7l-22.1,70.1l71.4-20.8c0-2.6-1-8.8-5.2-13c-4.2-4.2-13-2.6-16.9-1.3
	c0.9-4.3,1.3-14.3-3.9-19.5C210.7,326.6,202.5,327.1,199,327.9z"/>
<linearGradient id="SVGID_4_" gradientUnits="userSpaceOnUse" x1="288.5311" y1="271.3239" x2="199.0131" y2="184.4019" gradientTransform="matrix(1 0 0 -1 0 502)">
	<stop  offset="0" style="stop-color:#D29A00"/>
	<stop  offset="1" style="stop-color:#FFC736"/>
</linearGradient>
<path class="st5" d="M293.7,233.2L199,327.9c0-9.3-4.3-11.7-6.5-11.7l92.1-92.1L293.7,233.2z"/>
<linearGradient id="SVGID_5_" gradientUnits="userSpaceOnUse" x1="298.9563" y1="257.5101" x2="221.1143" y2="169.2901" gradientTransform="matrix(1 0 0 -1 0 502)">
	<stop  offset="0" style="stop-color:#FFC927"/>
	<stop  offset="1" style="stop-color:#FFD968"/>
</linearGradient>
<path class="st6" d="M315.8,255.3l-22.1-22.1L199,327.9c21.8-3.1,22.9,14.3,20.8,23.4L315.8,255.3z"/>
<path class="st7" d="M195.1,378.5l-16.9-16.9l-7.8,24.6L195.1,378.5z"/>
<linearGradient id="SVGID_6_" gradientUnits="userSpaceOnUse" x1="302.7935" y1="290.8325" x2="349.4975" y2="244.1275" gradientTransform="matrix(1 0 0 -1 0 502)">
	<stop  offset="0" style="stop-color:#A2B4CB"/>
	<stop  offset="0.4167" style="stop-color:#83817F"/>
	<stop  offset="0.5625" style="stop-color:#7E7A75"/>
	<stop  offset="0.75" style="stop-color:#3E4B5A"/>
	<stop  offset="1" style="stop-color:#B4C8E0"/>
</linearGradient>
<path class="st8" d="M333.9,273.4l-49.3-49.3l7.8-2.6l20.8-20.8l2.6-7.8l49.3,49.3l-5.2,2.6l-23.4,23.4L333.9,273.4z"/>
<radialGradient id="SVGID_7_" cx="-701.8142" cy="808.6289" r="1" gradientTransform="matrix(2.462649e-15 40.2181 40.2181 -2.462649e-15 -32164.2363 28426.4238)" gradientUnits="userSpaceOnUse">
	<stop  offset="0" style="stop-color:#FA6A6A"/>
	<stop  offset="1" style="stop-color:#883838"/>
</radialGradient>
<path class="st9" d="M363.8,241l-46.7-46.7l10.4-10.4c12.9-12.9,33.8-12.9,46.7,0c12.9,12.9,12.9,33.8,0,46.7L363.8,241z"/>
<linearGradient id="SVGID_8_" gradientUnits="userSpaceOnUse" x1="292.4145" y1="277.8595" x2="332.6325" y2="237.6405" gradientTransform="matrix(1 0 0 -1 0 502)">
	<stop  offset="0" style="stop-color:#ECEFF1"/>
	<stop  offset="0.3542" style="stop-color:#9BA8B8"/>
	<stop  offset="0.625" style="stop-color:#ADA49A"/>
	<stop  offset="1" style="stop-color:#212A35;stop-opacity:0"/>
</linearGradient>
<path class="st10" d="M333.9,270.8l-46.7-46.7l7.8-2.6l42.8,42.8L333.9,270.8z"/>
<linearGradient id="SVGID_9_" gradientUnits="userSpaceOnUse" x1="316.7399" y1="300.2386" x2="356.3089" y2="260.6686" gradientTransform="matrix(1 0 0 -1 0 502)">
	<stop  offset="0" style="stop-color:#ECEFF1"/>
	<stop  offset="0.3542" style="stop-color:#9BA8B8"/>
	<stop  offset="0.625" style="stop-color:#ADA49A"/>
	<stop  offset="1" style="stop-color:#465262;stop-opacity:0"/>
</linearGradient>
<path class="st11" d="M359.9,242.3l-44.1-44.1l-1.3,3.9l42.8,42.8L359.9,242.3z"/>
<linearGradient id="SVGID_10_" gradientUnits="userSpaceOnUse" x1="314.4695" y1="293.4275" x2="348.2005" y2="259.6965" gradientTransform="matrix(1 0 0 -1 0 502)">
	<stop  offset="0" style="stop-color:#ECEFF1"/>
	<stop  offset="0.3542" style="stop-color:#9BA8B8"/>
	<stop  offset="0.625" style="stop-color:#ADA49A"/>
	<stop  offset="1" style="stop-color:#465262;stop-opacity:0"/>
</linearGradient>
<path class="st12" d="M356,246.2l-42.8-42.8l-3.9,3.9l42.8,42.8L356,246.2z"/>
<linearGradient id="SVGID_11_" gradientUnits="userSpaceOnUse" x1="307.982" y1="289.535" x2="339.119" y2="258.398" gradientTransform="matrix(1 0 0 -1 0 502)">
	<stop  offset="0" style="stop-color:#ECEFF1"/>
	<stop  offset="0.3542" style="stop-color:#9BA8B8"/>
	<stop  offset="0.625" style="stop-color:#ADA49A"/>
	<stop  offset="1" style="stop-color:#465262;stop-opacity:0"/>
</linearGradient>
<path class="st13" d="M350.8,251.4L308,208.6l-3.9,3.9l42.8,42.8L350.8,251.4z"/>
<linearGradient id="SVGID_12_" gradientUnits="userSpaceOnUse" x1="305.3875" y1="281.7515" x2="333.9295" y2="253.2095" gradientTransform="matrix(1 0 0 -1 0 502)">
	<stop  offset="0" style="stop-color:#ECEFF1"/>
	<stop  offset="0.3542" style="stop-color:#9BA8B8"/>
	<stop  offset="0.625" style="stop-color:#ADA49A"/>
	<stop  offset="1" style="stop-color:#465262;stop-opacity:0"/>
</linearGradient>
<path class="st14" d="M302.8,213.8l42.8,42.8l-3.9,3.9l-42.8-42.8L302.8,213.8z"/>
<linearGradient id="SVGID_13_" gradientUnits="userSpaceOnUse" x1="296.9547" y1="282.3997" x2="329.3887" y2="249.9657" gradientTransform="matrix(1 0 0 -1 0 502)">
	<stop  offset="0" style="stop-color:#ECEFF1"/>
	<stop  offset="0.3542" style="stop-color:#9BA8B8"/>
	<stop  offset="0.625" style="stop-color:#ADA49A"/>
	<stop  offset="1" style="stop-color:#465262;stop-opacity:0"/>
</linearGradient>
<path class="st15" d="M340.4,261.8L297.6,219l-1.3,1.3l42.8,42.8L340.4,261.8z"/>
<g class="st16">
	<path class="st17" d="M305.4,231.9l-7.8,2.6l-9.1-9.1l9.1-1.3l19.5-19.5l1.3-3.9l9.1,9.1L305.4,231.9z"/>
</g>
<linearGradient id="SVGID_14_" gradientUnits="userSpaceOnUse" x1="290.1328" y1="264.5977" x2="209.6968" y2="182.8638" gradientTransform="matrix(1 0 0 -1 0 502)">
	<stop  offset="0" style="stop-color:#FFC927"/>
	<stop  offset="1" style="stop-color:#FFFFBB"/>
</linearGradient>
<path class="st18" d="M201.6,327.9l93.4-93.4l-1.3-1.3L199,327.9H201.6z"/>
<linearGradient id="SVGID_15_" gradientUnits="userSpaceOnUse" x1="311.5447" y1="241.8992" x2="231.1087" y2="160.1653" gradientTransform="matrix(1 0 0 -1 0 502)">
	<stop  offset="0" style="stop-color:#CE9A23"/>
	<stop  offset="1" style="stop-color:#E3AA14"/>
</linearGradient>
<path class="st19" d="M225,350l92.1-93.4l-1.3-1.3l-96,96L225,350z"/>
<radialGradient id="SVGID_16_" cx="-704.4373" cy="772.1898" r="1" gradientTransform="matrix(28.5419 -36.326 -30.769 -24.1756 44051.457 -6550.5234)" gradientUnits="userSpaceOnUse">
	<stop  offset="0" style="stop-color:#FFDC96"/>
	<stop  offset="0.3952" style="stop-color:#FFD788"/>
	<stop  offset="1" style="stop-color:#C6AC79"/>
</radialGradient>
<path class="st20" d="M219.8,351.3c1.3-3.9,2.3-13.2-3.9-19.5c-6.2-6.2-13.8-5.2-16.9-3.9l-17.9,36.7l8.3,8.3L219.8,351.3z"/>
<g>
	<path class="st21" d="M188.6,373.3l-18.2,13l71.4-20.8c0.9-0.9,1.3-4.4-3.9-11.7c-5.2-7.3-14.3-4.8-18.2-2.6L188.6,373.3z"/>
</g>
<path class="st22" d="M170.5,386.3l9.1-23.4l10.4,10.4L170.5,386.3z"/>
<linearGradient id="SVGID_17_" gradientUnits="userSpaceOnUse" x1="309.28" y1="253.209" x2="306.685" y2="250.614" gradientTransform="matrix(1 0 0 -1 0 502)">
	<stop  offset="0" style="stop-color:#7A5900"/>
	<stop  offset="1" style="stop-color:#7A5900;stop-opacity:0"/>
</linearGradient>
<path class="st23" d="M333.9,273.4l-49.3-49.3c1,1.2,1.9,2.4,2.6,3.6c2.6,4.3,7.3,11.1,11.1,14.4c1.3,1.1,2.8,2.5,4.5,4.1
	c2.4,2.4,4.1,4.4,5.5,6.2c2.6,3.4,7.1,7.2,10.9,9.4C324.7,264.9,330.7,270.2,333.9,273.4z"/>
<linearGradient id="SVGID_18_" gradientUnits="userSpaceOnUse" x1="340.417" y1="284.346" x2="341.714" y2="285.644" gradientTransform="matrix(1 0 0 -1 0 502)">
	<stop  offset="0" style="stop-color:#671B1B"/>
	<stop  offset="1" style="stop-color:#7B0E0E;stop-opacity:0"/>
</linearGradient>
<path class="st24" d="M363.8,241l-46.7-46.7l1.3-1.3l46.7,46.7L363.8,241z"/>
<radialGradient id="SVGID_19_" cx="-724.3881" cy="820.5149" r="1" gradientTransform="matrix(-13.6469 13.6469 16.9067 16.9067 -23401.5352 -3785.4316)" gradientUnits="userSpaceOnUse">
	<stop  offset="0" style="stop-color:#FEB4B4"/>
	<stop  offset="1" style="stop-color:#FEB4B4;stop-opacity:0"/>
</radialGradient>
<path class="st25" d="M370,187.5c9.3,9.3,10.8,23,3.3,30.6c-7.5,7.5-21.2,6.1-30.6-3.3c-9.3-9.3-10.8-23-3.3-30.6
	C346.9,176.7,360.6,178.2,370,187.5z"/>
</svg>
