<svg width="128" height="56" viewBox="0 0 128 56" fill="none" xmlns="http://www.w3.org/2000/svg">
<path fill-rule="evenodd" clip-rule="evenodd" d="M33.5978 19.4688C32.8603 19.4688 32.1899 19.4688 31.4525 19.4688C30.514 19.4688 29.9106 19.9427 29.9106 20.8906C29.8436 21.6354 29.9106 22.4479 29.9106 23.1927C29.9106 23.4635 30.0447 23.4635 30.2458 23.4635C31.3184 23.4635 32.3911 23.4635 33.4637 23.4635C33.7989 23.4635 33.8659 23.5312 33.8659 23.8698C33.7318 25.1562 33.5978 26.4427 33.5307 27.6615C33.5307 27.9323 33.3966 28 33.1285 28C32.257 28 31.4525 28 30.581 28C29.9777 28 30.0447 27.9323 30.0447 28.5417C30.0447 32.5365 30.0447 36.4635 30.0447 40.4583C30.0447 40.8646 29.9106 41 29.5084 41C28.0335 41 26.5587 41 25.0838 41C24.6816 41 24.6145 40.8646 24.6145 40.526C24.6145 38.4948 24.6145 36.5312 24.6145 34.5C24.6145 32.4688 24.6145 30.4375 24.6145 28.4062C24.6145 28.0677 24.5475 27.9323 24.2123 28C23.6089 28 22.9385 28 22.3352 28C22.067 28 22 27.9323 22 27.6615C22 26.375 22 25.1562 22 23.8698C22 23.599 22.067 23.5312 22.3352 23.5312C23.0056 23.5312 23.6089 23.5312 24.2793 23.5312C24.6816 23.5312 24.7486 23.3958 24.7486 23.0573C24.7486 22.1094 24.7486 21.1615 24.7486 20.1458C24.7486 18.9948 25.0838 17.8438 25.7542 16.8958C26.6257 15.6771 27.8994 15.1354 29.3073 15.0677C30.7821 15 32.257 15.0677 33.7318 15C33.933 15 34 15.0677 34 15.2708C34 16.5573 34 17.8438 34 19.1302C33.8659 19.401 33.7989 19.4688 33.5978 19.4688Z" fill="#282A36"/>
<rect x="0.5" y="0.5" width="55" height="55" stroke="#282A36"/>
<path d="M113.251 19.3857L109.21 38.6332C108.919 39.9869 108.127 40.3253 107.002 39.6908L100.879 35.1644L97.9215 38.041C97.5883 38.3794 97.3383 38.6332 96.6719 38.6332L97.1301 32.2879L108.502 21.8815C109.002 21.4162 108.377 21.2047 107.752 21.6277L93.6727 30.5958L87.6327 28.6922C86.2997 28.2692 86.2997 27.3385 87.9242 26.704L111.543 17.4398C112.668 17.0591 113.626 17.6936 113.251 19.3857Z" fill="#282A36"/>
<rect x="72.5" y="0.5" width="55" height="55" stroke="#282A36"/>
</svg>
