<?xml version="1.0" encoding="utf-8"?>
<!-- Generator: Adobe Illustrator 24.2.3, SVG Export Plug-In . SVG Version: 6.00 Build 0)  -->
<svg version="1.1" id="Слой_1" xmlns="http://www.w3.org/2000/svg" xmlns:xlink="http://www.w3.org/1999/xlink" x="0px" y="0px"
	 viewBox="0 0 500 500" style="enable-background:new 0 0 500 500;" xml:space="preserve">
<style type="text/css">
	.st0{fill:url(#SVGID_1_);}
	.st1{fill:#7F7F80;}
	.st2{fill:url(#SVGID_2_);}
	.st3{fill:url(#SVGID_3_);}
	.st4{fill:#C9864B;}
	.st5{fill:#110B07;}
	.st6{fill:url(#SVGID_4_);}
	.st7{fill:url(#SVGID_5_);}
	.st8{fill:url(#SVGID_6_);}
	.st9{fill:url(#SVGID_7_);}
	.st10{fill:url(#SVGID_8_);}
	.st11{fill:url(#SVGID_9_);}
	.st12{fill:#18711D;}
	.st13{fill:url(#SVGID_10_);}
	.st14{fill:#DD9657;}
	.st15{fill:url(#SVGID_11_);}
	.st16{fill:url(#SVGID_12_);}
	.st17{fill:#16140B;}
	.st18{fill:#4A3122;}
	.st19{fill:#F3E9E0;}
	.st20{fill:url(#SVGID_13_);}
	.st21{fill:url(#SVGID_14_);}
	.st22{fill:url(#SVGID_15_);}
	.st23{fill:url(#SVGID_16_);}
	.st24{fill:#37B72B;stroke:#37B72B;stroke-width:4;}
	.st25{fill:url(#SVGID_17_);}
</style>
<radialGradient id="SVGID_1_" cx="-710.6775" cy="788.6965" r="1" gradientTransform="matrix(-93.411 -281.5255 -239.7738 79.5577 122931.6172 -262653.8438)" gradientUnits="userSpaceOnUse">
	<stop  offset="0" style="stop-color:#FCFCFC"/>
	<stop  offset="1" style="stop-color:#E9E9E9"/>
</radialGradient>
<path class="st0" d="M346.8,373.2H86V220.1v-76.5v-38.3l24.5-13.8L151.2,67h65.2h130.4V373.2z"/>
<rect x="131" y="172" class="st1" width="168.7" height="7.8"/>
<rect x="131" y="192.1" class="st1" width="168.7" height="7.8"/>
<rect x="131" y="212.1" class="st1" width="168.7" height="7.8"/>
<rect x="131" y="232.1" class="st1" width="168.7" height="7.8"/>
<rect x="131" y="252" class="st1" width="104" height="8"/>
<rect x="131" y="272" class="st1" width="91" height="8"/>
<g>
	
		<radialGradient id="SVGID_2_" cx="-700.5796" cy="804.394" r="1" gradientTransform="matrix(10.6977 50.036 46.2089 -9.8794 -29556.3672 43089.582)" gradientUnits="userSpaceOnUse">
		<stop  offset="0" style="stop-color:#000000"/>
		<stop  offset="1" style="stop-color:#E9E9E9"/>
	</radialGradient>
	<path class="st2" d="M136,138l-47-30.4h36.3L149,73L136,138z"/>
</g>
<radialGradient id="SVGID_3_" cx="-705.2875" cy="797.3711" r="1" gradientTransform="matrix(8 93.5 106.6224 -9.1228 -79261.3438 73301.1016)" gradientUnits="userSpaceOnUse">
	<stop  offset="0" style="stop-color:#FFFFFF"/>
	<stop  offset="1" style="stop-color:#ECECEC"/>
</radialGradient>
<path class="st3" d="M133.5,124L86,105l65-38L133.5,124z"/>
<path class="st4" d="M252.8,332.2c0,0-8.7-1.7-6.4,11.9c2.3,13.5,1.2,26,14.4,28.3c0,0,8.1,58.2,69.1,58.2s69.1-58.2,69.1-58.2
	s13.2,3.5,14.1-28.3c0,0,2.9-13.1-6.1-11.9c0,0,15.2-91.1-77.1-91.1S252.8,332.2,252.8,332.2z"/>
<path class="st5" d="M344.9,316.5l0.4,2.4c0.3,2,2.3,3.2,4.2,2.7c4.7-1.3,13.2-3.1,20-1.1c1.6,0.5,3.3-0.3,4-1.7
	c0.8-1.7,0.1-3.7-1.5-4.5c-4.4-2.2-13.3-5.3-24.7-1.5C345.5,313.3,344.6,314.8,344.9,316.5z"/>
<path class="st5" d="M308,316.3l-0.4,2.4c-0.3,2-2.2,3.2-4.2,2.8c-4.7-1.2-13.2-2.9-20-0.8c-1.6,0.5-3.3-0.2-4-1.7
	c-0.8-1.7-0.1-3.7,1.5-4.5c4.3-2.3,13.2-5.5,24.7-1.9C307.3,313.1,308.3,314.6,308,316.3z"/>
<radialGradient id="SVGID_4_" cx="-701.3839" cy="787.8956" r="1" gradientTransform="matrix(93.0921 0 0 -93.0921 65628.3516 73724.0625)" gradientUnits="userSpaceOnUse">
	<stop  offset="0.5195" style="stop-color:#C9864B"/>
	<stop  offset="1" style="stop-color:#9A6B4E"/>
</radialGradient>
<path class="st6" d="M398,309.2c-0.5-3.8-19.2-35.2-23-29.4c-3.8,5.8-45.1,8.7-45.1,8.7v-1.9l-59.7-1c0-0.1-15.8,9.7-12.1,66.2
	c0.3,4.5,0.7,9.3,1.3,14.5c0.2,2,0.5,3.9,0.8,5.8c0.3,0.1,0.5,0.1,0.7,0.2c0,0,5.4,37.4,38.8,52.2c0.1-0.5-0.1,0.5,0,0
	c16,6.9,30.3,7.7,30.3,7.7c63.9,0,69.1-59.9,69.1-59.9s1-19.4,1-27.2C400,337.5,398.4,313,398,309.2z M388.1,381.5
	C375.4,423,329.9,423,329.9,423c-8.9,0-16.8-1.6-23.5-4.3c-30.6-12.1-40.7-46.6-42.8-57.9c-2.5-13.9-0.7-59.5,12.3-57.7
	c24.5,3.5,43.2,2.7,50.5,2.1c2.5-0.2,4.9-0.3,7.3-0.3c25.5-0.6,36.1-6.5,36.1-6.5s-0.3,6.3,6.1,9.6
	C382.3,311.2,400.7,340,388.1,381.5z"/>
<radialGradient id="SVGID_5_" cx="-702.7314" cy="788.4448" r="1" gradientTransform="matrix(113.103 0 0 -113.103 79888.4297 89451.8594)" gradientUnits="userSpaceOnUse">
	<stop  offset="0" style="stop-color:#93FA62"/>
	<stop  offset="0.8939" style="stop-color:#27922B"/>
</radialGradient>
<path class="st7" d="M271.1,290.7c0,0,95,11.7,100.3-5.7c0,0,2.8,13.9,6.8,18.5c4,4.6,17.2,15,17.2,49l6.6-5c0,0,7.1-8.6,8.3-28.9
	c1.3-20.3-1.5-82.5-80.4-82.5c-91.4,0-83.3,68.6-82.3,79.7c0.7,8.2,5.3,23.8,7.7,31.6c0.9,2.7,3.4,4.6,6.3,4.6
	c0-23.3,0.5-36.2,5.8-44.8C272.7,298.5,271.2,290.7,271.1,290.7"/>
<radialGradient id="SVGID_6_" cx="-701.1108" cy="787.7842" r="1" gradientTransform="matrix(89.87 0 0 -89.87 63390.082 71063.75)" gradientUnits="userSpaceOnUse">
	<stop  offset="5.586590e-03" style="stop-color:#96FD73"/>
	<stop  offset="0.8939" style="stop-color:#2A9B2F"/>
</radialGradient>
<path class="st8" d="M377.2,275c-0.1,0.1-4.4,1.6-8.7,3.1c-6.4,2.3-13,4-19.8,5.1c-12.3,1.9-17.5,2.4-18.8,2.5c-0.2,0-0.3,0-0.3,0
	c-4.1,0-42.1-0.2-63.7-3.9c-15.3-2-8.3-9.1-8.3-9.1c19.4-30.4,61.1-33.2,69.1-33.4c0.7,0,1.3-0.1,1.9-0.1
	c5.6-0.4,33.3-1.1,51.1,11.9C389.5,258.7,389.5,268.6,377.2,275z"/>
<linearGradient id="SVGID_7_" gradientUnits="userSpaceOnUse" x1="390.0301" y1="229.2273" x2="399.4271" y2="177.8163" gradientTransform="matrix(1 0 0 -1 0 502)">
	<stop  offset="1.000000e-04" style="stop-color:#99FF75"/>
	<stop  offset="1" style="stop-color:#67D854"/>
</linearGradient>
<path class="st9" d="M380.5,284.6c-0.3-3,2.2-6.8,5.1-10c3.5-3.9,9.5-3.8,12.5,0.5c13.5,18.9,8.3,50.5,3.4,65.4
	c-0.9-7.7-4.1-25.7-9.4-35.4C385.5,292.9,381.1,291.3,380.5,284.6z"/>
<radialGradient id="SVGID_8_" cx="-657.4456" cy="769.9841" r="1.0017" gradientTransform="matrix(13.7521 0 0 -13.7521 9371.1016 10960.4902)" gradientUnits="userSpaceOnUse">
	<stop  offset="0.5419" style="stop-color:#8F5D3D"/>
	<stop  offset="1" style="stop-color:#C17C40"/>
</radialGradient>
<path class="st10" d="M346.1,374.6c-2.3,2.5-8.1,3.5-12.1,4.1c-2.8,0.3-5.5,0.3-8.3,0c-4-0.5-9.7-1.6-12.1-4.1
	c-2.8-2.9-2.5-8,2.2-10.4c0,0-1.5,5.7,14,5.7c15.6,0,14-5.7,14-5.7C348.6,366.6,348.9,371.7,346.1,374.6z"/>
<radialGradient id="SVGID_9_" cx="-685.6544" cy="781.4839" r="1" gradientTransform="matrix(30.3698 0 0 -30.3698 21153.3457 24108.9531)" gradientUnits="userSpaceOnUse">
	<stop  offset="0.419" style="stop-color:#4C2612"/>
	<stop  offset="1" style="stop-color:#81583E"/>
</radialGradient>
<path class="st11" d="M350.8,387.9c-1.4,2.1-3.3,4-5.5,5.7c-9.8,3-20.2,3.7-31,0c-2.1-1.7-4.1-3.5-5.5-5.7c-1.1-1.7-0.1-4.2,1.7-4.2
	l18.5,0.6c0.5,0,1.1,0,1.7,0l18.5-0.6C350.8,383.6,351.8,386.1,350.8,387.9z"/>
<path class="st12" d="M399.9,348.9c-0.1,0.7-1.5,1.4-2.2,1.4l-2.3,2c0-23.3-7.9-41.3-17.8-49.7c-5.3-8.6-6.3-17.8-6.3-17.8
	c-2.5,10.5-39,9.9-41.5,9.8h-0.1c-1.6,0-48.7,0.9-58.7-4c0,0,1.5,7.8-3.8,16.4c-5.3,8.6-5.8,21.5-5.8,44.8h-0.7
	c-0.7,0-1.3-0.5-1.3-1.3c-1.5-22.6,2.1-37.5,5.5-46.2c3.5-8.9,1.6-11.7,0.8-16.6c-0.9-4.9,4.4-2.3,4.4-2.3c19.2,5.9,57.1,4.1,59.6,4
	c0.1,0,0.1,0,0.1,0c1.9,0,23.2-0.1,39.5-7.9c0,0,6.3-3.3,5.5,1.6c-0.6,3.8-0.3,7.3,5.5,14.8c5.5,7.2,10.1,15.2,13.2,23.7
	C396.1,328.7,398.6,337.4,399.9,348.9z"/>
<radialGradient id="SVGID_10_" cx="-660.0681" cy="767.9713" r="0.9996" gradientTransform="matrix(14.4898 0 0 -12.5496 9894.1357 9997.8848)" gradientUnits="userSpaceOnUse">
	<stop  offset="0" style="stop-color:#FFC671"/>
	<stop  offset="0.8939" style="stop-color:#D58B4A"/>
</radialGradient>
<path class="st13" d="M345.4,360.2c0,7.3-6.7,13.2-15,13.4c-0.1,0-0.3,0-0.5,0h-0.1c-8.5-0.1-15.4-6-15.4-13.4s7-13.4,15.5-13.4h0.1
	C338.4,346.7,345.4,352.7,345.4,360.2z"/>
<path class="st14" d="M353.8,389.7c0,0.3-0.1,0.5-0.3,0.8c-5.5,8.3-15.1,9.7-20.2,9.8c-2.2,0-4.5,0-6.7,0
	c-5.1-0.1-14.7-1.5-20.2-9.8c-0.5-0.7-0.3-1.7,0.5-2.1c0.3-0.2,0.6-0.3,0.9-0.3c0.5,0,0.9,0.2,1.3,0.6c2.4,2.9,9.7,7.6,21,7.7
	c11.3-0.1,18.6-4.8,21-7.7c0.5-0.6,1.5-0.8,2.1-0.3C353.5,388.7,353.8,389.2,353.8,389.7z"/>
<radialGradient id="SVGID_11_" cx="-747.1663" cy="806.5572" r="1" gradientTransform="matrix(-18.5766 0 0 18.5766 -13585.5391 -14634.6914)" gradientUnits="userSpaceOnUse">
	<stop  offset="0.6313" style="stop-color:#FFFFFF"/>
	<stop  offset="1" style="stop-color:#FAE8CD"/>
</radialGradient>
<path class="st15" d="M273.3,343.8c0,0,0.2,0.5,0.7,1.4c1.8,3,7.3,9.6,20.5,9.6c13.6,0,18.1-10.1,18.9-12.3c0.1-0.3,0.1-0.4,0.1-0.4
	s-4.8-15.4-20-15.4C278.4,326.8,273.3,343.8,273.3,343.8z"/>
<radialGradient id="SVGID_12_" cx="-731.0338" cy="799.9813" r="1" gradientTransform="matrix(-32.1778 0 0 32.1778 -23219.6855 -25409.5996)" gradientUnits="userSpaceOnUse">
	<stop  offset="0.5363" style="stop-color:#4A2401"/>
	<stop  offset="1" style="stop-color:#E0A617"/>
</radialGradient>
<path class="st16" d="M293.6,352.3c6.7,0,12.2-5.5,12.2-12.2c0-6.7-5.5-12.2-12.2-12.2s-12.2,5.5-12.2,12.2
	C281.4,346.9,286.9,352.3,293.6,352.3z"/>
<path class="st17" d="M295.7,346.6c5.1,0,9.3-4.2,9.3-9.3c0-5.1-4.2-9.3-9.3-9.3c-5.1,0-9.3,4.2-9.3,9.3
	C286.4,342.4,290.5,346.6,295.7,346.6z"/>
<path class="st18" d="M273.3,343.8c0,0,0.2,0.5,0.7,1.4c1.4-2.6,4.8-8.1,9.5-12.1c3-2.5,6.5-4.3,10.5-4.3c2.7,0,5.2,0.7,7.5,1.9
	c5.7,2.9,9.9,8.5,11.9,11.7c0.1-0.3,0.1-0.4,0.1-0.4s-4.8-15.4-20-15.4C278.4,326.8,273.3,343.8,273.3,343.8z"/>
<path class="st19" d="M296.1,338.5c2.7,0,4.8-2.1,4.8-4.8c0-2.7-2.1-4.8-4.8-4.8c-2.7,0-4.8,2.1-4.8,4.8
	C291.3,336.4,293.4,338.5,296.1,338.5z"/>
<radialGradient id="SVGID_13_" cx="-745.0686" cy="805.7021" r="1" gradientTransform="matrix(-19.657 0 0 19.657 -14350.4834 -15507.9541)" gradientUnits="userSpaceOnUse">
	<stop  offset="0.5363" style="stop-color:#4A2401"/>
	<stop  offset="1" style="stop-color:#E0A617"/>
</radialGradient>
<path class="st20" d="M293.5,349.3l-1.1,2.2c0,0-5.7-0.8-8.4-5.3c-2.7-4.5-1-9.5-1-9.5l2.5,0.4C285.5,337,283.4,346.4,293.5,349.3z"
	/>
<radialGradient id="SVGID_14_" cx="-670.8337" cy="775.4428" r="1" gradientTransform="matrix(18.5766 0 0 -18.5766 12821.6045 14753.4873)" gradientUnits="userSpaceOnUse">
	<stop  offset="0.6313" style="stop-color:#FFFFFF"/>
	<stop  offset="1" style="stop-color:#FAE8CD"/>
</radialGradient>
<path class="st21" d="M360.5,326.8c-15.2,0-20,15.4-20,15.4s0.1,0.1,0.1,0.4c0.8,2.1,5.3,12.3,18.9,12.3c13.2,0,18.7-6.6,20.5-9.6
	c0.5-0.9,0.7-1.4,0.7-1.4S375.7,326.8,360.5,326.8z"/>
<radialGradient id="SVGID_15_" cx="-731.0338" cy="799.9813" r="1" gradientTransform="matrix(-32.1778 0 0 32.1778 -23152.8457 -25409.5996)" gradientUnits="userSpaceOnUse">
	<stop  offset="0.5363" style="stop-color:#4A2401"/>
	<stop  offset="1" style="stop-color:#E0A617"/>
</radialGradient>
<path class="st22" d="M348.2,340.1c0-6.7,5.5-12.2,12.2-12.2c6.7,0,12.2,5.5,12.2,12.2c0,6.7-5.5,12.2-12.2,12.2
	C353.7,352.3,348.2,346.9,348.2,340.1z"/>
<path class="st17" d="M353.2,337.3c0-5.1,4.2-9.3,9.3-9.3c5.1,0,9.3,4.2,9.3,9.3c0,5.1-4.2,9.3-9.3,9.3
	C357.4,346.6,353.2,342.4,353.2,337.3z"/>
<path class="st19" d="M358.1,333.7c0-2.7,2.1-4.8,4.8-4.8c2.7,0,4.8,2.1,4.8,4.8c0,2.7-2.1,4.8-4.8,4.8
	C360.2,338.5,358.1,336.4,358.1,333.7z"/>
<radialGradient id="SVGID_16_" cx="-745.0686" cy="805.7021" r="1" gradientTransform="matrix(-19.657 0 0 19.657 -14283.6445 -15507.9541)" gradientUnits="userSpaceOnUse">
	<stop  offset="0.5363" style="stop-color:#4A2401"/>
	<stop  offset="1" style="stop-color:#E0A617"/>
</radialGradient>
<path class="st23" d="M352.3,337l-2.5-0.4c0,0-1.7,5,1,9.5c2.7,4.5,8.4,5.3,8.4,5.3l1.1-2.2C350.2,346.4,352.3,337,352.3,337z"/>
<path class="st18" d="M360.5,326.7c-15.2,0-20,15.4-20,15.4s0.1,0.1,0.1,0.4c2-3.1,6.2-8.7,11.9-11.7c2.3-1.2,4.8-1.9,7.5-1.9
	c3.9,0,7.5,1.8,10.5,4.3c4.7,3.9,8.1,9.5,9.5,12.1c0.5-0.9,0.7-1.4,0.7-1.4S375.7,326.8,360.5,326.7z"/>
<path class="st24" d="M210.1,151.4l-25.7-14.8l3.2-5.5l20.2,11.7l23-39.8l5.5,3.2L210.1,151.4z"/>
<g>
	
		<linearGradient id="SVGID_17_" gradientUnits="userSpaceOnUse" x1="210.25" y1="360" x2="210.25" y2="355" gradientTransform="matrix(1 0 0 -1 0 502)">
		<stop  offset="0" style="stop-color:#FFFFFF"/>
		<stop  offset="1" style="stop-color:#FFFFFF;stop-opacity:0"/>
	</linearGradient>
	<path class="st25" d="M209,147l24.5-41.5l-2-1l-22.5,39l-21-10l-1,1.5L209,147z"/>
</g>
</svg>
