<svg width="64" height="64" viewBox="0 0 64 64" fill="none" xmlns="http://www.w3.org/2000/svg">
<path fill-rule="evenodd" clip-rule="evenodd" d="M50.5943 37.5407L50.6837 37.4165C53.4003 33.6404 55 29.0085 55 24C55 11.2975 44.7025 1 32 1C19.2975 1 9 11.2975 9 24C9 29.0083 10.5996 33.64 13.316 37.416L13.4085 37.5447L13.4389 37.5852C13.5373 37.7194 13.6371 37.8526 13.7383 37.9846L13.7449 37.9932L31.1995 61.2671C31.5995 61.8004 32.3995 61.8004 32.7995 61.2671L50.2559 37.992C50.3608 37.8553 50.4642 37.7175 50.5661 37.5784L50.5728 37.5694L50.5943 37.5407ZM51.3728 38.1694C51.2665 38.3145 51.1586 38.4584 51.0492 38.601L33.5995 61.8671C32.7995 62.9338 31.1995 62.9338 30.3995 61.8671L12.9449 38.5932C12.8392 38.4555 12.7351 38.3166 12.6324 38.1765L12.5 38H12.5042C12.5037 37.9993 12.5032 37.9986 12.5027 37.998C12.5018 37.9967 12.5009 37.9954 12.5 37.9942C12.2661 37.6688 12.0401 37.3373 11.8223 37C9.40373 33.2538 8 28.7908 8 24C8 10.7452 18.7452 0 32 0C45.2548 0 56 10.7452 56 24C56 28.791 54.5962 33.2542 52.1774 37.0005C51.9595 37.3379 51.7335 37.6694 51.4995 37.9949C51.4986 37.9961 51.4978 37.9973 51.4969 37.9985C51.4964 37.9992 51.4959 37.9998 51.4955 38.0005H51.4995L51.3728 38.1694Z" fill="#282A36"/>
<path fill-rule="evenodd" clip-rule="evenodd" d="M32 35C38.0751 35 43 30.0751 43 24C43 17.9249 38.0751 13 32 13C25.9249 13 21 17.9249 21 24C21 30.0751 25.9249 35 32 35ZM32 36C38.6274 36 44 30.6274 44 24C44 17.3726 38.6274 12 32 12C25.3726 12 20 17.3726 20 24C20 30.6274 25.3726 36 32 36Z" fill="#282A36"/>
</svg>
