<svg width="194" height="194" viewBox="0 0 194 194" fill="none" xmlns="http://www.w3.org/2000/svg">
<path d="M10 30V134.866L92.5 189.5L185.5 127V17H165L123 3L79.5 18H21V30H10Z" fill="white"/>
<path fill-rule="evenodd" clip-rule="evenodd" d="M17.53 14.0983H83.3595L122.878 1.1687L163.969 14.0983H188.741V128.344L175.886 137.004V137.027L126.028 170.593L103.428 185.819L103.42 185.814L92.1291 193.416L5.25903 136.032V26.4812H17.53V14.0983ZM17.53 33.4933H12.2711V132.26L92.0921 184.987L97.1227 181.601L17.53 128.344V33.4933ZM103.408 177.369L24.5421 124.598V33.4933H48.0531L87.1473 20.8115L126.242 33.4933H168.873V133.273L122.123 164.769L103.408 177.369ZM175.886 128.549L181.729 124.613V21.1104H162.891L122.878 8.51969L97.5517 16.8148L127.35 26.4812H175.886V128.549ZM63.501 21.1104L46.9442 26.4812H24.5421V21.1104H63.501Z" fill="#EBEEF3"/>
<path fill-rule="evenodd" clip-rule="evenodd" d="M81.0108 93.8111L71.1265 93.8111L76.0856 89.2991L38.5664 54.9277L47.8693 54.9277L80.9775 84.8483L109.94 58.4978L106.012 54.9277H145.599L155.434 63.8681V84.5745L145.636 93.8111H133.18L126.362 87.6139V88.0311V109.575L133.34 115.88H119.385V67.2926L125.331 61.2331H116.769L85.933 89.3267L90.8951 93.8111H81.0108ZM142.689 87.5057H126.362V61.2331H142.726L148.457 66.4877V82.0374L142.689 87.5057ZM56.0093 54.9277L80.9747 76.9648L81.01 76.9967L81.0104 76.9963L81.0108 76.9967L81.0461 76.9647L106.011 54.9277H95.5466L81.0108 67.6776L66.4751 54.9277H56.0093ZM42.055 115.88H49.0321H56.0093V76.9967L49.0321 70.6913V109.575L42.055 115.88ZM61.8236 115.88V82.2512L68.8008 88.5566V102.218V109.575L75.7779 115.88L61.8236 115.88ZM87.4065 115.88L94.3837 115.88H101.361V82.2512L97.0198 86.1743C95.3415 87.6911 94.3837 89.8475 94.3837 92.1096V109.575L87.4065 115.88ZM110.95 119.433C108.541 117.166 107.175 114.004 107.175 110.696V82.3263C107.175 78.933 108.612 75.6984 111.129 73.4232L114.152 70.6913V109.575V122.448L110.95 119.433ZM139.154 65.9622H132.758L135.61 68.1712C136.383 68.7702 136.828 69.6446 136.828 70.5649V78.1739C136.828 79.0942 136.383 79.9686 135.61 80.5676L132.758 82.7766H139.154L142.642 79.6239V69.1149L139.154 65.9622Z" fill="#282A36"/>
</svg>
