<svg width="96" height="108" viewBox="0 0 96 108" fill="none" xmlns="http://www.w3.org/2000/svg">
<path fill-rule="evenodd" clip-rule="evenodd" d="M88 20H8V63.5938L48 86.7556L88 63.5938V20ZM96 68.2059L48 96L0 68.2059V12H96V68.2059Z" fill="white"/>
<path fill-rule="evenodd" clip-rule="evenodd" d="M40.3119 30.8301H30.9536L30.9564 32.3617H31.9045C32.3355 32.382 32.3138 32.6845 32.3138 32.6845V40.5773C32.3138 41.0953 31.9794 41.0519 31.9794 41.0519H31.2363V42.7355H40.3539V39.2626H38.0918V40.3414C38.0708 40.6858 37.7678 40.7061 37.7678 40.7061H35.3756V37.6862H38.9496V35.7471H35.3756V32.8567H37.6608C38.0708 32.8567 38.0918 33.1367 38.0918 33.1367V34.2798H40.3119V30.8301ZM18.8764 30.835V32.3449H19.751C19.751 32.3449 20.1225 32.3876 20.1225 32.6949V40.613C20.1225 40.613 20.1008 40.8314 19.9042 40.8538H18.833V42.7586H25.1302C25.1302 42.7586 30.5527 42.7859 30.4659 36.5241C30.4659 36.5241 30.6618 31.3341 25.8907 30.8475C25.8907 30.8475 25.5024 30.835 25.24 30.835H18.8764ZM76.2553 47.9933C74.7734 44.9867 70.9076 45.2303 70.9076 45.2303C67.7642 45.2738 66.3237 47.4536 66.2896 47.5051L66.289 47.5061C63.7925 51.5956 66.1568 54.8235 66.1568 54.8235C67.7255 57.3436 71.1728 57.1672 71.1728 57.1672C74.709 57.1455 75.9677 54.7584 75.9677 54.7584C78.1087 51.4045 76.2553 47.9933 76.2553 47.9933ZM35.9682 45.2503H32.6391L29.1218 54.7659C28.998 55.2657 28.5187 55.4533 28.5187 55.4533H27.8106V57.0774H32.763V55.3903H31.8688C31.4315 55.3476 31.6813 54.9528 31.6813 54.9528L32.0976 54.0994H36.0515L36.3629 54.9101C36.4664 55.412 36.0921 55.4106 36.0921 55.4106H34.9691V57.0963H40.7953V55.4939H40.1292C39.7752 55.4729 39.6724 55.16 39.6724 55.16L35.9682 45.2503ZM19.0744 45.2412H28.066V48.6678H25.7808V47.5261C25.7808 47.5261 25.7389 47.2551 25.4282 47.2551H23.3312V50.0182H26.9647V52.1988H23.29V55.4595H26.3007V57.1018H18.8673V55.4189H20.0301C20.0301 55.4189 20.3415 55.4189 20.3212 54.9625V47.1935C20.3212 47.1935 20.3632 46.8596 20.0511 46.8407H19.0744V45.2412ZM48.9732 49.3733V47.7912C48.4889 47.105 47.3784 47.1045 47.3105 47.1045L47.3073 47.1045C44.5191 47.1045 44.3945 50.8727 44.3945 50.8727C44.123 55.3907 47.3696 55.2031 47.3696 55.2031C49.2216 55.0995 49.2636 53.7884 49.2636 53.7884V52.8517H51.3647V56.2231C49.6792 57.2024 47.3486 57.1597 47.3486 57.1597C44.8101 57.243 43.3954 56.368 43.3954 56.368C40.7114 54.7229 40.9612 51.1436 40.9612 51.1436C41.1067 48.3323 42.3969 47.1045 42.3969 47.1045C44.1237 45.1486 46.9547 45.2508 46.9547 45.2508C49.5981 45.1675 51.4284 46.2504 51.4284 46.2504V49.3733H48.9732ZM52.9062 45.1893H63.9339V48.6663H61.6872V47.5204C61.6872 47.5204 61.6445 47.2292 61.2499 47.2495H59.9387V55.4118H62.0195V57.1185H54.8198V55.4328H56.9014V47.2718H55.5692C55.5692 47.2718 55.1941 47.2089 55.1738 47.5834V48.6663H52.9272L52.9062 45.1893ZM22.9555 32.8158H25.0098C25.0098 32.8158 27.3104 33.3366 27.3104 36.7332C27.3104 36.7332 27.3649 40.6246 24.6537 41.0355H22.9282L22.9555 32.8158ZM68.3957 51.2569C68.5881 55.5817 71.2168 55.2919 71.2168 55.2919C73.7223 55.2807 73.8868 51.3759 73.8868 51.3759C73.8868 46.7326 71.2581 46.979 71.2581 46.979C68.1963 46.9552 68.3957 51.2569 68.3957 51.2569ZM35.5575 52.3508L34.0273 47.9014L32.5209 52.3508H35.5575Z" fill="white"/>
<path d="M41 63H55V64H41V63Z" fill="white"/>
<path d="M39.6 72.7441V74.0001H35.24V73.0081L37.336 71.0481C37.5387 70.8561 37.6747 70.6934 37.744 70.5601C37.8134 70.4214 37.848 70.2828 37.848 70.1441C37.848 69.9628 37.7867 69.8214 37.664 69.7201C37.5414 69.6188 37.3627 69.5681 37.128 69.5681C36.92 69.5681 36.728 69.6161 36.552 69.7121C36.3814 69.8028 36.24 69.9361 36.128 70.1121L34.952 69.4561C35.1707 69.0934 35.4774 68.8081 35.872 68.6001C36.2667 68.3921 36.7334 68.2881 37.272 68.2881C37.6987 68.2881 38.0747 68.3574 38.4 68.4961C38.7307 68.6348 38.9867 68.8348 39.168 69.0961C39.3547 69.3521 39.448 69.6508 39.448 69.9921C39.448 70.2961 39.3814 70.5841 39.248 70.8561C39.12 71.1228 38.8694 71.4268 38.496 71.7681L37.44 72.7441H39.6Z" fill="white"/>
<path d="M44.9253 74.1121C44.4453 74.1121 44.0186 73.9974 43.6453 73.7681C43.2719 73.5388 42.9786 73.2054 42.7653 72.7681C42.5573 72.3254 42.4533 71.8028 42.4533 71.2001C42.4533 70.5974 42.5573 70.0774 42.7653 69.6401C42.9786 69.1974 43.2719 68.8614 43.6453 68.6321C44.0186 68.4028 44.4453 68.2881 44.9253 68.2881C45.3999 68.2881 45.8239 68.4028 46.1973 68.6321C46.5706 68.8614 46.8613 69.1974 47.0693 69.6401C47.2826 70.0774 47.3893 70.5974 47.3893 71.2001C47.3893 71.8028 47.2826 72.3254 47.0693 72.7681C46.8613 73.2054 46.5706 73.5388 46.1973 73.7681C45.8239 73.9974 45.3999 74.1121 44.9253 74.1121ZM44.9253 72.8161C45.1919 72.8161 45.4026 72.6881 45.5573 72.4321C45.7173 72.1708 45.7973 71.7601 45.7973 71.2001C45.7973 70.6401 45.7173 70.2321 45.5573 69.9761C45.4026 69.7148 45.1919 69.5841 44.9253 69.5841C44.6533 69.5841 44.4373 69.7148 44.2773 69.9761C44.1226 70.2321 44.0453 70.6401 44.0453 71.2001C44.0453 71.7601 44.1226 72.1708 44.2773 72.4321C44.4373 72.6881 44.6533 72.8161 44.9253 72.8161Z" fill="white"/>
<path d="M52.6673 68.4001V74.0001H51.0833V69.6241H50.0433V68.4001H52.6673Z" fill="white"/>
<path d="M59.9415 71.0481C60.1975 71.1974 60.3949 71.3814 60.5335 71.6001C60.6722 71.8188 60.7415 72.0694 60.7415 72.3521C60.7415 72.7041 60.6402 73.0134 60.4375 73.2801C60.2349 73.5468 59.9495 73.7521 59.5815 73.8961C59.2135 74.0401 58.7895 74.1121 58.3095 74.1121C57.8295 74.1121 57.4055 74.0401 57.0375 73.8961C56.6695 73.7521 56.3842 73.5468 56.1815 73.2801C55.9789 73.0134 55.8775 72.7041 55.8775 72.3521C55.8775 72.0694 55.9469 71.8188 56.0855 71.6001C56.2242 71.3814 56.4215 71.1974 56.6775 71.0481C56.4855 70.9148 56.3362 70.7521 56.2295 70.5601C56.1282 70.3681 56.0775 70.1548 56.0775 69.9201C56.0775 69.5948 56.1709 69.3094 56.3575 69.0641C56.5442 68.8134 56.8055 68.6214 57.1415 68.4881C57.4829 68.3548 57.8722 68.2881 58.3095 68.2881C58.7469 68.2881 59.1335 68.3548 59.4695 68.4881C59.8109 68.6214 60.0749 68.8134 60.2615 69.0641C60.4482 69.3094 60.5415 69.5948 60.5415 69.9201C60.5415 70.1548 60.4882 70.3681 60.3815 70.5601C60.2802 70.7521 60.1335 70.9148 59.9415 71.0481ZM58.3095 69.4001C58.1122 69.4001 57.9522 69.4534 57.8295 69.5601C57.7069 69.6614 57.6455 69.8054 57.6455 69.9921C57.6455 70.1734 57.7042 70.3174 57.8215 70.4241C57.9442 70.5254 58.1069 70.5761 58.3095 70.5761C58.5122 70.5761 58.6749 70.5254 58.7975 70.4241C58.9202 70.3174 58.9815 70.1734 58.9815 69.9921C58.9815 69.8054 58.9202 69.6614 58.7975 69.5601C58.6749 69.4534 58.5122 69.4001 58.3095 69.4001ZM58.3095 73.0001C58.5655 73.0001 58.7682 72.9388 58.9175 72.8161C59.0722 72.6881 59.1495 72.5174 59.1495 72.3041C59.1495 72.0908 59.0722 71.9228 58.9175 71.8001C58.7682 71.6721 58.5655 71.6081 58.3095 71.6081C58.0535 71.6081 57.8482 71.6721 57.6935 71.8001C57.5442 71.9228 57.4695 72.0908 57.4695 72.3041C57.4695 72.5174 57.5442 72.6881 57.6935 72.8161C57.8482 72.9388 58.0535 73.0001 58.3095 73.0001Z" fill="white"/>
</svg>
