<svg width="426" height="448" viewBox="0 0 426 448" fill="none" xmlns="http://www.w3.org/2000/svg">
<path d="M164.469 328.813C164.469 328.048 164.209 327.364 163.749 326.861C163.37 326.439 162.63 325.936 161.372 325.936V325.956H146.984V327.787H150.621V333.943H146.984V335.794H156.136V333.943H152.499V331.529H161.372C161.412 331.529 161.451 331.529 161.471 331.529H161.531C163.47 331.468 164.469 330.141 164.469 328.813ZM161.451 329.678H152.499V327.787H161.531C162.271 327.827 162.63 328.169 162.63 328.813C162.63 329.215 162.311 329.658 161.451 329.678Z" fill="white"/>
<path d="M180.992 325.956L170.122 333.722V327.807H173.759V325.976H164.627V327.807H168.264V333.943H164.627V335.814H170.422L181.292 328.048V333.963H177.655V335.814H186.787V333.963H183.15V327.787H186.787V325.956H180.992Z" fill="white"/>
<path d="M202.57 330.905C203.51 330.241 203.67 329.396 203.67 328.934C203.67 328.008 203.31 327.304 202.57 326.801C201.751 326.238 200.412 325.956 198.494 325.956C198.454 325.956 193.798 325.956 193.778 325.956C191.88 325.976 190.541 326.238 189.662 326.801C188.863 327.284 188.443 328.028 188.443 328.934H190.261C190.261 327.908 192.719 327.807 193.778 327.787C193.838 327.787 198.454 327.787 198.494 327.787C200.392 327.787 201.212 328.089 201.551 328.33C201.791 328.471 201.851 328.612 201.851 328.934C201.851 329.396 200.872 329.919 198.734 329.98H193.898V331.831H198.714C200.872 331.891 201.851 332.394 201.851 332.877C201.851 333.199 201.791 333.339 201.571 333.48C201.212 333.722 200.392 334.003 198.514 334.003C198.454 334.003 193.838 334.003 193.798 334.003C192.739 334.003 190.281 333.883 190.281 332.877H188.463C188.463 333.782 188.883 334.506 189.682 335.009C190.561 335.573 191.9 335.834 193.778 335.834C193.798 335.834 198.454 335.834 198.514 335.834C200.412 335.834 201.751 335.573 202.59 335.009C203.31 334.506 203.67 333.802 203.67 332.877C203.67 332.414 203.53 331.549 202.57 330.905Z" fill="white"/>
<path d="M221.718 325.956L210.847 333.722V327.807H214.484V325.976H205.352V327.807H208.989V333.943H205.352V335.814H211.147L222.017 328.048V333.963H218.381V335.814H227.512V333.963H223.876V327.787H227.512V325.956H221.718Z" fill="white"/>
<path d="M246.173 332.676C246.173 332.897 246.093 333.943 244.315 334.084C243.196 334.164 242.517 333.541 241.398 332.394C241.058 332.072 240.718 331.73 240.339 331.388C239.919 331.006 239.519 330.724 239.18 330.483L244.974 327.666H246.993V325.956H238.34V327.666H241.837L238.5 328.954L233.904 331.187V327.666H237.221V325.956H228.869V327.666H232.206V334.104H228.869V335.794H237.241V334.104H233.904V333.058L237.281 331.408C237.401 331.428 238.001 331.589 239.24 332.655C239.579 332.957 239.899 333.279 240.199 333.601C241.278 334.667 242.377 335.774 244.115 335.774H244.435C245.834 335.673 246.633 335.11 247.053 334.667C247.572 334.124 247.852 333.4 247.852 332.676H246.173ZM237.301 331.408L237.381 331.368V331.408H237.301Z" fill="white"/>
<path d="M249.594 325.956V327.787H253.231V333.963H249.594V335.794H258.706V333.963H255.089V327.787H258.706V325.956H249.594Z" fill="white"/>
<path d="M279.481 330.684C279.181 330.382 278.742 330.04 278.042 329.839C278.182 329.517 278.242 329.175 278.242 328.813C278.242 328.069 277.982 327.364 277.523 326.861C277.143 326.459 276.424 325.956 275.165 325.956H260.798V327.807H264.434V333.943H260.798V335.794H276.883C279.101 335.794 280.26 334.305 280.26 332.837C280.26 332.012 279.981 331.247 279.481 330.684ZM276.424 328.813C276.424 329.215 276.104 329.678 275.245 329.698H266.293V327.807H275.325C276.064 327.847 276.424 328.169 276.424 328.813ZM276.963 333.943H266.293V331.529H276.883C277.902 331.529 278.422 331.971 278.422 332.837C278.422 333.339 278.042 333.923 276.963 333.943Z" fill="white"/>
<path d="M156.554 307.722L149.966 314.563L143.397 307.722H137.844V309.557H141.466V315.66H137.844V317.495H146.96V315.66H143.337V310.335L149.966 317.236L156.614 310.335V315.66H152.971V317.495H162.108V315.66H158.465V309.557H162.108V307.722H156.554Z" fill="white"/>
<path d="M181.018 315.8L180.082 314.603C180.719 314.264 181.117 313.825 181.336 313.466C181.754 312.848 181.894 312.09 181.774 311.392L180.122 311.691C180.162 311.891 180.241 312.748 179.007 313.267L174.569 307.663H167.841V309.378H171.523L166.447 315.78H163.064V317.455H171.443V315.78H168.637L170.05 314.005C170.05 314.005 170.05 313.985 170.07 313.965L170.667 313.207C170.906 312.988 171.205 312.788 171.543 312.669C172.08 312.509 172.658 312.609 173.295 312.968C173.733 313.207 174.151 313.486 174.549 313.765C175.584 314.463 176.639 315.181 177.972 315.181C178.092 315.181 178.211 315.181 178.331 315.162L178.848 315.8H176.022V317.475H184.421V315.8H181.018ZM175.504 312.369C175.066 312.07 174.628 311.771 174.131 311.492C173.573 311.193 173.016 310.993 172.479 310.933L173.713 309.378L176.738 313.147C176.38 312.948 175.962 312.688 175.504 312.369Z" fill="white"/>
<path d="M183.718 307.722V311.831H185.57V309.537H192.218V315.66H188.615V317.475H197.692V315.66H194.069V309.537H200.757V311.731H202.608V307.722H183.718Z" fill="white"/>
<path d="M221.449 310.554C221.449 309.797 221.19 309.119 220.732 308.62C220.354 308.201 219.617 307.702 218.363 307.702V307.722H204.032V309.537H207.655V315.64H204.032V317.475H213.148V315.64H209.526V313.247H218.363C218.403 313.247 218.443 313.247 218.463 313.247H218.523C220.453 313.187 221.449 311.871 221.449 310.554ZM218.443 311.412H209.526V309.537H218.523C219.259 309.577 219.617 309.916 219.617 310.554C219.617 310.953 219.299 311.392 218.443 311.412Z" fill="white"/>
<path d="M237.908 307.722L227.08 315.421V309.557H230.702V307.742H221.606V309.557H225.229V315.64H221.606V317.495H227.378L238.207 309.797V315.66H234.584V317.495H243.68V315.66H240.058V309.537H243.68V307.722H237.908Z" fill="white"/>
<path d="M264.2 315.72V315.66H260.557V309.557H264.2V307.722H255.064V309.557H258.706V315.66H250.028V309.557H253.67V307.722H244.534V309.557H248.176V317.475L262.19 317.495L260.736 319.549L262.229 320.606L264.22 317.814V315.72H264.2Z" fill="white"/>
<path d="M266.954 314.404C266.954 315.122 267.253 315.84 267.751 316.378C268.189 316.817 268.985 317.375 270.358 317.495C270.478 317.495 270.577 317.495 270.677 317.495C271.433 317.495 272.15 317.276 272.826 316.857C273.463 316.438 274.001 315.919 274.558 315.361C274.857 315.062 275.155 314.743 275.474 314.463C276.748 313.347 277.325 313.267 277.325 313.267C277.325 313.267 277.285 313.287 277.225 313.267H282.381V315.66H278.738V317.495H287.874V315.66H284.232V309.557H287.874V307.722H273.523C272.269 307.722 271.552 308.221 271.154 308.62C270.697 309.138 270.438 309.817 270.438 310.574C270.438 311.871 271.453 313.207 273.364 313.267H273.423C273.443 313.267 273.483 313.267 273.523 313.267H274.06C273.782 313.526 273.523 313.805 273.264 314.065C272.189 315.122 271.533 315.74 270.497 315.66C268.865 315.54 268.786 314.583 268.786 314.404H266.954ZM273.364 309.557H282.381V311.432H273.443C272.587 311.412 272.269 310.953 272.269 310.574C272.269 309.936 272.627 309.597 273.364 309.557Z" fill="white"/>
<path fill-rule="evenodd" clip-rule="evenodd" d="M28.4904 29.7789H181.33L273 0L368.485 29.7789H426V295.367L396.153 315.501V315.554L280.287 393.66L227.924 428.982L227.906 428.97L201.691 446.642L0 313.24V58.5659H28.4904V29.7789ZM28.4904 74.867H16.2803V304.472L201.605 427.048L213.285 419.175L28.4904 295.367V74.867ZM227.878 409.338L44.7707 286.661V74.867H99.3573L190.124 45.3853L280.892 74.867H379.873V306.828L271.177 380.15L227.878 409.338ZM396.153 295.846L409.72 286.694V46.08H365.984L273 17L214.366 36.1218L283.466 58.5659H396.153V295.846ZM135.224 46.08L96.7827 58.5659H44.7707V46.08H135.224Z" fill="#39424F"/>
<path fill-rule="evenodd" clip-rule="evenodd" d="M116.889 115.764L175.142 172.735L175.225 172.817L175.226 172.816L175.227 172.817L175.31 172.734L233.562 115.764H209.144L175.227 148.725L141.309 115.764L116.889 115.764ZM258.663 132.065H278.642L264.768 147.73V273.34H297.329L281.048 257.039V201.344V200.265L296.956 216.287H326.021L348.883 192.408V138.877L325.934 115.764H233.564L242.728 124.993L175.149 193.116L97.8955 115.764L76.1885 115.764L163.734 204.622L152.163 216.287H175.227L198.29 216.287L186.712 204.693L258.663 132.065ZM281.048 199.986V132.065H319.23L332.602 145.649V185.849L319.143 199.986H281.048ZM84.3286 273.34H100.609H116.889V172.817L100.609 156.516V257.039L84.3286 273.34ZM130.456 273.34V186.401L146.736 202.703V238.021V257.039L163.016 273.34H130.456ZM190.15 273.34H206.431H222.711V186.401L208.77 200.36C207.272 201.86 206.431 203.893 206.431 206.013V257.039L190.15 273.34ZM239.616 276.822C237.474 274.588 236.278 271.612 236.278 268.517V177.783C236.278 174.603 237.54 171.553 239.787 169.304L252.558 156.516V257.039V290.321L239.616 276.822ZM310.895 144.29H295.972L302.626 150.001C304.43 151.55 305.469 153.81 305.469 156.19V175.861C305.469 178.24 304.43 180.501 302.626 182.049L295.972 187.76H310.895L319.036 179.609V152.441L310.895 144.29Z" fill="white"/>
<path opacity="0.2" fill-rule="evenodd" clip-rule="evenodd" d="M89.6079 129.384L89.033 128.801L99.9828 117.854L100.562 118.433L89.6079 129.384ZM96.0326 135.905L95.4577 135.322L106.452 124.331L107.03 124.91L96.0326 135.905ZM102.834 142.809L102.259 142.226L113.3 131.188L113.879 131.768L102.834 142.809ZM109.637 149.714L109.062 149.13L120.149 138.046L120.728 138.626L109.637 149.714ZM100.609 170.528L107.611 163.527L108.19 164.107L100.609 171.686V170.528ZM100.609 184.625V183.467L114.077 170.002L114.656 170.581L100.609 184.625ZM100.609 198.33V197.172L116.889 180.896V182.054L100.609 198.33ZM100.609 211.786V210.877L116.889 194.601V195.76L100.733 211.911L100.609 211.786ZM100.609 226.503V225.344L116.889 209.068V210.227L100.609 226.503ZM100.609 240.972V239.814L116.889 223.538V224.696L100.609 240.972ZM100.609 255.436V254.277L116.889 238.001V239.159L100.609 255.436ZM98.6918 273.34H97.5333L116.889 253.989V255.148L98.6918 273.34ZM112.402 273.34H111.243L116.889 267.696V268.854L112.402 273.34ZM130.456 267.471V266.313L146.736 250.036V251.195L130.456 267.471ZM136.772 273.34H135.613L149.325 259.632L149.904 260.211L136.772 273.34ZM148.957 273.34H147.799L155.413 265.728L155.992 266.307L148.957 273.34ZM206.43 227.303V226.144L222.711 209.868V211.026L206.43 227.303ZM206.43 239.486V238.328L222.711 222.052V223.21L206.43 239.486ZM206.43 251.665V250.507L222.711 234.231V235.389L206.43 251.665ZM196.172 273.34H195.013L222.711 245.65V246.808L196.172 273.34ZM207.599 273.34H206.44L222.711 257.074V258.232L207.599 273.34ZM219.023 273.34H217.865L222.711 268.495V269.654L219.023 273.34ZM236.277 266.747V265.589L252.558 249.313V250.471L236.277 266.747ZM238.701 275.749C238.534 275.527 238.375 275.3 238.224 275.068L252.558 260.738V261.896L238.701 275.749ZM243.86 281.249L243.293 280.657L252.558 271.394V272.553L243.86 281.249ZM249.423 287.051L248.856 286.459L252.558 282.758V283.917L249.423 287.051ZM274.296 273.34H273.138L285.242 261.239L285.821 261.818L274.296 273.34ZM284.824 273.34H283.666L290.502 266.505L291.081 267.085L284.824 273.34ZM281.048 255.433L264.768 271.71V270.551L280.946 254.377L281.048 254.479V255.433ZM348.883 185.753V186.911L319.957 215.829L319.378 215.25L348.883 185.753ZM348.883 176.252L308.838 216.287H307.679L348.883 175.093V176.252ZM348.883 164.437V165.595L332.602 181.871V180.713L348.883 164.437ZM348.883 153.011V154.17L332.602 170.446V169.288L348.883 153.011ZM348.883 142.355V143.513L332.602 159.789V158.631L348.883 142.355ZM344.924 134.89L345.502 135.472L332.602 148.368V147.21L344.924 134.89ZM339.232 129.157L339.809 129.738L328.283 141.261L327.709 140.678L339.232 129.157ZM333.542 123.426L334.119 124.008L322.618 135.506L322.043 134.923L333.542 123.426ZM327.474 117.315L328.051 117.896L313.879 132.065H312.72L327.474 117.315ZM316.838 115.764H317.997L301.692 132.065H300.533L316.838 115.764ZM305.414 115.764H306.573L290.268 132.065H289.109L305.414 115.764ZM293.229 115.764H294.387L278.082 132.065H276.924L293.229 115.764ZM281.042 115.764H282.2L265.895 132.065H264.737L281.042 115.764ZM268.859 115.764H270.017L169.47 216.287H168.311L268.859 115.764ZM255.149 115.764H256.307L155.76 216.287H154.601L255.149 115.764ZM239.156 115.764H240.315L236.927 119.151L236.35 118.569L239.156 115.764ZM225.848 115.764L171.968 169.631L171.382 169.058L224.69 115.764H225.848ZM210.217 115.764H211.375L164.652 162.475L164.066 161.903L210.217 115.764ZM168.913 142.59L169.501 143.161L157.337 155.321L156.751 154.749L168.913 142.59ZM161.962 135.834L162.549 136.405L150.407 148.544L149.822 147.971L161.962 135.834ZM155.01 129.079L155.598 129.65L143.477 141.767L142.892 141.194L155.01 129.079ZM148.447 122.701L149.035 123.272L136.935 135.368L136.349 134.796L148.447 122.701ZM141.881 116.319L142.469 116.89L130.389 128.967L129.804 128.394L141.881 116.319ZM128.728 115.764L129.887 115.764L123.459 122.189L122.874 121.617L128.728 115.764ZM126.619 144.524L115.488 155.652L116.063 156.236L127.198 145.103L126.619 144.524ZM133.085 150.998L121.91 162.171L122.485 162.754L133.664 151.578L133.085 150.998ZM139.934 157.856L128.713 169.075L129.287 169.659L140.513 158.436L139.934 157.856ZM146.783 164.714L135.515 175.98L136.09 176.563L147.362 165.294L146.783 164.714ZM154.013 171.953L142.696 183.268L143.27 183.852L154.592 172.533L154.013 171.953ZM161.244 179.193L161.823 179.773L150.452 191.141L149.877 190.558L161.244 179.193ZM135.584 191.536L135.005 190.957L130.456 195.505V196.663L135.584 191.536ZM130.456 209.974L142.236 198.197L142.815 198.776L130.456 211.133V209.974ZM130.456 224.437V225.596L146.736 209.32V208.161L130.456 224.437ZM157.056 197.844L168.472 186.431L169.051 187.01L157.631 198.427L157.056 197.844ZM146.736 224.15L130.456 240.426V241.584L146.736 225.308V224.15ZM146.736 237.856L130.456 254.132V255.291L146.736 239.014V238.021V237.856ZM180.494 216.287H181.653L189.978 207.964L189.399 207.384L180.494 216.287ZM195.488 213.481L192.681 216.287H193.839L196.066 214.06L195.488 213.481ZM206.43 214.723V215.881L222.711 199.605V198.447L206.43 214.723ZM222.711 187.423L206.949 203.181C207.346 202.132 207.962 201.169 208.77 200.36L222.711 186.401V187.423ZM236.277 184.883V186.042L252.558 169.766V168.607L236.277 184.883ZM252.558 157.583L237.382 172.755C237.968 171.484 238.778 170.313 239.787 169.304L252.558 156.516V157.583ZM264.768 156.4V157.558L281.048 141.282V140.124L264.768 156.4ZM281.048 151.545L264.768 167.821V168.98L281.048 152.703V151.545ZM281.048 163.729L264.768 180.005V181.163L281.048 164.887V163.729ZM281.048 175.907L264.768 192.184V193.342L281.048 177.066V175.907ZM304.906 153.213C304.8 152.942 304.679 152.676 304.544 152.417L311.783 145.18L312.362 145.759L304.906 153.213ZM281.048 187.327L264.768 203.603V204.761L281.048 188.485V187.327ZM305.469 164.07V162.912L317.49 150.894L318.069 151.473L305.469 164.07ZM281.048 198.751L264.768 215.027V216.186L281.048 199.909V198.751ZM305.469 175.495V174.337L319.035 160.773V161.931L305.469 175.495ZM291.237 199.986L285.985 205.237L286.562 205.818L292.396 199.986H291.237ZM304.625 187.76H303.466L319.035 172.194V173.353L304.625 187.76ZM301.897 199.986L291.295 210.585L291.872 211.167L303.055 199.986H301.897ZM313.325 199.986L297.02 216.287H298.178L314.483 199.986H313.325ZM281.048 233.413V232.254L264.768 248.531V249.689L281.048 233.413ZM264.768 259.187V260.345L281.048 244.069V242.911L264.768 259.187ZM264.768 238.264L281.048 221.987V220.829L264.768 237.105V238.264ZM264.768 227.607L281.048 211.331V210.172L264.768 226.449V227.607ZM252.558 228.393V227.234L236.277 243.511V244.669L252.558 228.393ZM236.277 254.932L252.558 238.656V239.814L236.277 256.09V254.932ZM236.277 233.244L252.558 216.968V215.81L236.277 232.086V233.244ZM236.277 221.825L252.558 205.549V204.391L236.277 220.667V221.825ZM236.277 209.647L252.558 193.37V192.212L236.277 208.488V209.647ZM236.277 197.463L252.558 181.187V180.028L236.277 196.305V197.463ZM301.65 144.29L299.027 146.913L298.404 146.378L300.491 144.29H301.65ZM89.5232 115.764L82.8054 122.48L82.2305 121.896L88.3647 115.764L89.5232 115.764Z" fill="#282A36"/>
</svg>
