<svg width="88" height="56" viewBox="0 0 88 56" fill="none" xmlns="http://www.w3.org/2000/svg">
<path d="M76.962 24.324C76.962 24.324 82.487 23.976 84.605 28.271C84.605 28.271 87.254 33.144 84.194 37.935C84.194 37.935 82.395 41.345 77.341 41.376C77.341 41.376 72.414 41.628 70.172 38.028C70.172 38.028 66.793 33.417 70.361 27.575C70.361 27.576 72.415 24.387 76.962 24.324Z" fill="white"/>
<path d="M22.268 24.353H27.026L32.32 38.509C32.32 38.509 32.467 38.956 32.973 38.986H33.925V41.275H25.598V38.867H27.203C27.203 38.867 27.738 38.869 27.59 38.152L27.145 36.994H21.494L20.899 38.213C20.899 38.213 20.542 38.777 21.167 38.838H22.445V41.248H15.367V38.928H16.379C16.379 38.928 17.064 38.66 17.241 37.946L22.268 24.353Z" fill="white"/>
<path d="M2.59801 3.759V5.91599H3.84801C3.84801 5.91599 4.37901 5.97698 4.37901 6.41599C4.37901 6.85399 4.37901 17.727 4.37901 17.727C4.37901 17.727 4.348 18.039 4.067 18.071H2.53601V20.792H11.536C11.536 20.792 19.286 20.831 19.162 11.886C19.162 11.886 19.442 4.47198 12.623 3.77698C12.623 3.77698 12.068 3.759 11.693 3.759H2.59801Z" fill="white"/>
<path d="M24.252 28.14L26.439 34.496H22.099L24.252 28.14Z" fill="#F2E109"/>
<path d="M77.404 38.697C77.404 38.697 73.647 39.111 73.372 32.933C73.372 32.933 73.087 26.788 77.463 26.822C77.463 26.822 81.22 26.47 81.22 33.103C81.22 33.103 80.985 38.681 77.404 38.697Z" fill="#F2E109"/>
<path d="M4.29901 47.922H4.90601L6.675 52.815H5.985L5.44701 51.126H3.763L3.22701 52.815H2.552L4.29901 47.922ZM4.59201 48.519L3.89001 50.728H5.30801L4.59201 48.519Z" fill="white" stroke="white" stroke-width="0.25" stroke-miterlimit="10" stroke-linecap="round" stroke-linejoin="round"/>
<path d="M6.302 47.922H9.86V48.336H8.37001V52.815H7.76601V48.336H6.30301V47.922H6.302Z" fill="white" stroke="white" stroke-width="0.25" stroke-miterlimit="10" stroke-linecap="round" stroke-linejoin="round"/>
<path d="M10.082 47.922H13.639V48.336H12.149V52.815H11.545V48.336H10.082V47.922Z" fill="white" stroke="white" stroke-width="0.25" stroke-miterlimit="10" stroke-linecap="round" stroke-linejoin="round"/>
<path d="M15.956 47.842C16.568 47.842 17.062 48.069 17.441 48.526C17.82 48.983 18.008 49.624 18.008 50.448C18.008 51.19 17.814 51.782 17.422 52.227C17.031 52.67 16.535 52.893 15.933 52.893C15.319 52.893 14.819 52.674 14.435 52.235C14.049 51.797 13.858 51.19 13.858 50.415C13.858 49.624 14.044 48.997 14.417 48.536C14.788 48.072 15.302 47.842 15.956 47.842ZM15.983 48.277C15.474 48.277 15.099 48.476 14.859 48.875C14.618 49.273 14.498 49.797 14.498 50.439C14.498 51.05 14.623 51.539 14.875 51.902C15.127 52.265 15.475 52.447 15.92 52.447C16.371 52.447 16.724 52.259 16.979 51.886C17.233 51.511 17.361 51.003 17.361 50.359C17.361 49.662 17.227 49.138 16.959 48.795C16.689 48.449 16.364 48.277 15.983 48.277Z" fill="white" stroke="white" stroke-width="0.25" stroke-miterlimit="10" stroke-linecap="round" stroke-linejoin="round"/>
<path d="M18.917 47.922H20.443C20.995 47.922 21.437 48.02 21.772 48.215C22.107 48.41 22.275 48.707 22.275 49.11C22.275 49.411 22.17 49.672 21.959 49.893C21.749 50.114 21.42 50.28 20.977 50.393C21.283 50.454 21.508 50.557 21.657 50.705C21.803 50.853 21.915 51.072 21.991 51.359L22.363 52.814H21.705L21.454 51.634C21.372 51.261 21.236 50.991 21.043 50.823C20.852 50.657 20.574 50.575 20.21 50.575H19.523V52.811H18.919L18.917 47.922ZM19.521 48.349V50.181H20.153C20.601 50.181 20.963 50.089 21.238 49.906C21.513 49.723 21.652 49.474 21.652 49.162C21.652 48.891 21.553 48.685 21.357 48.553C21.16 48.418 20.865 48.352 20.47 48.352H19.521V48.349Z" fill="white" stroke="white" stroke-width="0.25" stroke-miterlimit="10" stroke-linecap="round" stroke-linejoin="round"/>
<path d="M23.772 47.922L25.649 51.18L26.139 52.039C26.107 51.162 26.089 50.707 26.089 50.676V47.922H26.639V52.815H26.022L24.205 49.676C24.154 49.588 24.057 49.397 23.914 49.11L23.697 48.676C23.688 48.776 23.682 48.832 23.682 48.848L23.704 49.227L23.709 49.772L23.696 49.981V52.815H23.145V47.922H23.772Z" fill="white" stroke="white" stroke-width="0.25" stroke-miterlimit="10" stroke-linecap="round" stroke-linejoin="round"/>
<path d="M27.808 47.922H30.887V48.336H28.425V50.059H30.751V50.465H28.425V52.408H30.887V52.814H27.808V47.922Z" fill="white" stroke="white" stroke-width="0.25" stroke-miterlimit="10" stroke-linecap="round" stroke-linejoin="round"/>
<path d="M31.328 47.922H32.045L33.206 50.084L34.32 47.922H35.029L33.503 50.572V52.814H32.885V50.572L31.328 47.922Z" fill="white" stroke="white" stroke-width="0.25" stroke-miterlimit="10" stroke-linecap="round" stroke-linejoin="round"/>
<path d="M35.184 51.875C35.509 52.078 35.772 52.219 35.973 52.295C36.174 52.371 36.379 52.408 36.588 52.408C36.918 52.408 37.212 52.316 37.471 52.135C37.731 51.953 37.861 51.715 37.861 51.422C37.861 51.203 37.776 51.02 37.606 50.871C37.433 50.726 37.106 50.584 36.621 50.443C35.661 50.164 35.181 49.736 35.181 49.168C35.181 48.801 35.351 48.486 35.693 48.229C36.033 47.971 36.442 47.84 36.917 47.84C37.308 47.84 37.71 47.953 38.126 48.178V48.813C37.862 48.624 37.646 48.493 37.474 48.422C37.304 48.354 37.122 48.318 36.931 48.318C36.615 48.318 36.349 48.4 36.139 48.57C35.929 48.738 35.825 48.933 35.825 49.156C35.825 49.381 35.919 49.558 36.108 49.687C36.297 49.818 36.64 49.96 37.136 50.119C37.437 50.211 37.677 50.307 37.862 50.402C38.046 50.498 38.198 50.632 38.32 50.808C38.443 50.982 38.505 51.183 38.505 51.408C38.505 51.826 38.317 52.179 37.942 52.465C37.567 52.75 37.122 52.893 36.607 52.893C36.159 52.893 35.685 52.758 35.189 52.491V51.876H35.184V51.875Z" fill="white" stroke="white" stroke-width="0.25" stroke-miterlimit="10" stroke-linecap="round" stroke-linejoin="round"/>
<path d="M42.64 47.922H43.247L45.016 52.815H44.327L43.788 51.126H42.106L41.569 52.815H40.895L42.64 47.922ZM42.932 48.519L42.231 50.728H43.649L42.932 48.519Z" fill="white" stroke="white" stroke-width="0.25" stroke-miterlimit="10" stroke-linecap="round" stroke-linejoin="round"/>
<path d="M45.26 51.875C45.585 52.078 45.847 52.219 46.048 52.295C46.25 52.371 46.455 52.408 46.665 52.408C46.994 52.408 47.29 52.316 47.548 52.135C47.806 51.954 47.937 51.715 47.937 51.422C47.937 51.203 47.853 51.02 47.682 50.871C47.51 50.726 47.18 50.584 46.697 50.443C45.738 50.164 45.257 49.736 45.257 49.168C45.257 48.801 45.428 48.486 45.77 48.229C46.11 47.971 46.518 47.84 46.994 47.84C47.385 47.84 47.787 47.953 48.203 48.178V48.813C47.939 48.624 47.722 48.493 47.551 48.422C47.379 48.354 47.198 48.318 47.008 48.318C46.691 48.318 46.425 48.4 46.216 48.57C46.005 48.738 45.901 48.933 45.901 49.156C45.901 49.381 45.996 49.558 46.184 49.687C46.374 49.818 46.716 49.96 47.213 50.119C47.513 50.211 47.754 50.307 47.939 50.402C48.121 50.498 48.274 50.632 48.397 50.808C48.519 50.982 48.581 51.183 48.581 51.408C48.581 51.826 48.393 52.179 48.017 52.465C47.642 52.75 47.198 52.893 46.682 52.893C46.235 52.893 45.762 52.758 45.265 52.491V51.876H45.26V51.875Z" fill="white" stroke="white" stroke-width="0.25" stroke-miterlimit="10" stroke-linecap="round" stroke-linejoin="round"/>
<path d="M49.135 51.875C49.459 52.078 49.721 52.219 49.923 52.295C50.124 52.371 50.329 52.408 50.539 52.408C50.869 52.408 51.164 52.316 51.422 52.135C51.681 51.953 51.811 51.715 51.811 51.422C51.811 51.203 51.725 51.02 51.556 50.871C51.384 50.726 51.055 50.584 50.572 50.443C49.612 50.164 49.132 49.736 49.132 49.168C49.132 48.801 49.302 48.486 49.643 48.229C49.984 47.972 50.392 47.84 50.869 47.84C51.259 47.84 51.662 47.953 52.077 48.178V48.813C51.813 48.624 51.597 48.493 51.425 48.422C51.254 48.354 51.072 48.318 50.882 48.318C50.566 48.318 50.3 48.4 50.089 48.57C49.879 48.738 49.775 48.933 49.775 49.156C49.775 49.381 49.87 49.558 50.059 49.687C50.248 49.818 50.591 49.96 51.087 50.119C51.387 50.211 51.629 50.307 51.813 50.402C51.997 50.497 52.149 50.632 52.272 50.808C52.394 50.982 52.456 51.183 52.456 51.408C52.456 51.826 52.268 52.179 51.893 52.465C51.517 52.75 51.073 52.893 50.558 52.893C50.11 52.893 49.637 52.758 49.141 52.491V51.876H49.135V51.875Z" fill="white" stroke="white" stroke-width="0.25" stroke-miterlimit="10" stroke-linecap="round" stroke-linejoin="round"/>
<path d="M55.136 47.842C55.748 47.842 56.243 48.069 56.621 48.526C57 48.983 57.19 49.624 57.19 50.448C57.19 51.19 56.994 51.782 56.604 52.227C56.212 52.67 55.715 52.893 55.114 52.893C54.499 52.893 53.999 52.674 53.615 52.235C53.23 51.797 53.038 51.19 53.038 50.415C53.038 49.624 53.224 48.997 53.597 48.536C53.968 48.072 54.482 47.842 55.136 47.842ZM55.164 48.277C54.655 48.277 54.28 48.476 54.039 48.875C53.798 49.274 53.678 49.797 53.678 50.439C53.678 51.05 53.803 51.539 54.055 51.902C54.307 52.265 54.656 52.447 55.1 52.447C55.551 52.447 55.905 52.259 56.159 51.886C56.414 51.511 56.541 51.003 56.541 50.359C56.541 49.662 56.407 49.138 56.139 48.795C55.87 48.449 55.546 48.277 55.164 48.277Z" fill="white" stroke="white" stroke-width="0.25" stroke-miterlimit="10" stroke-linecap="round" stroke-linejoin="round"/>
<path d="M61.065 52.592C60.636 52.793 60.239 52.893 59.871 52.893C59.433 52.893 59.054 52.78 58.73 52.555C58.406 52.332 58.168 52.022 58.022 51.627C57.873 51.231 57.798 50.809 57.798 50.356C57.798 49.612 57.989 49.006 58.37 48.542C58.752 48.073 59.27 47.843 59.924 47.843C60.299 47.843 60.68 47.943 61.065 48.14V48.708C60.663 48.421 60.291 48.276 59.949 48.276C59.486 48.276 59.119 48.465 58.845 48.84C58.574 49.217 58.438 49.75 58.438 50.444C58.438 51.024 58.569 51.506 58.831 51.885C59.093 52.266 59.452 52.457 59.908 52.457C60.259 52.457 60.644 52.311 61.065 52.014V52.592Z" fill="white" stroke="white" stroke-width="0.25" stroke-miterlimit="10" stroke-linecap="round" stroke-linejoin="round"/>
<path d="M61.868 47.922H62.486V52.815H61.868V47.922Z" fill="white" stroke="white" stroke-width="0.25" stroke-miterlimit="10" stroke-linecap="round" stroke-linejoin="round"/>
<path d="M64.826 47.922H65.432L67.202 52.815H66.511L65.973 51.126H64.29L63.753 52.815H63.079L64.826 47.922ZM65.118 48.519L64.416 50.728H65.835L65.118 48.519Z" fill="white" stroke="white" stroke-width="0.25" stroke-miterlimit="10" stroke-linecap="round" stroke-linejoin="round"/>
<path d="M66.829 47.922H70.386V48.336H68.896V52.815H68.292V48.336H66.83V47.922H66.829Z" fill="white" stroke="white" stroke-width="0.25" stroke-miterlimit="10" stroke-linecap="round" stroke-linejoin="round"/>
<path d="M71.104 47.922H71.721V52.815H71.104V47.922Z" fill="white" stroke="white" stroke-width="0.25" stroke-miterlimit="10" stroke-linecap="round" stroke-linejoin="round"/>
<path d="M74.738 47.842C75.349 47.842 75.844 48.069 76.222 48.526C76.602 48.983 76.791 49.624 76.791 50.448C76.791 51.19 76.596 51.782 76.205 52.227C75.813 52.67 75.318 52.893 74.715 52.893C74.1 52.893 73.6 52.674 73.216 52.235C72.832 51.797 72.639 51.19 72.639 50.415C72.639 49.624 72.826 48.997 73.2 48.536C73.57 48.072 74.084 47.842 74.738 47.842ZM74.764 48.277C74.256 48.277 73.881 48.476 73.64 48.875C73.401 49.273 73.28 49.797 73.28 50.439C73.28 51.05 73.406 51.539 73.657 51.902C73.908 52.265 74.257 52.447 74.702 52.447C75.153 52.447 75.507 52.259 75.76 51.886C76.014 51.511 76.143 51.003 76.143 50.359C76.143 49.662 76.008 49.138 75.741 48.795C75.472 48.449 75.147 48.277 74.764 48.277Z" fill="white" stroke="white" stroke-width="0.25" stroke-miterlimit="10" stroke-linecap="round" stroke-linejoin="round"/>
<path d="M78.289 47.922L80.166 51.18L80.656 52.039C80.623 51.162 80.607 50.707 80.607 50.676V47.922H81.157V52.815H80.539L78.722 49.676C78.671 49.588 78.576 49.397 78.431 49.11L78.213 48.676C78.204 48.776 78.2 48.832 78.2 48.848L78.221 49.227L78.227 49.772L78.212 49.981V52.815H77.662V47.922H78.289Z" fill="white" stroke="white" stroke-width="0.25" stroke-miterlimit="10" stroke-linecap="round" stroke-linejoin="round"/>
<path d="M8.42804 6.59H11.364C11.364 6.59 14.652 7.334 14.652 12.186C14.652 12.186 14.73 17.745 10.855 18.332H8.38904L8.42804 6.59Z" fill="#F2E109"/>
<path d="M19.859 3.75299H33.234V8.681H30.061V7.048C30.061 7.048 30.031 6.64798 29.445 6.64798H26.179V10.777H31.287V13.547H26.179V17.861H29.598C29.598 17.861 30.031 17.832 30.061 17.34V15.799H33.294V20.76H20.263V18.355H21.325C21.325 18.355 21.803 18.417 21.803 17.677V6.40198C21.803 6.40198 21.834 5.96998 21.218 5.94098H19.863L19.859 3.75299Z" fill="white"/>
<path d="M2.88103 24.34H15.732V29.235H12.466V27.604C12.466 27.604 12.406 27.217 11.962 27.217H8.96503V31.164H14.158V34.279H8.90602V38.937H13.209V41.283H2.58502V38.879H4.24702C4.24702 38.879 4.69202 38.879 4.66302 38.227V27.129C4.66302 27.129 4.72302 26.652 4.27702 26.625H2.88103V24.34Z" fill="white"/>
<path d="M45.613 27.982V30.242H49.122V25.781C49.122 25.781 46.506 24.234 42.728 24.353C42.728 24.353 38.682 24.207 36.214 27.001C36.214 27.001 34.37 28.755 34.162 32.771C34.162 32.771 33.805 37.884 37.641 40.234C37.641 40.234 39.663 41.484 43.291 41.365C43.291 41.365 46.622 41.426 49.031 40.027V35.211H46.028V36.549C46.028 36.549 45.968 38.422 43.321 38.57C43.321 38.57 38.681 38.838 39.069 32.384C39.069 32.384 39.247 27.001 43.232 27.001C43.233 27.002 44.899 26.971 45.613 27.982Z" fill="white"/>
<path d="M51.234 24.265H66.995V29.232H63.784V27.595C63.784 27.595 63.723 27.179 63.159 27.208H61.285V38.868H64.259V41.306H53.969V38.898H56.944V27.24H55.04C55.04 27.24 54.504 27.15 54.475 27.685V29.232H51.264L51.234 24.265Z" fill="white"/>
</svg>
