<svg width="128" height="33" viewBox="0 0 128 33" fill="none" xmlns="http://www.w3.org/2000/svg">
<path d="M41.6217 30.9086C42.8683 32.1552 44.4965 32.7912 46.5317 32.7912C47.8801 32.7912 48.9995 32.435 49.8644 31.7227C50.7294 31.0104 51.1619 30.0945 51.1619 29.0006C51.1873 26.5583 48.7196 25.5661 46.8625 24.981C45.565 24.4976 44.5219 23.8871 44.5219 22.9712C44.5219 21.9282 45.3869 21.3685 46.7098 21.3685C47.9055 21.3685 49.2284 21.801 49.9662 22.5133L50.9584 20.7325C49.9153 19.7912 48.5161 19.3078 46.7861 19.3078C44.1403 19.3078 42.156 20.6816 42.156 23.0221C42.156 25.5153 44.5728 26.3802 46.43 27.0671C47.7274 27.5505 48.7705 28.1611 48.7705 29.0515C48.7705 30.0945 47.9055 30.7305 46.5826 30.7305C45.0816 30.7305 43.835 30.2217 42.792 29.2296L41.6217 30.9086Z" fill="white"/>
<path d="M54.6285 27.7795C54.6285 30.3489 55.8242 31.5955 57.1217 32.1552C58.063 32.5368 58.7753 32.6131 59.564 32.6131C59.7421 32.6131 60.0219 32.5877 60.429 32.5368V30.3489C59.8947 30.4507 59.2078 30.4507 58.47 30.12C57.7577 29.7892 57.0963 29.026 57.0963 27.4996V21.7501H60.2V19.7403H57.0963V16.0769H54.6794V19.7403H52.9495V21.7501H54.6285V27.7795Z" fill="white"/>
<path d="M65.4314 32.4859V27.1434C65.4314 25.7442 65.7621 24.5231 66.4236 23.48C67.1104 22.437 68.0772 21.9027 69.3746 21.9027C69.7054 21.9027 69.9598 21.9282 70.087 21.9536V19.5113C69.8071 19.4859 69.6036 19.4604 69.4255 19.4604C67.5175 19.4604 65.9656 20.9105 65.3296 22.8695H65.2787L65.3551 21.9282V19.6131H62.9637V32.4859H65.4314Z" fill="white"/>
<path d="M71.2916 26.0241C71.2916 27.9575 71.9531 29.5603 73.3014 30.8577C74.6497 32.1552 76.3034 32.7912 78.2369 32.7912C80.1703 32.7912 81.7985 32.1552 83.1469 30.8577C84.4952 29.5603 85.1566 27.9575 85.1566 26.0241C85.1566 24.0906 84.4952 22.4878 83.1469 21.2158C81.7985 19.9438 80.1703 19.3078 78.2114 19.3078C76.2779 19.3078 74.6497 19.9438 73.3014 21.2413C71.9531 22.5133 71.2916 24.116 71.2916 26.0241ZM73.8102 26.0241C73.8102 24.7012 74.2427 23.6072 75.0822 22.7422C75.9472 21.8773 76.9903 21.4448 78.2369 21.4448C79.458 21.4448 80.501 21.8773 81.366 22.7422C82.231 23.6072 82.6635 24.7012 82.6635 26.0241C82.6635 27.347 82.231 28.4409 81.366 29.3313C80.501 30.2217 79.458 30.6542 78.2369 30.6542C76.9903 30.6542 75.9472 30.2217 75.0822 29.3568C74.2427 28.4663 73.8102 27.3724 73.8102 26.0241Z" fill="white"/>
<path d="M90.5985 32.4859V26.482C90.5985 25.1845 90.9547 24.0397 91.667 23.0475C92.3793 22.0554 93.3206 21.5465 94.4654 21.5465C96.2208 21.5465 96.6788 22.7422 96.6788 24.7775V32.4859H99.1465V26.482C99.1465 25.1845 99.5027 24.0397 100.19 23.0475C100.902 22.0554 101.818 21.5465 102.963 21.5465C104.718 21.5465 105.227 22.7168 105.227 24.7775V32.4859H107.694V24.2432C107.694 20.9105 106.372 19.3078 103.446 19.3078C102.454 19.3078 101.512 19.5876 100.673 20.1728C99.8334 20.7579 99.2482 21.4448 98.8666 22.2334H98.8158C98.3833 20.2745 97.0858 19.3078 94.9743 19.3078C94.0075 19.3078 93.0917 19.6131 92.2521 20.2236C91.4126 20.8342 90.8275 21.5465 90.4967 22.3352H90.4459L90.5222 21.3685V19.6131H88.1308V32.4859H90.5985Z" fill="white"/>
<path d="M112.632 17.0182C113.32 17.0182 113.878 16.46 113.878 15.7716C113.878 15.0831 113.32 14.525 112.632 14.525H112.581C111.892 14.525 111.334 15.0831 111.334 15.7716C111.334 16.46 111.892 17.0182 112.581 17.0182H112.632ZM113.853 32.4859V19.6131H111.385V32.4859H113.853Z" fill="white"/>
<path d="M118.969 32.4859L121.665 28.1865L122.047 27.4996H122.098L122.505 28.1865L125.201 32.4859H128L123.599 25.8714L127.745 19.6131H124.922L122.53 23.5309C122.403 23.7599 122.276 24.0143 122.098 24.2941H122.047L121.64 23.5309L119.248 19.6131H116.425L120.571 25.8714L116.17 32.4859H118.969Z" fill="white"/>
<path d="M27.461 32.4859L32.6762 14.1018L37.8407 32.4859H40.4356L33.9991 11.0558H31.3279L24.8915 32.4859H27.461Z" fill="white"/>
<path d="M45.5613 3.72562C46.2677 4.9735 46.392 6.51616 45.9494 8.28213C45.506 10.0515 44.4992 12.015 42.9908 14.0517C39.9747 18.1239 35.0103 22.4116 28.804 25.9247C22.5977 29.4378 16.3665 31.4876 11.3227 31.9777C8.80008 32.2228 6.59853 32.0755 4.85323 31.545C3.11133 31.0156 1.85262 30.1151 1.14625 28.8672C0.43987 27.6193 0.315602 26.0766 0.758168 24.3107C1.2016 22.5413 2.20833 20.5778 3.71678 18.5411C6.73287 14.4689 11.6973 10.1812 17.9036 6.66812C24.1099 3.15499 30.3411 1.10521 35.3849 0.615103C37.9075 0.369985 40.109 0.517333 41.8543 1.0478C43.5962 1.57723 44.8549 2.47773 45.5613 3.72562Z" stroke="white"/>
</svg>
