<svg width="815" height="862" viewBox="0 0 815 862" fill="none" xmlns="http://www.w3.org/2000/svg">
<path fill-rule="evenodd" clip-rule="evenodd" d="M54.5063 62.643H346.911L522.447 5.19287L704.965 62.643H815V570.269L757.898 608.751V608.852L536.413 758.014L436.051 825.651L436.017 825.628L385.864 859.404L0 604.43V117.664H54.5063V62.643ZM54.5063 148.821H31.1465V587.671L385.7 821.954L408.046 806.906L54.5063 570.269V148.821ZM435.963 788.104L85.6528 553.628V148.821H190.085L363.736 92.4717L537.386 148.821H726.752V592.174L519.13 732.095L435.963 788.104ZM757.898 571.183L783.854 553.691V93.7996H700.181L522.447 37.8555L409.951 74.7133L542.312 117.664H757.898V571.183ZM258.703 93.7996L185.159 117.664H85.6528V93.7996H258.703Z" fill="#F6F7FA"/>
<path fill-rule="evenodd" clip-rule="evenodd" d="M334.825 332.337L334.823 332.335L334.821 332.337L334.664 332.18L223.217 223.289L269.936 223.289L334.825 286.289L399.713 223.289H446.429L334.982 332.18L334.825 332.337ZM334.825 415.422L290.701 415.422L312.839 393.127L145.35 223.289L186.879 223.289L334.676 371.134L463.965 240.93L446.433 223.289H623.15L667.054 267.466V369.781L623.315 415.422H567.71L537.277 384.799V386.861V493.313L568.424 524.47H506.131V284.387L532.674 254.446H494.45L356.798 393.263L378.949 415.422H334.825ZM610.159 384.265H537.277V254.446H610.324L635.908 280.41V357.245L610.159 384.265ZM160.924 524.47H192.07H223.217V332.337L192.07 301.181V493.313L160.924 524.47ZM249.172 524.47V358.301L280.318 389.458V456.964V493.313L311.465 524.47H249.172ZM363.376 524.47H394.522H425.669V358.301L396.865 387.115C395.365 388.615 394.522 390.649 394.522 392.771V493.313L363.376 524.47ZM454.966 527.952C452.822 525.718 451.624 522.74 451.624 519.643V337.307C451.624 334.125 452.888 331.073 455.138 328.823L482.771 301.181V493.313V556.925L454.966 527.952ZM594.379 277.813H565.828L578.559 288.729C582.01 291.688 583.997 296.009 583.997 300.556V338.154C583.997 342.702 582.01 347.023 578.559 349.982L565.828 360.897H594.379L609.952 345.319V293.391L594.379 277.813Z" fill="#F6F7FA"/>
</svg>
