<svg width="15" height="16" viewBox="0 0 15 16" fill="none" xmlns="http://www.w3.org/2000/svg">
<g opacity="0.45">
<path d="M4.76471 14.6178C7.12004 14.6178 9.02941 12.7084 9.02941 10.3531C9.02941 7.99775 7.12004 6.08838 4.76471 6.08838C2.40937 6.08838 0.5 7.99775 0.5 10.3531C0.5 12.7084 2.40937 14.6178 4.76471 14.6178Z" stroke="#2F056E"/>
<path d="M14.0594 1.76566C14.2547 1.5704 14.2547 1.25382 14.0594 1.05856C13.8642 0.863294 13.5476 0.863294 13.3523 1.05856L14.0594 1.76566ZM8.41239 7.41272L14.0594 1.76566L13.3523 1.05856L7.70528 6.70562L8.41239 7.41272Z" fill="#2F056E"/>
<path d="M9.47058 0.912109C9.19444 0.912109 8.97058 1.13597 8.97058 1.41211C8.97058 1.68825 9.19444 1.91211 9.47058 1.91211V0.912109ZM13.7059 1.91211C13.982 1.91211 14.2059 1.68825 14.2059 1.41211C14.2059 1.13597 13.982 0.912109 13.7059 0.912109V1.91211ZM9.47058 1.91211H13.7059V0.912109H9.47058V1.91211Z" fill="#2F056E"/>
<path d="M13.2059 5.6474C13.2059 5.92355 13.4297 6.1474 13.7059 6.1474C13.982 6.1474 14.2059 5.92355 14.2059 5.6474H13.2059ZM14.2059 1.41211C14.2059 1.13597 13.982 0.912109 13.7059 0.912109C13.4297 0.912109 13.2059 1.13597 13.2059 1.41211H14.2059ZM14.2059 5.6474V1.41211H13.2059V5.6474H14.2059Z" fill="#2F056E"/>
</g>
</svg>
