<svg width="16" height="17" viewBox="0 0 16 17" fill="none" xmlns="http://www.w3.org/2000/svg">
<path d="M5.76471 15.1178C8.39618 15.1178 10.5294 12.9846 10.5294 10.3531C10.5294 7.72161 8.39618 5.58838 5.76471 5.58838C3.13323 5.58838 1 7.72161 1 10.3531C1 12.9846 3.13323 15.1178 5.76471 15.1178Z" stroke="#5F3CF7" stroke-width="2"/>
<path d="M15.4128 2.11922C15.8033 1.72869 15.8033 1.09553 15.4128 0.705003C15.0222 0.314478 14.3891 0.314478 13.9985 0.705003L15.4128 2.11922ZM9.7657 7.76627L15.4128 2.11922L13.9985 0.705003L8.35149 6.35206L9.7657 7.76627Z" fill="#5F3CF7"/>
<path d="M10.4707 0.412109C9.91842 0.412109 9.4707 0.859825 9.4707 1.41211C9.4707 1.96439 9.91842 2.41211 10.4707 2.41211V0.412109ZM14.706 2.41211C15.2583 2.41211 15.706 1.96439 15.706 1.41211C15.706 0.859825 15.2583 0.412109 14.706 0.412109V2.41211ZM10.4707 2.41211H14.706V0.412109H10.4707V2.41211Z" fill="#5F3CF7"/>
<path d="M13.7061 5.6474C13.7061 6.19969 14.1538 6.6474 14.7061 6.6474C15.2583 6.6474 15.7061 6.19969 15.7061 5.6474H13.7061ZM15.7061 1.41211C15.7061 0.859825 15.2583 0.412109 14.7061 0.412109C14.1538 0.412109 13.7061 0.859825 13.7061 1.41211H15.7061ZM15.7061 5.6474V1.41211H13.7061V5.6474H15.7061Z" fill="#5F3CF7"/>
</svg>
