<svg width="64" height="64" viewBox="0 0 64 64" fill="none" xmlns="http://www.w3.org/2000/svg">
<path fill-rule="evenodd" clip-rule="evenodd" d="M47 63H17C15.3431 63 14 61.6569 14 60V4C14 2.34315 15.3431 1 17 1H47C48.6569 1 50 2.34315 50 4V60C50 61.6569 48.6569 63 47 63ZM17 64C14.7909 64 13 62.2091 13 60V4C13 1.79086 14.7909 0 17 0H47C49.2091 0 51 1.79086 51 4V60C51 62.2091 49.2091 64 47 64H17Z" fill="#282A36"/>
<path fill-rule="evenodd" clip-rule="evenodd" d="M36.7439 4H27.1585C26.3713 4 25.679 3.47921 25.4608 2.72284C25.2652 2.04464 24.8908 1.45528 24.3977 1H40.0699C39.56 1.42451 39.145 1.96883 38.8707 2.60289C38.5037 3.45099 37.668 4 36.7439 4ZM17 0V1H21.8415C23.0743 1 24.1583 1.81555 24.5 3C24.8417 4.18445 25.9257 5 27.1585 5H36.7439C38.0667 5 39.2631 4.21407 39.7885 3C40.3138 1.78593 41.5102 1 42.833 1H47V0H17Z" fill="#282A36"/>
</svg>
