<svg width="104" height="104" viewBox="0 0 104 104" fill="none" xmlns="http://www.w3.org/2000/svg">
<path d="M73 48H80C86.6274 48 92 53.3726 92 60V70C92 76.6274 86.6274 82 80 82H79C75.6863 82 73 79.3137 73 76V48Z" fill="white"/>
<path fill-rule="evenodd" clip-rule="evenodd" d="M80 49H74V76C74 78.7614 76.2386 81 79 81H80C86.0751 81 91 76.0751 91 70V60C91 53.9249 86.0751 49 80 49ZM73 48V76C73 79.3137 75.6863 82 79 82H80C86.6274 82 92 76.6274 92 70V60C92 53.3726 86.6274 48 80 48H73Z" fill="#282A36"/>
<path fill-rule="evenodd" clip-rule="evenodd" d="M43 27C37.4772 27 33 31.4772 33 37V62.5H29V37C29 29.268 35.268 23 43 23H60C67.732 23 74 29.268 74 37V86.3L64.7619 96H52.0952C50.9907 96 50.0952 95.1046 50.0952 94C50.0952 92.8954 50.9907 92 52.0952 92H63.0476L70 84.7V37C70 31.4772 65.5228 27 60 27H43Z" fill="white"/>
<path fill-rule="evenodd" clip-rule="evenodd" d="M63.0476 92H52.0952C50.9907 92 50.0952 92.8954 50.0952 94C50.0952 95.1046 50.9907 96 52.0952 96H64.7619L74 86.3V37C74 29.268 67.732 23 60 23H43C35.268 23 29 29.268 29 37V62.5H33V37C33 31.4772 37.4772 27 43 27H60C65.5228 27 70 31.4772 70 37V84.7L63.0476 92ZM32 61.5V37C32 30.9249 36.9249 26 43 26H60C66.0751 26 71 30.9249 71 37V85.1L63.4762 93H52.0952C51.543 93 51.0952 93.4477 51.0952 94C51.0952 94.5523 51.543 95 52.0952 95H64.3333L73 85.9V37C73 29.8203 67.1797 24 60 24H43C35.8203 24 30 29.8203 30 37V61.5H32Z" fill="#282A36"/>
<path d="M30 48H24C17.3726 48 12 53.3726 12 60V70C12 76.6274 17.3726 82 24 82C27.3137 82 30 79.3137 30 76V48Z" fill="white"/>
<path fill-rule="evenodd" clip-rule="evenodd" d="M24 49H29V76C29 78.7614 26.7614 81 24 81C17.9249 81 13 76.0751 13 70V60C13 53.9249 17.9249 49 24 49ZM30 48V76C30 79.3137 27.3137 82 24 82C17.3726 82 12 76.6274 12 70V60C12 53.3726 17.3726 48 24 48H30Z" fill="#282A36"/>
<path d="M96 27C96 40.2548 85.2548 51 72 51C58.7452 51 48 40.2548 48 27C48 13.7452 58.7452 3 72 3C85.2548 3 96 13.7452 96 27Z" fill="white"/>
<path fill-rule="evenodd" clip-rule="evenodd" d="M72 50C84.7025 50 95 39.7025 95 27C95 14.2975 84.7025 4 72 4C59.2975 4 49 14.2975 49 27C49 39.7025 59.2975 50 72 50ZM72 51C85.2548 51 96 40.2548 96 27C96 13.7452 85.2548 3 72 3C58.7452 3 48 13.7452 48 27C48 40.2548 58.7452 51 72 51Z" fill="#282A36"/>
<path d="M91 27C91 37.4934 82.4934 46 72 46C61.5066 46 53 37.4934 53 27C53 16.5066 61.5066 8 72 8C82.4934 8 91 16.5066 91 27Z" fill="#F2E109"/>
<path fill-rule="evenodd" clip-rule="evenodd" d="M87.5 27C87.5 18.4396 80.5604 11.5 72 11.5V10.5C81.1127 10.5 88.5 17.8873 88.5 27C88.5 36.1127 81.1127 43.5 72 43.5C62.8873 43.5 55.5 36.1127 55.5 27H56.5C56.5 35.5604 63.4396 42.5 72 42.5C80.5604 42.5 87.5 35.5604 87.5 27Z" fill="#282A36"/>
<path d="M61.374 19.7851C61.374 19.5211 61.418 19.2864 61.506 19.0811C61.6013 18.8757 61.726 18.6997 61.88 18.5531C62.034 18.4064 62.21 18.2964 62.408 18.2231C62.6133 18.1424 62.826 18.1021 63.046 18.1021C63.266 18.1021 63.475 18.1424 63.673 18.2231C63.8783 18.2964 64.058 18.4064 64.212 18.5531C64.366 18.6997 64.487 18.8757 64.575 19.0811C64.6703 19.2864 64.718 19.5211 64.718 19.7851V24.3831C64.718 24.6471 64.6703 24.8817 64.575 25.0871C64.487 25.2924 64.366 25.4684 64.212 25.6151C64.058 25.7617 63.8783 25.8754 63.673 25.9561C63.475 26.0294 63.266 26.0661 63.046 26.0661C62.826 26.0661 62.6133 26.0294 62.408 25.9561C62.21 25.8754 62.034 25.7617 61.88 25.6151C61.726 25.4684 61.6013 25.2924 61.506 25.0871C61.418 24.8817 61.374 24.6471 61.374 24.3831V19.7851ZM62.496 24.3831C62.496 24.5444 62.5473 24.6801 62.65 24.7901C62.7527 24.8927 62.8847 24.9441 63.046 24.9441C63.2073 24.9441 63.3393 24.8927 63.442 24.7901C63.5447 24.6801 63.596 24.5444 63.596 24.3831V19.7851C63.596 19.6237 63.5447 19.4917 63.442 19.3891C63.3393 19.2791 63.2073 19.2241 63.046 19.2241C62.8847 19.2241 62.7527 19.2791 62.65 19.3891C62.5473 19.4917 62.496 19.6237 62.496 19.7851V24.3831Z" fill="#282A36"/>
<path d="M67.6888 19.7741C67.6888 19.6201 67.6338 19.4917 67.5238 19.3891C67.4138 19.2791 67.2854 19.2241 67.1388 19.2241C66.9921 19.2241 66.8638 19.2791 66.7538 19.3891C66.6438 19.4917 66.5888 19.6201 66.5888 19.7741V20.9181C66.5888 21.0721 66.6438 21.2041 66.7538 21.3141C66.8638 21.4167 66.9921 21.4681 67.1388 21.4681C67.2854 21.4681 67.4138 21.4167 67.5238 21.3141C67.6338 21.2041 67.6888 21.0721 67.6888 20.9181V19.7741ZM65.4668 20.2141C65.4668 20.0014 65.4741 19.8217 65.4888 19.6751C65.5034 19.5211 65.5291 19.3891 65.5658 19.2791C65.6024 19.1691 65.6428 19.0701 65.6868 18.9821C65.7381 18.8941 65.8004 18.8024 65.8738 18.7071C66.0204 18.5164 66.2038 18.3697 66.4238 18.2671C66.6438 18.1571 66.8821 18.1021 67.1388 18.1021C67.3954 18.1021 67.6338 18.1571 67.8538 18.2671C68.0738 18.3697 68.2571 18.5164 68.4038 18.7071C68.4771 18.8024 68.5394 18.8941 68.5908 18.9821C68.6421 19.0701 68.6861 19.1691 68.7228 19.2791C68.7594 19.3891 68.7814 19.5211 68.7888 19.6751C68.8034 19.8217 68.8108 20.0014 68.8108 20.2141C68.8108 20.4487 68.8071 20.6467 68.7998 20.8081C68.7924 20.9694 68.7704 21.1124 68.7338 21.2371C68.6971 21.3617 68.6384 21.4754 68.5578 21.5781C68.4844 21.6734 68.3818 21.7761 68.2498 21.8861C68.3818 21.9887 68.4844 22.0914 68.5578 22.1941C68.6384 22.2967 68.6971 22.4177 68.7338 22.5571C68.7704 22.6964 68.7924 22.8687 68.7998 23.0741C68.8071 23.2721 68.8108 23.5177 68.8108 23.8111C68.8108 24.0531 68.8034 24.2547 68.7888 24.4161C68.7814 24.5701 68.7668 24.7057 68.7448 24.8231C68.7228 24.9404 68.6898 25.0394 68.6458 25.1201C68.6091 25.2007 68.5614 25.2851 68.5028 25.3731C68.3781 25.5637 68.2021 25.7287 67.9748 25.8681C67.7474 26.0001 67.4688 26.0661 67.1388 26.0661C66.8088 26.0661 66.5301 26.0001 66.3028 25.8681C66.0754 25.7287 65.8994 25.5637 65.7748 25.3731C65.7161 25.2851 65.6648 25.2007 65.6208 25.1201C65.5841 25.0394 65.5548 24.9404 65.5328 24.8231C65.5108 24.7057 65.4924 24.5701 65.4778 24.4161C65.4704 24.2547 65.4668 24.0531 65.4668 23.8111C65.4668 23.5177 65.4704 23.2721 65.4778 23.0741C65.4851 22.8687 65.5071 22.6964 65.5438 22.5571C65.5804 22.4177 65.6354 22.2967 65.7088 22.1941C65.7894 22.0914 65.8958 21.9887 66.0278 21.8861C65.8958 21.7761 65.7894 21.6734 65.7088 21.5781C65.6354 21.4754 65.5804 21.3617 65.5438 21.2371C65.5071 21.1124 65.4851 20.9694 65.4778 20.8081C65.4704 20.6467 65.4668 20.4487 65.4668 20.2141ZM67.6888 22.8541C67.6888 22.7001 67.6338 22.5717 67.5238 22.4691C67.4138 22.3591 67.2854 22.3041 67.1388 22.3041C66.9921 22.3041 66.8638 22.3591 66.7538 22.4691C66.6438 22.5717 66.5888 22.7001 66.5888 22.8541V24.3941C66.5888 24.5481 66.6438 24.6801 66.7538 24.7901C66.8638 24.8927 66.9921 24.9441 67.1388 24.9441C67.2854 24.9441 67.4138 24.8927 67.5238 24.7901C67.6338 24.6801 67.6888 24.5481 67.6888 24.3941V22.8541Z" fill="#282A36"/>
<path d="M69.6695 23.5141V22.3921H72.9805V23.5141H69.6695Z" fill="#282A36"/>
<path d="M73.8349 26.0001V24.9441L75.8589 21.1271C75.9616 20.9364 76.0203 20.7714 76.0349 20.6321C76.0496 20.4854 76.0569 20.3057 76.0569 20.0931C76.0569 19.9977 76.0533 19.8987 76.0459 19.7961C76.0459 19.6861 76.0276 19.5907 75.9909 19.5101C75.9543 19.4294 75.8993 19.3634 75.8259 19.3121C75.7526 19.2534 75.6463 19.2241 75.5069 19.2241C75.3383 19.2241 75.2026 19.2717 75.0999 19.3671C75.0046 19.4624 74.9569 19.6017 74.9569 19.7851V20.4231H73.8349V19.8071C73.8349 19.5724 73.8789 19.3524 73.9669 19.1471C74.0549 18.9417 74.1759 18.7621 74.3299 18.6081C74.4766 18.4541 74.6526 18.3331 74.8579 18.2451C75.0633 18.1497 75.2833 18.1021 75.5179 18.1021C75.8113 18.1021 76.0606 18.1571 76.2659 18.2671C76.4786 18.3697 76.6546 18.5127 76.7939 18.6961C76.9259 18.8794 77.0213 19.0884 77.0799 19.3231C77.1459 19.5577 77.1789 19.8071 77.1789 20.0711C77.1789 20.2617 77.1753 20.4231 77.1679 20.5551C77.1606 20.6797 77.1459 20.8007 77.1239 20.9181C77.1019 21.0354 77.0653 21.1527 77.0139 21.2701C76.9626 21.3874 76.8929 21.5304 76.8049 21.6991L75.1549 24.8781H77.1789V26.0001H73.8349Z" fill="#282A36"/>
<path d="M77.9277 19.7851C77.9277 19.5211 77.9717 19.2864 78.0597 19.0811C78.155 18.8757 78.2797 18.6997 78.4337 18.5531C78.5877 18.4064 78.7637 18.2964 78.9617 18.2231C79.167 18.1424 79.3797 18.1021 79.5997 18.1021C79.8197 18.1021 80.0287 18.1424 80.2267 18.2231C80.432 18.2964 80.6117 18.4064 80.7657 18.5531C80.9197 18.6997 81.0407 18.8757 81.1287 19.0811C81.224 19.2864 81.2717 19.5211 81.2717 19.7851V24.3831C81.2717 24.6471 81.224 24.8817 81.1287 25.0871C81.0407 25.2924 80.9197 25.4684 80.7657 25.6151C80.6117 25.7617 80.432 25.8754 80.2267 25.9561C80.0287 26.0294 79.8197 26.0661 79.5997 26.0661C79.3797 26.0661 79.167 26.0294 78.9617 25.9561C78.7637 25.8754 78.5877 25.7617 78.4337 25.6151C78.2797 25.4684 78.155 25.2924 78.0597 25.0871C77.9717 24.8817 77.9277 24.6471 77.9277 24.3831V19.7851ZM79.0497 24.3831C79.0497 24.5444 79.101 24.6801 79.2037 24.7901C79.3064 24.8927 79.4384 24.9441 79.5997 24.9441C79.761 24.9441 79.893 24.8927 79.9957 24.7901C80.0984 24.6801 80.1497 24.5444 80.1497 24.3831V19.7851C80.1497 19.6237 80.0984 19.4917 79.9957 19.3891C79.893 19.2791 79.761 19.2241 79.5997 19.2241C79.4384 19.2241 79.3064 19.2791 79.2037 19.3891C79.101 19.4917 79.0497 19.6237 79.0497 19.7851V24.3831Z" fill="#282A36"/>
<path d="M61.48 35.5238V28.4038H64.73V35.5238H63.71V29.3038H62.5V35.5238H61.48Z" fill="#282A36"/>
<path d="M65.689 35.5238V28.4038H66.709V31.4538H67.969V28.4038H68.989V35.5238H67.969V32.3538H66.709V35.5238H65.689Z" fill="#282A36"/>
<path d="M69.9068 33.2638V32.2438H72.9168V33.2638H69.9068Z" fill="#282A36"/>
<path d="M73.8335 35.5238V28.4038H77.0835V35.5238H76.0635V29.3038H74.8535V35.5238H73.8335Z" fill="#282A36"/>
<path d="M78.7125 35.5238V29.3638H77.5325V28.4038H80.9125V29.3638H79.7325V35.5238H78.7125Z" fill="#282A36"/>
<path fill-rule="evenodd" clip-rule="evenodd" d="M56 26.2928L58.8536 29.1464L58.1465 29.8535L56 27.7071L53.8536 29.8535L53.1465 29.1464L56 26.2928Z" fill="#282A36"/>
</svg>
