<svg width="104" height="104" viewBox="0 0 104 104" fill="none" xmlns="http://www.w3.org/2000/svg">
<path d="M10 87H95V93H10V87Z" fill="white"/>
<path d="M17 75H88V22H17V75Z" fill="white"/>
<path fill-rule="evenodd" clip-rule="evenodd" d="M87 74H18V23H87V74ZM17 75V22H88V75H17Z" fill="#282A36"/>
<path d="M20 72H85V25H20V72Z" fill="white"/>
<path fill-rule="evenodd" clip-rule="evenodd" d="M84 71H21V26H84V71ZM20 72V25H85V72H20Z" fill="#282A36"/>
<path d="M25 55H80V68H25V55Z" fill="#F2E109"/>
<path d="M80 29H58V50H80V29Z" fill="#F2E109"/>
<path d="M17 73H88L96 88H9L17 73Z" fill="white"/>
<path fill-rule="evenodd" clip-rule="evenodd" d="M17.6 74L10.6667 87H94.3333L87.4 74H17.6ZM88 73H17L9 88H96L88 73Z" fill="#282A36"/>
<path fill-rule="evenodd" clip-rule="evenodd" d="M9.5 93.5H95.5V88H94.5V92.5H10.5V88H9.5V93.5Z" fill="#282A36"/>
<path fill-rule="evenodd" clip-rule="evenodd" d="M36.7324 90.5H68.2676L70.416 87.2774L69.584 86.7226L67.7324 89.5H37.2676L35.416 86.7226L34.584 87.2774L36.7324 90.5Z" fill="#282A36"/>
<path d="M62 63H96V8H62V63Z" fill="white"/>
<path fill-rule="evenodd" clip-rule="evenodd" d="M95 62H63V9H95V62ZM62 63V8H96V63H62Z" fill="#282A36"/>
<path fill-rule="evenodd" clip-rule="evenodd" d="M73.5662 12L71.7662 9H86.2338L84.4338 12H73.5662ZM85 13H73L70 8H88L85 13Z" fill="#282A36"/>
<path fill-rule="evenodd" clip-rule="evenodd" d="M24 77H19V76H24V77Z" fill="#282A36"/>
<path fill-rule="evenodd" clip-rule="evenodd" d="M33 77H28V76H33V77Z" fill="#282A36"/>
<path fill-rule="evenodd" clip-rule="evenodd" d="M24 77H19V76H24V77Z" fill="#282A36"/>
<path fill-rule="evenodd" clip-rule="evenodd" d="M81 77H76V76H81V77Z" fill="#282A36"/>
<path fill-rule="evenodd" clip-rule="evenodd" d="M70 77H65V76H70V77Z" fill="#282A36"/>
<path fill-rule="evenodd" clip-rule="evenodd" d="M57 77H52V76H57V77Z" fill="#282A36"/>
<path fill-rule="evenodd" clip-rule="evenodd" d="M50 77H45V76H50V77Z" fill="#282A36"/>
<path fill-rule="evenodd" clip-rule="evenodd" d="M33 82L28 82L28 81L33 81L33 82Z" fill="#282A36"/>
<path fill-rule="evenodd" clip-rule="evenodd" d="M75 79L70 79L70 78L75 78L75 79Z" fill="#282A36"/>
<path fill-rule="evenodd" clip-rule="evenodd" d="M62 79L57 79L57 78L62 78L62 79Z" fill="#282A36"/>
<path fill-rule="evenodd" clip-rule="evenodd" d="M52 79L47 79L47 78L52 78L52 79Z" fill="#282A36"/>
<path fill-rule="evenodd" clip-rule="evenodd" d="M43 79L38 79L38 78L43 78L43 79Z" fill="#282A36"/>
<path fill-rule="evenodd" clip-rule="evenodd" d="M29 79L24 79L24 78L29 78L29 79Z" fill="#282A36"/>
<path fill-rule="evenodd" clip-rule="evenodd" d="M85 81L80 81L80 80L85 80L85 81Z" fill="#282A36"/>
<path fill-rule="evenodd" clip-rule="evenodd" d="M78 81L73 81L73 80L78 80L78 81Z" fill="#282A36"/>
<path fill-rule="evenodd" clip-rule="evenodd" d="M69 83H64V82H69V83Z" fill="#282A36"/>
<path fill-rule="evenodd" clip-rule="evenodd" d="M87 85H82V84H87V85Z" fill="#282A36"/>
<path fill-rule="evenodd" clip-rule="evenodd" d="M53 85H48V84H53V85Z" fill="#282A36"/>
<path fill-rule="evenodd" clip-rule="evenodd" d="M34 85H29V84H34V85Z" fill="#282A36"/>
<path d="M25 29H53V50H25V29Z" fill="#F2E109"/>
<path d="M67 15H91V35H67V15Z" fill="#F2E109"/>
<path d="M67 39H91V58H67V39Z" fill="#F2E109"/>
</svg>
