<svg width="25" height="50" viewBox="0 0 25 50" fill="none" xmlns="http://www.w3.org/2000/svg">
<path fill-rule="evenodd" clip-rule="evenodd" d="M2 36.3448C2 41.4483 2.99508 45.0115 4.98525 47.0345C7.02065 49.0115 9.8702 50 13.5339 50C17.2429 50 20.0698 49.0115 22.0147 47.0345C23.1003 45.931 23.8692 44.5977 24.3215 43.0345C24.7738 41.4713 25 39.3563 25 36.6897H19.1652C19.1652 39.8161 18.6224 41.954 17.5369 43.1035C16.6322 44.1149 15.2979 44.6207 13.5339 44.6207C11.7247 44.6207 10.3451 44.092 9.39528 43.0345C8.35496 41.8851 7.83481 39.7012 7.83481 36.4828C7.83481 34.1288 8.05071 33.7187 8.48253 33H25V30H11.8933L12.5841 29.4483L15.7307 27H25V24H19.9273C21.1837 23.1454 22.7097 21.977 23.236 21.0345C24.1858 19.2874 24.6608 16.5747 24.6608 12.8966C24.6608 8.43678 23.4395 5.08046 20.997 2.82759C19.0069 0.942528 16.4513 0 13.3304 0C9.93805 0 7.26942 0.942528 5.32448 2.82759C3.19862 4.94253 2.13569 8.29885 2.13569 12.8966H7.9705C7.9705 10.1839 8.46804 8.2069 9.46313 6.96552C10.3225 5.86207 11.6342 5.31035 13.3982 5.31035C14.9813 5.31035 16.2252 5.81609 17.1298 6.82759C18.2606 8.11494 18.826 10.069 18.826 12.6897C18.826 15.1264 18.532 16.8506 17.944 17.8621C17.3559 18.8736 14.5 21.0345 14.5 21.0345L10.1114 24H0V27H5.46277C4.55161 27.7108 3.88784 28.4598 3.42478 29.4483C3.33026 29.6404 3.24044 29.823 3.15533 30H0V33H2.1873C2.06243 33.8431 2 34.8945 2 36.3448Z" fill="white"/>
</svg>
