<svg width="107" height="104" viewBox="0 0 107 104" fill="none" xmlns="http://www.w3.org/2000/svg">
<path d="M7 67H39V99H7V67Z" fill="white"/>
<path fill-rule="evenodd" clip-rule="evenodd" d="M38 68H8V98H38V68ZM7 67V99H39V67H7Z" fill="#282A36"/>
<path d="M67 7H99V39H67V7Z" fill="white"/>
<path fill-rule="evenodd" clip-rule="evenodd" d="M98 8H68V38H98V8ZM67 7V39H99V7H67Z" fill="#282A36"/>
<path fill-rule="evenodd" clip-rule="evenodd" d="M106.621 7.1213L82.5 31.2426L73.8787 22.6213L78.1213 18.3787L82.5 22.7573L102.379 2.87866L106.621 7.1213Z" fill="#F2E109"/>
<path d="M37 37H69V69H37V37Z" fill="white"/>
<path fill-rule="evenodd" clip-rule="evenodd" d="M68 38H38V68H68V38ZM37 37V69H69V37H37Z" fill="#282A36"/>
<path fill-rule="evenodd" clip-rule="evenodd" d="M76.6213 37.1213L52.5 61.2426L43.8787 52.6213L48.1213 48.3787L52.5 52.7573L72.3787 32.8787L76.6213 37.1213Z" fill="#F2E109"/>
<path fill-rule="evenodd" clip-rule="evenodd" d="M46.6213 67.1213L22.5 91.2426L13.8787 82.6213L18.1213 78.3787L22.5 82.7573L42.3787 62.8787L46.6213 67.1213Z" fill="#F2E109"/>
</svg>
